<?xml version="1.0" encoding="utf-8" standalone="no"?>
<!DOCTYPE svg PUBLIC "-//W3C//DTD SVG 1.1//EN"
  "http://www.w3.org/Graphics/SVG/1.1/DTD/svg11.dtd">
<svg height="345.6pt" version="1.1" viewBox="0 0 460.8 345.6" width="460.8pt" xmlns="http://www.w3.org/2000/svg" xmlns:xlink="http://www.w3.org/1999/xlink">
 <metadata>
  <rdf:RDF xmlns:cc="http://creativecommons.org/ns#" xmlns:dc="http://purl.org/dc/elements/1.1/" xmlns:rdf="http://www.w3.org/1999/02/22-rdf-syntax-ns#">
   <cc:Work>
    <dc:type rdf:resource="http://purl.org/dc/dcmitype/StillImage"/>
    <dc:date>2022-06-02T16:07:21.705828</dc:date>
    <dc:format>image/svg+xml</dc:format>
    <dc:creator>
     <cc:Agent>
      <dc:title>Matplotlib v3.4.1, https://matplotlib.org/</dc:title>
     </cc:Agent>
    </dc:creator>
   </cc:Work>
  </rdf:RDF>
 </metadata>
 <defs>
  <style type="text/css">*{stroke-linecap:butt;stroke-linejoin:round;}</style>
 </defs>
 <g id="figure_1">
  <g id="patch_1">
   <path d="M 0 345.6 
L 460.8 345.6 
L 460.8 0 
L 0 0 
z
" style="fill:#ffffff;"/>
  </g>
  <g id="axes_1">
   <g id="patch_2">
    <path d="M 57.6 307.584 
L 414.72 307.584 
L 414.72 41.472 
L 57.6 41.472 
z
" style="fill:#ffffff;"/>
   </g>
   <g id="matplotlib.axis_1">
    <g id="xtick_1">
     <g id="line2d_1">
      <path clip-path="url(#pd6fbc58d78)" d="M 74.058508 307.584 
L 74.058508 41.472 
" style="fill:none;stroke:#b0b0b0;stroke-linecap:square;stroke-width:0.8;"/>
     </g>
     <g id="line2d_2">
      <defs>
       <path d="M 0 0 
L 0 3.5 
" id="m09c20e1df4" style="stroke:#000000;stroke-width:0.8;"/>
      </defs>
      <g>
       <use style="stroke:#000000;stroke-width:0.8;" x="74.058508" xlink:href="#m09c20e1df4" y="307.584"/>
      </g>
     </g>
     <g id="text_1">
      <!-- 0 -->
      <g transform="translate(70.877258 322.182437)scale(0.1 -0.1)">
       <defs>
        <path d="M 2034 4250 
Q 1547 4250 1301 3770 
Q 1056 3291 1056 2328 
Q 1056 1369 1301 889 
Q 1547 409 2034 409 
Q 2525 409 2770 889 
Q 3016 1369 3016 2328 
Q 3016 3291 2770 3770 
Q 2525 4250 2034 4250 
z
M 2034 4750 
Q 2819 4750 3233 4129 
Q 3647 3509 3647 2328 
Q 3647 1150 3233 529 
Q 2819 -91 2034 -91 
Q 1250 -91 836 529 
Q 422 1150 422 2328 
Q 422 3509 836 4129 
Q 1250 4750 2034 4750 
z
" id="DejaVuSans-30" transform="scale(0.015625)"/>
       </defs>
       <use xlink:href="#DejaVuSans-30"/>
      </g>
     </g>
    </g>
    <g id="xtick_2">
     <g id="line2d_3">
      <path clip-path="url(#pd6fbc58d78)" d="M 139.037543 307.584 
L 139.037543 41.472 
" style="fill:none;stroke:#b0b0b0;stroke-linecap:square;stroke-width:0.8;"/>
     </g>
     <g id="line2d_4">
      <g>
       <use style="stroke:#000000;stroke-width:0.8;" x="139.037543" xlink:href="#m09c20e1df4" y="307.584"/>
      </g>
     </g>
     <g id="text_2">
      <!-- 100 -->
      <g transform="translate(129.493793 322.182437)scale(0.1 -0.1)">
       <defs>
        <path d="M 794 531 
L 1825 531 
L 1825 4091 
L 703 3866 
L 703 4441 
L 1819 4666 
L 2450 4666 
L 2450 531 
L 3481 531 
L 3481 0 
L 794 0 
L 794 531 
z
" id="DejaVuSans-31" transform="scale(0.015625)"/>
       </defs>
       <use xlink:href="#DejaVuSans-31"/>
       <use x="63.623047" xlink:href="#DejaVuSans-30"/>
       <use x="127.246094" xlink:href="#DejaVuSans-30"/>
      </g>
     </g>
    </g>
    <g id="xtick_3">
     <g id="line2d_5">
      <path clip-path="url(#pd6fbc58d78)" d="M 204.016578 307.584 
L 204.016578 41.472 
" style="fill:none;stroke:#b0b0b0;stroke-linecap:square;stroke-width:0.8;"/>
     </g>
     <g id="line2d_6">
      <g>
       <use style="stroke:#000000;stroke-width:0.8;" x="204.016578" xlink:href="#m09c20e1df4" y="307.584"/>
      </g>
     </g>
     <g id="text_3">
      <!-- 200 -->
      <g transform="translate(194.472828 322.182437)scale(0.1 -0.1)">
       <defs>
        <path d="M 1228 531 
L 3431 531 
L 3431 0 
L 469 0 
L 469 531 
Q 828 903 1448 1529 
Q 2069 2156 2228 2338 
Q 2531 2678 2651 2914 
Q 2772 3150 2772 3378 
Q 2772 3750 2511 3984 
Q 2250 4219 1831 4219 
Q 1534 4219 1204 4116 
Q 875 4013 500 3803 
L 500 4441 
Q 881 4594 1212 4672 
Q 1544 4750 1819 4750 
Q 2544 4750 2975 4387 
Q 3406 4025 3406 3419 
Q 3406 3131 3298 2873 
Q 3191 2616 2906 2266 
Q 2828 2175 2409 1742 
Q 1991 1309 1228 531 
z
" id="DejaVuSans-32" transform="scale(0.015625)"/>
       </defs>
       <use xlink:href="#DejaVuSans-32"/>
       <use x="63.623047" xlink:href="#DejaVuSans-30"/>
       <use x="127.246094" xlink:href="#DejaVuSans-30"/>
      </g>
     </g>
    </g>
    <g id="xtick_4">
     <g id="line2d_7">
      <path clip-path="url(#pd6fbc58d78)" d="M 268.995613 307.584 
L 268.995613 41.472 
" style="fill:none;stroke:#b0b0b0;stroke-linecap:square;stroke-width:0.8;"/>
     </g>
     <g id="line2d_8">
      <g>
       <use style="stroke:#000000;stroke-width:0.8;" x="268.995613" xlink:href="#m09c20e1df4" y="307.584"/>
      </g>
     </g>
     <g id="text_4">
      <!-- 300 -->
      <g transform="translate(259.451863 322.182437)scale(0.1 -0.1)">
       <defs>
        <path d="M 2597 2516 
Q 3050 2419 3304 2112 
Q 3559 1806 3559 1356 
Q 3559 666 3084 287 
Q 2609 -91 1734 -91 
Q 1441 -91 1130 -33 
Q 819 25 488 141 
L 488 750 
Q 750 597 1062 519 
Q 1375 441 1716 441 
Q 2309 441 2620 675 
Q 2931 909 2931 1356 
Q 2931 1769 2642 2001 
Q 2353 2234 1838 2234 
L 1294 2234 
L 1294 2753 
L 1863 2753 
Q 2328 2753 2575 2939 
Q 2822 3125 2822 3475 
Q 2822 3834 2567 4026 
Q 2313 4219 1838 4219 
Q 1578 4219 1281 4162 
Q 984 4106 628 3988 
L 628 4550 
Q 988 4650 1302 4700 
Q 1616 4750 1894 4750 
Q 2613 4750 3031 4423 
Q 3450 4097 3450 3541 
Q 3450 3153 3228 2886 
Q 3006 2619 2597 2516 
z
" id="DejaVuSans-33" transform="scale(0.015625)"/>
       </defs>
       <use xlink:href="#DejaVuSans-33"/>
       <use x="63.623047" xlink:href="#DejaVuSans-30"/>
       <use x="127.246094" xlink:href="#DejaVuSans-30"/>
      </g>
     </g>
    </g>
    <g id="xtick_5">
     <g id="line2d_9">
      <path clip-path="url(#pd6fbc58d78)" d="M 333.974648 307.584 
L 333.974648 41.472 
" style="fill:none;stroke:#b0b0b0;stroke-linecap:square;stroke-width:0.8;"/>
     </g>
     <g id="line2d_10">
      <g>
       <use style="stroke:#000000;stroke-width:0.8;" x="333.974648" xlink:href="#m09c20e1df4" y="307.584"/>
      </g>
     </g>
     <g id="text_5">
      <!-- 400 -->
      <g transform="translate(324.430898 322.182437)scale(0.1 -0.1)">
       <defs>
        <path d="M 2419 4116 
L 825 1625 
L 2419 1625 
L 2419 4116 
z
M 2253 4666 
L 3047 4666 
L 3047 1625 
L 3713 1625 
L 3713 1100 
L 3047 1100 
L 3047 0 
L 2419 0 
L 2419 1100 
L 313 1100 
L 313 1709 
L 2253 4666 
z
" id="DejaVuSans-34" transform="scale(0.015625)"/>
       </defs>
       <use xlink:href="#DejaVuSans-34"/>
       <use x="63.623047" xlink:href="#DejaVuSans-30"/>
       <use x="127.246094" xlink:href="#DejaVuSans-30"/>
      </g>
     </g>
    </g>
    <g id="xtick_6">
     <g id="line2d_11">
      <path clip-path="url(#pd6fbc58d78)" d="M 398.953683 307.584 
L 398.953683 41.472 
" style="fill:none;stroke:#b0b0b0;stroke-linecap:square;stroke-width:0.8;"/>
     </g>
     <g id="line2d_12">
      <g>
       <use style="stroke:#000000;stroke-width:0.8;" x="398.953683" xlink:href="#m09c20e1df4" y="307.584"/>
      </g>
     </g>
     <g id="text_6">
      <!-- 500 -->
      <g transform="translate(389.409933 322.182437)scale(0.1 -0.1)">
       <defs>
        <path d="M 691 4666 
L 3169 4666 
L 3169 4134 
L 1269 4134 
L 1269 2991 
Q 1406 3038 1543 3061 
Q 1681 3084 1819 3084 
Q 2600 3084 3056 2656 
Q 3513 2228 3513 1497 
Q 3513 744 3044 326 
Q 2575 -91 1722 -91 
Q 1428 -91 1123 -41 
Q 819 9 494 109 
L 494 744 
Q 775 591 1075 516 
Q 1375 441 1709 441 
Q 2250 441 2565 725 
Q 2881 1009 2881 1497 
Q 2881 1984 2565 2268 
Q 2250 2553 1709 2553 
Q 1456 2553 1204 2497 
Q 953 2441 691 2322 
L 691 4666 
z
" id="DejaVuSans-35" transform="scale(0.015625)"/>
       </defs>
       <use xlink:href="#DejaVuSans-35"/>
       <use x="63.623047" xlink:href="#DejaVuSans-30"/>
       <use x="127.246094" xlink:href="#DejaVuSans-30"/>
      </g>
     </g>
    </g>
    <g id="text_7">
     <!-- Position in X direction [mm] -->
     <g transform="translate(166.805313 335.860562)scale(0.1 -0.1)">
      <defs>
       <path d="M 1259 4147 
L 1259 2394 
L 2053 2394 
Q 2494 2394 2734 2622 
Q 2975 2850 2975 3272 
Q 2975 3691 2734 3919 
Q 2494 4147 2053 4147 
L 1259 4147 
z
M 628 4666 
L 2053 4666 
Q 2838 4666 3239 4311 
Q 3641 3956 3641 3272 
Q 3641 2581 3239 2228 
Q 2838 1875 2053 1875 
L 1259 1875 
L 1259 0 
L 628 0 
L 628 4666 
z
" id="DejaVuSans-50" transform="scale(0.015625)"/>
       <path d="M 1959 3097 
Q 1497 3097 1228 2736 
Q 959 2375 959 1747 
Q 959 1119 1226 758 
Q 1494 397 1959 397 
Q 2419 397 2687 759 
Q 2956 1122 2956 1747 
Q 2956 2369 2687 2733 
Q 2419 3097 1959 3097 
z
M 1959 3584 
Q 2709 3584 3137 3096 
Q 3566 2609 3566 1747 
Q 3566 888 3137 398 
Q 2709 -91 1959 -91 
Q 1206 -91 779 398 
Q 353 888 353 1747 
Q 353 2609 779 3096 
Q 1206 3584 1959 3584 
z
" id="DejaVuSans-6f" transform="scale(0.015625)"/>
       <path d="M 2834 3397 
L 2834 2853 
Q 2591 2978 2328 3040 
Q 2066 3103 1784 3103 
Q 1356 3103 1142 2972 
Q 928 2841 928 2578 
Q 928 2378 1081 2264 
Q 1234 2150 1697 2047 
L 1894 2003 
Q 2506 1872 2764 1633 
Q 3022 1394 3022 966 
Q 3022 478 2636 193 
Q 2250 -91 1575 -91 
Q 1294 -91 989 -36 
Q 684 19 347 128 
L 347 722 
Q 666 556 975 473 
Q 1284 391 1588 391 
Q 1994 391 2212 530 
Q 2431 669 2431 922 
Q 2431 1156 2273 1281 
Q 2116 1406 1581 1522 
L 1381 1569 
Q 847 1681 609 1914 
Q 372 2147 372 2553 
Q 372 3047 722 3315 
Q 1072 3584 1716 3584 
Q 2034 3584 2315 3537 
Q 2597 3491 2834 3397 
z
" id="DejaVuSans-73" transform="scale(0.015625)"/>
       <path d="M 603 3500 
L 1178 3500 
L 1178 0 
L 603 0 
L 603 3500 
z
M 603 4863 
L 1178 4863 
L 1178 4134 
L 603 4134 
L 603 4863 
z
" id="DejaVuSans-69" transform="scale(0.015625)"/>
       <path d="M 1172 4494 
L 1172 3500 
L 2356 3500 
L 2356 3053 
L 1172 3053 
L 1172 1153 
Q 1172 725 1289 603 
Q 1406 481 1766 481 
L 2356 481 
L 2356 0 
L 1766 0 
Q 1100 0 847 248 
Q 594 497 594 1153 
L 594 3053 
L 172 3053 
L 172 3500 
L 594 3500 
L 594 4494 
L 1172 4494 
z
" id="DejaVuSans-74" transform="scale(0.015625)"/>
       <path d="M 3513 2113 
L 3513 0 
L 2938 0 
L 2938 2094 
Q 2938 2591 2744 2837 
Q 2550 3084 2163 3084 
Q 1697 3084 1428 2787 
Q 1159 2491 1159 1978 
L 1159 0 
L 581 0 
L 581 3500 
L 1159 3500 
L 1159 2956 
Q 1366 3272 1645 3428 
Q 1925 3584 2291 3584 
Q 2894 3584 3203 3211 
Q 3513 2838 3513 2113 
z
" id="DejaVuSans-6e" transform="scale(0.015625)"/>
       <path id="DejaVuSans-20" transform="scale(0.015625)"/>
       <path d="M 403 4666 
L 1081 4666 
L 2241 2931 
L 3406 4666 
L 4084 4666 
L 2584 2425 
L 4184 0 
L 3506 0 
L 2194 1984 
L 872 0 
L 191 0 
L 1856 2491 
L 403 4666 
z
" id="DejaVuSans-58" transform="scale(0.015625)"/>
       <path d="M 2906 2969 
L 2906 4863 
L 3481 4863 
L 3481 0 
L 2906 0 
L 2906 525 
Q 2725 213 2448 61 
Q 2172 -91 1784 -91 
Q 1150 -91 751 415 
Q 353 922 353 1747 
Q 353 2572 751 3078 
Q 1150 3584 1784 3584 
Q 2172 3584 2448 3432 
Q 2725 3281 2906 2969 
z
M 947 1747 
Q 947 1113 1208 752 
Q 1469 391 1925 391 
Q 2381 391 2643 752 
Q 2906 1113 2906 1747 
Q 2906 2381 2643 2742 
Q 2381 3103 1925 3103 
Q 1469 3103 1208 2742 
Q 947 2381 947 1747 
z
" id="DejaVuSans-64" transform="scale(0.015625)"/>
       <path d="M 2631 2963 
Q 2534 3019 2420 3045 
Q 2306 3072 2169 3072 
Q 1681 3072 1420 2755 
Q 1159 2438 1159 1844 
L 1159 0 
L 581 0 
L 581 3500 
L 1159 3500 
L 1159 2956 
Q 1341 3275 1631 3429 
Q 1922 3584 2338 3584 
Q 2397 3584 2469 3576 
Q 2541 3569 2628 3553 
L 2631 2963 
z
" id="DejaVuSans-72" transform="scale(0.015625)"/>
       <path d="M 3597 1894 
L 3597 1613 
L 953 1613 
Q 991 1019 1311 708 
Q 1631 397 2203 397 
Q 2534 397 2845 478 
Q 3156 559 3463 722 
L 3463 178 
Q 3153 47 2828 -22 
Q 2503 -91 2169 -91 
Q 1331 -91 842 396 
Q 353 884 353 1716 
Q 353 2575 817 3079 
Q 1281 3584 2069 3584 
Q 2775 3584 3186 3129 
Q 3597 2675 3597 1894 
z
M 3022 2063 
Q 3016 2534 2758 2815 
Q 2500 3097 2075 3097 
Q 1594 3097 1305 2825 
Q 1016 2553 972 2059 
L 3022 2063 
z
" id="DejaVuSans-65" transform="scale(0.015625)"/>
       <path d="M 3122 3366 
L 3122 2828 
Q 2878 2963 2633 3030 
Q 2388 3097 2138 3097 
Q 1578 3097 1268 2742 
Q 959 2388 959 1747 
Q 959 1106 1268 751 
Q 1578 397 2138 397 
Q 2388 397 2633 464 
Q 2878 531 3122 666 
L 3122 134 
Q 2881 22 2623 -34 
Q 2366 -91 2075 -91 
Q 1284 -91 818 406 
Q 353 903 353 1747 
Q 353 2603 823 3093 
Q 1294 3584 2113 3584 
Q 2378 3584 2631 3529 
Q 2884 3475 3122 3366 
z
" id="DejaVuSans-63" transform="scale(0.015625)"/>
       <path d="M 550 4863 
L 1875 4863 
L 1875 4416 
L 1125 4416 
L 1125 -397 
L 1875 -397 
L 1875 -844 
L 550 -844 
L 550 4863 
z
" id="DejaVuSans-5b" transform="scale(0.015625)"/>
       <path d="M 3328 2828 
Q 3544 3216 3844 3400 
Q 4144 3584 4550 3584 
Q 5097 3584 5394 3201 
Q 5691 2819 5691 2113 
L 5691 0 
L 5113 0 
L 5113 2094 
Q 5113 2597 4934 2840 
Q 4756 3084 4391 3084 
Q 3944 3084 3684 2787 
Q 3425 2491 3425 1978 
L 3425 0 
L 2847 0 
L 2847 2094 
Q 2847 2600 2669 2842 
Q 2491 3084 2119 3084 
Q 1678 3084 1418 2786 
Q 1159 2488 1159 1978 
L 1159 0 
L 581 0 
L 581 3500 
L 1159 3500 
L 1159 2956 
Q 1356 3278 1631 3431 
Q 1906 3584 2284 3584 
Q 2666 3584 2933 3390 
Q 3200 3197 3328 2828 
z
" id="DejaVuSans-6d" transform="scale(0.015625)"/>
       <path d="M 1947 4863 
L 1947 -844 
L 622 -844 
L 622 -397 
L 1369 -397 
L 1369 4416 
L 622 4416 
L 622 4863 
L 1947 4863 
z
" id="DejaVuSans-5d" transform="scale(0.015625)"/>
      </defs>
      <use xlink:href="#DejaVuSans-50"/>
      <use x="56.677734" xlink:href="#DejaVuSans-6f"/>
      <use x="117.859375" xlink:href="#DejaVuSans-73"/>
      <use x="169.958984" xlink:href="#DejaVuSans-69"/>
      <use x="197.742188" xlink:href="#DejaVuSans-74"/>
      <use x="236.951172" xlink:href="#DejaVuSans-69"/>
      <use x="264.734375" xlink:href="#DejaVuSans-6f"/>
      <use x="325.916016" xlink:href="#DejaVuSans-6e"/>
      <use x="389.294922" xlink:href="#DejaVuSans-20"/>
      <use x="421.082031" xlink:href="#DejaVuSans-69"/>
      <use x="448.865234" xlink:href="#DejaVuSans-6e"/>
      <use x="512.244141" xlink:href="#DejaVuSans-20"/>
      <use x="544.03125" xlink:href="#DejaVuSans-58"/>
      <use x="612.537109" xlink:href="#DejaVuSans-20"/>
      <use x="644.324219" xlink:href="#DejaVuSans-64"/>
      <use x="707.800781" xlink:href="#DejaVuSans-69"/>
      <use x="735.583984" xlink:href="#DejaVuSans-72"/>
      <use x="774.447266" xlink:href="#DejaVuSans-65"/>
      <use x="835.970703" xlink:href="#DejaVuSans-63"/>
      <use x="890.951172" xlink:href="#DejaVuSans-74"/>
      <use x="930.160156" xlink:href="#DejaVuSans-69"/>
      <use x="957.943359" xlink:href="#DejaVuSans-6f"/>
      <use x="1019.125" xlink:href="#DejaVuSans-6e"/>
      <use x="1082.503906" xlink:href="#DejaVuSans-20"/>
      <use x="1114.291016" xlink:href="#DejaVuSans-5b"/>
      <use x="1153.304688" xlink:href="#DejaVuSans-6d"/>
      <use x="1250.716797" xlink:href="#DejaVuSans-6d"/>
      <use x="1348.128906" xlink:href="#DejaVuSans-5d"/>
     </g>
    </g>
   </g>
   <g id="matplotlib.axis_2">
    <g id="ytick_1">
     <g id="line2d_13">
      <path clip-path="url(#pd6fbc58d78)" d="M 57.6 277.369128 
L 414.72 277.369128 
" style="fill:none;stroke:#b0b0b0;stroke-linecap:square;stroke-width:0.8;"/>
     </g>
     <g id="line2d_14">
      <defs>
       <path d="M 0 0 
L -3.5 0 
" id="m21bf55f137" style="stroke:#000000;stroke-width:0.8;"/>
      </defs>
      <g>
       <use style="stroke:#000000;stroke-width:0.8;" x="57.6" xlink:href="#m21bf55f137" y="277.369128"/>
      </g>
     </g>
     <g id="text_8">
      <!-- −150 -->
      <g transform="translate(23.132812 281.168346)scale(0.1 -0.1)">
       <defs>
        <path d="M 678 2272 
L 4684 2272 
L 4684 1741 
L 678 1741 
L 678 2272 
z
" id="DejaVuSans-2212" transform="scale(0.015625)"/>
       </defs>
       <use xlink:href="#DejaVuSans-2212"/>
       <use x="83.789062" xlink:href="#DejaVuSans-31"/>
       <use x="147.412109" xlink:href="#DejaVuSans-35"/>
       <use x="211.035156" xlink:href="#DejaVuSans-30"/>
      </g>
     </g>
    </g>
    <g id="ytick_2">
     <g id="line2d_15">
      <path clip-path="url(#pd6fbc58d78)" d="M 57.6 240.294571 
L 414.72 240.294571 
" style="fill:none;stroke:#b0b0b0;stroke-linecap:square;stroke-width:0.8;"/>
     </g>
     <g id="line2d_16">
      <g>
       <use style="stroke:#000000;stroke-width:0.8;" x="57.6" xlink:href="#m21bf55f137" y="240.294571"/>
      </g>
     </g>
     <g id="text_9">
      <!-- −100 -->
      <g transform="translate(23.132812 244.09379)scale(0.1 -0.1)">
       <use xlink:href="#DejaVuSans-2212"/>
       <use x="83.789062" xlink:href="#DejaVuSans-31"/>
       <use x="147.412109" xlink:href="#DejaVuSans-30"/>
       <use x="211.035156" xlink:href="#DejaVuSans-30"/>
      </g>
     </g>
    </g>
    <g id="ytick_3">
     <g id="line2d_17">
      <path clip-path="url(#pd6fbc58d78)" d="M 57.6 203.220015 
L 414.72 203.220015 
" style="fill:none;stroke:#b0b0b0;stroke-linecap:square;stroke-width:0.8;"/>
     </g>
     <g id="line2d_18">
      <g>
       <use style="stroke:#000000;stroke-width:0.8;" x="57.6" xlink:href="#m21bf55f137" y="203.220015"/>
      </g>
     </g>
     <g id="text_10">
      <!-- −50 -->
      <g transform="translate(29.495313 207.019234)scale(0.1 -0.1)">
       <use xlink:href="#DejaVuSans-2212"/>
       <use x="83.789062" xlink:href="#DejaVuSans-35"/>
       <use x="147.412109" xlink:href="#DejaVuSans-30"/>
      </g>
     </g>
    </g>
    <g id="ytick_4">
     <g id="line2d_19">
      <path clip-path="url(#pd6fbc58d78)" d="M 57.6 166.145458 
L 414.72 166.145458 
" style="fill:none;stroke:#b0b0b0;stroke-linecap:square;stroke-width:0.8;"/>
     </g>
     <g id="line2d_20">
      <g>
       <use style="stroke:#000000;stroke-width:0.8;" x="57.6" xlink:href="#m21bf55f137" y="166.145458"/>
      </g>
     </g>
     <g id="text_11">
      <!-- 0 -->
      <g transform="translate(44.2375 169.944677)scale(0.1 -0.1)">
       <use xlink:href="#DejaVuSans-30"/>
      </g>
     </g>
    </g>
    <g id="ytick_5">
     <g id="line2d_21">
      <path clip-path="url(#pd6fbc58d78)" d="M 57.6 129.070902 
L 414.72 129.070902 
" style="fill:none;stroke:#b0b0b0;stroke-linecap:square;stroke-width:0.8;"/>
     </g>
     <g id="line2d_22">
      <g>
       <use style="stroke:#000000;stroke-width:0.8;" x="57.6" xlink:href="#m21bf55f137" y="129.070902"/>
      </g>
     </g>
     <g id="text_12">
      <!-- 50 -->
      <g transform="translate(37.875 132.870121)scale(0.1 -0.1)">
       <use xlink:href="#DejaVuSans-35"/>
       <use x="63.623047" xlink:href="#DejaVuSans-30"/>
      </g>
     </g>
    </g>
    <g id="ytick_6">
     <g id="line2d_23">
      <path clip-path="url(#pd6fbc58d78)" d="M 57.6 91.996346 
L 414.72 91.996346 
" style="fill:none;stroke:#b0b0b0;stroke-linecap:square;stroke-width:0.8;"/>
     </g>
     <g id="line2d_24">
      <g>
       <use style="stroke:#000000;stroke-width:0.8;" x="57.6" xlink:href="#m21bf55f137" y="91.996346"/>
      </g>
     </g>
     <g id="text_13">
      <!-- 100 -->
      <g transform="translate(31.5125 95.795564)scale(0.1 -0.1)">
       <use xlink:href="#DejaVuSans-31"/>
       <use x="63.623047" xlink:href="#DejaVuSans-30"/>
       <use x="127.246094" xlink:href="#DejaVuSans-30"/>
      </g>
     </g>
    </g>
    <g id="ytick_7">
     <g id="line2d_25">
      <path clip-path="url(#pd6fbc58d78)" d="M 57.6 54.921789 
L 414.72 54.921789 
" style="fill:none;stroke:#b0b0b0;stroke-linecap:square;stroke-width:0.8;"/>
     </g>
     <g id="line2d_26">
      <g>
       <use style="stroke:#000000;stroke-width:0.8;" x="57.6" xlink:href="#m21bf55f137" y="54.921789"/>
      </g>
     </g>
     <g id="text_14">
      <!-- 150 -->
      <g transform="translate(31.5125 58.721008)scale(0.1 -0.1)">
       <use xlink:href="#DejaVuSans-31"/>
       <use x="63.623047" xlink:href="#DejaVuSans-35"/>
       <use x="127.246094" xlink:href="#DejaVuSans-30"/>
      </g>
     </g>
    </g>
    <g id="text_15">
     <!-- Position in Y direction [mm] -->
     <g transform="translate(17.053125 243.511594)rotate(-90)scale(0.1 -0.1)">
      <defs>
       <path d="M -13 4666 
L 666 4666 
L 1959 2747 
L 3244 4666 
L 3922 4666 
L 2272 2222 
L 2272 0 
L 1638 0 
L 1638 2222 
L -13 4666 
z
" id="DejaVuSans-59" transform="scale(0.015625)"/>
      </defs>
      <use xlink:href="#DejaVuSans-50"/>
      <use x="56.677734" xlink:href="#DejaVuSans-6f"/>
      <use x="117.859375" xlink:href="#DejaVuSans-73"/>
      <use x="169.958984" xlink:href="#DejaVuSans-69"/>
      <use x="197.742188" xlink:href="#DejaVuSans-74"/>
      <use x="236.951172" xlink:href="#DejaVuSans-69"/>
      <use x="264.734375" xlink:href="#DejaVuSans-6f"/>
      <use x="325.916016" xlink:href="#DejaVuSans-6e"/>
      <use x="389.294922" xlink:href="#DejaVuSans-20"/>
      <use x="421.082031" xlink:href="#DejaVuSans-69"/>
      <use x="448.865234" xlink:href="#DejaVuSans-6e"/>
      <use x="512.244141" xlink:href="#DejaVuSans-20"/>
      <use x="544.03125" xlink:href="#DejaVuSans-59"/>
      <use x="605.115234" xlink:href="#DejaVuSans-20"/>
      <use x="636.902344" xlink:href="#DejaVuSans-64"/>
      <use x="700.378906" xlink:href="#DejaVuSans-69"/>
      <use x="728.162109" xlink:href="#DejaVuSans-72"/>
      <use x="767.025391" xlink:href="#DejaVuSans-65"/>
      <use x="828.548828" xlink:href="#DejaVuSans-63"/>
      <use x="883.529297" xlink:href="#DejaVuSans-74"/>
      <use x="922.738281" xlink:href="#DejaVuSans-69"/>
      <use x="950.521484" xlink:href="#DejaVuSans-6f"/>
      <use x="1011.703125" xlink:href="#DejaVuSans-6e"/>
      <use x="1075.082031" xlink:href="#DejaVuSans-20"/>
      <use x="1106.869141" xlink:href="#DejaVuSans-5b"/>
      <use x="1145.882812" xlink:href="#DejaVuSans-6d"/>
      <use x="1243.294922" xlink:href="#DejaVuSans-6d"/>
      <use x="1340.707031" xlink:href="#DejaVuSans-5d"/>
     </g>
    </g>
   </g>
   <g id="line2d_27">
    <path clip-path="url(#pd6fbc58d78)" d="M 76.33293 53.568 
L 77.040373 54.687819 
L 78.952855 53.796096 
L 79.099312 54.82089 
L 81.750689 54.010906 
L 81.891898 54.860995 
L 84.539034 54.924035 
L 84.632862 54.159472 
L 87.119305 54.36379 
L 87.646872 55.14022 
L 90.33075 55.284596 
L 90.431385 54.422476 
L 93.080013 55.533731 
L 95.754328 55.911637 
L 98.787602 56.124567 
L 107.227772 57.211 
L 108.170236 57.827669 
L 109.838201 57.453502 
L 110.294814 57.948948 
L 112.417901 57.624071 
L 113.072116 58.204789 
L 115.726184 58.507328 
L 126.991263 60.269579 
L 128.151844 61.112629 
L 129.710288 60.498285 
L 129.975766 61.227137 
L 132.518388 60.650191 
L 132.741986 61.430486 
L 134.840049 60.818359 
L 135.542068 61.63577 
L 138.286648 62.010352 
L 146.686764 63.518579 
L 147.663075 64.247297 
L 149.507414 63.758089 
L 149.794922 64.447988 
L 152.142664 63.911537 
L 152.522246 64.671364 
L 154.443557 64.09432 
L 155.300611 64.907509 
L 160.860409 65.790868 
L 166.488839 66.669052 
L 167.552318 67.502979 
L 169.174773 66.904076 
L 169.519508 67.695391 
L 171.960662 67.1424 
L 172.248297 67.912446 
L 174.060623 67.317553 
L 175.039605 68.175228 
L 180.616275 69.019647 
L 183.469546 69.565157 
L 184.296023 70.688394 
L 186.174971 69.969568 
L 186.976197 70.76391 
L 188.901796 70.231255 
L 189.34065 70.991974 
L 191.604139 70.458857 
L 192.021492 71.17485 
L 194.742601 71.520449 
L 200.368371 72.558752 
L 203.164033 73.095618 
L 204.283902 73.93757 
L 205.838572 73.411479 
L 206.278669 74.13375 
L 208.144128 73.672769 
L 208.944673 74.412463 
L 214.48635 75.500739 
L 220.053039 76.693189 
L 220.650637 77.276082 
L 222.547067 76.957729 
L 222.932584 77.591323 
L 231.31216 79.84618 
L 232.392054 80.462759 
L 233.475065 80.092396 
L 234.418615 80.771323 
L 237.128121 81.530192 
L 239.801466 82.421229 
L 242.448283 83.083603 
L 243.368894 83.793624 
L 244.426309 83.423364 
L 245.593401 84.342913 
L 250.744989 86.161797 
L 251.858935 86.986671 
L 254.184897 87.547153 
L 259.005303 89.382913 
L 260.112216 90.295355 
L 261.301414 89.834556 
L 262.51739 90.996936 
L 265.242632 92.232281 
L 266.411934 93.381397 
L 267.275011 92.881839 
L 268.288495 93.831031 
L 270.993461 95.008138 
L 272.25649 96.495724 
L 273.301222 95.869695 
L 274.154529 96.954668 
L 279.024571 99.051913 
L 279.847391 100.159379 
L 282.247991 101.139676 
L 284.455298 102.192517 
L 285.048388 103.366228 
L 290.094263 105.49349 
L 291.028128 106.67683 
L 293.486192 107.950285 
L 294.616719 109.470581 
L 295.523092 108.79755 
L 296.594017 110.273913 
L 298.914589 111.595031 
L 299.965879 112.934233 
L 300.822199 112.267573 
L 302.00565 114.228452 
L 302.801194 116.108866 
L 304.165914 115.188863 
L 304.516759 116.479149 
L 307.488521 117.503211 
L 309.349063 118.708309 
L 310.912393 120.501292 
L 312.684078 121.594077 
L 313.651201 122.950701 
L 315.878275 124.270717 
L 316.954637 125.822175 
L 317.814625 125.13909 
L 318.914564 126.898176 
L 320.187889 128.690477 
L 321.073053 128.061006 
L 321.429152 129.129808 
L 324.877119 131.365484 
L 325.079654 132.525041 
L 326.02997 131.749998 
L 328.235546 135.512753 
L 329.115642 134.697288 
L 331.413975 138.468558 
L 332.20669 137.700783 
L 333.28768 139.556608 
L 334.299194 141.572672 
L 335.244421 140.70066 
L 336.244203 142.514682 
L 338.134391 143.772014 
L 339.24394 145.546498 
L 341.152419 146.880262 
L 342.185276 148.645192 
L 344.006682 149.895648 
L 345.070824 151.832896 
L 345.823427 151.03035 
L 346.887876 153.054725 
L 347.537309 154.699823 
L 348.76933 154.146614 
L 351.580839 157.342625 
L 361.805488 168.235237 
L 363.33165 169.671686 
L 364.716112 171.177566 
L 366.422487 172.826056 
L 369.045867 175.845928 
L 370.640509 178.48016 
L 370.90392 180.471533 
L 371.642284 179.461122 
L 372.609865 181.538755 
L 373.735588 183.525686 
L 374.434311 182.696151 
L 375.39156 184.966345 
L 376.484713 186.948125 
L 377.18491 186.032902 
L 378.160699 188.262854 
L 379.205627 190.252177 
L 379.874528 189.404977 
L 380.918574 191.577814 
L 381.829456 193.829295 
L 382.700971 192.68278 
L 383.646831 194.79362 
L 384.652362 196.739138 
L 385.400934 195.978475 
L 387.3643 200.383897 
L 388.119712 199.381521 
L 390.007946 203.68878 
L 391.216744 204.976769 
L 393.583609 209.35234 
L 395.189931 210.98173 
L 395.997196 213.641926 
L 396.383292 216.252903 
L 396.614717 212.1671 
L 397.057359 214.227417 
L 397.491096 217.240223 
L 397.842716 220.502971 
L 398.430809 223.494818 
L 398.487273 226.842438 
L 397.766607 233.209457 
L 396.66465 238.414572 
L 396.229446 237.14283 
L 395.551183 239.680771 
L 393.86906 244.818863 
L 393.348797 243.8354 
L 392.46737 246.235635 
L 391.374112 248.620595 
L 389.993199 249.754423 
L 388.739083 251.932753 
L 387.269449 253.212738 
L 386.054608 255.318145 
L 384.513159 256.620843 
L 383.335405 258.406456 
L 381.628816 259.855419 
L 380.504337 261.375105 
L 378.483135 262.862848 
L 377.376499 264.379499 
L 376.680147 263.749555 
L 375.446169 265.607471 
L 374.184798 267.302894 
L 373.492037 266.695761 
L 372.364218 268.24022 
L 370.255441 269.605586 
L 369.088132 270.910362 
L 366.973405 272.216644 
L 365.742318 273.74757 
L 364.881006 273.227511 
L 363.858566 274.466638 
L 361.43917 275.771623 
L 360.461554 277.105324 
L 359.524072 276.501061 
L 358.38323 277.946655 
L 355.820755 279.207497 
L 354.891217 280.287226 
L 353.705952 279.695227 
L 352.74257 281.000733 
L 350.019188 282.192098 
L 348.978983 283.34276 
L 347.687755 282.83294 
L 346.86006 283.828133 
L 344.30919 284.805536 
L 341.64183 285.683543 
L 340.847318 286.655117 
L 339.253295 286.080264 
L 338.466425 287.078647 
L 335.848701 287.731518 
L 333.078658 288.588212 
L 331.900273 289.685708 
L 330.382892 289.068752 
L 329.911587 289.952553 
L 327.796632 289.367836 
L 327.275496 290.257422 
L 316.154072 292.098819 
L 315.365279 293.095546 
L 313.378568 292.299668 
L 313.123119 293.189665 
L 311.181114 292.479713 
L 310.470304 293.380431 
L 307.520382 293.539209 
L 301.948312 294.074367 
L 285.128194 295.223896 
L 279.260789 295.488 
L 270.956985 295.290004 
L 265.309343 294.987264 
L 256.848507 294.190291 
L 251.217909 293.556312 
L 250.305571 292.727337 
L 248.443396 293.347837 
L 248.180722 292.595653 
L 245.762921 293.165011 
L 245.3978 292.408356 
L 243.176084 292.999945 
L 242.624542 292.183422 
L 241.249249 292.906257 
L 239.895664 291.838456 
L 231.505082 290.406674 
L 230.746911 289.476372 
L 228.757135 290.084157 
L 228.398286 289.234831 
L 226.120246 289.831834 
L 225.680204 288.929367 
L 220.132031 287.812475 
L 217.346409 287.205397 
L 216.195098 286.224691 
L 214.685902 286.807532 
L 214.236465 286.077553 
L 212.284299 286.539329 
L 211.538838 285.758785 
L 203.248763 284.03965 
L 202.341559 283.057819 
L 200.557323 283.691738 
L 200.12424 282.818585 
L 198.09905 283.426943 
L 197.431207 282.477006 
L 196.036628 283.24461 
L 194.736291 281.986702 
L 189.182036 280.72647 
L 188.346639 279.852299 
L 186.404952 280.355195 
L 186.018632 279.570834 
L 184.05041 280.111104 
L 183.327908 279.296808 
L 172.286651 277.425822 
L 171.79572 276.547981 
L 169.55033 277.179446 
L 169.18929 276.285194 
L 166.99459 276.94344 
L 166.427049 276.032007 
L 160.88314 275.316529 
L 155.27374 274.331275 
L 154.21072 273.454142 
L 152.503453 274.071389 
L 152.19621 273.356415 
L 149.586916 273.953327 
L 149.446744 273.186193 
L 146.893889 273.832966 
L 146.692094 273.043038 
L 144.292782 273.690706 
L 143.880999 272.924791 
L 142.187889 273.582964 
L 141.156596 272.816813 
L 127.003138 272.640145 
L 121.379084 272.888124 
L 120.512924 273.582964 
L 118.550455 273.00782 
L 118.381736 273.624744 
L 115.797114 273.126934 
L 115.649794 273.738171 
L 112.982892 273.271873 
L 112.773087 273.867934 
L 110.563513 273.406908 
L 109.991535 274.014179 
L 107.261666 274.263799 
L 101.603775 275.056741 
L 98.807742 275.386471 
L 93.145757 275.626112 
L 92.128034 276.924283 
L 90.627351 276.081877 
L 89.982605 276.965941 
L 87.818116 276.654872 
L 87.34818 277.143057 
L 81.822014 277.503329 
L 81.396387 276.657124 
L 79.630458 276.619482 
L 79.046491 277.793592 
L 74.651183 278.832459 
L 74.651183 278.832459 
" style="fill:none;stroke:#1f77b4;stroke-linecap:square;stroke-width:1.5;"/>
   </g>
   <g id="line2d_28">
    <path clip-path="url(#pd6fbc58d78)" d="M 73.832727 166.145458 
L 75.413193 166.789568 
L 76.99366 166.91839 
L 78.574126 166.660746 
L 81.735058 166.660746 
L 84.89599 166.403102 
L 86.476457 166.531924 
L 88.056923 166.531924 
L 89.637389 166.403102 
L 92.798321 166.403102 
L 95.959253 166.145458 
L 97.53972 166.27428 
L 99.120186 166.145458 
L 100.700652 166.145458 
L 102.281118 166.27428 
L 103.861584 166.27428 
L 105.44205 166.145458 
L 107.022517 166.27428 
L 108.602983 166.27428 
L 110.183449 166.145458 
L 114.924847 166.531924 
L 116.505314 166.531924 
L 119.666246 166.789568 
L 121.246712 166.660746 
L 127.568577 167.176034 
L 129.149043 167.433678 
L 130.729509 167.433678 
L 133.890441 167.691322 
L 135.470907 167.948966 
L 137.051374 167.948966 
L 140.212306 168.464254 
L 141.792772 168.593075 
L 143.373238 168.850719 
L 144.953704 168.979541 
L 146.53417 169.366007 
L 149.695103 169.623651 
L 151.275569 170.010117 
L 152.856035 170.138939 
L 156.016967 170.911871 
L 157.597434 171.040693 
L 160.758366 171.55598 
L 162.338832 171.684802 
L 163.919298 171.942446 
L 165.499764 172.328912 
L 167.080231 172.457734 
L 168.660697 172.8442 
L 170.241163 173.101844 
L 171.821629 173.48831 
L 173.402095 173.745953 
L 174.982561 173.874775 
L 176.563027 174.261241 
L 181.304426 175.034173 
L 182.884892 175.420639 
L 186.045824 175.935927 
L 187.626291 176.322392 
L 189.206757 176.580036 
L 192.367689 177.352968 
L 193.948155 177.610612 
L 195.528621 177.610612 
L 197.109088 178.383544 
L 198.689554 178.641188 
L 200.27002 179.027653 
L 201.850486 179.285297 
L 203.430952 179.671763 
L 205.011418 179.929407 
L 206.591884 180.315873 
L 208.172351 180.573517 
L 209.752817 180.959983 
L 211.333283 181.217627 
L 219.235614 183.149956 
L 220.81608 183.278778 
L 223.977012 184.309353 
L 227.137944 185.082285 
L 228.718411 185.339929 
L 230.298877 185.855217 
L 231.879343 186.112861 
L 233.459809 186.499326 
L 235.040275 186.499326 
L 236.620741 187.272258 
L 238.201208 187.787546 
L 239.781674 188.04519 
L 242.942606 188.818122 
L 244.523072 189.333409 
L 246.103538 189.591053 
L 247.684005 190.106341 
L 254.005869 191.652204 
L 255.586335 192.167492 
L 261.9082 193.713356 
L 265.069132 194.743931 
L 266.649598 195.001575 
L 268.230065 195.388041 
L 271.390997 196.418617 
L 272.971463 196.805082 
L 274.551929 197.32037 
L 276.132395 197.706836 
L 277.712862 198.222124 
L 279.293328 198.479768 
L 280.873794 198.866234 
L 282.45426 199.381521 
L 284.034726 199.767987 
L 285.615192 200.283275 
L 287.195658 200.669741 
L 288.776125 201.185029 
L 290.356591 201.056207 
L 293.517523 202.086782 
L 295.097989 202.988536 
L 298.258922 204.019112 
L 299.839388 204.920865 
L 301.419854 205.564975 
L 303.00032 205.049687 
L 306.161252 205.822619 
L 307.741718 206.337907 
L 309.322185 207.110838 
L 310.902651 208.141414 
L 312.483117 208.012592 
L 315.644049 209.043168 
L 317.224515 209.429633 
L 320.385448 210.460209 
L 321.965914 211.619607 
L 323.54638 211.490785 
L 325.126846 212.134894 
L 328.287779 213.16547 
L 329.868245 214.324867 
L 331.448711 214.324867 
L 333.029177 214.711333 
L 334.609643 215.355443 
L 336.190109 215.741909 
L 340.931508 217.287772 
L 342.511974 217.674238 
L 344.09244 218.189526 
L 347.253372 218.962458 
L 350.414305 219.993033 
L 351.994771 220.637143 
L 358.316636 222.183006 
L 359.897102 222.44065 
L 361.477568 222.569472 
L 363.058034 222.955938 
L 364.6385 223.213582 
L 366.218966 223.600048 
L 367.799432 223.857692 
L 369.379899 224.37298 
L 370.960365 224.759445 
L 372.540831 225.017089 
L 374.121297 225.532377 
L 377.282229 226.047665 
L 378.862696 227.464706 
L 380.443162 227.851172 
L 382.023628 227.335884 
L 383.604094 227.464706 
L 385.18456 227.72235 
L 386.765026 227.593528 
L 388.345492 226.949419 
L 389.925959 227.593528 
L 391.506425 227.464706 
L 393.086891 227.593528 
L 394.667357 227.979994 
L 396.247823 226.562953 
L 396.247823 226.562953 
" style="fill:none;stroke:#000000;stroke-linecap:square;stroke-width:1.5;"/>
   </g>
   <g id="line2d_29">
    <path clip-path="url(#pd6fbc58d78)" d="M 74.062166 55.050783 
L 115.226268 61.314996 
L 166.529081 70.347181 
L 180.611065 73.016304 
L 207.53583 77.814167 
L 217.733211 80.037514 
L 226.619971 82.186103 
L 235.461116 84.566883 
L 241.728025 86.484801 
L 247.915758 88.712737 
L 255.278864 91.601972 
L 260.144176 93.666358 
L 267.372664 96.968396 
L 272.132619 99.330972 
L 276.807302 101.905956 
L 282.556543 105.337955 
L 291.640131 111.073596 
L 297.219426 114.853303 
L 301.576238 118.073347 
L 318.767286 131.341062 
L 326.047109 137.542012 
L 335.349228 145.601257 
L 340.319936 150.360577 
L 349.196865 159.021141 
L 357.67028 168.19438 
L 360.405716 171.342047 
L 366.501041 179.018267 
L 369.060676 182.365225 
L 372.444836 186.856169 
L 377.757444 193.351409 
L 381.352578 197.619455 
L 383.787031 201.086155 
L 389.312114 209.310671 
L 390.670741 211.833091 
L 391.823326 214.485197 
L 392.721063 217.262252 
L 393.329027 220.139615 
L 393.630783 223.079353 
L 393.627852 226.039356 
L 393.339293 228.981333 
L 392.808655 231.879607 
L 392.099058 234.728075 
L 391.250633 237.526707 
L 390.247838 240.257834 
L 388.487452 244.219621 
L 386.569297 248.085 
L 384.41133 251.781837 
L 382.097732 255.354171 
L 378.736379 259.867664 
L 377.007593 262.076507 
L 375.16107 264.157287 
L 371.297631 268.113239 
L 368.297133 270.943436 
L 365.148626 273.555279 
L 360.77542 276.74579 
L 357.41373 278.986034 
L 353.948619 281.009964 
L 350.383544 282.794073 
L 345.539948 284.923532 
L 340.610964 286.780129 
L 336.85628 287.951278 
L 331.773574 289.15405 
L 327.933288 289.882298 
L 321.501806 290.859435 
L 316.329786 291.359712 
L 311.143952 291.619138 
L 303.358489 291.753303 
L 292.979427 291.713893 
L 285.199071 291.505489 
L 276.124723 291.019004 
L 269.652889 290.484708 
L 261.900461 289.654394 
L 252.890897 288.326502 
L 241.33331 286.403422 
L 228.520042 284.055164 
L 199.131155 278.100916 
L 181.201906 274.746092 
L 172.205721 273.3053 
L 165.764401 272.411677 
L 156.722881 271.407587 
L 148.955566 270.783348 
L 141.178063 270.358422 
L 134.690621 270.213275 
L 129.50007 270.274974 
L 123.017196 270.579149 
L 116.547136 271.131975 
L 110.097674 271.939629 
L 74.058508 277.240134 
L 74.058508 277.240134 
" style="fill:none;stroke:#ff7f0e;stroke-linecap:square;stroke-width:1.5;"/>
   </g>
   <g id="line2d_30">
    <path clip-path="url(#pd6fbc58d78)" d="M 74.253445 274.403163 
L 92.382596 270.695708 
L 96.021422 270.695708 
L 103.299074 269.212725 
L 107.002879 269.212725 
L 110.641705 268.471234 
L 118.049315 268.471234 
L 121.883078 267.729743 
L 136.178466 267.729743 
L 140.077208 268.471234 
L 147.224902 268.471234 
L 151.123644 269.212725 
L 155.022386 269.212725 
L 158.271338 269.954216 
L 162.17008 269.954216 
L 166.068822 270.695708 
L 169.317774 271.437199 
L 173.216516 272.17869 
L 176.465467 272.920181 
L 184.262952 274.403163 
L 187.511903 275.144654 
L 191.410645 275.886145 
L 194.659597 276.627637 
L 198.558339 277.369128 
L 201.807291 278.110619 
L 205.706033 279.593601 
L 208.954985 280.335092 
L 212.853727 281.076583 
L 216.102679 281.818075 
L 220.001421 283.301057 
L 223.250373 284.042548 
L 231.047857 285.52553 
L 234.296809 286.267021 
L 238.195551 287.750004 
L 241.444502 288.491495 
L 245.343245 289.232986 
L 248.592196 289.232986 
L 256.38968 290.715968 
L 259.638632 291.457459 
L 263.537374 291.457459 
L 266.786326 292.19895 
L 285.630246 292.19895 
L 288.879198 291.457459 
L 292.77794 291.457459 
L 296.676682 290.715968 
L 299.925634 289.974477 
L 303.824376 289.232986 
L 307.073328 287.750004 
L 310.97207 287.008512 
L 314.221022 285.52553 
L 318.119764 284.042548 
L 327.866619 279.593601 
L 331.765361 277.369128 
L 335.014313 275.886145 
L 341.512216 271.437199 
L 344.111378 269.212725 
L 353.858233 262.539305 
L 356.457394 259.573341 
L 359.706346 257.348867 
L 362.305508 254.382903 
L 364.904669 252.158429 
L 368.153621 249.192465 
L 373.351944 243.260536 
L 375.301315 239.627229 
L 376.600895 235.771475 
L 377.250686 231.693274 
L 377.250686 223.240275 
L 375.951105 215.009724 
L 374.651524 211.15397 
L 370.752782 203.813208 
L 364.904669 193.284034 
L 362.305508 189.873175 
L 360.356137 186.684763 
L 352.558652 177.71272 
L 344.761168 168.977955 
L 341.512216 166.115947 
L 331.115571 154.726495 
L 328.516409 151.982978 
L 325.267458 149.31361 
L 320.069135 143.900725 
L 316.820183 141.379655 
L 314.221022 138.710287 
L 310.97207 136.115068 
L 308.372909 133.519849 
L 305.123957 130.92463 
L 302.524795 128.40356 
L 296.026892 123.732166 
L 292.77794 121.433543 
L 290.178779 119.060772 
L 283.680875 114.685974 
L 270.685068 106.381273 
L 264.187165 102.599669 
L 251.191358 95.258907 
L 244.043664 92.663688 
L 240.794712 91.254854 
L 236.89597 90.513363 
L 233.647018 89.030381 
L 229.748276 88.28889 
L 226.499324 87.547399 
L 222.600582 86.064417 
L 218.70184 85.322925 
L 215.452888 84.581434 
L 212.203937 83.098452 
L 204.406452 81.61547 
L 201.157501 80.873979 
L 197.258759 80.132488 
L 194.009807 79.390996 
L 190.111065 78.649505 
L 186.862113 77.166523 
L 179.064629 75.683541 
L 175.815677 74.94205 
L 171.916935 74.200558 
L 168.667983 73.459067 
L 164.769241 72.717576 
L 161.520289 71.976085 
L 153.722805 70.493103 
L 150.473853 69.751612 
L 146.575111 69.010121 
L 143.32616 69.010121 
L 139.427417 68.268629 
L 136.178466 67.527138 
L 128.380981 66.044156 
L 125.13203 65.302665 
L 117.659441 63.819683 
L 114.020615 63.819683 
L 95.891464 60.112227 
L 92.252638 60.112227 
L 84.974986 58.629245 
L 81.33616 58.629245 
L 74.058508 57.146263 
L 74.058508 57.146263 
" style="fill:none;stroke:#2ca02c;stroke-linecap:square;stroke-width:1.5;"/>
   </g>
   <g id="patch_3">
    <path d="M 57.6 307.584 
L 57.6 41.472 
" style="fill:none;stroke:#000000;stroke-linecap:square;stroke-linejoin:miter;stroke-width:0.8;"/>
   </g>
   <g id="patch_4">
    <path d="M 414.72 307.584 
L 414.72 41.472 
" style="fill:none;stroke:#000000;stroke-linecap:square;stroke-linejoin:miter;stroke-width:0.8;"/>
   </g>
   <g id="patch_5">
    <path d="M 57.6 307.584 
L 414.72 307.584 
" style="fill:none;stroke:#000000;stroke-linecap:square;stroke-linejoin:miter;stroke-width:0.8;"/>
   </g>
   <g id="patch_6">
    <path d="M 57.6 41.472 
L 414.72 41.472 
" style="fill:none;stroke:#000000;stroke-linecap:square;stroke-linejoin:miter;stroke-width:0.8;"/>
   </g>
   <g id="legend_1">
    <g id="patch_7">
     <path d="M 82.335 38.91145 
L 389.985 38.91145 
Q 391.985 38.91145 391.985 36.91145 
L 391.985 8.5552 
Q 391.985 6.5552 389.985 6.5552 
L 82.335 6.5552 
Q 80.335 6.5552 80.335 8.5552 
L 80.335 36.91145 
Q 80.335 38.91145 82.335 38.91145 
z
" style="fill:#ffffff;opacity:0.8;stroke:#cccccc;stroke-linejoin:miter;"/>
    </g>
    <g id="line2d_31">
     <path d="M 84.335 14.653638 
L 104.335 14.653638 
" style="fill:none;stroke:#1f77b4;stroke-linecap:square;stroke-width:1.5;"/>
    </g>
    <g id="line2d_32"/>
    <g id="text_16">
     <!-- Target Contour -->
     <g transform="translate(112.335 18.153638)scale(0.1 -0.1)">
      <defs>
       <path d="M -19 4666 
L 3928 4666 
L 3928 4134 
L 2272 4134 
L 2272 0 
L 1638 0 
L 1638 4134 
L -19 4134 
L -19 4666 
z
" id="DejaVuSans-54" transform="scale(0.015625)"/>
       <path d="M 2194 1759 
Q 1497 1759 1228 1600 
Q 959 1441 959 1056 
Q 959 750 1161 570 
Q 1363 391 1709 391 
Q 2188 391 2477 730 
Q 2766 1069 2766 1631 
L 2766 1759 
L 2194 1759 
z
M 3341 1997 
L 3341 0 
L 2766 0 
L 2766 531 
Q 2569 213 2275 61 
Q 1981 -91 1556 -91 
Q 1019 -91 701 211 
Q 384 513 384 1019 
Q 384 1609 779 1909 
Q 1175 2209 1959 2209 
L 2766 2209 
L 2766 2266 
Q 2766 2663 2505 2880 
Q 2244 3097 1772 3097 
Q 1472 3097 1187 3025 
Q 903 2953 641 2809 
L 641 3341 
Q 956 3463 1253 3523 
Q 1550 3584 1831 3584 
Q 2591 3584 2966 3190 
Q 3341 2797 3341 1997 
z
" id="DejaVuSans-61" transform="scale(0.015625)"/>
       <path d="M 2906 1791 
Q 2906 2416 2648 2759 
Q 2391 3103 1925 3103 
Q 1463 3103 1205 2759 
Q 947 2416 947 1791 
Q 947 1169 1205 825 
Q 1463 481 1925 481 
Q 2391 481 2648 825 
Q 2906 1169 2906 1791 
z
M 3481 434 
Q 3481 -459 3084 -895 
Q 2688 -1331 1869 -1331 
Q 1566 -1331 1297 -1286 
Q 1028 -1241 775 -1147 
L 775 -588 
Q 1028 -725 1275 -790 
Q 1522 -856 1778 -856 
Q 2344 -856 2625 -561 
Q 2906 -266 2906 331 
L 2906 616 
Q 2728 306 2450 153 
Q 2172 0 1784 0 
Q 1141 0 747 490 
Q 353 981 353 1791 
Q 353 2603 747 3093 
Q 1141 3584 1784 3584 
Q 2172 3584 2450 3431 
Q 2728 3278 2906 2969 
L 2906 3500 
L 3481 3500 
L 3481 434 
z
" id="DejaVuSans-67" transform="scale(0.015625)"/>
       <path d="M 4122 4306 
L 4122 3641 
Q 3803 3938 3442 4084 
Q 3081 4231 2675 4231 
Q 1875 4231 1450 3742 
Q 1025 3253 1025 2328 
Q 1025 1406 1450 917 
Q 1875 428 2675 428 
Q 3081 428 3442 575 
Q 3803 722 4122 1019 
L 4122 359 
Q 3791 134 3420 21 
Q 3050 -91 2638 -91 
Q 1578 -91 968 557 
Q 359 1206 359 2328 
Q 359 3453 968 4101 
Q 1578 4750 2638 4750 
Q 3056 4750 3426 4639 
Q 3797 4528 4122 4306 
z
" id="DejaVuSans-43" transform="scale(0.015625)"/>
       <path d="M 544 1381 
L 544 3500 
L 1119 3500 
L 1119 1403 
Q 1119 906 1312 657 
Q 1506 409 1894 409 
Q 2359 409 2629 706 
Q 2900 1003 2900 1516 
L 2900 3500 
L 3475 3500 
L 3475 0 
L 2900 0 
L 2900 538 
Q 2691 219 2414 64 
Q 2138 -91 1772 -91 
Q 1169 -91 856 284 
Q 544 659 544 1381 
z
M 1991 3584 
L 1991 3584 
z
" id="DejaVuSans-75" transform="scale(0.015625)"/>
      </defs>
      <use xlink:href="#DejaVuSans-54"/>
      <use x="44.583984" xlink:href="#DejaVuSans-61"/>
      <use x="105.863281" xlink:href="#DejaVuSans-72"/>
      <use x="145.226562" xlink:href="#DejaVuSans-67"/>
      <use x="208.703125" xlink:href="#DejaVuSans-65"/>
      <use x="270.226562" xlink:href="#DejaVuSans-74"/>
      <use x="309.435547" xlink:href="#DejaVuSans-20"/>
      <use x="341.222656" xlink:href="#DejaVuSans-43"/>
      <use x="411.046875" xlink:href="#DejaVuSans-6f"/>
      <use x="472.228516" xlink:href="#DejaVuSans-6e"/>
      <use x="535.607422" xlink:href="#DejaVuSans-74"/>
      <use x="574.816406" xlink:href="#DejaVuSans-6f"/>
      <use x="635.998047" xlink:href="#DejaVuSans-75"/>
      <use x="699.376953" xlink:href="#DejaVuSans-72"/>
     </g>
    </g>
    <g id="line2d_33">
     <path d="M 84.335 29.331763 
L 104.335 29.331763 
" style="fill:none;stroke:#000000;stroke-linecap:square;stroke-width:1.5;"/>
    </g>
    <g id="line2d_34"/>
    <g id="text_17">
     <!-- Target Camberline -->
     <g transform="translate(112.335 32.831763)scale(0.1 -0.1)">
      <defs>
       <path d="M 3116 1747 
Q 3116 2381 2855 2742 
Q 2594 3103 2138 3103 
Q 1681 3103 1420 2742 
Q 1159 2381 1159 1747 
Q 1159 1113 1420 752 
Q 1681 391 2138 391 
Q 2594 391 2855 752 
Q 3116 1113 3116 1747 
z
M 1159 2969 
Q 1341 3281 1617 3432 
Q 1894 3584 2278 3584 
Q 2916 3584 3314 3078 
Q 3713 2572 3713 1747 
Q 3713 922 3314 415 
Q 2916 -91 2278 -91 
Q 1894 -91 1617 61 
Q 1341 213 1159 525 
L 1159 0 
L 581 0 
L 581 4863 
L 1159 4863 
L 1159 2969 
z
" id="DejaVuSans-62" transform="scale(0.015625)"/>
       <path d="M 603 4863 
L 1178 4863 
L 1178 0 
L 603 0 
L 603 4863 
z
" id="DejaVuSans-6c" transform="scale(0.015625)"/>
      </defs>
      <use xlink:href="#DejaVuSans-54"/>
      <use x="44.583984" xlink:href="#DejaVuSans-61"/>
      <use x="105.863281" xlink:href="#DejaVuSans-72"/>
      <use x="145.226562" xlink:href="#DejaVuSans-67"/>
      <use x="208.703125" xlink:href="#DejaVuSans-65"/>
      <use x="270.226562" xlink:href="#DejaVuSans-74"/>
      <use x="309.435547" xlink:href="#DejaVuSans-20"/>
      <use x="341.222656" xlink:href="#DejaVuSans-43"/>
      <use x="411.046875" xlink:href="#DejaVuSans-61"/>
      <use x="472.326172" xlink:href="#DejaVuSans-6d"/>
      <use x="569.738281" xlink:href="#DejaVuSans-62"/>
      <use x="633.214844" xlink:href="#DejaVuSans-65"/>
      <use x="694.738281" xlink:href="#DejaVuSans-72"/>
      <use x="735.851562" xlink:href="#DejaVuSans-6c"/>
      <use x="763.634766" xlink:href="#DejaVuSans-69"/>
      <use x="791.417969" xlink:href="#DejaVuSans-6e"/>
      <use x="854.796875" xlink:href="#DejaVuSans-65"/>
     </g>
    </g>
    <g id="line2d_35">
     <path d="M 223.967813 14.653638 
L 243.967813 14.653638 
" style="fill:none;stroke:#ff7f0e;stroke-linecap:square;stroke-width:1.5;"/>
    </g>
    <g id="line2d_36"/>
    <g id="text_18">
     <!-- Final Experimental Contour -->
     <g transform="translate(251.967813 18.153638)scale(0.1 -0.1)">
      <defs>
       <path d="M 628 4666 
L 3309 4666 
L 3309 4134 
L 1259 4134 
L 1259 2759 
L 3109 2759 
L 3109 2228 
L 1259 2228 
L 1259 0 
L 628 0 
L 628 4666 
z
" id="DejaVuSans-46" transform="scale(0.015625)"/>
       <path d="M 628 4666 
L 3578 4666 
L 3578 4134 
L 1259 4134 
L 1259 2753 
L 3481 2753 
L 3481 2222 
L 1259 2222 
L 1259 531 
L 3634 531 
L 3634 0 
L 628 0 
L 628 4666 
z
" id="DejaVuSans-45" transform="scale(0.015625)"/>
       <path d="M 3513 3500 
L 2247 1797 
L 3578 0 
L 2900 0 
L 1881 1375 
L 863 0 
L 184 0 
L 1544 1831 
L 300 3500 
L 978 3500 
L 1906 2253 
L 2834 3500 
L 3513 3500 
z
" id="DejaVuSans-78" transform="scale(0.015625)"/>
       <path d="M 1159 525 
L 1159 -1331 
L 581 -1331 
L 581 3500 
L 1159 3500 
L 1159 2969 
Q 1341 3281 1617 3432 
Q 1894 3584 2278 3584 
Q 2916 3584 3314 3078 
Q 3713 2572 3713 1747 
Q 3713 922 3314 415 
Q 2916 -91 2278 -91 
Q 1894 -91 1617 61 
Q 1341 213 1159 525 
z
M 3116 1747 
Q 3116 2381 2855 2742 
Q 2594 3103 2138 3103 
Q 1681 3103 1420 2742 
Q 1159 2381 1159 1747 
Q 1159 1113 1420 752 
Q 1681 391 2138 391 
Q 2594 391 2855 752 
Q 3116 1113 3116 1747 
z
" id="DejaVuSans-70" transform="scale(0.015625)"/>
      </defs>
      <use xlink:href="#DejaVuSans-46"/>
      <use x="50.269531" xlink:href="#DejaVuSans-69"/>
      <use x="78.052734" xlink:href="#DejaVuSans-6e"/>
      <use x="141.431641" xlink:href="#DejaVuSans-61"/>
      <use x="202.710938" xlink:href="#DejaVuSans-6c"/>
      <use x="230.494141" xlink:href="#DejaVuSans-20"/>
      <use x="262.28125" xlink:href="#DejaVuSans-45"/>
      <use x="325.464844" xlink:href="#DejaVuSans-78"/>
      <use x="384.644531" xlink:href="#DejaVuSans-70"/>
      <use x="448.121094" xlink:href="#DejaVuSans-65"/>
      <use x="509.644531" xlink:href="#DejaVuSans-72"/>
      <use x="550.757812" xlink:href="#DejaVuSans-69"/>
      <use x="578.541016" xlink:href="#DejaVuSans-6d"/>
      <use x="675.953125" xlink:href="#DejaVuSans-65"/>
      <use x="737.476562" xlink:href="#DejaVuSans-6e"/>
      <use x="800.855469" xlink:href="#DejaVuSans-74"/>
      <use x="840.064453" xlink:href="#DejaVuSans-61"/>
      <use x="901.34375" xlink:href="#DejaVuSans-6c"/>
      <use x="929.126953" xlink:href="#DejaVuSans-20"/>
      <use x="960.914062" xlink:href="#DejaVuSans-43"/>
      <use x="1030.738281" xlink:href="#DejaVuSans-6f"/>
      <use x="1091.919922" xlink:href="#DejaVuSans-6e"/>
      <use x="1155.298828" xlink:href="#DejaVuSans-74"/>
      <use x="1194.507812" xlink:href="#DejaVuSans-6f"/>
      <use x="1255.689453" xlink:href="#DejaVuSans-75"/>
      <use x="1319.068359" xlink:href="#DejaVuSans-72"/>
     </g>
    </g>
    <g id="line2d_37">
     <path d="M 223.967813 29.331763 
L 243.967813 29.331763 
" style="fill:none;stroke:#2ca02c;stroke-linecap:square;stroke-width:1.5;"/>
    </g>
    <g id="line2d_38"/>
    <g id="text_19">
     <!-- Final FEM Contour -->
     <g transform="translate(251.967813 32.831763)scale(0.1 -0.1)">
      <defs>
       <path d="M 628 4666 
L 1569 4666 
L 2759 1491 
L 3956 4666 
L 4897 4666 
L 4897 0 
L 4281 0 
L 4281 4097 
L 3078 897 
L 2444 897 
L 1241 4097 
L 1241 0 
L 628 0 
L 628 4666 
z
" id="DejaVuSans-4d" transform="scale(0.015625)"/>
      </defs>
      <use xlink:href="#DejaVuSans-46"/>
      <use x="50.269531" xlink:href="#DejaVuSans-69"/>
      <use x="78.052734" xlink:href="#DejaVuSans-6e"/>
      <use x="141.431641" xlink:href="#DejaVuSans-61"/>
      <use x="202.710938" xlink:href="#DejaVuSans-6c"/>
      <use x="230.494141" xlink:href="#DejaVuSans-20"/>
      <use x="262.28125" xlink:href="#DejaVuSans-46"/>
      <use x="319.800781" xlink:href="#DejaVuSans-45"/>
      <use x="382.984375" xlink:href="#DejaVuSans-4d"/>
      <use x="469.263672" xlink:href="#DejaVuSans-20"/>
      <use x="501.050781" xlink:href="#DejaVuSans-43"/>
      <use x="570.875" xlink:href="#DejaVuSans-6f"/>
      <use x="632.056641" xlink:href="#DejaVuSans-6e"/>
      <use x="695.435547" xlink:href="#DejaVuSans-74"/>
      <use x="734.644531" xlink:href="#DejaVuSans-6f"/>
      <use x="795.826172" xlink:href="#DejaVuSans-75"/>
      <use x="859.205078" xlink:href="#DejaVuSans-72"/>
     </g>
    </g>
   </g>
  </g>
 </g>
 <defs>
  <clipPath id="pd6fbc58d78">
   <rect height="266.112" width="357.12" x="57.6" y="41.472"/>
  </clipPath>
 </defs>
</svg>
