<?xml version="1.0" encoding="utf-8" standalone="no"?>
<!DOCTYPE svg PUBLIC "-//W3C//DTD SVG 1.1//EN"
  "http://www.w3.org/Graphics/SVG/1.1/DTD/svg11.dtd">
<svg height="345.6pt" version="1.1" viewBox="0 0 460.8 345.6" width="460.8pt" xmlns="http://www.w3.org/2000/svg" xmlns:xlink="http://www.w3.org/1999/xlink">
 <metadata>
  <rdf:RDF xmlns:cc="http://creativecommons.org/ns#" xmlns:dc="http://purl.org/dc/elements/1.1/" xmlns:rdf="http://www.w3.org/1999/02/22-rdf-syntax-ns#">
   <cc:Work>
    <dc:type rdf:resource="http://purl.org/dc/dcmitype/StillImage"/>
    <dc:date>2022-06-01T09:57:19.829323</dc:date>
    <dc:format>image/svg+xml</dc:format>
    <dc:creator>
     <cc:Agent>
      <dc:title>Matplotlib v3.4.1, https://matplotlib.org/</dc:title>
     </cc:Agent>
    </dc:creator>
   </cc:Work>
  </rdf:RDF>
 </metadata>
 <defs>
  <style type="text/css">*{stroke-linecap:butt;stroke-linejoin:round;}</style>
 </defs>
 <g id="figure_1">
  <g id="patch_1">
   <path d="M 0 345.6 
L 460.8 345.6 
L 460.8 0 
L 0 0 
z
" style="fill:#ffffff;"/>
  </g>
  <g id="axes_1">
   <g id="patch_2">
    <path d="M 57.6 307.584 
L 414.72 307.584 
L 414.72 41.472 
L 57.6 41.472 
z
" style="fill:#ffffff;"/>
   </g>
   <g id="matplotlib.axis_1">
    <g id="xtick_1">
     <g id="line2d_1">
      <path clip-path="url(#p87daeb1faa)" d="M 76.412523 307.584 
L 76.412523 41.472 
" style="fill:none;stroke:#b0b0b0;stroke-linecap:square;stroke-width:0.8;"/>
     </g>
     <g id="line2d_2">
      <defs>
       <path d="M 0 0 
L 0 3.5 
" id="m8f8614807b" style="stroke:#000000;stroke-width:0.8;"/>
      </defs>
      <g>
       <use style="stroke:#000000;stroke-width:0.8;" x="76.412523" xlink:href="#m8f8614807b" y="307.584"/>
      </g>
     </g>
     <g id="text_1">
      <!-- 0 -->
      <g transform="translate(73.231273 322.182437)scale(0.1 -0.1)">
       <defs>
        <path d="M 2034 4250 
Q 1547 4250 1301 3770 
Q 1056 3291 1056 2328 
Q 1056 1369 1301 889 
Q 1547 409 2034 409 
Q 2525 409 2770 889 
Q 3016 1369 3016 2328 
Q 3016 3291 2770 3770 
Q 2525 4250 2034 4250 
z
M 2034 4750 
Q 2819 4750 3233 4129 
Q 3647 3509 3647 2328 
Q 3647 1150 3233 529 
Q 2819 -91 2034 -91 
Q 1250 -91 836 529 
Q 422 1150 422 2328 
Q 422 3509 836 4129 
Q 1250 4750 2034 4750 
z
" id="DejaVuSans-30" transform="scale(0.015625)"/>
       </defs>
       <use xlink:href="#DejaVuSans-30"/>
      </g>
     </g>
    </g>
    <g id="xtick_2">
     <g id="line2d_3">
      <path clip-path="url(#p87daeb1faa)" d="M 141.264402 307.584 
L 141.264402 41.472 
" style="fill:none;stroke:#b0b0b0;stroke-linecap:square;stroke-width:0.8;"/>
     </g>
     <g id="line2d_4">
      <g>
       <use style="stroke:#000000;stroke-width:0.8;" x="141.264402" xlink:href="#m8f8614807b" y="307.584"/>
      </g>
     </g>
     <g id="text_2">
      <!-- 100 -->
      <g transform="translate(131.720652 322.182437)scale(0.1 -0.1)">
       <defs>
        <path d="M 794 531 
L 1825 531 
L 1825 4091 
L 703 3866 
L 703 4441 
L 1819 4666 
L 2450 4666 
L 2450 531 
L 3481 531 
L 3481 0 
L 794 0 
L 794 531 
z
" id="DejaVuSans-31" transform="scale(0.015625)"/>
       </defs>
       <use xlink:href="#DejaVuSans-31"/>
       <use x="63.623047" xlink:href="#DejaVuSans-30"/>
       <use x="127.246094" xlink:href="#DejaVuSans-30"/>
      </g>
     </g>
    </g>
    <g id="xtick_3">
     <g id="line2d_5">
      <path clip-path="url(#p87daeb1faa)" d="M 206.116281 307.584 
L 206.116281 41.472 
" style="fill:none;stroke:#b0b0b0;stroke-linecap:square;stroke-width:0.8;"/>
     </g>
     <g id="line2d_6">
      <g>
       <use style="stroke:#000000;stroke-width:0.8;" x="206.116281" xlink:href="#m8f8614807b" y="307.584"/>
      </g>
     </g>
     <g id="text_3">
      <!-- 200 -->
      <g transform="translate(196.572531 322.182437)scale(0.1 -0.1)">
       <defs>
        <path d="M 1228 531 
L 3431 531 
L 3431 0 
L 469 0 
L 469 531 
Q 828 903 1448 1529 
Q 2069 2156 2228 2338 
Q 2531 2678 2651 2914 
Q 2772 3150 2772 3378 
Q 2772 3750 2511 3984 
Q 2250 4219 1831 4219 
Q 1534 4219 1204 4116 
Q 875 4013 500 3803 
L 500 4441 
Q 881 4594 1212 4672 
Q 1544 4750 1819 4750 
Q 2544 4750 2975 4387 
Q 3406 4025 3406 3419 
Q 3406 3131 3298 2873 
Q 3191 2616 2906 2266 
Q 2828 2175 2409 1742 
Q 1991 1309 1228 531 
z
" id="DejaVuSans-32" transform="scale(0.015625)"/>
       </defs>
       <use xlink:href="#DejaVuSans-32"/>
       <use x="63.623047" xlink:href="#DejaVuSans-30"/>
       <use x="127.246094" xlink:href="#DejaVuSans-30"/>
      </g>
     </g>
    </g>
    <g id="xtick_4">
     <g id="line2d_7">
      <path clip-path="url(#p87daeb1faa)" d="M 270.96816 307.584 
L 270.96816 41.472 
" style="fill:none;stroke:#b0b0b0;stroke-linecap:square;stroke-width:0.8;"/>
     </g>
     <g id="line2d_8">
      <g>
       <use style="stroke:#000000;stroke-width:0.8;" x="270.96816" xlink:href="#m8f8614807b" y="307.584"/>
      </g>
     </g>
     <g id="text_4">
      <!-- 300 -->
      <g transform="translate(261.42441 322.182437)scale(0.1 -0.1)">
       <defs>
        <path d="M 2597 2516 
Q 3050 2419 3304 2112 
Q 3559 1806 3559 1356 
Q 3559 666 3084 287 
Q 2609 -91 1734 -91 
Q 1441 -91 1130 -33 
Q 819 25 488 141 
L 488 750 
Q 750 597 1062 519 
Q 1375 441 1716 441 
Q 2309 441 2620 675 
Q 2931 909 2931 1356 
Q 2931 1769 2642 2001 
Q 2353 2234 1838 2234 
L 1294 2234 
L 1294 2753 
L 1863 2753 
Q 2328 2753 2575 2939 
Q 2822 3125 2822 3475 
Q 2822 3834 2567 4026 
Q 2313 4219 1838 4219 
Q 1578 4219 1281 4162 
Q 984 4106 628 3988 
L 628 4550 
Q 988 4650 1302 4700 
Q 1616 4750 1894 4750 
Q 2613 4750 3031 4423 
Q 3450 4097 3450 3541 
Q 3450 3153 3228 2886 
Q 3006 2619 2597 2516 
z
" id="DejaVuSans-33" transform="scale(0.015625)"/>
       </defs>
       <use xlink:href="#DejaVuSans-33"/>
       <use x="63.623047" xlink:href="#DejaVuSans-30"/>
       <use x="127.246094" xlink:href="#DejaVuSans-30"/>
      </g>
     </g>
    </g>
    <g id="xtick_5">
     <g id="line2d_9">
      <path clip-path="url(#p87daeb1faa)" d="M 335.820038 307.584 
L 335.820038 41.472 
" style="fill:none;stroke:#b0b0b0;stroke-linecap:square;stroke-width:0.8;"/>
     </g>
     <g id="line2d_10">
      <g>
       <use style="stroke:#000000;stroke-width:0.8;" x="335.820038" xlink:href="#m8f8614807b" y="307.584"/>
      </g>
     </g>
     <g id="text_5">
      <!-- 400 -->
      <g transform="translate(326.276288 322.182437)scale(0.1 -0.1)">
       <defs>
        <path d="M 2419 4116 
L 825 1625 
L 2419 1625 
L 2419 4116 
z
M 2253 4666 
L 3047 4666 
L 3047 1625 
L 3713 1625 
L 3713 1100 
L 3047 1100 
L 3047 0 
L 2419 0 
L 2419 1100 
L 313 1100 
L 313 1709 
L 2253 4666 
z
" id="DejaVuSans-34" transform="scale(0.015625)"/>
       </defs>
       <use xlink:href="#DejaVuSans-34"/>
       <use x="63.623047" xlink:href="#DejaVuSans-30"/>
       <use x="127.246094" xlink:href="#DejaVuSans-30"/>
      </g>
     </g>
    </g>
    <g id="xtick_6">
     <g id="line2d_11">
      <path clip-path="url(#p87daeb1faa)" d="M 400.671917 307.584 
L 400.671917 41.472 
" style="fill:none;stroke:#b0b0b0;stroke-linecap:square;stroke-width:0.8;"/>
     </g>
     <g id="line2d_12">
      <g>
       <use style="stroke:#000000;stroke-width:0.8;" x="400.671917" xlink:href="#m8f8614807b" y="307.584"/>
      </g>
     </g>
     <g id="text_6">
      <!-- 500 -->
      <g transform="translate(391.128167 322.182437)scale(0.1 -0.1)">
       <defs>
        <path d="M 691 4666 
L 3169 4666 
L 3169 4134 
L 1269 4134 
L 1269 2991 
Q 1406 3038 1543 3061 
Q 1681 3084 1819 3084 
Q 2600 3084 3056 2656 
Q 3513 2228 3513 1497 
Q 3513 744 3044 326 
Q 2575 -91 1722 -91 
Q 1428 -91 1123 -41 
Q 819 9 494 109 
L 494 744 
Q 775 591 1075 516 
Q 1375 441 1709 441 
Q 2250 441 2565 725 
Q 2881 1009 2881 1497 
Q 2881 1984 2565 2268 
Q 2250 2553 1709 2553 
Q 1456 2553 1204 2497 
Q 953 2441 691 2322 
L 691 4666 
z
" id="DejaVuSans-35" transform="scale(0.015625)"/>
       </defs>
       <use xlink:href="#DejaVuSans-35"/>
       <use x="63.623047" xlink:href="#DejaVuSans-30"/>
       <use x="127.246094" xlink:href="#DejaVuSans-30"/>
      </g>
     </g>
    </g>
    <g id="text_7">
     <!-- Position in X direction [mm] -->
     <g transform="translate(166.805313 335.860562)scale(0.1 -0.1)">
      <defs>
       <path d="M 1259 4147 
L 1259 2394 
L 2053 2394 
Q 2494 2394 2734 2622 
Q 2975 2850 2975 3272 
Q 2975 3691 2734 3919 
Q 2494 4147 2053 4147 
L 1259 4147 
z
M 628 4666 
L 2053 4666 
Q 2838 4666 3239 4311 
Q 3641 3956 3641 3272 
Q 3641 2581 3239 2228 
Q 2838 1875 2053 1875 
L 1259 1875 
L 1259 0 
L 628 0 
L 628 4666 
z
" id="DejaVuSans-50" transform="scale(0.015625)"/>
       <path d="M 1959 3097 
Q 1497 3097 1228 2736 
Q 959 2375 959 1747 
Q 959 1119 1226 758 
Q 1494 397 1959 397 
Q 2419 397 2687 759 
Q 2956 1122 2956 1747 
Q 2956 2369 2687 2733 
Q 2419 3097 1959 3097 
z
M 1959 3584 
Q 2709 3584 3137 3096 
Q 3566 2609 3566 1747 
Q 3566 888 3137 398 
Q 2709 -91 1959 -91 
Q 1206 -91 779 398 
Q 353 888 353 1747 
Q 353 2609 779 3096 
Q 1206 3584 1959 3584 
z
" id="DejaVuSans-6f" transform="scale(0.015625)"/>
       <path d="M 2834 3397 
L 2834 2853 
Q 2591 2978 2328 3040 
Q 2066 3103 1784 3103 
Q 1356 3103 1142 2972 
Q 928 2841 928 2578 
Q 928 2378 1081 2264 
Q 1234 2150 1697 2047 
L 1894 2003 
Q 2506 1872 2764 1633 
Q 3022 1394 3022 966 
Q 3022 478 2636 193 
Q 2250 -91 1575 -91 
Q 1294 -91 989 -36 
Q 684 19 347 128 
L 347 722 
Q 666 556 975 473 
Q 1284 391 1588 391 
Q 1994 391 2212 530 
Q 2431 669 2431 922 
Q 2431 1156 2273 1281 
Q 2116 1406 1581 1522 
L 1381 1569 
Q 847 1681 609 1914 
Q 372 2147 372 2553 
Q 372 3047 722 3315 
Q 1072 3584 1716 3584 
Q 2034 3584 2315 3537 
Q 2597 3491 2834 3397 
z
" id="DejaVuSans-73" transform="scale(0.015625)"/>
       <path d="M 603 3500 
L 1178 3500 
L 1178 0 
L 603 0 
L 603 3500 
z
M 603 4863 
L 1178 4863 
L 1178 4134 
L 603 4134 
L 603 4863 
z
" id="DejaVuSans-69" transform="scale(0.015625)"/>
       <path d="M 1172 4494 
L 1172 3500 
L 2356 3500 
L 2356 3053 
L 1172 3053 
L 1172 1153 
Q 1172 725 1289 603 
Q 1406 481 1766 481 
L 2356 481 
L 2356 0 
L 1766 0 
Q 1100 0 847 248 
Q 594 497 594 1153 
L 594 3053 
L 172 3053 
L 172 3500 
L 594 3500 
L 594 4494 
L 1172 4494 
z
" id="DejaVuSans-74" transform="scale(0.015625)"/>
       <path d="M 3513 2113 
L 3513 0 
L 2938 0 
L 2938 2094 
Q 2938 2591 2744 2837 
Q 2550 3084 2163 3084 
Q 1697 3084 1428 2787 
Q 1159 2491 1159 1978 
L 1159 0 
L 581 0 
L 581 3500 
L 1159 3500 
L 1159 2956 
Q 1366 3272 1645 3428 
Q 1925 3584 2291 3584 
Q 2894 3584 3203 3211 
Q 3513 2838 3513 2113 
z
" id="DejaVuSans-6e" transform="scale(0.015625)"/>
       <path id="DejaVuSans-20" transform="scale(0.015625)"/>
       <path d="M 403 4666 
L 1081 4666 
L 2241 2931 
L 3406 4666 
L 4084 4666 
L 2584 2425 
L 4184 0 
L 3506 0 
L 2194 1984 
L 872 0 
L 191 0 
L 1856 2491 
L 403 4666 
z
" id="DejaVuSans-58" transform="scale(0.015625)"/>
       <path d="M 2906 2969 
L 2906 4863 
L 3481 4863 
L 3481 0 
L 2906 0 
L 2906 525 
Q 2725 213 2448 61 
Q 2172 -91 1784 -91 
Q 1150 -91 751 415 
Q 353 922 353 1747 
Q 353 2572 751 3078 
Q 1150 3584 1784 3584 
Q 2172 3584 2448 3432 
Q 2725 3281 2906 2969 
z
M 947 1747 
Q 947 1113 1208 752 
Q 1469 391 1925 391 
Q 2381 391 2643 752 
Q 2906 1113 2906 1747 
Q 2906 2381 2643 2742 
Q 2381 3103 1925 3103 
Q 1469 3103 1208 2742 
Q 947 2381 947 1747 
z
" id="DejaVuSans-64" transform="scale(0.015625)"/>
       <path d="M 2631 2963 
Q 2534 3019 2420 3045 
Q 2306 3072 2169 3072 
Q 1681 3072 1420 2755 
Q 1159 2438 1159 1844 
L 1159 0 
L 581 0 
L 581 3500 
L 1159 3500 
L 1159 2956 
Q 1341 3275 1631 3429 
Q 1922 3584 2338 3584 
Q 2397 3584 2469 3576 
Q 2541 3569 2628 3553 
L 2631 2963 
z
" id="DejaVuSans-72" transform="scale(0.015625)"/>
       <path d="M 3597 1894 
L 3597 1613 
L 953 1613 
Q 991 1019 1311 708 
Q 1631 397 2203 397 
Q 2534 397 2845 478 
Q 3156 559 3463 722 
L 3463 178 
Q 3153 47 2828 -22 
Q 2503 -91 2169 -91 
Q 1331 -91 842 396 
Q 353 884 353 1716 
Q 353 2575 817 3079 
Q 1281 3584 2069 3584 
Q 2775 3584 3186 3129 
Q 3597 2675 3597 1894 
z
M 3022 2063 
Q 3016 2534 2758 2815 
Q 2500 3097 2075 3097 
Q 1594 3097 1305 2825 
Q 1016 2553 972 2059 
L 3022 2063 
z
" id="DejaVuSans-65" transform="scale(0.015625)"/>
       <path d="M 3122 3366 
L 3122 2828 
Q 2878 2963 2633 3030 
Q 2388 3097 2138 3097 
Q 1578 3097 1268 2742 
Q 959 2388 959 1747 
Q 959 1106 1268 751 
Q 1578 397 2138 397 
Q 2388 397 2633 464 
Q 2878 531 3122 666 
L 3122 134 
Q 2881 22 2623 -34 
Q 2366 -91 2075 -91 
Q 1284 -91 818 406 
Q 353 903 353 1747 
Q 353 2603 823 3093 
Q 1294 3584 2113 3584 
Q 2378 3584 2631 3529 
Q 2884 3475 3122 3366 
z
" id="DejaVuSans-63" transform="scale(0.015625)"/>
       <path d="M 550 4863 
L 1875 4863 
L 1875 4416 
L 1125 4416 
L 1125 -397 
L 1875 -397 
L 1875 -844 
L 550 -844 
L 550 4863 
z
" id="DejaVuSans-5b" transform="scale(0.015625)"/>
       <path d="M 3328 2828 
Q 3544 3216 3844 3400 
Q 4144 3584 4550 3584 
Q 5097 3584 5394 3201 
Q 5691 2819 5691 2113 
L 5691 0 
L 5113 0 
L 5113 2094 
Q 5113 2597 4934 2840 
Q 4756 3084 4391 3084 
Q 3944 3084 3684 2787 
Q 3425 2491 3425 1978 
L 3425 0 
L 2847 0 
L 2847 2094 
Q 2847 2600 2669 2842 
Q 2491 3084 2119 3084 
Q 1678 3084 1418 2786 
Q 1159 2488 1159 1978 
L 1159 0 
L 581 0 
L 581 3500 
L 1159 3500 
L 1159 2956 
Q 1356 3278 1631 3431 
Q 1906 3584 2284 3584 
Q 2666 3584 2933 3390 
Q 3200 3197 3328 2828 
z
" id="DejaVuSans-6d" transform="scale(0.015625)"/>
       <path d="M 1947 4863 
L 1947 -844 
L 622 -844 
L 622 -397 
L 1369 -397 
L 1369 4416 
L 622 4416 
L 622 4863 
L 1947 4863 
z
" id="DejaVuSans-5d" transform="scale(0.015625)"/>
      </defs>
      <use xlink:href="#DejaVuSans-50"/>
      <use x="56.677734" xlink:href="#DejaVuSans-6f"/>
      <use x="117.859375" xlink:href="#DejaVuSans-73"/>
      <use x="169.958984" xlink:href="#DejaVuSans-69"/>
      <use x="197.742188" xlink:href="#DejaVuSans-74"/>
      <use x="236.951172" xlink:href="#DejaVuSans-69"/>
      <use x="264.734375" xlink:href="#DejaVuSans-6f"/>
      <use x="325.916016" xlink:href="#DejaVuSans-6e"/>
      <use x="389.294922" xlink:href="#DejaVuSans-20"/>
      <use x="421.082031" xlink:href="#DejaVuSans-69"/>
      <use x="448.865234" xlink:href="#DejaVuSans-6e"/>
      <use x="512.244141" xlink:href="#DejaVuSans-20"/>
      <use x="544.03125" xlink:href="#DejaVuSans-58"/>
      <use x="612.537109" xlink:href="#DejaVuSans-20"/>
      <use x="644.324219" xlink:href="#DejaVuSans-64"/>
      <use x="707.800781" xlink:href="#DejaVuSans-69"/>
      <use x="735.583984" xlink:href="#DejaVuSans-72"/>
      <use x="774.447266" xlink:href="#DejaVuSans-65"/>
      <use x="835.970703" xlink:href="#DejaVuSans-63"/>
      <use x="890.951172" xlink:href="#DejaVuSans-74"/>
      <use x="930.160156" xlink:href="#DejaVuSans-69"/>
      <use x="957.943359" xlink:href="#DejaVuSans-6f"/>
      <use x="1019.125" xlink:href="#DejaVuSans-6e"/>
      <use x="1082.503906" xlink:href="#DejaVuSans-20"/>
      <use x="1114.291016" xlink:href="#DejaVuSans-5b"/>
      <use x="1153.304688" xlink:href="#DejaVuSans-6d"/>
      <use x="1250.716797" xlink:href="#DejaVuSans-6d"/>
      <use x="1348.128906" xlink:href="#DejaVuSans-5d"/>
     </g>
    </g>
   </g>
   <g id="matplotlib.axis_2">
    <g id="ytick_1">
     <g id="line2d_13">
      <path clip-path="url(#p87daeb1faa)" d="M 57.6 278.04928 
L 414.72 278.04928 
" style="fill:none;stroke:#b0b0b0;stroke-linecap:square;stroke-width:0.8;"/>
     </g>
     <g id="line2d_14">
      <defs>
       <path d="M 0 0 
L -3.5 0 
" id="mad145703b3" style="stroke:#000000;stroke-width:0.8;"/>
      </defs>
      <g>
       <use style="stroke:#000000;stroke-width:0.8;" x="57.6" xlink:href="#mad145703b3" y="278.04928"/>
      </g>
     </g>
     <g id="text_8">
      <!-- −150 -->
      <g transform="translate(23.132812 281.848499)scale(0.1 -0.1)">
       <defs>
        <path d="M 678 2272 
L 4684 2272 
L 4684 1741 
L 678 1741 
L 678 2272 
z
" id="DejaVuSans-2212" transform="scale(0.015625)"/>
       </defs>
       <use xlink:href="#DejaVuSans-2212"/>
       <use x="83.789062" xlink:href="#DejaVuSans-31"/>
       <use x="147.412109" xlink:href="#DejaVuSans-35"/>
       <use x="211.035156" xlink:href="#DejaVuSans-30"/>
      </g>
     </g>
    </g>
    <g id="ytick_2">
     <g id="line2d_15">
      <path clip-path="url(#p87daeb1faa)" d="M 57.6 240.960735 
L 414.72 240.960735 
" style="fill:none;stroke:#b0b0b0;stroke-linecap:square;stroke-width:0.8;"/>
     </g>
     <g id="line2d_16">
      <g>
       <use style="stroke:#000000;stroke-width:0.8;" x="57.6" xlink:href="#mad145703b3" y="240.960735"/>
      </g>
     </g>
     <g id="text_9">
      <!-- −100 -->
      <g transform="translate(23.132812 244.759954)scale(0.1 -0.1)">
       <use xlink:href="#DejaVuSans-2212"/>
       <use x="83.789062" xlink:href="#DejaVuSans-31"/>
       <use x="147.412109" xlink:href="#DejaVuSans-30"/>
       <use x="211.035156" xlink:href="#DejaVuSans-30"/>
      </g>
     </g>
    </g>
    <g id="ytick_3">
     <g id="line2d_17">
      <path clip-path="url(#p87daeb1faa)" d="M 57.6 203.872191 
L 414.72 203.872191 
" style="fill:none;stroke:#b0b0b0;stroke-linecap:square;stroke-width:0.8;"/>
     </g>
     <g id="line2d_18">
      <g>
       <use style="stroke:#000000;stroke-width:0.8;" x="57.6" xlink:href="#mad145703b3" y="203.872191"/>
      </g>
     </g>
     <g id="text_10">
      <!-- −50 -->
      <g transform="translate(29.495313 207.671409)scale(0.1 -0.1)">
       <use xlink:href="#DejaVuSans-2212"/>
       <use x="83.789062" xlink:href="#DejaVuSans-35"/>
       <use x="147.412109" xlink:href="#DejaVuSans-30"/>
      </g>
     </g>
    </g>
    <g id="ytick_4">
     <g id="line2d_19">
      <path clip-path="url(#p87daeb1faa)" d="M 57.6 166.783646 
L 414.72 166.783646 
" style="fill:none;stroke:#b0b0b0;stroke-linecap:square;stroke-width:0.8;"/>
     </g>
     <g id="line2d_20">
      <g>
       <use style="stroke:#000000;stroke-width:0.8;" x="57.6" xlink:href="#mad145703b3" y="166.783646"/>
      </g>
     </g>
     <g id="text_11">
      <!-- 0 -->
      <g transform="translate(44.2375 170.582865)scale(0.1 -0.1)">
       <use xlink:href="#DejaVuSans-30"/>
      </g>
     </g>
    </g>
    <g id="ytick_5">
     <g id="line2d_21">
      <path clip-path="url(#p87daeb1faa)" d="M 57.6 129.695101 
L 414.72 129.695101 
" style="fill:none;stroke:#b0b0b0;stroke-linecap:square;stroke-width:0.8;"/>
     </g>
     <g id="line2d_22">
      <g>
       <use style="stroke:#000000;stroke-width:0.8;" x="57.6" xlink:href="#mad145703b3" y="129.695101"/>
      </g>
     </g>
     <g id="text_12">
      <!-- 50 -->
      <g transform="translate(37.875 133.49432)scale(0.1 -0.1)">
       <use xlink:href="#DejaVuSans-35"/>
       <use x="63.623047" xlink:href="#DejaVuSans-30"/>
      </g>
     </g>
    </g>
    <g id="ytick_6">
     <g id="line2d_23">
      <path clip-path="url(#p87daeb1faa)" d="M 57.6 92.606557 
L 414.72 92.606557 
" style="fill:none;stroke:#b0b0b0;stroke-linecap:square;stroke-width:0.8;"/>
     </g>
     <g id="line2d_24">
      <g>
       <use style="stroke:#000000;stroke-width:0.8;" x="57.6" xlink:href="#mad145703b3" y="92.606557"/>
      </g>
     </g>
     <g id="text_13">
      <!-- 100 -->
      <g transform="translate(31.5125 96.405775)scale(0.1 -0.1)">
       <use xlink:href="#DejaVuSans-31"/>
       <use x="63.623047" xlink:href="#DejaVuSans-30"/>
       <use x="127.246094" xlink:href="#DejaVuSans-30"/>
      </g>
     </g>
    </g>
    <g id="ytick_7">
     <g id="line2d_25">
      <path clip-path="url(#p87daeb1faa)" d="M 57.6 55.518012 
L 414.72 55.518012 
" style="fill:none;stroke:#b0b0b0;stroke-linecap:square;stroke-width:0.8;"/>
     </g>
     <g id="line2d_26">
      <g>
       <use style="stroke:#000000;stroke-width:0.8;" x="57.6" xlink:href="#mad145703b3" y="55.518012"/>
      </g>
     </g>
     <g id="text_14">
      <!-- 150 -->
      <g transform="translate(31.5125 59.317231)scale(0.1 -0.1)">
       <use xlink:href="#DejaVuSans-31"/>
       <use x="63.623047" xlink:href="#DejaVuSans-35"/>
       <use x="127.246094" xlink:href="#DejaVuSans-30"/>
      </g>
     </g>
    </g>
    <g id="text_15">
     <!-- Position in Y direction [mm] -->
     <g transform="translate(17.053125 243.511594)rotate(-90)scale(0.1 -0.1)">
      <defs>
       <path d="M -13 4666 
L 666 4666 
L 1959 2747 
L 3244 4666 
L 3922 4666 
L 2272 2222 
L 2272 0 
L 1638 0 
L 1638 2222 
L -13 4666 
z
" id="DejaVuSans-59" transform="scale(0.015625)"/>
      </defs>
      <use xlink:href="#DejaVuSans-50"/>
      <use x="56.677734" xlink:href="#DejaVuSans-6f"/>
      <use x="117.859375" xlink:href="#DejaVuSans-73"/>
      <use x="169.958984" xlink:href="#DejaVuSans-69"/>
      <use x="197.742188" xlink:href="#DejaVuSans-74"/>
      <use x="236.951172" xlink:href="#DejaVuSans-69"/>
      <use x="264.734375" xlink:href="#DejaVuSans-6f"/>
      <use x="325.916016" xlink:href="#DejaVuSans-6e"/>
      <use x="389.294922" xlink:href="#DejaVuSans-20"/>
      <use x="421.082031" xlink:href="#DejaVuSans-69"/>
      <use x="448.865234" xlink:href="#DejaVuSans-6e"/>
      <use x="512.244141" xlink:href="#DejaVuSans-20"/>
      <use x="544.03125" xlink:href="#DejaVuSans-59"/>
      <use x="605.115234" xlink:href="#DejaVuSans-20"/>
      <use x="636.902344" xlink:href="#DejaVuSans-64"/>
      <use x="700.378906" xlink:href="#DejaVuSans-69"/>
      <use x="728.162109" xlink:href="#DejaVuSans-72"/>
      <use x="767.025391" xlink:href="#DejaVuSans-65"/>
      <use x="828.548828" xlink:href="#DejaVuSans-63"/>
      <use x="883.529297" xlink:href="#DejaVuSans-74"/>
      <use x="922.738281" xlink:href="#DejaVuSans-69"/>
      <use x="950.521484" xlink:href="#DejaVuSans-6f"/>
      <use x="1011.703125" xlink:href="#DejaVuSans-6e"/>
      <use x="1075.082031" xlink:href="#DejaVuSans-20"/>
      <use x="1106.869141" xlink:href="#DejaVuSans-5b"/>
      <use x="1145.882812" xlink:href="#DejaVuSans-6d"/>
      <use x="1243.294922" xlink:href="#DejaVuSans-6d"/>
      <use x="1340.707031" xlink:href="#DejaVuSans-5d"/>
     </g>
    </g>
   </g>
   <g id="line2d_27">
    <path clip-path="url(#p87daeb1faa)" d="M 73.832727 53.568 
L 75.707336 53.849517 
L 78.670441 54.761655 
L 79.372752 55.875949 
L 81.271357 54.988626 
L 81.416751 56.008363 
L 84.04889 55.202376 
L 84.189075 56.04827 
L 86.817003 56.110999 
L 86.910151 55.350209 
L 89.378552 55.553519 
L 89.902291 56.326117 
L 92.566695 56.469781 
L 92.6666 55.611915 
L 95.29601 56.717687 
L 97.95092 57.093728 
L 100.962185 57.305608 
L 109.341115 58.38668 
L 110.27674 59.000307 
L 111.932603 58.627985 
L 112.385902 59.120987 
L 114.493585 58.797713 
L 115.143053 59.375566 
L 117.777864 59.676612 
L 128.961205 61.430168 
L 130.113364 62.269058 
L 131.6605 61.657745 
L 131.924052 62.383001 
L 134.448225 61.808902 
L 134.670201 62.585346 
L 136.75304 61.97624 
L 137.449966 62.789618 
L 140.174631 63.162352 
L 148.513797 64.663137 
L 149.483024 65.388259 
L 151.313981 64.901465 
L 151.599402 65.58796 
L 153.930109 65.054156 
L 154.306937 65.810234 
L 156.214308 65.236037 
L 157.065143 66.045214 
L 162.5846 66.924214 
L 168.17219 67.798065 
L 169.227953 68.627877 
L 170.838636 68.03193 
L 171.18087 68.81934 
L 173.604311 68.269078 
L 173.889859 69.035324 
L 175.689035 68.443366 
L 176.660913 69.296809 
L 182.197119 70.137062 
L 185.029688 70.67988 
L 185.850168 71.797575 
L 187.715483 71.082296 
L 188.510895 71.872719 
L 190.422522 71.342692 
L 190.858192 72.099658 
L 193.105257 71.569171 
L 193.519582 72.281631 
L 196.220947 72.625525 
L 201.805897 73.658705 
L 204.581274 74.192922 
L 205.693018 75.030719 
L 207.236407 74.507225 
L 207.673311 75.225931 
L 209.525234 74.767225 
L 210.319971 75.50327 
L 215.821438 76.586175 
L 221.347736 77.772742 
L 221.940997 78.352759 
L 223.823667 78.035977 
L 224.206387 78.666444 
L 232.525161 80.910176 
L 233.59722 81.523713 
L 234.672373 81.155177 
L 235.609077 81.830754 
L 238.298923 82.585879 
L 240.952871 83.47252 
L 243.580482 84.131625 
L 244.494413 84.838143 
L 245.544156 84.46971 
L 246.70278 85.384722 
L 251.816989 87.194631 
L 252.922852 88.015435 
L 255.231937 88.573152 
L 260.017367 90.399853 
L 261.116248 91.307794 
L 262.296817 90.849269 
L 263.503971 92.005913 
L 266.209438 93.235163 
L 267.370257 94.378609 
L 268.227071 93.881516 
L 269.233201 94.826024 
L 271.91854 95.997323 
L 273.172405 97.47757 
L 274.209556 96.85463 
L 275.056672 97.934249 
L 279.891378 100.021146 
L 280.708227 101.123147 
L 283.091409 102.098608 
L 285.2827 103.146254 
L 285.871487 104.314174 
L 290.880749 106.43094 
L 291.807838 107.608441 
L 294.248067 108.875612 
L 295.370391 110.388407 
L 296.270188 109.718697 
L 297.333342 111.187776 
L 299.637076 112.502375 
L 300.680738 113.83497 
L 301.530844 113.171598 
L 302.705708 115.122803 
L 303.49548 116.993939 
L 304.850298 116.078475 
L 305.198597 117.362395 
L 308.148797 118.381403 
L 309.995839 119.580556 
L 311.547825 121.364692 
L 313.306655 122.452086 
L 314.266761 123.802015 
L 316.477675 125.115519 
L 317.546227 126.659322 
L 318.399975 125.979606 
L 319.491934 127.730014 
L 320.75602 129.51347 
L 321.634761 128.887105 
L 321.988276 129.950634 
L 325.411225 132.175279 
L 325.612291 133.329115 
L 326.555711 132.557896 
L 328.745283 136.302085 
L 329.618994 135.490644 
L 331.900651 139.243306 
L 332.687613 138.479319 
L 333.76076 140.325987 
L 334.764935 142.332104 
L 335.703303 141.464394 
L 336.695831 143.269466 
L 338.572304 144.520594 
L 339.673803 146.286323 
L 341.568433 147.613506 
L 342.593796 149.369727 
L 344.401987 150.614013 
L 345.458407 152.541703 
L 346.205549 151.743117 
L 347.262274 153.757503 
L 347.906996 155.394485 
L 349.130077 154.844005 
L 351.921187 158.024247 
L 362.071646 168.863113 
L 363.586735 170.292475 
L 364.961152 171.790925 
L 366.655145 173.431281 
L 369.25949 176.436252 
L 370.842561 179.057487 
L 371.104061 181.039034 
L 371.837068 180.033609 
L 372.797628 182.10099 
L 373.915183 184.078118 
L 374.608837 183.252676 
L 375.55914 185.511669 
L 376.644361 187.483671 
L 377.339477 186.572963 
L 378.308186 188.791913 
L 379.345532 190.77142 
L 380.00958 189.9284 
L 381.04605 192.090516 
L 381.950323 194.330888 
L 382.815514 193.19003 
L 383.754512 195.290455 
L 384.752747 197.226373 
L 385.495886 196.469464 
L 387.445007 200.853149 
L 388.194937 199.855719 
L 390.069471 204.141726 
L 391.269498 205.42336 
L 393.619189 209.777341 
L 395.213856 211.398692 
L 396.015263 214.045762 
L 396.398558 216.643856 
L 396.628304 212.578213 
L 397.067734 214.628364 
L 397.498324 217.626304 
L 397.847393 220.872953 
L 398.431219 223.850039 
L 398.487273 227.181142 
L 397.771836 233.516745 
L 396.677874 238.696177 
L 396.245828 237.43071 
L 395.572487 239.956128 
L 393.90257 245.068869 
L 393.386081 244.090258 
L 392.51105 246.478651 
L 391.425725 248.851843 
L 390.054831 249.980077 
L 388.809815 252.147658 
L 387.350845 253.421328 
L 386.144817 255.516347 
L 384.614554 256.812617 
L 383.445345 258.58942 
L 381.751139 260.031233 
L 380.634819 261.543421 
L 378.628282 263.023823 
L 377.529676 264.532991 
L 376.838377 263.906156 
L 375.613352 265.754904 
L 374.361134 267.441962 
L 373.6734 266.837825 
L 372.553764 268.374663 
L 370.460288 269.733293 
L 369.301449 271.031631 
L 367.202066 272.331467 
L 365.979911 273.854839 
L 365.124848 273.337346 
L 364.109827 274.570359 
L 361.707986 275.868905 
L 360.737464 277.196026 
L 359.806785 276.594745 
L 358.67422 278.033206 
L 356.130338 279.287826 
L 355.207545 280.362228 
L 354.03088 279.77315 
L 353.074488 281.072214 
L 350.370867 282.257701 
L 349.338209 283.402686 
L 348.05635 282.895381 
L 347.234661 283.885663 
L 344.702299 284.858244 
L 342.054293 285.731919 
L 341.265547 286.698699 
L 339.683089 286.126683 
L 338.901929 287.12014 
L 336.303199 287.769789 
L 333.553255 288.622256 
L 332.38342 289.714337 
L 330.877049 289.100425 
L 330.409163 289.979866 
L 328.309554 289.398033 
L 327.7922 290.28323 
L 316.751472 292.115542 
L 315.968402 293.107351 
L 313.996106 292.315399 
L 313.742511 293.201005 
L 311.814597 292.494556 
L 311.108945 293.39083 
L 308.180427 293.548824 
L 302.648787 294.081342 
L 285.950713 295.225199 
L 280.125881 295.488 
L 271.882329 295.290981 
L 266.275665 294.989734 
L 257.876221 294.196694 
L 252.286478 293.565843 
L 251.380759 292.740959 
L 249.532096 293.358397 
L 249.271328 292.609924 
L 246.87107 293.176473 
L 246.508598 292.423551 
L 244.303003 293.012222 
L 243.755462 292.199727 
L 242.390149 292.918995 
L 241.046385 291.856464 
L 232.716684 290.431746 
L 231.964014 289.506034 
L 229.988675 290.11082 
L 229.63243 289.265685 
L 227.370919 289.859742 
L 226.93407 288.961728 
L 221.426154 287.850347 
L 218.660745 287.246264 
L 217.517787 286.270397 
L 216.019542 286.850362 
L 215.573366 286.123985 
L 213.635365 286.583483 
L 212.895312 285.80679 
L 204.665389 284.096137 
L 203.764768 283.11915 
L 201.993478 283.749942 
L 201.563538 282.881097 
L 199.553042 283.486453 
L 198.890045 282.541203 
L 197.505585 283.30502 
L 196.214683 282.053319 
L 190.700729 280.799305 
L 189.871393 279.929447 
L 187.943795 280.429861 
L 187.560278 279.649371 
L 185.606337 280.186974 
L 184.889078 279.376697 
L 173.927934 277.514942 
L 173.440565 276.641433 
L 171.211468 277.269782 
L 170.853047 276.379942 
L 168.674272 277.034941 
L 168.110849 276.128005 
L 162.607166 275.416057 
L 157.038467 274.435664 
L 155.983161 273.562859 
L 154.288281 274.17706 
L 153.983267 273.465614 
L 151.392906 274.059581 
L 151.253751 273.296232 
L 148.719419 273.939814 
L 148.519088 273.153784 
L 146.137186 273.798256 
L 145.72839 273.03612 
L 144.047565 273.691046 
L 143.023756 272.928674 
L 128.972994 272.752878 
L 123.389746 272.999633 
L 122.529871 273.691046 
L 120.581642 273.118739 
L 120.414147 273.73262 
L 117.848279 273.237266 
L 117.702028 273.845487 
L 115.054476 273.381489 
L 114.846194 273.974609 
L 112.652652 273.515858 
L 112.084824 274.120132 
L 109.374763 274.368522 
L 103.757925 275.15755 
L 100.982179 275.485654 
L 95.361277 275.724113 
L 94.350939 277.015879 
L 92.861144 276.177628 
L 92.221076 277.05733 
L 90.072293 276.747797 
L 89.605767 277.233572 
L 84.119698 277.592067 
L 83.697159 276.750038 
L 81.944043 276.712581 
L 81.364314 277.880897 
L 77.000897 278.914639 
L 77.000897 278.914639 
" style="fill:none;stroke:#1f77b4;stroke-linecap:square;stroke-width:1.5;"/>
   </g>
   <g id="line2d_28">
    <path clip-path="url(#p87daeb1faa)" d="M 76.18838 166.783646 
L 77.757379 167.424578 
L 79.326377 167.552764 
L 80.895376 167.296391 
L 84.033373 167.296391 
L 87.17137 167.040019 
L 88.740368 167.168205 
L 90.309367 167.168205 
L 91.878365 167.040019 
L 95.016362 167.040019 
L 98.154359 166.783646 
L 99.723358 166.911832 
L 101.292356 166.783646 
L 102.861355 166.783646 
L 104.430353 166.911832 
L 105.999352 166.911832 
L 107.56835 166.783646 
L 109.137349 166.911832 
L 110.706347 166.911832 
L 112.275346 166.783646 
L 116.982341 167.168205 
L 118.551339 167.168205 
L 121.689336 167.424578 
L 123.258335 167.296391 
L 129.534329 167.809137 
L 131.103327 168.065509 
L 132.672326 168.065509 
L 135.810323 168.321882 
L 137.379321 168.578255 
L 138.94832 168.578255 
L 142.086317 169.091 
L 143.655315 169.219186 
L 145.224314 169.475559 
L 146.793312 169.603745 
L 148.362311 169.988304 
L 151.500308 170.244677 
L 153.069306 170.629236 
L 154.638305 170.757422 
L 157.776302 171.52654 
L 159.3453 171.654727 
L 162.483297 172.167472 
L 164.052296 172.295658 
L 165.621294 172.552031 
L 167.190293 172.93659 
L 168.759291 173.064776 
L 170.32829 173.449335 
L 171.897288 173.705708 
L 173.466287 174.090267 
L 175.035285 174.34664 
L 176.604284 174.474826 
L 178.173282 174.859385 
L 182.880278 175.628503 
L 184.449276 176.013062 
L 187.587273 176.525807 
L 189.156272 176.910366 
L 190.72527 177.166739 
L 193.863267 177.935857 
L 195.432266 178.192229 
L 197.001264 178.192229 
L 198.570263 178.961347 
L 200.139261 179.21772 
L 201.70826 179.602279 
L 203.277258 179.858652 
L 204.846257 180.243211 
L 206.415255 180.499583 
L 207.984253 180.884142 
L 209.553252 181.140515 
L 211.12225 181.525074 
L 212.691249 181.781447 
L 220.536241 183.704242 
L 222.10524 183.832428 
L 225.243237 184.857919 
L 228.381234 185.627037 
L 229.950232 185.883409 
L 231.519231 186.396155 
L 233.088229 186.652527 
L 234.657228 187.037086 
L 236.226226 187.037086 
L 237.795225 187.806204 
L 239.364223 188.31895 
L 240.933222 188.575322 
L 244.071219 189.34444 
L 245.640217 189.857186 
L 247.209216 190.113558 
L 248.778214 190.626304 
L 255.054208 192.164539 
L 256.623207 192.677285 
L 262.899201 194.215521 
L 266.037198 195.241011 
L 267.606196 195.497384 
L 269.175195 195.881943 
L 272.313192 196.907434 
L 273.88219 197.291993 
L 275.451189 197.804738 
L 277.020187 198.189297 
L 278.589186 198.702042 
L 280.158184 198.958415 
L 281.727183 199.342974 
L 283.296181 199.855719 
L 284.86518 200.240278 
L 286.434178 200.753024 
L 288.003177 201.137583 
L 289.572175 201.650328 
L 291.141174 201.522142 
L 294.279171 202.547632 
L 295.848169 203.444937 
L 298.986166 204.470427 
L 300.555164 205.367731 
L 302.124163 206.008663 
L 303.693161 205.495918 
L 306.831158 206.265036 
L 308.400157 206.777781 
L 309.969155 207.546899 
L 311.538154 208.57239 
L 313.107152 208.444203 
L 316.245149 209.469694 
L 317.814148 209.854253 
L 320.952145 210.879744 
L 322.521143 212.033421 
L 324.090142 211.905234 
L 325.65914 212.546166 
L 328.797137 213.571657 
L 330.366136 214.725334 
L 331.935134 214.725334 
L 333.504133 215.109893 
L 335.073131 215.750824 
L 336.64213 216.135383 
L 341.349125 217.673619 
L 342.918124 218.058178 
L 344.487122 218.570924 
L 347.625119 219.340042 
L 350.763116 220.365532 
L 352.332115 221.006464 
L 358.608109 222.5447 
L 360.177107 222.801072 
L 361.746106 222.929259 
L 363.315104 223.313818 
L 364.884103 223.57019 
L 366.453101 223.954749 
L 368.0221 224.211122 
L 369.591098 224.723867 
L 371.160097 225.108426 
L 372.729095 225.364799 
L 374.298094 225.877544 
L 377.436091 226.39029 
L 379.005089 227.800339 
L 380.574088 228.184898 
L 382.143086 227.672153 
L 383.712085 227.800339 
L 385.281083 228.056712 
L 386.850081 227.928526 
L 388.41908 227.287594 
L 389.988078 227.928526 
L 391.557077 227.800339 
L 393.126075 227.928526 
L 394.695074 228.313085 
L 396.264072 226.903035 
L 396.264072 226.903035 
" style="fill:none;stroke:#000000;stroke-linecap:square;stroke-width:1.5;"/>
   </g>
   <g id="line2d_29">
    <path clip-path="url(#p87daeb1faa)" d="M 76.416174 55.647054 
L 117.499723 61.913631 
L 168.702142 70.949224 
L 182.756569 73.619354 
L 209.628645 78.419028 
L 219.806071 80.643213 
L 228.675441 82.792613 
L 237.499285 85.174291 
L 243.753931 87.092933 
L 249.929555 89.32171 
L 257.278252 92.212035 
L 262.134043 94.277199 
L 269.348387 97.580483 
L 274.099027 99.94395 
L 278.764562 102.519906 
L 284.502552 105.9532 
L 293.568365 111.691005 
L 299.136742 115.472138 
L 303.485028 118.693397 
L 320.642435 131.966118 
L 327.908012 138.169407 
L 337.191928 146.231693 
L 342.152909 150.992809 
L 351.012467 159.656641 
L 359.469301 168.833341 
L 362.199383 171.982195 
L 368.282781 179.661312 
L 370.837407 183.009532 
L 374.214945 187.502171 
L 379.517157 193.999862 
L 383.105255 198.269517 
L 385.534944 201.737526 
L 391.049215 209.965145 
L 392.405184 212.488516 
L 393.555513 215.141623 
L 394.451494 217.919725 
L 395.058267 220.798175 
L 395.359433 223.739022 
L 395.356508 226.700142 
L 395.068514 229.643229 
L 394.538914 232.542596 
L 393.830706 235.392139 
L 392.983941 238.191827 
L 391.983108 240.923984 
L 390.226167 244.887266 
L 388.311765 248.754103 
L 386.158021 252.452335 
L 383.848951 256.026017 
L 380.494176 260.541213 
L 378.768772 262.75089 
L 376.925864 264.832454 
L 373.069985 268.789899 
L 370.075359 271.621164 
L 366.933013 274.233993 
L 362.568365 277.425707 
L 359.213253 279.666797 
L 355.754922 281.69149 
L 352.196824 283.476272 
L 347.362707 285.606535 
L 342.443367 287.463833 
L 338.696031 288.635423 
L 333.623272 289.838649 
L 329.7905 290.567172 
L 323.371604 291.544678 
L 318.209705 292.045143 
L 313.03402 292.304666 
L 305.263792 292.438882 
L 294.90504 292.399457 
L 287.139909 292.190975 
L 278.083319 291.704307 
L 271.624149 291.169809 
L 263.886892 290.339181 
L 254.894959 289.010788 
L 243.359988 287.086983 
L 230.571795 284.737839 
L 201.240418 278.781345 
L 183.346254 275.425254 
L 174.367674 273.983919 
L 167.938959 273.089959 
L 158.915131 272.08549 
L 151.163016 271.461016 
L 143.400733 271.035929 
L 136.925986 270.890727 
L 131.745592 270.95245 
L 125.275404 271.256739 
L 118.818006 271.809774 
L 112.381165 272.617733 
L 76.412523 277.920238 
L 76.412523 277.920238 
" style="fill:none;stroke:#ff7f0e;stroke-linecap:square;stroke-width:1.5;"/>
   </g>
   <g id="line2d_30">
    <path clip-path="url(#p87daeb1faa)" d="M 76.607079 275.082196 
L 94.700753 271.373342 
L 98.332458 271.373342 
L 105.595868 269.8898 
L 109.292425 269.8898 
L 112.924131 269.148029 
L 120.317245 269.148029 
L 124.143506 268.406258 
L 138.410919 268.406258 
L 142.302032 269.148029 
L 149.435739 269.148029 
L 153.326851 269.8898 
L 157.217964 269.8898 
L 160.460558 270.631571 
L 164.351671 270.631571 
L 168.242783 271.373342 
L 171.485377 272.115113 
L 175.37649 272.856884 
L 178.619084 273.598655 
L 186.401309 275.082196 
L 189.643903 275.823967 
L 193.535016 276.565738 
L 196.77761 277.307509 
L 200.668723 278.04928 
L 203.911317 278.791051 
L 207.80243 280.274593 
L 211.045023 281.016364 
L 214.936136 281.758135 
L 218.17873 282.499905 
L 222.069843 283.983447 
L 225.312437 284.725218 
L 233.094662 286.20876 
L 236.337256 286.950531 
L 240.228369 288.434073 
L 243.470963 289.175843 
L 247.362076 289.917614 
L 250.60467 289.917614 
L 258.386895 291.401156 
L 261.629489 292.142927 
L 265.520602 292.142927 
L 268.763196 292.884698 
L 287.570241 292.884698 
L 290.812835 292.142927 
L 294.703947 292.142927 
L 298.59506 291.401156 
L 301.837654 290.659385 
L 305.728767 289.917614 
L 308.971361 288.434073 
L 312.862473 287.692302 
L 316.105067 286.20876 
L 319.99618 284.725218 
L 329.723962 280.274593 
L 333.615075 278.04928 
L 336.857669 276.565738 
L 343.342856 272.115113 
L 345.936932 269.8898 
L 355.664713 263.213862 
L 358.258789 260.246779 
L 361.501383 258.021466 
L 364.095458 255.054382 
L 366.689533 252.82907 
L 369.932127 249.861986 
L 375.120277 243.927819 
L 377.065833 240.293142 
L 378.362871 236.435933 
L 379.01139 232.356193 
L 379.01139 223.900005 
L 377.714352 215.666348 
L 376.417315 211.809139 
L 372.526202 204.465607 
L 366.689533 193.932461 
L 364.095458 190.520315 
L 362.149901 187.3307 
L 354.367676 178.355272 
L 346.58545 169.617211 
L 343.342856 166.754124 
L 332.966556 155.360374 
L 330.372481 152.615822 
L 327.129887 149.945447 
L 321.941736 144.530519 
L 318.699142 142.008498 
L 316.105067 139.338123 
L 312.862473 136.741925 
L 310.268398 134.145727 
L 307.025804 131.549529 
L 304.431729 129.027508 
L 297.946541 124.354351 
L 294.703947 122.054861 
L 292.109872 119.681194 
L 285.624684 115.304746 
L 272.654308 106.996912 
L 266.169121 103.213881 
L 253.198745 95.870349 
L 246.065038 93.274151 
L 242.822444 91.864786 
L 238.931331 91.123015 
L 235.688737 89.639473 
L 231.797625 88.897702 
L 228.555031 88.155931 
L 224.663918 86.67239 
L 220.772805 85.930619 
L 217.530211 85.188848 
L 214.287617 83.705306 
L 206.505392 82.221764 
L 203.262798 81.479993 
L 199.371685 80.738222 
L 196.129091 79.996452 
L 192.237979 79.254681 
L 188.995385 77.771139 
L 181.213159 76.287597 
L 177.970565 75.545826 
L 174.079452 74.804055 
L 170.836859 74.062284 
L 166.945746 73.320514 
L 163.703152 72.578743 
L 155.920926 71.095201 
L 152.678332 70.35343 
L 148.78722 69.611659 
L 145.544626 69.611659 
L 141.653513 68.869888 
L 138.410919 68.128117 
L 130.628694 66.644575 
L 127.3861 65.902805 
L 119.928134 64.419263 
L 116.296428 64.419263 
L 98.202754 60.710408 
L 94.571049 60.710408 
L 87.307639 59.226867 
L 83.675933 59.226867 
L 76.412523 57.743325 
L 76.412523 57.743325 
" style="fill:none;stroke:#2ca02c;stroke-linecap:square;stroke-width:1.5;"/>
   </g>
   <g id="patch_3">
    <path d="M 57.6 307.584 
L 57.6 41.472 
" style="fill:none;stroke:#000000;stroke-linecap:square;stroke-linejoin:miter;stroke-width:0.8;"/>
   </g>
   <g id="patch_4">
    <path d="M 414.72 307.584 
L 414.72 41.472 
" style="fill:none;stroke:#000000;stroke-linecap:square;stroke-linejoin:miter;stroke-width:0.8;"/>
   </g>
   <g id="patch_5">
    <path d="M 57.6 307.584 
L 414.72 307.584 
" style="fill:none;stroke:#000000;stroke-linecap:square;stroke-linejoin:miter;stroke-width:0.8;"/>
   </g>
   <g id="patch_6">
    <path d="M 57.6 41.472 
L 414.72 41.472 
" style="fill:none;stroke:#000000;stroke-linecap:square;stroke-linejoin:miter;stroke-width:0.8;"/>
   </g>
   <g id="legend_1">
    <g id="patch_7">
     <path d="M 82.335 38.91145 
L 389.985 38.91145 
Q 391.985 38.91145 391.985 36.91145 
L 391.985 8.5552 
Q 391.985 6.5552 389.985 6.5552 
L 82.335 6.5552 
Q 80.335 6.5552 80.335 8.5552 
L 80.335 36.91145 
Q 80.335 38.91145 82.335 38.91145 
z
" style="fill:#ffffff;opacity:0.8;stroke:#cccccc;stroke-linejoin:miter;"/>
    </g>
    <g id="line2d_31">
     <path d="M 84.335 14.653638 
L 104.335 14.653638 
" style="fill:none;stroke:#1f77b4;stroke-linecap:square;stroke-width:1.5;"/>
    </g>
    <g id="line2d_32"/>
    <g id="text_16">
     <!-- Target Contour -->
     <g transform="translate(112.335 18.153638)scale(0.1 -0.1)">
      <defs>
       <path d="M -19 4666 
L 3928 4666 
L 3928 4134 
L 2272 4134 
L 2272 0 
L 1638 0 
L 1638 4134 
L -19 4134 
L -19 4666 
z
" id="DejaVuSans-54" transform="scale(0.015625)"/>
       <path d="M 2194 1759 
Q 1497 1759 1228 1600 
Q 959 1441 959 1056 
Q 959 750 1161 570 
Q 1363 391 1709 391 
Q 2188 391 2477 730 
Q 2766 1069 2766 1631 
L 2766 1759 
L 2194 1759 
z
M 3341 1997 
L 3341 0 
L 2766 0 
L 2766 531 
Q 2569 213 2275 61 
Q 1981 -91 1556 -91 
Q 1019 -91 701 211 
Q 384 513 384 1019 
Q 384 1609 779 1909 
Q 1175 2209 1959 2209 
L 2766 2209 
L 2766 2266 
Q 2766 2663 2505 2880 
Q 2244 3097 1772 3097 
Q 1472 3097 1187 3025 
Q 903 2953 641 2809 
L 641 3341 
Q 956 3463 1253 3523 
Q 1550 3584 1831 3584 
Q 2591 3584 2966 3190 
Q 3341 2797 3341 1997 
z
" id="DejaVuSans-61" transform="scale(0.015625)"/>
       <path d="M 2906 1791 
Q 2906 2416 2648 2759 
Q 2391 3103 1925 3103 
Q 1463 3103 1205 2759 
Q 947 2416 947 1791 
Q 947 1169 1205 825 
Q 1463 481 1925 481 
Q 2391 481 2648 825 
Q 2906 1169 2906 1791 
z
M 3481 434 
Q 3481 -459 3084 -895 
Q 2688 -1331 1869 -1331 
Q 1566 -1331 1297 -1286 
Q 1028 -1241 775 -1147 
L 775 -588 
Q 1028 -725 1275 -790 
Q 1522 -856 1778 -856 
Q 2344 -856 2625 -561 
Q 2906 -266 2906 331 
L 2906 616 
Q 2728 306 2450 153 
Q 2172 0 1784 0 
Q 1141 0 747 490 
Q 353 981 353 1791 
Q 353 2603 747 3093 
Q 1141 3584 1784 3584 
Q 2172 3584 2450 3431 
Q 2728 3278 2906 2969 
L 2906 3500 
L 3481 3500 
L 3481 434 
z
" id="DejaVuSans-67" transform="scale(0.015625)"/>
       <path d="M 4122 4306 
L 4122 3641 
Q 3803 3938 3442 4084 
Q 3081 4231 2675 4231 
Q 1875 4231 1450 3742 
Q 1025 3253 1025 2328 
Q 1025 1406 1450 917 
Q 1875 428 2675 428 
Q 3081 428 3442 575 
Q 3803 722 4122 1019 
L 4122 359 
Q 3791 134 3420 21 
Q 3050 -91 2638 -91 
Q 1578 -91 968 557 
Q 359 1206 359 2328 
Q 359 3453 968 4101 
Q 1578 4750 2638 4750 
Q 3056 4750 3426 4639 
Q 3797 4528 4122 4306 
z
" id="DejaVuSans-43" transform="scale(0.015625)"/>
       <path d="M 544 1381 
L 544 3500 
L 1119 3500 
L 1119 1403 
Q 1119 906 1312 657 
Q 1506 409 1894 409 
Q 2359 409 2629 706 
Q 2900 1003 2900 1516 
L 2900 3500 
L 3475 3500 
L 3475 0 
L 2900 0 
L 2900 538 
Q 2691 219 2414 64 
Q 2138 -91 1772 -91 
Q 1169 -91 856 284 
Q 544 659 544 1381 
z
M 1991 3584 
L 1991 3584 
z
" id="DejaVuSans-75" transform="scale(0.015625)"/>
      </defs>
      <use xlink:href="#DejaVuSans-54"/>
      <use x="44.583984" xlink:href="#DejaVuSans-61"/>
      <use x="105.863281" xlink:href="#DejaVuSans-72"/>
      <use x="145.226562" xlink:href="#DejaVuSans-67"/>
      <use x="208.703125" xlink:href="#DejaVuSans-65"/>
      <use x="270.226562" xlink:href="#DejaVuSans-74"/>
      <use x="309.435547" xlink:href="#DejaVuSans-20"/>
      <use x="341.222656" xlink:href="#DejaVuSans-43"/>
      <use x="411.046875" xlink:href="#DejaVuSans-6f"/>
      <use x="472.228516" xlink:href="#DejaVuSans-6e"/>
      <use x="535.607422" xlink:href="#DejaVuSans-74"/>
      <use x="574.816406" xlink:href="#DejaVuSans-6f"/>
      <use x="635.998047" xlink:href="#DejaVuSans-75"/>
      <use x="699.376953" xlink:href="#DejaVuSans-72"/>
     </g>
    </g>
    <g id="line2d_33">
     <path d="M 84.335 29.331763 
L 104.335 29.331763 
" style="fill:none;stroke:#000000;stroke-linecap:square;stroke-width:1.5;"/>
    </g>
    <g id="line2d_34"/>
    <g id="text_17">
     <!-- Target Camberline -->
     <g transform="translate(112.335 32.831763)scale(0.1 -0.1)">
      <defs>
       <path d="M 3116 1747 
Q 3116 2381 2855 2742 
Q 2594 3103 2138 3103 
Q 1681 3103 1420 2742 
Q 1159 2381 1159 1747 
Q 1159 1113 1420 752 
Q 1681 391 2138 391 
Q 2594 391 2855 752 
Q 3116 1113 3116 1747 
z
M 1159 2969 
Q 1341 3281 1617 3432 
Q 1894 3584 2278 3584 
Q 2916 3584 3314 3078 
Q 3713 2572 3713 1747 
Q 3713 922 3314 415 
Q 2916 -91 2278 -91 
Q 1894 -91 1617 61 
Q 1341 213 1159 525 
L 1159 0 
L 581 0 
L 581 4863 
L 1159 4863 
L 1159 2969 
z
" id="DejaVuSans-62" transform="scale(0.015625)"/>
       <path d="M 603 4863 
L 1178 4863 
L 1178 0 
L 603 0 
L 603 4863 
z
" id="DejaVuSans-6c" transform="scale(0.015625)"/>
      </defs>
      <use xlink:href="#DejaVuSans-54"/>
      <use x="44.583984" xlink:href="#DejaVuSans-61"/>
      <use x="105.863281" xlink:href="#DejaVuSans-72"/>
      <use x="145.226562" xlink:href="#DejaVuSans-67"/>
      <use x="208.703125" xlink:href="#DejaVuSans-65"/>
      <use x="270.226562" xlink:href="#DejaVuSans-74"/>
      <use x="309.435547" xlink:href="#DejaVuSans-20"/>
      <use x="341.222656" xlink:href="#DejaVuSans-43"/>
      <use x="411.046875" xlink:href="#DejaVuSans-61"/>
      <use x="472.326172" xlink:href="#DejaVuSans-6d"/>
      <use x="569.738281" xlink:href="#DejaVuSans-62"/>
      <use x="633.214844" xlink:href="#DejaVuSans-65"/>
      <use x="694.738281" xlink:href="#DejaVuSans-72"/>
      <use x="735.851562" xlink:href="#DejaVuSans-6c"/>
      <use x="763.634766" xlink:href="#DejaVuSans-69"/>
      <use x="791.417969" xlink:href="#DejaVuSans-6e"/>
      <use x="854.796875" xlink:href="#DejaVuSans-65"/>
     </g>
    </g>
    <g id="line2d_35">
     <path d="M 223.967813 14.653638 
L 243.967813 14.653638 
" style="fill:none;stroke:#ff7f0e;stroke-linecap:square;stroke-width:1.5;"/>
    </g>
    <g id="line2d_36"/>
    <g id="text_18">
     <!-- Final Experimental Contour -->
     <g transform="translate(251.967813 18.153638)scale(0.1 -0.1)">
      <defs>
       <path d="M 628 4666 
L 3309 4666 
L 3309 4134 
L 1259 4134 
L 1259 2759 
L 3109 2759 
L 3109 2228 
L 1259 2228 
L 1259 0 
L 628 0 
L 628 4666 
z
" id="DejaVuSans-46" transform="scale(0.015625)"/>
       <path d="M 628 4666 
L 3578 4666 
L 3578 4134 
L 1259 4134 
L 1259 2753 
L 3481 2753 
L 3481 2222 
L 1259 2222 
L 1259 531 
L 3634 531 
L 3634 0 
L 628 0 
L 628 4666 
z
" id="DejaVuSans-45" transform="scale(0.015625)"/>
       <path d="M 3513 3500 
L 2247 1797 
L 3578 0 
L 2900 0 
L 1881 1375 
L 863 0 
L 184 0 
L 1544 1831 
L 300 3500 
L 978 3500 
L 1906 2253 
L 2834 3500 
L 3513 3500 
z
" id="DejaVuSans-78" transform="scale(0.015625)"/>
       <path d="M 1159 525 
L 1159 -1331 
L 581 -1331 
L 581 3500 
L 1159 3500 
L 1159 2969 
Q 1341 3281 1617 3432 
Q 1894 3584 2278 3584 
Q 2916 3584 3314 3078 
Q 3713 2572 3713 1747 
Q 3713 922 3314 415 
Q 2916 -91 2278 -91 
Q 1894 -91 1617 61 
Q 1341 213 1159 525 
z
M 3116 1747 
Q 3116 2381 2855 2742 
Q 2594 3103 2138 3103 
Q 1681 3103 1420 2742 
Q 1159 2381 1159 1747 
Q 1159 1113 1420 752 
Q 1681 391 2138 391 
Q 2594 391 2855 752 
Q 3116 1113 3116 1747 
z
" id="DejaVuSans-70" transform="scale(0.015625)"/>
      </defs>
      <use xlink:href="#DejaVuSans-46"/>
      <use x="50.269531" xlink:href="#DejaVuSans-69"/>
      <use x="78.052734" xlink:href="#DejaVuSans-6e"/>
      <use x="141.431641" xlink:href="#DejaVuSans-61"/>
      <use x="202.710938" xlink:href="#DejaVuSans-6c"/>
      <use x="230.494141" xlink:href="#DejaVuSans-20"/>
      <use x="262.28125" xlink:href="#DejaVuSans-45"/>
      <use x="325.464844" xlink:href="#DejaVuSans-78"/>
      <use x="384.644531" xlink:href="#DejaVuSans-70"/>
      <use x="448.121094" xlink:href="#DejaVuSans-65"/>
      <use x="509.644531" xlink:href="#DejaVuSans-72"/>
      <use x="550.757812" xlink:href="#DejaVuSans-69"/>
      <use x="578.541016" xlink:href="#DejaVuSans-6d"/>
      <use x="675.953125" xlink:href="#DejaVuSans-65"/>
      <use x="737.476562" xlink:href="#DejaVuSans-6e"/>
      <use x="800.855469" xlink:href="#DejaVuSans-74"/>
      <use x="840.064453" xlink:href="#DejaVuSans-61"/>
      <use x="901.34375" xlink:href="#DejaVuSans-6c"/>
      <use x="929.126953" xlink:href="#DejaVuSans-20"/>
      <use x="960.914062" xlink:href="#DejaVuSans-43"/>
      <use x="1030.738281" xlink:href="#DejaVuSans-6f"/>
      <use x="1091.919922" xlink:href="#DejaVuSans-6e"/>
      <use x="1155.298828" xlink:href="#DejaVuSans-74"/>
      <use x="1194.507812" xlink:href="#DejaVuSans-6f"/>
      <use x="1255.689453" xlink:href="#DejaVuSans-75"/>
      <use x="1319.068359" xlink:href="#DejaVuSans-72"/>
     </g>
    </g>
    <g id="line2d_37">
     <path d="M 223.967813 29.331763 
L 243.967813 29.331763 
" style="fill:none;stroke:#2ca02c;stroke-linecap:square;stroke-width:1.5;"/>
    </g>
    <g id="line2d_38"/>
    <g id="text_19">
     <!-- Final FEM Contour -->
     <g transform="translate(251.967813 32.831763)scale(0.1 -0.1)">
      <defs>
       <path d="M 628 4666 
L 1569 4666 
L 2759 1491 
L 3956 4666 
L 4897 4666 
L 4897 0 
L 4281 0 
L 4281 4097 
L 3078 897 
L 2444 897 
L 1241 4097 
L 1241 0 
L 628 0 
L 628 4666 
z
" id="DejaVuSans-4d" transform="scale(0.015625)"/>
      </defs>
      <use xlink:href="#DejaVuSans-46"/>
      <use x="50.269531" xlink:href="#DejaVuSans-69"/>
      <use x="78.052734" xlink:href="#DejaVuSans-6e"/>
      <use x="141.431641" xlink:href="#DejaVuSans-61"/>
      <use x="202.710938" xlink:href="#DejaVuSans-6c"/>
      <use x="230.494141" xlink:href="#DejaVuSans-20"/>
      <use x="262.28125" xlink:href="#DejaVuSans-46"/>
      <use x="319.800781" xlink:href="#DejaVuSans-45"/>
      <use x="382.984375" xlink:href="#DejaVuSans-4d"/>
      <use x="469.263672" xlink:href="#DejaVuSans-20"/>
      <use x="501.050781" xlink:href="#DejaVuSans-43"/>
      <use x="570.875" xlink:href="#DejaVuSans-6f"/>
      <use x="632.056641" xlink:href="#DejaVuSans-6e"/>
      <use x="695.435547" xlink:href="#DejaVuSans-74"/>
      <use x="734.644531" xlink:href="#DejaVuSans-6f"/>
      <use x="795.826172" xlink:href="#DejaVuSans-75"/>
      <use x="859.205078" xlink:href="#DejaVuSans-72"/>
     </g>
    </g>
   </g>
  </g>
 </g>
 <defs>
  <clipPath id="p87daeb1faa">
   <rect height="266.112" width="357.12" x="57.6" y="41.472"/>
  </clipPath>
 </defs>
</svg>
