<?xml version="1.0" encoding="utf-8" standalone="no"?>
<!DOCTYPE svg PUBLIC "-//W3C//DTD SVG 1.1//EN"
  "http://www.w3.org/Graphics/SVG/1.1/DTD/svg11.dtd">
<svg height="345.6pt" version="1.1" viewBox="0 0 460.8 345.6" width="460.8pt" xmlns="http://www.w3.org/2000/svg" xmlns:xlink="http://www.w3.org/1999/xlink">
 <metadata>
  <rdf:RDF xmlns:cc="http://creativecommons.org/ns#" xmlns:dc="http://purl.org/dc/elements/1.1/" xmlns:rdf="http://www.w3.org/1999/02/22-rdf-syntax-ns#">
   <cc:Work>
    <dc:type rdf:resource="http://purl.org/dc/dcmitype/StillImage"/>
    <dc:date>2022-06-02T15:23:53.727134</dc:date>
    <dc:format>image/svg+xml</dc:format>
    <dc:creator>
     <cc:Agent>
      <dc:title>Matplotlib v3.4.3, https://matplotlib.org/</dc:title>
     </cc:Agent>
    </dc:creator>
   </cc:Work>
  </rdf:RDF>
 </metadata>
 <defs>
  <style type="text/css">*{stroke-linecap:butt;stroke-linejoin:round;}</style>
 </defs>
 <g id="figure_1">
  <g id="patch_1">
   <path d="M 0 345.6 
L 460.8 345.6 
L 460.8 0 
L 0 0 
z
" style="fill:#ffffff;"/>
  </g>
  <g id="axes_1">
   <g id="patch_2">
    <path d="M 57.6 307.584 
L 414.72 307.584 
L 414.72 41.472 
L 57.6 41.472 
z
" style="fill:#ffffff;"/>
   </g>
   <g id="matplotlib.axis_1">
    <g id="xtick_1">
     <g id="line2d_1">
      <path clip-path="url(#p59969f8743)" d="M 74.058508 307.584 
L 74.058508 41.472 
" style="fill:none;stroke:#b0b0b0;stroke-linecap:square;stroke-width:0.8;"/>
     </g>
     <g id="line2d_2">
      <defs>
       <path d="M 0 0 
L 0 3.5 
" id="m5bbe4d7396" style="stroke:#000000;stroke-width:0.8;"/>
      </defs>
      <g>
       <use style="stroke:#000000;stroke-width:0.8;" x="74.058508" xlink:href="#m5bbe4d7396" y="307.584"/>
      </g>
     </g>
     <g id="text_1">
      <!-- 0 -->
      <g transform="translate(70.877258 322.182437)scale(0.1 -0.1)">
       <defs>
        <path d="M 2034 4250 
Q 1547 4250 1301 3770 
Q 1056 3291 1056 2328 
Q 1056 1369 1301 889 
Q 1547 409 2034 409 
Q 2525 409 2770 889 
Q 3016 1369 3016 2328 
Q 3016 3291 2770 3770 
Q 2525 4250 2034 4250 
z
M 2034 4750 
Q 2819 4750 3233 4129 
Q 3647 3509 3647 2328 
Q 3647 1150 3233 529 
Q 2819 -91 2034 -91 
Q 1250 -91 836 529 
Q 422 1150 422 2328 
Q 422 3509 836 4129 
Q 1250 4750 2034 4750 
z
" id="DejaVuSans-30" transform="scale(0.015625)"/>
       </defs>
       <use xlink:href="#DejaVuSans-30"/>
      </g>
     </g>
    </g>
    <g id="xtick_2">
     <g id="line2d_3">
      <path clip-path="url(#p59969f8743)" d="M 138.709946 307.584 
L 138.709946 41.472 
" style="fill:none;stroke:#b0b0b0;stroke-linecap:square;stroke-width:0.8;"/>
     </g>
     <g id="line2d_4">
      <g>
       <use style="stroke:#000000;stroke-width:0.8;" x="138.709946" xlink:href="#m5bbe4d7396" y="307.584"/>
      </g>
     </g>
     <g id="text_2">
      <!-- 100 -->
      <g transform="translate(129.166196 322.182437)scale(0.1 -0.1)">
       <defs>
        <path d="M 794 531 
L 1825 531 
L 1825 4091 
L 703 3866 
L 703 4441 
L 1819 4666 
L 2450 4666 
L 2450 531 
L 3481 531 
L 3481 0 
L 794 0 
L 794 531 
z
" id="DejaVuSans-31" transform="scale(0.015625)"/>
       </defs>
       <use xlink:href="#DejaVuSans-31"/>
       <use x="63.623047" xlink:href="#DejaVuSans-30"/>
       <use x="127.246094" xlink:href="#DejaVuSans-30"/>
      </g>
     </g>
    </g>
    <g id="xtick_3">
     <g id="line2d_5">
      <path clip-path="url(#p59969f8743)" d="M 203.361384 307.584 
L 203.361384 41.472 
" style="fill:none;stroke:#b0b0b0;stroke-linecap:square;stroke-width:0.8;"/>
     </g>
     <g id="line2d_6">
      <g>
       <use style="stroke:#000000;stroke-width:0.8;" x="203.361384" xlink:href="#m5bbe4d7396" y="307.584"/>
      </g>
     </g>
     <g id="text_3">
      <!-- 200 -->
      <g transform="translate(193.817634 322.182437)scale(0.1 -0.1)">
       <defs>
        <path d="M 1228 531 
L 3431 531 
L 3431 0 
L 469 0 
L 469 531 
Q 828 903 1448 1529 
Q 2069 2156 2228 2338 
Q 2531 2678 2651 2914 
Q 2772 3150 2772 3378 
Q 2772 3750 2511 3984 
Q 2250 4219 1831 4219 
Q 1534 4219 1204 4116 
Q 875 4013 500 3803 
L 500 4441 
Q 881 4594 1212 4672 
Q 1544 4750 1819 4750 
Q 2544 4750 2975 4387 
Q 3406 4025 3406 3419 
Q 3406 3131 3298 2873 
Q 3191 2616 2906 2266 
Q 2828 2175 2409 1742 
Q 1991 1309 1228 531 
z
" id="DejaVuSans-32" transform="scale(0.015625)"/>
       </defs>
       <use xlink:href="#DejaVuSans-32"/>
       <use x="63.623047" xlink:href="#DejaVuSans-30"/>
       <use x="127.246094" xlink:href="#DejaVuSans-30"/>
      </g>
     </g>
    </g>
    <g id="xtick_4">
     <g id="line2d_7">
      <path clip-path="url(#p59969f8743)" d="M 268.012822 307.584 
L 268.012822 41.472 
" style="fill:none;stroke:#b0b0b0;stroke-linecap:square;stroke-width:0.8;"/>
     </g>
     <g id="line2d_8">
      <g>
       <use style="stroke:#000000;stroke-width:0.8;" x="268.012822" xlink:href="#m5bbe4d7396" y="307.584"/>
      </g>
     </g>
     <g id="text_4">
      <!-- 300 -->
      <g transform="translate(258.469072 322.182437)scale(0.1 -0.1)">
       <defs>
        <path d="M 2597 2516 
Q 3050 2419 3304 2112 
Q 3559 1806 3559 1356 
Q 3559 666 3084 287 
Q 2609 -91 1734 -91 
Q 1441 -91 1130 -33 
Q 819 25 488 141 
L 488 750 
Q 750 597 1062 519 
Q 1375 441 1716 441 
Q 2309 441 2620 675 
Q 2931 909 2931 1356 
Q 2931 1769 2642 2001 
Q 2353 2234 1838 2234 
L 1294 2234 
L 1294 2753 
L 1863 2753 
Q 2328 2753 2575 2939 
Q 2822 3125 2822 3475 
Q 2822 3834 2567 4026 
Q 2313 4219 1838 4219 
Q 1578 4219 1281 4162 
Q 984 4106 628 3988 
L 628 4550 
Q 988 4650 1302 4700 
Q 1616 4750 1894 4750 
Q 2613 4750 3031 4423 
Q 3450 4097 3450 3541 
Q 3450 3153 3228 2886 
Q 3006 2619 2597 2516 
z
" id="DejaVuSans-33" transform="scale(0.015625)"/>
       </defs>
       <use xlink:href="#DejaVuSans-33"/>
       <use x="63.623047" xlink:href="#DejaVuSans-30"/>
       <use x="127.246094" xlink:href="#DejaVuSans-30"/>
      </g>
     </g>
    </g>
    <g id="xtick_5">
     <g id="line2d_9">
      <path clip-path="url(#p59969f8743)" d="M 332.66426 307.584 
L 332.66426 41.472 
" style="fill:none;stroke:#b0b0b0;stroke-linecap:square;stroke-width:0.8;"/>
     </g>
     <g id="line2d_10">
      <g>
       <use style="stroke:#000000;stroke-width:0.8;" x="332.66426" xlink:href="#m5bbe4d7396" y="307.584"/>
      </g>
     </g>
     <g id="text_5">
      <!-- 400 -->
      <g transform="translate(323.12051 322.182437)scale(0.1 -0.1)">
       <defs>
        <path d="M 2419 4116 
L 825 1625 
L 2419 1625 
L 2419 4116 
z
M 2253 4666 
L 3047 4666 
L 3047 1625 
L 3713 1625 
L 3713 1100 
L 3047 1100 
L 3047 0 
L 2419 0 
L 2419 1100 
L 313 1100 
L 313 1709 
L 2253 4666 
z
" id="DejaVuSans-34" transform="scale(0.015625)"/>
       </defs>
       <use xlink:href="#DejaVuSans-34"/>
       <use x="63.623047" xlink:href="#DejaVuSans-30"/>
       <use x="127.246094" xlink:href="#DejaVuSans-30"/>
      </g>
     </g>
    </g>
    <g id="xtick_6">
     <g id="line2d_11">
      <path clip-path="url(#p59969f8743)" d="M 397.315697 307.584 
L 397.315697 41.472 
" style="fill:none;stroke:#b0b0b0;stroke-linecap:square;stroke-width:0.8;"/>
     </g>
     <g id="line2d_12">
      <g>
       <use style="stroke:#000000;stroke-width:0.8;" x="397.315697" xlink:href="#m5bbe4d7396" y="307.584"/>
      </g>
     </g>
     <g id="text_6">
      <!-- 500 -->
      <g transform="translate(387.771947 322.182437)scale(0.1 -0.1)">
       <defs>
        <path d="M 691 4666 
L 3169 4666 
L 3169 4134 
L 1269 4134 
L 1269 2991 
Q 1406 3038 1543 3061 
Q 1681 3084 1819 3084 
Q 2600 3084 3056 2656 
Q 3513 2228 3513 1497 
Q 3513 744 3044 326 
Q 2575 -91 1722 -91 
Q 1428 -91 1123 -41 
Q 819 9 494 109 
L 494 744 
Q 775 591 1075 516 
Q 1375 441 1709 441 
Q 2250 441 2565 725 
Q 2881 1009 2881 1497 
Q 2881 1984 2565 2268 
Q 2250 2553 1709 2553 
Q 1456 2553 1204 2497 
Q 953 2441 691 2322 
L 691 4666 
z
" id="DejaVuSans-35" transform="scale(0.015625)"/>
       </defs>
       <use xlink:href="#DejaVuSans-35"/>
       <use x="63.623047" xlink:href="#DejaVuSans-30"/>
       <use x="127.246094" xlink:href="#DejaVuSans-30"/>
      </g>
     </g>
    </g>
    <g id="text_7">
     <!-- Position in X direction [mm] -->
     <g transform="translate(166.805313 335.860562)scale(0.1 -0.1)">
      <defs>
       <path d="M 1259 4147 
L 1259 2394 
L 2053 2394 
Q 2494 2394 2734 2622 
Q 2975 2850 2975 3272 
Q 2975 3691 2734 3919 
Q 2494 4147 2053 4147 
L 1259 4147 
z
M 628 4666 
L 2053 4666 
Q 2838 4666 3239 4311 
Q 3641 3956 3641 3272 
Q 3641 2581 3239 2228 
Q 2838 1875 2053 1875 
L 1259 1875 
L 1259 0 
L 628 0 
L 628 4666 
z
" id="DejaVuSans-50" transform="scale(0.015625)"/>
       <path d="M 1959 3097 
Q 1497 3097 1228 2736 
Q 959 2375 959 1747 
Q 959 1119 1226 758 
Q 1494 397 1959 397 
Q 2419 397 2687 759 
Q 2956 1122 2956 1747 
Q 2956 2369 2687 2733 
Q 2419 3097 1959 3097 
z
M 1959 3584 
Q 2709 3584 3137 3096 
Q 3566 2609 3566 1747 
Q 3566 888 3137 398 
Q 2709 -91 1959 -91 
Q 1206 -91 779 398 
Q 353 888 353 1747 
Q 353 2609 779 3096 
Q 1206 3584 1959 3584 
z
" id="DejaVuSans-6f" transform="scale(0.015625)"/>
       <path d="M 2834 3397 
L 2834 2853 
Q 2591 2978 2328 3040 
Q 2066 3103 1784 3103 
Q 1356 3103 1142 2972 
Q 928 2841 928 2578 
Q 928 2378 1081 2264 
Q 1234 2150 1697 2047 
L 1894 2003 
Q 2506 1872 2764 1633 
Q 3022 1394 3022 966 
Q 3022 478 2636 193 
Q 2250 -91 1575 -91 
Q 1294 -91 989 -36 
Q 684 19 347 128 
L 347 722 
Q 666 556 975 473 
Q 1284 391 1588 391 
Q 1994 391 2212 530 
Q 2431 669 2431 922 
Q 2431 1156 2273 1281 
Q 2116 1406 1581 1522 
L 1381 1569 
Q 847 1681 609 1914 
Q 372 2147 372 2553 
Q 372 3047 722 3315 
Q 1072 3584 1716 3584 
Q 2034 3584 2315 3537 
Q 2597 3491 2834 3397 
z
" id="DejaVuSans-73" transform="scale(0.015625)"/>
       <path d="M 603 3500 
L 1178 3500 
L 1178 0 
L 603 0 
L 603 3500 
z
M 603 4863 
L 1178 4863 
L 1178 4134 
L 603 4134 
L 603 4863 
z
" id="DejaVuSans-69" transform="scale(0.015625)"/>
       <path d="M 1172 4494 
L 1172 3500 
L 2356 3500 
L 2356 3053 
L 1172 3053 
L 1172 1153 
Q 1172 725 1289 603 
Q 1406 481 1766 481 
L 2356 481 
L 2356 0 
L 1766 0 
Q 1100 0 847 248 
Q 594 497 594 1153 
L 594 3053 
L 172 3053 
L 172 3500 
L 594 3500 
L 594 4494 
L 1172 4494 
z
" id="DejaVuSans-74" transform="scale(0.015625)"/>
       <path d="M 3513 2113 
L 3513 0 
L 2938 0 
L 2938 2094 
Q 2938 2591 2744 2837 
Q 2550 3084 2163 3084 
Q 1697 3084 1428 2787 
Q 1159 2491 1159 1978 
L 1159 0 
L 581 0 
L 581 3500 
L 1159 3500 
L 1159 2956 
Q 1366 3272 1645 3428 
Q 1925 3584 2291 3584 
Q 2894 3584 3203 3211 
Q 3513 2838 3513 2113 
z
" id="DejaVuSans-6e" transform="scale(0.015625)"/>
       <path id="DejaVuSans-20" transform="scale(0.015625)"/>
       <path d="M 403 4666 
L 1081 4666 
L 2241 2931 
L 3406 4666 
L 4084 4666 
L 2584 2425 
L 4184 0 
L 3506 0 
L 2194 1984 
L 872 0 
L 191 0 
L 1856 2491 
L 403 4666 
z
" id="DejaVuSans-58" transform="scale(0.015625)"/>
       <path d="M 2906 2969 
L 2906 4863 
L 3481 4863 
L 3481 0 
L 2906 0 
L 2906 525 
Q 2725 213 2448 61 
Q 2172 -91 1784 -91 
Q 1150 -91 751 415 
Q 353 922 353 1747 
Q 353 2572 751 3078 
Q 1150 3584 1784 3584 
Q 2172 3584 2448 3432 
Q 2725 3281 2906 2969 
z
M 947 1747 
Q 947 1113 1208 752 
Q 1469 391 1925 391 
Q 2381 391 2643 752 
Q 2906 1113 2906 1747 
Q 2906 2381 2643 2742 
Q 2381 3103 1925 3103 
Q 1469 3103 1208 2742 
Q 947 2381 947 1747 
z
" id="DejaVuSans-64" transform="scale(0.015625)"/>
       <path d="M 2631 2963 
Q 2534 3019 2420 3045 
Q 2306 3072 2169 3072 
Q 1681 3072 1420 2755 
Q 1159 2438 1159 1844 
L 1159 0 
L 581 0 
L 581 3500 
L 1159 3500 
L 1159 2956 
Q 1341 3275 1631 3429 
Q 1922 3584 2338 3584 
Q 2397 3584 2469 3576 
Q 2541 3569 2628 3553 
L 2631 2963 
z
" id="DejaVuSans-72" transform="scale(0.015625)"/>
       <path d="M 3597 1894 
L 3597 1613 
L 953 1613 
Q 991 1019 1311 708 
Q 1631 397 2203 397 
Q 2534 397 2845 478 
Q 3156 559 3463 722 
L 3463 178 
Q 3153 47 2828 -22 
Q 2503 -91 2169 -91 
Q 1331 -91 842 396 
Q 353 884 353 1716 
Q 353 2575 817 3079 
Q 1281 3584 2069 3584 
Q 2775 3584 3186 3129 
Q 3597 2675 3597 1894 
z
M 3022 2063 
Q 3016 2534 2758 2815 
Q 2500 3097 2075 3097 
Q 1594 3097 1305 2825 
Q 1016 2553 972 2059 
L 3022 2063 
z
" id="DejaVuSans-65" transform="scale(0.015625)"/>
       <path d="M 3122 3366 
L 3122 2828 
Q 2878 2963 2633 3030 
Q 2388 3097 2138 3097 
Q 1578 3097 1268 2742 
Q 959 2388 959 1747 
Q 959 1106 1268 751 
Q 1578 397 2138 397 
Q 2388 397 2633 464 
Q 2878 531 3122 666 
L 3122 134 
Q 2881 22 2623 -34 
Q 2366 -91 2075 -91 
Q 1284 -91 818 406 
Q 353 903 353 1747 
Q 353 2603 823 3093 
Q 1294 3584 2113 3584 
Q 2378 3584 2631 3529 
Q 2884 3475 3122 3366 
z
" id="DejaVuSans-63" transform="scale(0.015625)"/>
       <path d="M 550 4863 
L 1875 4863 
L 1875 4416 
L 1125 4416 
L 1125 -397 
L 1875 -397 
L 1875 -844 
L 550 -844 
L 550 4863 
z
" id="DejaVuSans-5b" transform="scale(0.015625)"/>
       <path d="M 3328 2828 
Q 3544 3216 3844 3400 
Q 4144 3584 4550 3584 
Q 5097 3584 5394 3201 
Q 5691 2819 5691 2113 
L 5691 0 
L 5113 0 
L 5113 2094 
Q 5113 2597 4934 2840 
Q 4756 3084 4391 3084 
Q 3944 3084 3684 2787 
Q 3425 2491 3425 1978 
L 3425 0 
L 2847 0 
L 2847 2094 
Q 2847 2600 2669 2842 
Q 2491 3084 2119 3084 
Q 1678 3084 1418 2786 
Q 1159 2488 1159 1978 
L 1159 0 
L 581 0 
L 581 3500 
L 1159 3500 
L 1159 2956 
Q 1356 3278 1631 3431 
Q 1906 3584 2284 3584 
Q 2666 3584 2933 3390 
Q 3200 3197 3328 2828 
z
" id="DejaVuSans-6d" transform="scale(0.015625)"/>
       <path d="M 1947 4863 
L 1947 -844 
L 622 -844 
L 622 -397 
L 1369 -397 
L 1369 4416 
L 622 4416 
L 622 4863 
L 1947 4863 
z
" id="DejaVuSans-5d" transform="scale(0.015625)"/>
      </defs>
      <use xlink:href="#DejaVuSans-50"/>
      <use x="56.677734" xlink:href="#DejaVuSans-6f"/>
      <use x="117.859375" xlink:href="#DejaVuSans-73"/>
      <use x="169.958984" xlink:href="#DejaVuSans-69"/>
      <use x="197.742188" xlink:href="#DejaVuSans-74"/>
      <use x="236.951172" xlink:href="#DejaVuSans-69"/>
      <use x="264.734375" xlink:href="#DejaVuSans-6f"/>
      <use x="325.916016" xlink:href="#DejaVuSans-6e"/>
      <use x="389.294922" xlink:href="#DejaVuSans-20"/>
      <use x="421.082031" xlink:href="#DejaVuSans-69"/>
      <use x="448.865234" xlink:href="#DejaVuSans-6e"/>
      <use x="512.244141" xlink:href="#DejaVuSans-20"/>
      <use x="544.03125" xlink:href="#DejaVuSans-58"/>
      <use x="612.537109" xlink:href="#DejaVuSans-20"/>
      <use x="644.324219" xlink:href="#DejaVuSans-64"/>
      <use x="707.800781" xlink:href="#DejaVuSans-69"/>
      <use x="735.583984" xlink:href="#DejaVuSans-72"/>
      <use x="774.447266" xlink:href="#DejaVuSans-65"/>
      <use x="835.970703" xlink:href="#DejaVuSans-63"/>
      <use x="890.951172" xlink:href="#DejaVuSans-74"/>
      <use x="930.160156" xlink:href="#DejaVuSans-69"/>
      <use x="957.943359" xlink:href="#DejaVuSans-6f"/>
      <use x="1019.125" xlink:href="#DejaVuSans-6e"/>
      <use x="1082.503906" xlink:href="#DejaVuSans-20"/>
      <use x="1114.291016" xlink:href="#DejaVuSans-5b"/>
      <use x="1153.304688" xlink:href="#DejaVuSans-6d"/>
      <use x="1250.716797" xlink:href="#DejaVuSans-6d"/>
      <use x="1348.128906" xlink:href="#DejaVuSans-5d"/>
     </g>
    </g>
   </g>
   <g id="matplotlib.axis_2">
    <g id="ytick_1">
     <g id="line2d_13">
      <path clip-path="url(#p59969f8743)" d="M 57.6 276.790756 
L 414.72 276.790756 
" style="fill:none;stroke:#b0b0b0;stroke-linecap:square;stroke-width:0.8;"/>
     </g>
     <g id="line2d_14">
      <defs>
       <path d="M 0 0 
L -3.5 0 
" id="m2679a48340" style="stroke:#000000;stroke-width:0.8;"/>
      </defs>
      <g>
       <use style="stroke:#000000;stroke-width:0.8;" x="57.6" xlink:href="#m2679a48340" y="276.790756"/>
      </g>
     </g>
     <g id="text_8">
      <!-- −150 -->
      <g transform="translate(23.132812 280.589974)scale(0.1 -0.1)">
       <defs>
        <path d="M 678 2272 
L 4684 2272 
L 4684 1741 
L 678 1741 
L 678 2272 
z
" id="DejaVuSans-2212" transform="scale(0.015625)"/>
       </defs>
       <use xlink:href="#DejaVuSans-2212"/>
       <use x="83.789062" xlink:href="#DejaVuSans-31"/>
       <use x="147.412109" xlink:href="#DejaVuSans-35"/>
       <use x="211.035156" xlink:href="#DejaVuSans-30"/>
      </g>
     </g>
    </g>
    <g id="ytick_2">
     <g id="line2d_15">
      <path clip-path="url(#p59969f8743)" d="M 57.6 239.868301 
L 414.72 239.868301 
" style="fill:none;stroke:#b0b0b0;stroke-linecap:square;stroke-width:0.8;"/>
     </g>
     <g id="line2d_16">
      <g>
       <use style="stroke:#000000;stroke-width:0.8;" x="57.6" xlink:href="#m2679a48340" y="239.868301"/>
      </g>
     </g>
     <g id="text_9">
      <!-- −100 -->
      <g transform="translate(23.132812 243.66752)scale(0.1 -0.1)">
       <use xlink:href="#DejaVuSans-2212"/>
       <use x="83.789062" xlink:href="#DejaVuSans-31"/>
       <use x="147.412109" xlink:href="#DejaVuSans-30"/>
       <use x="211.035156" xlink:href="#DejaVuSans-30"/>
      </g>
     </g>
    </g>
    <g id="ytick_3">
     <g id="line2d_17">
      <path clip-path="url(#p59969f8743)" d="M 57.6 202.945846 
L 414.72 202.945846 
" style="fill:none;stroke:#b0b0b0;stroke-linecap:square;stroke-width:0.8;"/>
     </g>
     <g id="line2d_18">
      <g>
       <use style="stroke:#000000;stroke-width:0.8;" x="57.6" xlink:href="#m2679a48340" y="202.945846"/>
      </g>
     </g>
     <g id="text_10">
      <!-- −50 -->
      <g transform="translate(29.495313 206.745065)scale(0.1 -0.1)">
       <use xlink:href="#DejaVuSans-2212"/>
       <use x="83.789062" xlink:href="#DejaVuSans-35"/>
       <use x="147.412109" xlink:href="#DejaVuSans-30"/>
      </g>
     </g>
    </g>
    <g id="ytick_4">
     <g id="line2d_19">
      <path clip-path="url(#p59969f8743)" d="M 57.6 166.023392 
L 414.72 166.023392 
" style="fill:none;stroke:#b0b0b0;stroke-linecap:square;stroke-width:0.8;"/>
     </g>
     <g id="line2d_20">
      <g>
       <use style="stroke:#000000;stroke-width:0.8;" x="57.6" xlink:href="#m2679a48340" y="166.023392"/>
      </g>
     </g>
     <g id="text_11">
      <!-- 0 -->
      <g transform="translate(44.2375 169.82261)scale(0.1 -0.1)">
       <use xlink:href="#DejaVuSans-30"/>
      </g>
     </g>
    </g>
    <g id="ytick_5">
     <g id="line2d_21">
      <path clip-path="url(#p59969f8743)" d="M 57.6 129.100937 
L 414.72 129.100937 
" style="fill:none;stroke:#b0b0b0;stroke-linecap:square;stroke-width:0.8;"/>
     </g>
     <g id="line2d_22">
      <g>
       <use style="stroke:#000000;stroke-width:0.8;" x="57.6" xlink:href="#m2679a48340" y="129.100937"/>
      </g>
     </g>
     <g id="text_12">
      <!-- 50 -->
      <g transform="translate(37.875 132.900156)scale(0.1 -0.1)">
       <use xlink:href="#DejaVuSans-35"/>
       <use x="63.623047" xlink:href="#DejaVuSans-30"/>
      </g>
     </g>
    </g>
    <g id="ytick_6">
     <g id="line2d_23">
      <path clip-path="url(#p59969f8743)" d="M 57.6 92.178482 
L 414.72 92.178482 
" style="fill:none;stroke:#b0b0b0;stroke-linecap:square;stroke-width:0.8;"/>
     </g>
     <g id="line2d_24">
      <g>
       <use style="stroke:#000000;stroke-width:0.8;" x="57.6" xlink:href="#m2679a48340" y="92.178482"/>
      </g>
     </g>
     <g id="text_13">
      <!-- 100 -->
      <g transform="translate(31.5125 95.977701)scale(0.1 -0.1)">
       <use xlink:href="#DejaVuSans-31"/>
       <use x="63.623047" xlink:href="#DejaVuSans-30"/>
       <use x="127.246094" xlink:href="#DejaVuSans-30"/>
      </g>
     </g>
    </g>
    <g id="ytick_7">
     <g id="line2d_25">
      <path clip-path="url(#p59969f8743)" d="M 57.6 55.256028 
L 414.72 55.256028 
" style="fill:none;stroke:#b0b0b0;stroke-linecap:square;stroke-width:0.8;"/>
     </g>
     <g id="line2d_26">
      <g>
       <use style="stroke:#000000;stroke-width:0.8;" x="57.6" xlink:href="#m2679a48340" y="55.256028"/>
      </g>
     </g>
     <g id="text_14">
      <!-- 150 -->
      <g transform="translate(31.5125 59.055246)scale(0.1 -0.1)">
       <use xlink:href="#DejaVuSans-31"/>
       <use x="63.623047" xlink:href="#DejaVuSans-35"/>
       <use x="127.246094" xlink:href="#DejaVuSans-30"/>
      </g>
     </g>
    </g>
    <g id="text_15">
     <!-- Position in Y direction [mm] -->
     <g transform="translate(17.053125 243.511594)rotate(-90)scale(0.1 -0.1)">
      <defs>
       <path d="M -13 4666 
L 666 4666 
L 1959 2747 
L 3244 4666 
L 3922 4666 
L 2272 2222 
L 2272 0 
L 1638 0 
L 1638 2222 
L -13 4666 
z
" id="DejaVuSans-59" transform="scale(0.015625)"/>
      </defs>
      <use xlink:href="#DejaVuSans-50"/>
      <use x="56.677734" xlink:href="#DejaVuSans-6f"/>
      <use x="117.859375" xlink:href="#DejaVuSans-73"/>
      <use x="169.958984" xlink:href="#DejaVuSans-69"/>
      <use x="197.742188" xlink:href="#DejaVuSans-74"/>
      <use x="236.951172" xlink:href="#DejaVuSans-69"/>
      <use x="264.734375" xlink:href="#DejaVuSans-6f"/>
      <use x="325.916016" xlink:href="#DejaVuSans-6e"/>
      <use x="389.294922" xlink:href="#DejaVuSans-20"/>
      <use x="421.082031" xlink:href="#DejaVuSans-69"/>
      <use x="448.865234" xlink:href="#DejaVuSans-6e"/>
      <use x="512.244141" xlink:href="#DejaVuSans-20"/>
      <use x="544.03125" xlink:href="#DejaVuSans-59"/>
      <use x="605.115234" xlink:href="#DejaVuSans-20"/>
      <use x="636.902344" xlink:href="#DejaVuSans-64"/>
      <use x="700.378906" xlink:href="#DejaVuSans-69"/>
      <use x="728.162109" xlink:href="#DejaVuSans-72"/>
      <use x="767.025391" xlink:href="#DejaVuSans-65"/>
      <use x="828.548828" xlink:href="#DejaVuSans-63"/>
      <use x="883.529297" xlink:href="#DejaVuSans-74"/>
      <use x="922.738281" xlink:href="#DejaVuSans-69"/>
      <use x="950.521484" xlink:href="#DejaVuSans-6f"/>
      <use x="1011.703125" xlink:href="#DejaVuSans-6e"/>
      <use x="1075.082031" xlink:href="#DejaVuSans-20"/>
      <use x="1106.869141" xlink:href="#DejaVuSans-5b"/>
      <use x="1145.882812" xlink:href="#DejaVuSans-6d"/>
      <use x="1243.294922" xlink:href="#DejaVuSans-6d"/>
      <use x="1340.707031" xlink:href="#DejaVuSans-5d"/>
     </g>
    </g>
   </g>
   <g id="line2d_27">
    <path clip-path="url(#p59969f8743)" d="M 77.040373 54.460565 
L 78.952855 53.568 
L 79.099312 54.593761 
L 81.750689 53.783013 
L 81.891898 54.633904 
L 84.539034 54.697003 
L 84.632862 53.931719 
L 87.119305 54.13623 
L 87.646872 54.913392 
L 90.33075 55.057905 
L 90.431385 54.194971 
L 93.080013 55.307275 
L 95.754328 55.685537 
L 98.787602 55.898668 
L 107.227772 56.986127 
L 108.170236 57.603378 
L 109.838201 57.228857 
L 110.294814 57.724771 
L 112.417901 57.399588 
L 113.072116 57.980854 
L 115.726184 58.283678 
L 126.991263 60.047592 
L 128.151844 60.891438 
L 129.710288 60.276514 
L 129.975766 61.006054 
L 132.518388 60.428563 
L 132.741986 61.209594 
L 134.840049 60.59689 
L 135.542068 61.415072 
L 138.286648 61.790008 
L 146.686764 63.299658 
L 147.663075 64.029063 
L 149.507414 63.539394 
L 149.794922 64.229944 
L 152.142664 63.692987 
L 152.522246 64.453532 
L 154.443557 63.875943 
L 155.300611 64.689899 
L 160.860409 65.574091 
L 166.488839 66.453104 
L 167.552318 67.287818 
L 169.174773 66.68835 
L 169.519508 67.480412 
L 171.960662 66.926899 
L 172.248297 67.697672 
L 174.060623 67.102217 
L 175.039605 67.960702 
L 180.616275 68.805918 
L 183.469546 69.351943 
L 184.296023 70.47624 
L 186.174971 69.756735 
L 186.976197 70.551827 
L 188.901796 70.018669 
L 189.34065 70.780107 
L 191.604139 70.246486 
L 192.021492 70.963155 
L 194.742601 71.30908 
L 200.368371 72.348363 
L 203.164033 72.885735 
L 204.283902 73.728482 
L 205.838572 73.201895 
L 206.278669 73.924847 
L 208.144128 73.463431 
L 208.944673 74.203823 
L 214.48635 75.293126 
L 220.053039 76.486702 
L 220.650637 77.070145 
L 222.547067 76.751491 
L 222.932584 77.385683 
L 231.31216 79.642668 
L 232.392054 80.25983 
L 233.475065 79.889117 
L 234.418615 80.568684 
L 237.128121 81.32827 
L 239.801466 82.220148 
L 242.448283 82.883147 
L 243.368894 83.593838 
L 244.426309 83.223228 
L 245.593401 84.143645 
L 250.744989 85.964246 
L 251.858935 86.789898 
L 254.184897 87.350909 
L 259.005303 89.188401 
L 260.112216 90.101705 
L 261.301414 89.640471 
L 262.51739 90.803948 
L 265.242632 92.040459 
L 266.411934 93.19066 
L 267.275011 92.69063 
L 268.288495 93.640717 
L 270.993461 94.818935 
L 272.25649 96.307926 
L 273.301222 95.681305 
L 274.154529 96.767303 
L 279.024571 98.866527 
L 279.847391 99.975037 
L 282.247991 100.95626 
L 284.455298 102.010095 
L 285.048388 103.184914 
L 290.094263 105.314183 
L 291.028128 106.49864 
L 293.486192 107.773296 
L 294.616719 109.295027 
L 295.523092 108.621361 
L 296.594017 110.099117 
L 298.914589 111.421482 
L 299.965879 112.761948 
L 300.822199 112.094659 
L 302.00565 114.057389 
L 302.801194 115.939577 
L 304.165914 115.018706 
L 304.516759 116.31021 
L 307.488521 117.335238 
L 309.349063 118.541474 
L 310.912393 120.336148 
L 312.684078 121.429965 
L 313.651201 122.787869 
L 315.878275 124.109131 
L 316.954637 125.662054 
L 317.814625 124.978323 
L 318.914564 126.73907 
L 320.187889 128.533062 
L 321.073053 127.902997 
L 321.429152 128.972808 
L 324.877119 131.210594 
L 325.079654 132.371245 
L 326.02997 131.59547 
L 328.235546 135.361776 
L 329.115642 134.545542 
L 331.413975 138.320371 
L 332.20669 137.551872 
L 333.28768 139.409448 
L 334.299194 141.427414 
L 335.244421 140.554579 
L 336.244203 142.370314 
L 338.134391 143.628832 
L 339.24394 145.404991 
L 341.152419 146.740014 
L 342.185276 148.506609 
L 344.006682 149.758245 
L 345.070824 151.697321 
L 345.823427 150.894018 
L 346.887876 152.920304 
L 347.537309 154.566955 
L 348.76933 154.013223 
L 351.580839 157.212251 
L 361.805488 168.115142 
L 363.33165 169.552947 
L 364.716112 171.060248 
L 366.422487 172.710294 
L 369.045867 175.733016 
L 370.640509 178.369734 
L 370.90392 180.362986 
L 371.642284 179.351622 
L 372.609865 181.431215 
L 373.735588 183.420022 
L 374.434311 182.589704 
L 375.39156 184.862041 
L 376.484713 186.845691 
L 377.18491 185.929604 
L 378.160699 188.161661 
L 379.205627 190.152861 
L 379.874528 189.304861 
L 380.918574 191.479749 
L 381.829456 193.733355 
L 382.700971 192.585758 
L 383.646831 194.698589 
L 384.652362 196.645944 
L 385.400934 195.884563 
L 387.3643 200.294143 
L 388.119712 199.290821 
L 390.007946 203.602145 
L 391.216744 204.891349 
L 393.583609 209.27105 
L 395.189931 210.901977 
L 395.997196 213.564684 
L 396.383292 216.178125 
L 396.614717 212.088466 
L 397.057359 214.150727 
L 397.491096 217.166377 
L 397.842716 220.432204 
L 398.430809 223.426875 
L 398.487273 226.777654 
L 397.766607 233.150682 
L 396.66465 238.360709 
L 396.229446 237.087767 
L 395.551183 239.628103 
L 393.86906 244.771044 
L 393.348797 243.786653 
L 392.46737 246.189153 
L 391.374112 248.576364 
L 389.993199 249.711262 
L 388.739083 251.891648 
L 387.269449 253.172841 
L 386.054608 255.280235 
L 384.513159 256.584162 
L 383.335405 258.37146 
L 381.628816 259.821791 
L 380.504337 261.342911 
L 378.483135 262.832058 
L 377.376499 264.350141 
L 376.680147 263.719602 
L 375.446169 265.579271 
L 374.184798 267.276294 
L 373.492037 266.668588 
L 372.364218 268.214505 
L 370.255441 269.58116 
L 369.088132 270.887167 
L 366.973405 272.194681 
L 365.742318 273.727053 
L 364.881006 273.206503 
L 363.858566 274.446799 
L 361.43917 275.753016 
L 360.461554 277.087976 
L 359.524072 276.483142 
L 358.38323 277.930101 
L 355.820755 279.192132 
L 354.891217 280.272881 
L 353.705952 279.680322 
L 352.74257 280.987061 
L 350.019188 282.17955 
L 348.978983 283.331298 
L 347.687755 282.820997 
L 346.86006 283.817129 
L 344.30919 284.795454 
L 341.64183 285.67429 
L 340.847318 286.646781 
L 339.253295 286.071386 
L 338.466425 287.070711 
L 335.848701 287.724198 
L 333.078658 288.5817 
L 331.900273 289.680232 
L 330.382892 289.062694 
L 329.911587 289.947329 
L 327.796632 289.36206 
L 327.275496 290.252485 
L 316.154072 292.09562 
L 315.365279 293.093288 
L 313.378568 292.296659 
L 313.123119 293.187496 
L 311.181114 292.476874 
L 310.470304 293.378442 
L 307.520382 293.537369 
L 301.948312 294.073033 
L 285.128194 295.223647 
L 279.260789 295.488 
L 270.956985 295.289817 
L 265.309343 294.986791 
L 256.848507 294.189066 
L 251.217909 293.554489 
L 250.305571 292.724732 
L 248.443396 293.345817 
L 248.180722 292.592923 
L 245.762921 293.162819 
L 245.3978 292.405449 
L 243.176084 292.997597 
L 242.624542 292.180304 
L 241.249249 292.90382 
L 239.895664 291.835012 
L 231.505082 290.401879 
L 230.746911 289.470699 
L 228.757135 290.079057 
L 228.398286 289.22893 
L 226.120246 289.826496 
L 225.680204 288.923177 
L 220.132031 287.805231 
L 217.346409 287.197581 
L 216.195098 286.215949 
L 214.685902 286.799339 
L 214.236465 286.068672 
L 212.284299 286.530884 
L 211.538838 285.749603 
L 203.248763 284.028846 
L 202.341559 283.046088 
L 200.557323 283.680606 
L 200.12424 282.806628 
L 198.09905 283.41556 
L 197.431207 282.464727 
L 196.036628 283.233056 
L 194.736291 281.97396 
L 189.182036 280.712539 
L 188.346639 279.837543 
L 186.404952 280.340913 
L 186.018632 279.555812 
L 184.05041 280.096592 
L 183.327908 279.281527 
L 172.286651 277.408776 
L 171.79572 276.530106 
L 169.55033 277.162167 
L 169.18929 276.267071 
L 166.99459 276.925939 
L 166.427049 276.013646 
L 160.88314 275.297493 
L 155.27374 274.311308 
L 154.21072 273.433348 
L 152.503453 274.051177 
L 152.19621 273.335529 
L 149.586916 273.933004 
L 149.446744 273.165145 
L 146.893889 273.812529 
L 146.692094 273.021856 
L 144.292782 273.670135 
L 143.880999 272.903497 
L 142.187889 273.562291 
L 141.156596 272.795417 
L 127.003138 272.618582 
L 121.379084 272.866795 
L 120.512924 273.562291 
L 118.550455 272.986604 
L 118.381736 273.604111 
L 115.797114 273.105831 
L 115.649794 273.717645 
L 112.982892 273.250906 
L 112.773087 273.84753 
L 110.563513 273.386069 
L 109.991535 273.993913 
L 107.261666 274.243769 
L 101.603775 275.037459 
L 98.807742 275.367501 
L 93.145757 275.607368 
L 92.128034 276.906764 
L 90.627351 276.063562 
L 89.982605 276.94846 
L 87.818116 276.637098 
L 87.34818 277.125744 
L 81.822014 277.486356 
L 81.396387 276.639353 
L 79.630458 276.601674 
L 79.046491 277.776893 
L 76.365001 278.389615 
L 76.365001 278.389615 
" style="fill:none;stroke:#1f77b4;stroke-linecap:square;stroke-width:1.5;"/>
   </g>
   <g id="line2d_28">
    <path clip-path="url(#p59969f8743)" d="M 73.832727 166.023392 
L 75.413193 166.668109 
L 76.99366 166.797053 
L 78.574126 166.539166 
L 81.735058 166.539166 
L 84.89599 166.281279 
L 86.476457 166.410222 
L 88.056923 166.410222 
L 89.637389 166.281279 
L 92.798321 166.281279 
L 95.959253 166.023392 
L 97.53972 166.152335 
L 99.120186 166.023392 
L 100.700652 166.023392 
L 102.281118 166.152335 
L 103.861584 166.152335 
L 105.44205 166.023392 
L 107.022517 166.152335 
L 108.602983 166.152335 
L 110.183449 166.023392 
L 114.924847 166.410222 
L 116.505314 166.410222 
L 119.666246 166.668109 
L 121.246712 166.539166 
L 127.568577 167.05494 
L 129.149043 167.312827 
L 130.729509 167.312827 
L 133.890441 167.570714 
L 135.470907 167.828601 
L 137.051374 167.828601 
L 140.212306 168.344375 
L 141.792772 168.473319 
L 143.373238 168.731206 
L 144.953704 168.860149 
L 146.53417 169.24698 
L 149.695103 169.504867 
L 151.275569 169.891697 
L 152.856035 170.020641 
L 156.016967 170.794302 
L 157.597434 170.923246 
L 160.758366 171.43902 
L 162.338832 171.567963 
L 163.919298 171.82585 
L 165.499764 172.212681 
L 167.080231 172.341624 
L 168.660697 172.728455 
L 170.241163 172.986342 
L 171.821629 173.373172 
L 173.402095 173.63106 
L 174.982561 173.760003 
L 176.563027 174.146834 
L 181.304426 174.920495 
L 182.884892 175.307325 
L 186.045824 175.823099 
L 187.626291 176.20993 
L 189.206757 176.467817 
L 192.367689 177.241478 
L 193.948155 177.499365 
L 195.528621 177.499365 
L 197.109088 178.273026 
L 198.689554 178.530913 
L 200.27002 178.917744 
L 201.850486 179.175631 
L 203.430952 179.562462 
L 205.011418 179.820349 
L 206.591884 180.207179 
L 208.172351 180.465066 
L 209.752817 180.851897 
L 211.333283 181.109784 
L 219.235614 183.043937 
L 220.81608 183.17288 
L 223.977012 184.204429 
L 227.137944 184.97809 
L 228.718411 185.235977 
L 230.298877 185.751751 
L 231.879343 186.009638 
L 233.459809 186.396469 
L 235.040275 186.396469 
L 236.620741 187.17013 
L 238.201208 187.685904 
L 239.781674 187.943791 
L 242.942606 188.717452 
L 244.523072 189.233226 
L 246.103538 189.491113 
L 247.684005 190.006887 
L 254.005869 191.55421 
L 255.586335 192.069984 
L 261.9082 193.617306 
L 265.069132 194.648854 
L 266.649598 194.906741 
L 268.230065 195.293572 
L 271.390997 196.32512 
L 272.971463 196.71195 
L 274.551929 197.227725 
L 276.132395 197.614555 
L 277.712862 198.130329 
L 279.293328 198.388216 
L 280.873794 198.775047 
L 282.45426 199.290821 
L 284.034726 199.677652 
L 285.615192 200.193426 
L 287.195658 200.580256 
L 288.776125 201.09603 
L 290.356591 200.967087 
L 293.517523 201.998635 
L 295.097989 202.90124 
L 298.258922 203.932788 
L 299.839388 204.835393 
L 301.419854 205.48011 
L 303.00032 204.964336 
L 306.161252 205.737997 
L 307.741718 206.253771 
L 309.322185 207.027432 
L 310.902651 208.058981 
L 312.483117 207.930037 
L 315.644049 208.961585 
L 317.224515 209.348416 
L 320.385448 210.379964 
L 321.965914 211.540456 
L 323.54638 211.411512 
L 325.126846 212.05623 
L 328.287779 213.087778 
L 329.868245 214.24827 
L 331.448711 214.24827 
L 333.029177 214.6351 
L 334.609643 215.279818 
L 336.190109 215.666649 
L 340.931508 217.213971 
L 342.511974 217.600802 
L 344.09244 218.116576 
L 347.253372 218.890237 
L 350.414305 219.921785 
L 351.994771 220.566503 
L 358.316636 222.113825 
L 359.897102 222.371712 
L 361.477568 222.500655 
L 363.058034 222.887486 
L 364.6385 223.145373 
L 366.218966 223.532204 
L 367.799432 223.790091 
L 369.379899 224.305865 
L 370.960365 224.692695 
L 372.540831 224.950582 
L 374.121297 225.466357 
L 377.282229 225.982131 
L 378.862696 227.400509 
L 380.443162 227.78734 
L 382.023628 227.271566 
L 383.604094 227.400509 
L 385.18456 227.658396 
L 386.765026 227.529453 
L 388.345492 226.884735 
L 389.925959 227.529453 
L 391.506425 227.400509 
L 393.086891 227.529453 
L 394.667357 227.916284 
L 396.247823 226.497905 
L 396.247823 226.497905 
" style="fill:none;stroke:#000000;stroke-linecap:square;stroke-width:1.5;"/>
   </g>
   <g id="line2d_29">
    <path clip-path="url(#p59969f8743)" d="M 74.062148 55.384492 
L 116.295157 61.845737 
L 162.246043 69.863315 
L 177.523198 72.81562 
L 190.286594 75.045093 
L 203.050191 77.273017 
L 213.207707 79.416993 
L 223.328521 81.775813 
L 232.139556 84.075868 
L 238.396017 85.8941 
L 243.353044 87.548875 
L 250.710442 90.319714 
L 258.001191 93.311237 
L 265.206367 96.562348 
L 271.134012 99.483018 
L 275.785127 102.047437 
L 281.505383 105.465356 
L 290.543175 111.177467 
L 296.094342 114.941667 
L 300.429188 118.1485 
L 317.533567 131.361784 
L 324.776687 137.537293 
L 334.031909 145.563474 
L 338.977557 150.303269 
L 347.809732 158.928303 
L 356.240428 168.063907 
L 358.962072 171.198661 
L 365.026668 178.843388 
L 367.573398 182.176615 
L 370.940497 186.649135 
L 376.226321 193.117728 
L 379.80333 197.368263 
L 382.225509 200.820741 
L 387.722737 209.011515 
L 389.074514 211.523586 
L 390.221288 214.164812 
L 391.1145 216.930473 
L 391.719398 219.796032 
L 392.019633 222.72371 
L 392.016717 225.671569 
L 391.729613 228.601477 
L 391.20165 231.48786 
L 390.49563 234.324642 
L 389.651483 237.111792 
L 388.653743 239.831714 
L 386.902232 243.777248 
L 384.993748 247.626768 
L 382.84666 251.308439 
L 380.544727 254.866117 
L 377.200321 259.361094 
L 375.48025 261.560874 
L 373.643037 263.633118 
L 369.799076 267.57284 
L 366.813705 270.391426 
L 363.681071 272.992554 
L 359.329913 276.169975 
L 355.985171 278.401029 
L 352.53753 280.416655 
L 348.990429 282.193445 
L 344.171252 284.314167 
L 339.267117 286.163148 
L 335.531363 287.329491 
L 330.474283 288.527329 
L 326.653357 289.25259 
L 320.2543 290.225718 
L 315.108356 290.723942 
L 308.657875 291.019322 
L 298.32889 291.121457 
L 288.006234 290.995662 
L 280.264004 290.690372 
L 272.52877 290.196247 
L 264.807972 289.464562 
L 259.671293 288.850874 
L 246.874452 286.883497 
L 236.66195 285.110562 
L 226.470665 283.18708 
L 202.320134 278.256706 
L 179.384868 273.959043 
L 170.430812 272.550156 
L 164.018236 271.695719 
L 156.306121 270.853673 
L 148.577967 270.231995 
L 140.839674 269.808812 
L 134.384939 269.66426 
L 127.929842 269.766262 
L 121.481579 270.1182 
L 115.047707 270.720368 
L 108.635119 271.569385 
L 74.058508 276.662291 
L 74.058508 276.662291 
" style="fill:none;stroke:#ff7f0e;stroke-linecap:square;stroke-width:1.5;"/>
   </g>
   <g id="line2d_30">
    <path clip-path="url(#p59969f8743)" d="M 74.252462 273.836959 
L 92.290214 270.144714 
L 95.910694 270.144714 
L 103.151655 268.667816 
L 106.836787 268.667816 
L 110.457268 267.929366 
L 117.827532 267.929366 
L 121.641966 267.190917 
L 135.865283 267.190917 
L 139.744369 267.929366 
L 146.856027 267.929366 
L 150.735113 268.667816 
L 154.6142 268.667816 
L 157.846772 269.406265 
L 161.725858 269.406265 
L 165.604944 270.144714 
L 168.837516 270.883163 
L 172.716602 271.621612 
L 175.949174 272.360061 
L 183.707347 273.836959 
L 186.939919 274.575408 
L 190.819005 275.313857 
L 194.051577 276.052306 
L 197.930663 276.790756 
L 201.163235 277.529205 
L 205.042321 279.006103 
L 208.274893 279.744552 
L 212.153979 280.483001 
L 215.386551 281.22145 
L 219.265638 282.698348 
L 222.498209 283.436797 
L 230.256382 284.913696 
L 233.488954 285.652145 
L 237.36804 287.129043 
L 240.600612 287.867492 
L 244.479698 288.605941 
L 247.71227 288.605941 
L 255.470443 290.082839 
L 258.703015 290.821288 
L 262.582101 290.821288 
L 265.814673 291.559737 
L 284.56359 291.559737 
L 287.796162 290.821288 
L 291.675248 290.821288 
L 295.554334 290.082839 
L 298.786906 289.34439 
L 302.665992 288.605941 
L 305.898564 287.129043 
L 309.777651 286.390594 
L 313.010223 284.913696 
L 316.889309 283.436797 
L 326.587024 279.006103 
L 330.466111 276.790756 
L 333.698683 275.313857 
L 340.163826 270.883163 
L 342.749884 268.667816 
L 352.4476 262.021774 
L 355.033657 259.067977 
L 358.266229 256.85263 
L 360.852287 253.898834 
L 363.438344 251.683486 
L 366.670916 248.72969 
L 371.843031 242.822097 
L 373.782574 239.203697 
L 375.075603 235.363761 
L 375.722117 231.302291 
L 375.722117 222.883972 
L 374.429088 214.687187 
L 373.13606 210.847252 
L 369.256973 203.536606 
L 363.438344 193.050628 
L 360.852287 189.653763 
L 358.912743 186.478431 
L 351.154571 177.543197 
L 343.396398 168.844267 
L 340.163826 165.994001 
L 329.819596 154.651276 
L 327.233539 151.919014 
L 324.000967 149.260597 
L 318.828852 143.869919 
L 315.59628 141.359192 
L 313.010223 138.700775 
L 309.777651 136.116203 
L 307.191593 133.531631 
L 303.959021 130.94706 
L 301.372964 128.436333 
L 294.90782 123.784103 
L 291.675248 121.494911 
L 289.08919 119.131874 
L 282.624047 114.775025 
L 269.693759 106.504395 
L 263.228615 102.738304 
L 250.298328 95.427658 
L 243.18667 92.843086 
L 239.954098 91.440033 
L 236.075011 90.701584 
L 232.84244 89.224686 
L 228.963353 88.486237 
L 225.730781 87.747788 
L 221.851695 86.27089 
L 217.972609 85.53244 
L 214.740037 84.793991 
L 211.507465 83.317093 
L 203.749293 81.840195 
L 200.516721 81.101746 
L 196.637634 80.363297 
L 193.405062 79.624848 
L 189.525976 78.886399 
L 186.293404 77.4095 
L 178.535232 75.932602 
L 175.30266 75.194153 
L 171.423574 74.455704 
L 168.191002 73.717255 
L 164.311915 72.978806 
L 161.079344 72.240357 
L 153.321171 70.763459 
L 150.088599 70.025009 
L 146.209513 69.28656 
L 142.976941 69.28656 
L 139.097855 68.548111 
L 135.865283 67.809662 
L 128.10711 66.332764 
L 124.874538 65.594315 
L 117.439623 64.117417 
L 113.819142 64.117417 
L 95.781391 60.425171 
L 92.160911 60.425171 
L 84.91995 58.948273 
L 81.299469 58.948273 
L 74.058508 57.471375 
L 74.058508 57.471375 
" style="fill:none;stroke:#2ca02c;stroke-linecap:square;stroke-width:1.5;"/>
   </g>
   <g id="patch_3">
    <path d="M 57.6 307.584 
L 57.6 41.472 
" style="fill:none;stroke:#000000;stroke-linecap:square;stroke-linejoin:miter;stroke-width:0.8;"/>
   </g>
   <g id="patch_4">
    <path d="M 414.72 307.584 
L 414.72 41.472 
" style="fill:none;stroke:#000000;stroke-linecap:square;stroke-linejoin:miter;stroke-width:0.8;"/>
   </g>
   <g id="patch_5">
    <path d="M 57.6 307.584 
L 414.72 307.584 
" style="fill:none;stroke:#000000;stroke-linecap:square;stroke-linejoin:miter;stroke-width:0.8;"/>
   </g>
   <g id="patch_6">
    <path d="M 57.6 41.472 
L 414.72 41.472 
" style="fill:none;stroke:#000000;stroke-linecap:square;stroke-linejoin:miter;stroke-width:0.8;"/>
   </g>
   <g id="legend_1">
    <g id="patch_7">
     <path d="M 82.335 38.91145 
L 389.985 38.91145 
Q 391.985 38.91145 391.985 36.91145 
L 391.985 8.5552 
Q 391.985 6.5552 389.985 6.5552 
L 82.335 6.5552 
Q 80.335 6.5552 80.335 8.5552 
L 80.335 36.91145 
Q 80.335 38.91145 82.335 38.91145 
z
" style="fill:#ffffff;opacity:0.8;stroke:#cccccc;stroke-linejoin:miter;"/>
    </g>
    <g id="line2d_31">
     <path d="M 84.335 14.653638 
L 104.335 14.653638 
" style="fill:none;stroke:#1f77b4;stroke-linecap:square;stroke-width:1.5;"/>
    </g>
    <g id="line2d_32"/>
    <g id="text_16">
     <!-- Target Contour -->
     <g transform="translate(112.335 18.153638)scale(0.1 -0.1)">
      <defs>
       <path d="M -19 4666 
L 3928 4666 
L 3928 4134 
L 2272 4134 
L 2272 0 
L 1638 0 
L 1638 4134 
L -19 4134 
L -19 4666 
z
" id="DejaVuSans-54" transform="scale(0.015625)"/>
       <path d="M 2194 1759 
Q 1497 1759 1228 1600 
Q 959 1441 959 1056 
Q 959 750 1161 570 
Q 1363 391 1709 391 
Q 2188 391 2477 730 
Q 2766 1069 2766 1631 
L 2766 1759 
L 2194 1759 
z
M 3341 1997 
L 3341 0 
L 2766 0 
L 2766 531 
Q 2569 213 2275 61 
Q 1981 -91 1556 -91 
Q 1019 -91 701 211 
Q 384 513 384 1019 
Q 384 1609 779 1909 
Q 1175 2209 1959 2209 
L 2766 2209 
L 2766 2266 
Q 2766 2663 2505 2880 
Q 2244 3097 1772 3097 
Q 1472 3097 1187 3025 
Q 903 2953 641 2809 
L 641 3341 
Q 956 3463 1253 3523 
Q 1550 3584 1831 3584 
Q 2591 3584 2966 3190 
Q 3341 2797 3341 1997 
z
" id="DejaVuSans-61" transform="scale(0.015625)"/>
       <path d="M 2906 1791 
Q 2906 2416 2648 2759 
Q 2391 3103 1925 3103 
Q 1463 3103 1205 2759 
Q 947 2416 947 1791 
Q 947 1169 1205 825 
Q 1463 481 1925 481 
Q 2391 481 2648 825 
Q 2906 1169 2906 1791 
z
M 3481 434 
Q 3481 -459 3084 -895 
Q 2688 -1331 1869 -1331 
Q 1566 -1331 1297 -1286 
Q 1028 -1241 775 -1147 
L 775 -588 
Q 1028 -725 1275 -790 
Q 1522 -856 1778 -856 
Q 2344 -856 2625 -561 
Q 2906 -266 2906 331 
L 2906 616 
Q 2728 306 2450 153 
Q 2172 0 1784 0 
Q 1141 0 747 490 
Q 353 981 353 1791 
Q 353 2603 747 3093 
Q 1141 3584 1784 3584 
Q 2172 3584 2450 3431 
Q 2728 3278 2906 2969 
L 2906 3500 
L 3481 3500 
L 3481 434 
z
" id="DejaVuSans-67" transform="scale(0.015625)"/>
       <path d="M 4122 4306 
L 4122 3641 
Q 3803 3938 3442 4084 
Q 3081 4231 2675 4231 
Q 1875 4231 1450 3742 
Q 1025 3253 1025 2328 
Q 1025 1406 1450 917 
Q 1875 428 2675 428 
Q 3081 428 3442 575 
Q 3803 722 4122 1019 
L 4122 359 
Q 3791 134 3420 21 
Q 3050 -91 2638 -91 
Q 1578 -91 968 557 
Q 359 1206 359 2328 
Q 359 3453 968 4101 
Q 1578 4750 2638 4750 
Q 3056 4750 3426 4639 
Q 3797 4528 4122 4306 
z
" id="DejaVuSans-43" transform="scale(0.015625)"/>
       <path d="M 544 1381 
L 544 3500 
L 1119 3500 
L 1119 1403 
Q 1119 906 1312 657 
Q 1506 409 1894 409 
Q 2359 409 2629 706 
Q 2900 1003 2900 1516 
L 2900 3500 
L 3475 3500 
L 3475 0 
L 2900 0 
L 2900 538 
Q 2691 219 2414 64 
Q 2138 -91 1772 -91 
Q 1169 -91 856 284 
Q 544 659 544 1381 
z
M 1991 3584 
L 1991 3584 
z
" id="DejaVuSans-75" transform="scale(0.015625)"/>
      </defs>
      <use xlink:href="#DejaVuSans-54"/>
      <use x="44.583984" xlink:href="#DejaVuSans-61"/>
      <use x="105.863281" xlink:href="#DejaVuSans-72"/>
      <use x="145.226562" xlink:href="#DejaVuSans-67"/>
      <use x="208.703125" xlink:href="#DejaVuSans-65"/>
      <use x="270.226562" xlink:href="#DejaVuSans-74"/>
      <use x="309.435547" xlink:href="#DejaVuSans-20"/>
      <use x="341.222656" xlink:href="#DejaVuSans-43"/>
      <use x="411.046875" xlink:href="#DejaVuSans-6f"/>
      <use x="472.228516" xlink:href="#DejaVuSans-6e"/>
      <use x="535.607422" xlink:href="#DejaVuSans-74"/>
      <use x="574.816406" xlink:href="#DejaVuSans-6f"/>
      <use x="635.998047" xlink:href="#DejaVuSans-75"/>
      <use x="699.376953" xlink:href="#DejaVuSans-72"/>
     </g>
    </g>
    <g id="line2d_33">
     <path d="M 84.335 29.331763 
L 104.335 29.331763 
" style="fill:none;stroke:#000000;stroke-linecap:square;stroke-width:1.5;"/>
    </g>
    <g id="line2d_34"/>
    <g id="text_17">
     <!-- Target Camberline -->
     <g transform="translate(112.335 32.831763)scale(0.1 -0.1)">
      <defs>
       <path d="M 3116 1747 
Q 3116 2381 2855 2742 
Q 2594 3103 2138 3103 
Q 1681 3103 1420 2742 
Q 1159 2381 1159 1747 
Q 1159 1113 1420 752 
Q 1681 391 2138 391 
Q 2594 391 2855 752 
Q 3116 1113 3116 1747 
z
M 1159 2969 
Q 1341 3281 1617 3432 
Q 1894 3584 2278 3584 
Q 2916 3584 3314 3078 
Q 3713 2572 3713 1747 
Q 3713 922 3314 415 
Q 2916 -91 2278 -91 
Q 1894 -91 1617 61 
Q 1341 213 1159 525 
L 1159 0 
L 581 0 
L 581 4863 
L 1159 4863 
L 1159 2969 
z
" id="DejaVuSans-62" transform="scale(0.015625)"/>
       <path d="M 603 4863 
L 1178 4863 
L 1178 0 
L 603 0 
L 603 4863 
z
" id="DejaVuSans-6c" transform="scale(0.015625)"/>
      </defs>
      <use xlink:href="#DejaVuSans-54"/>
      <use x="44.583984" xlink:href="#DejaVuSans-61"/>
      <use x="105.863281" xlink:href="#DejaVuSans-72"/>
      <use x="145.226562" xlink:href="#DejaVuSans-67"/>
      <use x="208.703125" xlink:href="#DejaVuSans-65"/>
      <use x="270.226562" xlink:href="#DejaVuSans-74"/>
      <use x="309.435547" xlink:href="#DejaVuSans-20"/>
      <use x="341.222656" xlink:href="#DejaVuSans-43"/>
      <use x="411.046875" xlink:href="#DejaVuSans-61"/>
      <use x="472.326172" xlink:href="#DejaVuSans-6d"/>
      <use x="569.738281" xlink:href="#DejaVuSans-62"/>
      <use x="633.214844" xlink:href="#DejaVuSans-65"/>
      <use x="694.738281" xlink:href="#DejaVuSans-72"/>
      <use x="735.851562" xlink:href="#DejaVuSans-6c"/>
      <use x="763.634766" xlink:href="#DejaVuSans-69"/>
      <use x="791.417969" xlink:href="#DejaVuSans-6e"/>
      <use x="854.796875" xlink:href="#DejaVuSans-65"/>
     </g>
    </g>
    <g id="line2d_35">
     <path d="M 223.967813 14.653638 
L 243.967813 14.653638 
" style="fill:none;stroke:#ff7f0e;stroke-linecap:square;stroke-width:1.5;"/>
    </g>
    <g id="line2d_36"/>
    <g id="text_18">
     <!-- Final Experimental Contour -->
     <g transform="translate(251.967813 18.153638)scale(0.1 -0.1)">
      <defs>
       <path d="M 628 4666 
L 3309 4666 
L 3309 4134 
L 1259 4134 
L 1259 2759 
L 3109 2759 
L 3109 2228 
L 1259 2228 
L 1259 0 
L 628 0 
L 628 4666 
z
" id="DejaVuSans-46" transform="scale(0.015625)"/>
       <path d="M 628 4666 
L 3578 4666 
L 3578 4134 
L 1259 4134 
L 1259 2753 
L 3481 2753 
L 3481 2222 
L 1259 2222 
L 1259 531 
L 3634 531 
L 3634 0 
L 628 0 
L 628 4666 
z
" id="DejaVuSans-45" transform="scale(0.015625)"/>
       <path d="M 3513 3500 
L 2247 1797 
L 3578 0 
L 2900 0 
L 1881 1375 
L 863 0 
L 184 0 
L 1544 1831 
L 300 3500 
L 978 3500 
L 1906 2253 
L 2834 3500 
L 3513 3500 
z
" id="DejaVuSans-78" transform="scale(0.015625)"/>
       <path d="M 1159 525 
L 1159 -1331 
L 581 -1331 
L 581 3500 
L 1159 3500 
L 1159 2969 
Q 1341 3281 1617 3432 
Q 1894 3584 2278 3584 
Q 2916 3584 3314 3078 
Q 3713 2572 3713 1747 
Q 3713 922 3314 415 
Q 2916 -91 2278 -91 
Q 1894 -91 1617 61 
Q 1341 213 1159 525 
z
M 3116 1747 
Q 3116 2381 2855 2742 
Q 2594 3103 2138 3103 
Q 1681 3103 1420 2742 
Q 1159 2381 1159 1747 
Q 1159 1113 1420 752 
Q 1681 391 2138 391 
Q 2594 391 2855 752 
Q 3116 1113 3116 1747 
z
" id="DejaVuSans-70" transform="scale(0.015625)"/>
      </defs>
      <use xlink:href="#DejaVuSans-46"/>
      <use x="50.269531" xlink:href="#DejaVuSans-69"/>
      <use x="78.052734" xlink:href="#DejaVuSans-6e"/>
      <use x="141.431641" xlink:href="#DejaVuSans-61"/>
      <use x="202.710938" xlink:href="#DejaVuSans-6c"/>
      <use x="230.494141" xlink:href="#DejaVuSans-20"/>
      <use x="262.28125" xlink:href="#DejaVuSans-45"/>
      <use x="325.464844" xlink:href="#DejaVuSans-78"/>
      <use x="384.644531" xlink:href="#DejaVuSans-70"/>
      <use x="448.121094" xlink:href="#DejaVuSans-65"/>
      <use x="509.644531" xlink:href="#DejaVuSans-72"/>
      <use x="550.757812" xlink:href="#DejaVuSans-69"/>
      <use x="578.541016" xlink:href="#DejaVuSans-6d"/>
      <use x="675.953125" xlink:href="#DejaVuSans-65"/>
      <use x="737.476562" xlink:href="#DejaVuSans-6e"/>
      <use x="800.855469" xlink:href="#DejaVuSans-74"/>
      <use x="840.064453" xlink:href="#DejaVuSans-61"/>
      <use x="901.34375" xlink:href="#DejaVuSans-6c"/>
      <use x="929.126953" xlink:href="#DejaVuSans-20"/>
      <use x="960.914062" xlink:href="#DejaVuSans-43"/>
      <use x="1030.738281" xlink:href="#DejaVuSans-6f"/>
      <use x="1091.919922" xlink:href="#DejaVuSans-6e"/>
      <use x="1155.298828" xlink:href="#DejaVuSans-74"/>
      <use x="1194.507812" xlink:href="#DejaVuSans-6f"/>
      <use x="1255.689453" xlink:href="#DejaVuSans-75"/>
      <use x="1319.068359" xlink:href="#DejaVuSans-72"/>
     </g>
    </g>
    <g id="line2d_37">
     <path d="M 223.967813 29.331763 
L 243.967813 29.331763 
" style="fill:none;stroke:#2ca02c;stroke-linecap:square;stroke-width:1.5;"/>
    </g>
    <g id="line2d_38"/>
    <g id="text_19">
     <!-- Final FEM Contour -->
     <g transform="translate(251.967813 32.831763)scale(0.1 -0.1)">
      <defs>
       <path d="M 628 4666 
L 1569 4666 
L 2759 1491 
L 3956 4666 
L 4897 4666 
L 4897 0 
L 4281 0 
L 4281 4097 
L 3078 897 
L 2444 897 
L 1241 4097 
L 1241 0 
L 628 0 
L 628 4666 
z
" id="DejaVuSans-4d" transform="scale(0.015625)"/>
      </defs>
      <use xlink:href="#DejaVuSans-46"/>
      <use x="50.269531" xlink:href="#DejaVuSans-69"/>
      <use x="78.052734" xlink:href="#DejaVuSans-6e"/>
      <use x="141.431641" xlink:href="#DejaVuSans-61"/>
      <use x="202.710938" xlink:href="#DejaVuSans-6c"/>
      <use x="230.494141" xlink:href="#DejaVuSans-20"/>
      <use x="262.28125" xlink:href="#DejaVuSans-46"/>
      <use x="319.800781" xlink:href="#DejaVuSans-45"/>
      <use x="382.984375" xlink:href="#DejaVuSans-4d"/>
      <use x="469.263672" xlink:href="#DejaVuSans-20"/>
      <use x="501.050781" xlink:href="#DejaVuSans-43"/>
      <use x="570.875" xlink:href="#DejaVuSans-6f"/>
      <use x="632.056641" xlink:href="#DejaVuSans-6e"/>
      <use x="695.435547" xlink:href="#DejaVuSans-74"/>
      <use x="734.644531" xlink:href="#DejaVuSans-6f"/>
      <use x="795.826172" xlink:href="#DejaVuSans-75"/>
      <use x="859.205078" xlink:href="#DejaVuSans-72"/>
     </g>
    </g>
   </g>
  </g>
 </g>
 <defs>
  <clipPath id="p59969f8743">
   <rect height="266.112" width="357.12" x="57.6" y="41.472"/>
  </clipPath>
 </defs>
</svg>
