<?xml version="1.0" encoding="utf-8" standalone="no"?>
<!DOCTYPE svg PUBLIC "-//W3C//DTD SVG 1.1//EN"
  "http://www.w3.org/Graphics/SVG/1.1/DTD/svg11.dtd">
<svg height="345.6pt" version="1.1" viewBox="0 0 460.8 345.6" width="460.8pt" xmlns="http://www.w3.org/2000/svg" xmlns:xlink="http://www.w3.org/1999/xlink">
 <metadata>
  <rdf:RDF xmlns:cc="http://creativecommons.org/ns#" xmlns:dc="http://purl.org/dc/elements/1.1/" xmlns:rdf="http://www.w3.org/1999/02/22-rdf-syntax-ns#">
   <cc:Work>
    <dc:type rdf:resource="http://purl.org/dc/dcmitype/StillImage"/>
    <dc:date>2022-06-02T16:07:21.439817</dc:date>
    <dc:format>image/svg+xml</dc:format>
    <dc:creator>
     <cc:Agent>
      <dc:title>Matplotlib v3.4.1, https://matplotlib.org/</dc:title>
     </cc:Agent>
    </dc:creator>
   </cc:Work>
  </rdf:RDF>
 </metadata>
 <defs>
  <style type="text/css">*{stroke-linecap:butt;stroke-linejoin:round;}</style>
 </defs>
 <g id="figure_1">
  <g id="patch_1">
   <path d="M 0 345.6 
L 460.8 345.6 
L 460.8 0 
L 0 0 
z
" style="fill:#ffffff;"/>
  </g>
  <g id="axes_1">
   <g id="patch_2">
    <path d="M 57.6 307.584 
L 414.72 307.584 
L 414.72 41.472 
L 57.6 41.472 
z
" style="fill:#ffffff;"/>
   </g>
   <g id="matplotlib.axis_1">
    <g id="xtick_1">
     <g id="line2d_1">
      <path clip-path="url(#pbb8859ceac)" d="M 73.832727 307.584 
L 73.832727 41.472 
" style="fill:none;stroke:#b0b0b0;stroke-linecap:square;stroke-width:0.8;"/>
     </g>
     <g id="line2d_2">
      <defs>
       <path d="M 0 0 
L 0 3.5 
" id="med80ae73e4" style="stroke:#000000;stroke-width:0.8;"/>
      </defs>
      <g>
       <use style="stroke:#000000;stroke-width:0.8;" x="73.832727" xlink:href="#med80ae73e4" y="307.584"/>
      </g>
     </g>
     <g id="text_1">
      <!-- 0 -->
      <g transform="translate(70.651477 322.182437)scale(0.1 -0.1)">
       <defs>
        <path d="M 2034 4250 
Q 1547 4250 1301 3770 
Q 1056 3291 1056 2328 
Q 1056 1369 1301 889 
Q 1547 409 2034 409 
Q 2525 409 2770 889 
Q 3016 1369 3016 2328 
Q 3016 3291 2770 3770 
Q 2525 4250 2034 4250 
z
M 2034 4750 
Q 2819 4750 3233 4129 
Q 3647 3509 3647 2328 
Q 3647 1150 3233 529 
Q 2819 -91 2034 -91 
Q 1250 -91 836 529 
Q 422 1150 422 2328 
Q 422 3509 836 4129 
Q 1250 4750 2034 4750 
z
" id="DejaVuSans-30" transform="scale(0.015625)"/>
       </defs>
       <use xlink:href="#DejaVuSans-30"/>
      </g>
     </g>
    </g>
    <g id="xtick_2">
     <g id="line2d_3">
      <path clip-path="url(#pbb8859ceac)" d="M 136.85588 307.584 
L 136.85588 41.472 
" style="fill:none;stroke:#b0b0b0;stroke-linecap:square;stroke-width:0.8;"/>
     </g>
     <g id="line2d_4">
      <g>
       <use style="stroke:#000000;stroke-width:0.8;" x="136.85588" xlink:href="#med80ae73e4" y="307.584"/>
      </g>
     </g>
     <g id="text_2">
      <!-- 100 -->
      <g transform="translate(127.31213 322.182437)scale(0.1 -0.1)">
       <defs>
        <path d="M 794 531 
L 1825 531 
L 1825 4091 
L 703 3866 
L 703 4441 
L 1819 4666 
L 2450 4666 
L 2450 531 
L 3481 531 
L 3481 0 
L 794 0 
L 794 531 
z
" id="DejaVuSans-31" transform="scale(0.015625)"/>
       </defs>
       <use xlink:href="#DejaVuSans-31"/>
       <use x="63.623047" xlink:href="#DejaVuSans-30"/>
       <use x="127.246094" xlink:href="#DejaVuSans-30"/>
      </g>
     </g>
    </g>
    <g id="xtick_3">
     <g id="line2d_5">
      <path clip-path="url(#pbb8859ceac)" d="M 199.879033 307.584 
L 199.879033 41.472 
" style="fill:none;stroke:#b0b0b0;stroke-linecap:square;stroke-width:0.8;"/>
     </g>
     <g id="line2d_6">
      <g>
       <use style="stroke:#000000;stroke-width:0.8;" x="199.879033" xlink:href="#med80ae73e4" y="307.584"/>
      </g>
     </g>
     <g id="text_3">
      <!-- 200 -->
      <g transform="translate(190.335283 322.182437)scale(0.1 -0.1)">
       <defs>
        <path d="M 1228 531 
L 3431 531 
L 3431 0 
L 469 0 
L 469 531 
Q 828 903 1448 1529 
Q 2069 2156 2228 2338 
Q 2531 2678 2651 2914 
Q 2772 3150 2772 3378 
Q 2772 3750 2511 3984 
Q 2250 4219 1831 4219 
Q 1534 4219 1204 4116 
Q 875 4013 500 3803 
L 500 4441 
Q 881 4594 1212 4672 
Q 1544 4750 1819 4750 
Q 2544 4750 2975 4387 
Q 3406 4025 3406 3419 
Q 3406 3131 3298 2873 
Q 3191 2616 2906 2266 
Q 2828 2175 2409 1742 
Q 1991 1309 1228 531 
z
" id="DejaVuSans-32" transform="scale(0.015625)"/>
       </defs>
       <use xlink:href="#DejaVuSans-32"/>
       <use x="63.623047" xlink:href="#DejaVuSans-30"/>
       <use x="127.246094" xlink:href="#DejaVuSans-30"/>
      </g>
     </g>
    </g>
    <g id="xtick_4">
     <g id="line2d_7">
      <path clip-path="url(#pbb8859ceac)" d="M 262.902186 307.584 
L 262.902186 41.472 
" style="fill:none;stroke:#b0b0b0;stroke-linecap:square;stroke-width:0.8;"/>
     </g>
     <g id="line2d_8">
      <g>
       <use style="stroke:#000000;stroke-width:0.8;" x="262.902186" xlink:href="#med80ae73e4" y="307.584"/>
      </g>
     </g>
     <g id="text_4">
      <!-- 300 -->
      <g transform="translate(253.358436 322.182437)scale(0.1 -0.1)">
       <defs>
        <path d="M 2597 2516 
Q 3050 2419 3304 2112 
Q 3559 1806 3559 1356 
Q 3559 666 3084 287 
Q 2609 -91 1734 -91 
Q 1441 -91 1130 -33 
Q 819 25 488 141 
L 488 750 
Q 750 597 1062 519 
Q 1375 441 1716 441 
Q 2309 441 2620 675 
Q 2931 909 2931 1356 
Q 2931 1769 2642 2001 
Q 2353 2234 1838 2234 
L 1294 2234 
L 1294 2753 
L 1863 2753 
Q 2328 2753 2575 2939 
Q 2822 3125 2822 3475 
Q 2822 3834 2567 4026 
Q 2313 4219 1838 4219 
Q 1578 4219 1281 4162 
Q 984 4106 628 3988 
L 628 4550 
Q 988 4650 1302 4700 
Q 1616 4750 1894 4750 
Q 2613 4750 3031 4423 
Q 3450 4097 3450 3541 
Q 3450 3153 3228 2886 
Q 3006 2619 2597 2516 
z
" id="DejaVuSans-33" transform="scale(0.015625)"/>
       </defs>
       <use xlink:href="#DejaVuSans-33"/>
       <use x="63.623047" xlink:href="#DejaVuSans-30"/>
       <use x="127.246094" xlink:href="#DejaVuSans-30"/>
      </g>
     </g>
    </g>
    <g id="xtick_5">
     <g id="line2d_9">
      <path clip-path="url(#pbb8859ceac)" d="M 325.925339 307.584 
L 325.925339 41.472 
" style="fill:none;stroke:#b0b0b0;stroke-linecap:square;stroke-width:0.8;"/>
     </g>
     <g id="line2d_10">
      <g>
       <use style="stroke:#000000;stroke-width:0.8;" x="325.925339" xlink:href="#med80ae73e4" y="307.584"/>
      </g>
     </g>
     <g id="text_5">
      <!-- 400 -->
      <g transform="translate(316.381589 322.182437)scale(0.1 -0.1)">
       <defs>
        <path d="M 2419 4116 
L 825 1625 
L 2419 1625 
L 2419 4116 
z
M 2253 4666 
L 3047 4666 
L 3047 1625 
L 3713 1625 
L 3713 1100 
L 3047 1100 
L 3047 0 
L 2419 0 
L 2419 1100 
L 313 1100 
L 313 1709 
L 2253 4666 
z
" id="DejaVuSans-34" transform="scale(0.015625)"/>
       </defs>
       <use xlink:href="#DejaVuSans-34"/>
       <use x="63.623047" xlink:href="#DejaVuSans-30"/>
       <use x="127.246094" xlink:href="#DejaVuSans-30"/>
      </g>
     </g>
    </g>
    <g id="xtick_6">
     <g id="line2d_11">
      <path clip-path="url(#pbb8859ceac)" d="M 388.948492 307.584 
L 388.948492 41.472 
" style="fill:none;stroke:#b0b0b0;stroke-linecap:square;stroke-width:0.8;"/>
     </g>
     <g id="line2d_12">
      <g>
       <use style="stroke:#000000;stroke-width:0.8;" x="388.948492" xlink:href="#med80ae73e4" y="307.584"/>
      </g>
     </g>
     <g id="text_6">
      <!-- 500 -->
      <g transform="translate(379.404742 322.182437)scale(0.1 -0.1)">
       <defs>
        <path d="M 691 4666 
L 3169 4666 
L 3169 4134 
L 1269 4134 
L 1269 2991 
Q 1406 3038 1543 3061 
Q 1681 3084 1819 3084 
Q 2600 3084 3056 2656 
Q 3513 2228 3513 1497 
Q 3513 744 3044 326 
Q 2575 -91 1722 -91 
Q 1428 -91 1123 -41 
Q 819 9 494 109 
L 494 744 
Q 775 591 1075 516 
Q 1375 441 1709 441 
Q 2250 441 2565 725 
Q 2881 1009 2881 1497 
Q 2881 1984 2565 2268 
Q 2250 2553 1709 2553 
Q 1456 2553 1204 2497 
Q 953 2441 691 2322 
L 691 4666 
z
" id="DejaVuSans-35" transform="scale(0.015625)"/>
       </defs>
       <use xlink:href="#DejaVuSans-35"/>
       <use x="63.623047" xlink:href="#DejaVuSans-30"/>
       <use x="127.246094" xlink:href="#DejaVuSans-30"/>
      </g>
     </g>
    </g>
    <g id="text_7">
     <!-- Position in X direction [mm] -->
     <g transform="translate(166.805313 335.860562)scale(0.1 -0.1)">
      <defs>
       <path d="M 1259 4147 
L 1259 2394 
L 2053 2394 
Q 2494 2394 2734 2622 
Q 2975 2850 2975 3272 
Q 2975 3691 2734 3919 
Q 2494 4147 2053 4147 
L 1259 4147 
z
M 628 4666 
L 2053 4666 
Q 2838 4666 3239 4311 
Q 3641 3956 3641 3272 
Q 3641 2581 3239 2228 
Q 2838 1875 2053 1875 
L 1259 1875 
L 1259 0 
L 628 0 
L 628 4666 
z
" id="DejaVuSans-50" transform="scale(0.015625)"/>
       <path d="M 1959 3097 
Q 1497 3097 1228 2736 
Q 959 2375 959 1747 
Q 959 1119 1226 758 
Q 1494 397 1959 397 
Q 2419 397 2687 759 
Q 2956 1122 2956 1747 
Q 2956 2369 2687 2733 
Q 2419 3097 1959 3097 
z
M 1959 3584 
Q 2709 3584 3137 3096 
Q 3566 2609 3566 1747 
Q 3566 888 3137 398 
Q 2709 -91 1959 -91 
Q 1206 -91 779 398 
Q 353 888 353 1747 
Q 353 2609 779 3096 
Q 1206 3584 1959 3584 
z
" id="DejaVuSans-6f" transform="scale(0.015625)"/>
       <path d="M 2834 3397 
L 2834 2853 
Q 2591 2978 2328 3040 
Q 2066 3103 1784 3103 
Q 1356 3103 1142 2972 
Q 928 2841 928 2578 
Q 928 2378 1081 2264 
Q 1234 2150 1697 2047 
L 1894 2003 
Q 2506 1872 2764 1633 
Q 3022 1394 3022 966 
Q 3022 478 2636 193 
Q 2250 -91 1575 -91 
Q 1294 -91 989 -36 
Q 684 19 347 128 
L 347 722 
Q 666 556 975 473 
Q 1284 391 1588 391 
Q 1994 391 2212 530 
Q 2431 669 2431 922 
Q 2431 1156 2273 1281 
Q 2116 1406 1581 1522 
L 1381 1569 
Q 847 1681 609 1914 
Q 372 2147 372 2553 
Q 372 3047 722 3315 
Q 1072 3584 1716 3584 
Q 2034 3584 2315 3537 
Q 2597 3491 2834 3397 
z
" id="DejaVuSans-73" transform="scale(0.015625)"/>
       <path d="M 603 3500 
L 1178 3500 
L 1178 0 
L 603 0 
L 603 3500 
z
M 603 4863 
L 1178 4863 
L 1178 4134 
L 603 4134 
L 603 4863 
z
" id="DejaVuSans-69" transform="scale(0.015625)"/>
       <path d="M 1172 4494 
L 1172 3500 
L 2356 3500 
L 2356 3053 
L 1172 3053 
L 1172 1153 
Q 1172 725 1289 603 
Q 1406 481 1766 481 
L 2356 481 
L 2356 0 
L 1766 0 
Q 1100 0 847 248 
Q 594 497 594 1153 
L 594 3053 
L 172 3053 
L 172 3500 
L 594 3500 
L 594 4494 
L 1172 4494 
z
" id="DejaVuSans-74" transform="scale(0.015625)"/>
       <path d="M 3513 2113 
L 3513 0 
L 2938 0 
L 2938 2094 
Q 2938 2591 2744 2837 
Q 2550 3084 2163 3084 
Q 1697 3084 1428 2787 
Q 1159 2491 1159 1978 
L 1159 0 
L 581 0 
L 581 3500 
L 1159 3500 
L 1159 2956 
Q 1366 3272 1645 3428 
Q 1925 3584 2291 3584 
Q 2894 3584 3203 3211 
Q 3513 2838 3513 2113 
z
" id="DejaVuSans-6e" transform="scale(0.015625)"/>
       <path id="DejaVuSans-20" transform="scale(0.015625)"/>
       <path d="M 403 4666 
L 1081 4666 
L 2241 2931 
L 3406 4666 
L 4084 4666 
L 2584 2425 
L 4184 0 
L 3506 0 
L 2194 1984 
L 872 0 
L 191 0 
L 1856 2491 
L 403 4666 
z
" id="DejaVuSans-58" transform="scale(0.015625)"/>
       <path d="M 2906 2969 
L 2906 4863 
L 3481 4863 
L 3481 0 
L 2906 0 
L 2906 525 
Q 2725 213 2448 61 
Q 2172 -91 1784 -91 
Q 1150 -91 751 415 
Q 353 922 353 1747 
Q 353 2572 751 3078 
Q 1150 3584 1784 3584 
Q 2172 3584 2448 3432 
Q 2725 3281 2906 2969 
z
M 947 1747 
Q 947 1113 1208 752 
Q 1469 391 1925 391 
Q 2381 391 2643 752 
Q 2906 1113 2906 1747 
Q 2906 2381 2643 2742 
Q 2381 3103 1925 3103 
Q 1469 3103 1208 2742 
Q 947 2381 947 1747 
z
" id="DejaVuSans-64" transform="scale(0.015625)"/>
       <path d="M 2631 2963 
Q 2534 3019 2420 3045 
Q 2306 3072 2169 3072 
Q 1681 3072 1420 2755 
Q 1159 2438 1159 1844 
L 1159 0 
L 581 0 
L 581 3500 
L 1159 3500 
L 1159 2956 
Q 1341 3275 1631 3429 
Q 1922 3584 2338 3584 
Q 2397 3584 2469 3576 
Q 2541 3569 2628 3553 
L 2631 2963 
z
" id="DejaVuSans-72" transform="scale(0.015625)"/>
       <path d="M 3597 1894 
L 3597 1613 
L 953 1613 
Q 991 1019 1311 708 
Q 1631 397 2203 397 
Q 2534 397 2845 478 
Q 3156 559 3463 722 
L 3463 178 
Q 3153 47 2828 -22 
Q 2503 -91 2169 -91 
Q 1331 -91 842 396 
Q 353 884 353 1716 
Q 353 2575 817 3079 
Q 1281 3584 2069 3584 
Q 2775 3584 3186 3129 
Q 3597 2675 3597 1894 
z
M 3022 2063 
Q 3016 2534 2758 2815 
Q 2500 3097 2075 3097 
Q 1594 3097 1305 2825 
Q 1016 2553 972 2059 
L 3022 2063 
z
" id="DejaVuSans-65" transform="scale(0.015625)"/>
       <path d="M 3122 3366 
L 3122 2828 
Q 2878 2963 2633 3030 
Q 2388 3097 2138 3097 
Q 1578 3097 1268 2742 
Q 959 2388 959 1747 
Q 959 1106 1268 751 
Q 1578 397 2138 397 
Q 2388 397 2633 464 
Q 2878 531 3122 666 
L 3122 134 
Q 2881 22 2623 -34 
Q 2366 -91 2075 -91 
Q 1284 -91 818 406 
Q 353 903 353 1747 
Q 353 2603 823 3093 
Q 1294 3584 2113 3584 
Q 2378 3584 2631 3529 
Q 2884 3475 3122 3366 
z
" id="DejaVuSans-63" transform="scale(0.015625)"/>
       <path d="M 550 4863 
L 1875 4863 
L 1875 4416 
L 1125 4416 
L 1125 -397 
L 1875 -397 
L 1875 -844 
L 550 -844 
L 550 4863 
z
" id="DejaVuSans-5b" transform="scale(0.015625)"/>
       <path d="M 3328 2828 
Q 3544 3216 3844 3400 
Q 4144 3584 4550 3584 
Q 5097 3584 5394 3201 
Q 5691 2819 5691 2113 
L 5691 0 
L 5113 0 
L 5113 2094 
Q 5113 2597 4934 2840 
Q 4756 3084 4391 3084 
Q 3944 3084 3684 2787 
Q 3425 2491 3425 1978 
L 3425 0 
L 2847 0 
L 2847 2094 
Q 2847 2600 2669 2842 
Q 2491 3084 2119 3084 
Q 1678 3084 1418 2786 
Q 1159 2488 1159 1978 
L 1159 0 
L 581 0 
L 581 3500 
L 1159 3500 
L 1159 2956 
Q 1356 3278 1631 3431 
Q 1906 3584 2284 3584 
Q 2666 3584 2933 3390 
Q 3200 3197 3328 2828 
z
" id="DejaVuSans-6d" transform="scale(0.015625)"/>
       <path d="M 1947 4863 
L 1947 -844 
L 622 -844 
L 622 -397 
L 1369 -397 
L 1369 4416 
L 622 4416 
L 622 4863 
L 1947 4863 
z
" id="DejaVuSans-5d" transform="scale(0.015625)"/>
      </defs>
      <use xlink:href="#DejaVuSans-50"/>
      <use x="56.677734" xlink:href="#DejaVuSans-6f"/>
      <use x="117.859375" xlink:href="#DejaVuSans-73"/>
      <use x="169.958984" xlink:href="#DejaVuSans-69"/>
      <use x="197.742188" xlink:href="#DejaVuSans-74"/>
      <use x="236.951172" xlink:href="#DejaVuSans-69"/>
      <use x="264.734375" xlink:href="#DejaVuSans-6f"/>
      <use x="325.916016" xlink:href="#DejaVuSans-6e"/>
      <use x="389.294922" xlink:href="#DejaVuSans-20"/>
      <use x="421.082031" xlink:href="#DejaVuSans-69"/>
      <use x="448.865234" xlink:href="#DejaVuSans-6e"/>
      <use x="512.244141" xlink:href="#DejaVuSans-20"/>
      <use x="544.03125" xlink:href="#DejaVuSans-58"/>
      <use x="612.537109" xlink:href="#DejaVuSans-20"/>
      <use x="644.324219" xlink:href="#DejaVuSans-64"/>
      <use x="707.800781" xlink:href="#DejaVuSans-69"/>
      <use x="735.583984" xlink:href="#DejaVuSans-72"/>
      <use x="774.447266" xlink:href="#DejaVuSans-65"/>
      <use x="835.970703" xlink:href="#DejaVuSans-63"/>
      <use x="890.951172" xlink:href="#DejaVuSans-74"/>
      <use x="930.160156" xlink:href="#DejaVuSans-69"/>
      <use x="957.943359" xlink:href="#DejaVuSans-6f"/>
      <use x="1019.125" xlink:href="#DejaVuSans-6e"/>
      <use x="1082.503906" xlink:href="#DejaVuSans-20"/>
      <use x="1114.291016" xlink:href="#DejaVuSans-5b"/>
      <use x="1153.304688" xlink:href="#DejaVuSans-6d"/>
      <use x="1250.716797" xlink:href="#DejaVuSans-6d"/>
      <use x="1348.128906" xlink:href="#DejaVuSans-5d"/>
     </g>
    </g>
   </g>
   <g id="matplotlib.axis_2">
    <g id="ytick_1">
     <g id="line2d_13">
      <path clip-path="url(#pbb8859ceac)" d="M 57.6 295.542777 
L 414.72 295.542777 
" style="fill:none;stroke:#b0b0b0;stroke-linecap:square;stroke-width:0.8;"/>
     </g>
     <g id="line2d_14">
      <defs>
       <path d="M 0 0 
L -3.5 0 
" id="m4a7471c029" style="stroke:#000000;stroke-width:0.8;"/>
      </defs>
      <g>
       <use style="stroke:#000000;stroke-width:0.8;" x="57.6" xlink:href="#m4a7471c029" y="295.542777"/>
      </g>
     </g>
     <g id="text_8">
      <!-- −150 -->
      <g transform="translate(23.132812 299.341995)scale(0.1 -0.1)">
       <defs>
        <path d="M 678 2272 
L 4684 2272 
L 4684 1741 
L 678 1741 
L 678 2272 
z
" id="DejaVuSans-2212" transform="scale(0.015625)"/>
       </defs>
       <use xlink:href="#DejaVuSans-2212"/>
       <use x="83.789062" xlink:href="#DejaVuSans-31"/>
       <use x="147.412109" xlink:href="#DejaVuSans-35"/>
       <use x="211.035156" xlink:href="#DejaVuSans-30"/>
      </g>
     </g>
    </g>
    <g id="ytick_2">
     <g id="line2d_15">
      <path clip-path="url(#pbb8859ceac)" d="M 57.6 255.190248 
L 414.72 255.190248 
" style="fill:none;stroke:#b0b0b0;stroke-linecap:square;stroke-width:0.8;"/>
     </g>
     <g id="line2d_16">
      <g>
       <use style="stroke:#000000;stroke-width:0.8;" x="57.6" xlink:href="#m4a7471c029" y="255.190248"/>
      </g>
     </g>
     <g id="text_9">
      <!-- −100 -->
      <g transform="translate(23.132812 258.989466)scale(0.1 -0.1)">
       <use xlink:href="#DejaVuSans-2212"/>
       <use x="83.789062" xlink:href="#DejaVuSans-31"/>
       <use x="147.412109" xlink:href="#DejaVuSans-30"/>
       <use x="211.035156" xlink:href="#DejaVuSans-30"/>
      </g>
     </g>
    </g>
    <g id="ytick_3">
     <g id="line2d_17">
      <path clip-path="url(#pbb8859ceac)" d="M 57.6 214.837718 
L 414.72 214.837718 
" style="fill:none;stroke:#b0b0b0;stroke-linecap:square;stroke-width:0.8;"/>
     </g>
     <g id="line2d_18">
      <g>
       <use style="stroke:#000000;stroke-width:0.8;" x="57.6" xlink:href="#m4a7471c029" y="214.837718"/>
      </g>
     </g>
     <g id="text_10">
      <!-- −50 -->
      <g transform="translate(29.495313 218.636937)scale(0.1 -0.1)">
       <use xlink:href="#DejaVuSans-2212"/>
       <use x="83.789062" xlink:href="#DejaVuSans-35"/>
       <use x="147.412109" xlink:href="#DejaVuSans-30"/>
      </g>
     </g>
    </g>
    <g id="ytick_4">
     <g id="line2d_19">
      <path clip-path="url(#pbb8859ceac)" d="M 57.6 174.485189 
L 414.72 174.485189 
" style="fill:none;stroke:#b0b0b0;stroke-linecap:square;stroke-width:0.8;"/>
     </g>
     <g id="line2d_20">
      <g>
       <use style="stroke:#000000;stroke-width:0.8;" x="57.6" xlink:href="#m4a7471c029" y="174.485189"/>
      </g>
     </g>
     <g id="text_11">
      <!-- 0 -->
      <g transform="translate(44.2375 178.284408)scale(0.1 -0.1)">
       <use xlink:href="#DejaVuSans-30"/>
      </g>
     </g>
    </g>
    <g id="ytick_5">
     <g id="line2d_21">
      <path clip-path="url(#pbb8859ceac)" d="M 57.6 134.13266 
L 414.72 134.13266 
" style="fill:none;stroke:#b0b0b0;stroke-linecap:square;stroke-width:0.8;"/>
     </g>
     <g id="line2d_22">
      <g>
       <use style="stroke:#000000;stroke-width:0.8;" x="57.6" xlink:href="#m4a7471c029" y="134.13266"/>
      </g>
     </g>
     <g id="text_12">
      <!-- 50 -->
      <g transform="translate(37.875 137.931879)scale(0.1 -0.1)">
       <use xlink:href="#DejaVuSans-35"/>
       <use x="63.623047" xlink:href="#DejaVuSans-30"/>
      </g>
     </g>
    </g>
    <g id="ytick_6">
     <g id="line2d_23">
      <path clip-path="url(#pbb8859ceac)" d="M 57.6 93.780131 
L 414.72 93.780131 
" style="fill:none;stroke:#b0b0b0;stroke-linecap:square;stroke-width:0.8;"/>
     </g>
     <g id="line2d_24">
      <g>
       <use style="stroke:#000000;stroke-width:0.8;" x="57.6" xlink:href="#m4a7471c029" y="93.780131"/>
      </g>
     </g>
     <g id="text_13">
      <!-- 100 -->
      <g transform="translate(31.5125 97.579349)scale(0.1 -0.1)">
       <use xlink:href="#DejaVuSans-31"/>
       <use x="63.623047" xlink:href="#DejaVuSans-30"/>
       <use x="127.246094" xlink:href="#DejaVuSans-30"/>
      </g>
     </g>
    </g>
    <g id="ytick_7">
     <g id="line2d_25">
      <path clip-path="url(#pbb8859ceac)" d="M 57.6 53.427601 
L 414.72 53.427601 
" style="fill:none;stroke:#b0b0b0;stroke-linecap:square;stroke-width:0.8;"/>
     </g>
     <g id="line2d_26">
      <g>
       <use style="stroke:#000000;stroke-width:0.8;" x="57.6" xlink:href="#m4a7471c029" y="53.427601"/>
      </g>
     </g>
     <g id="text_14">
      <!-- 150 -->
      <g transform="translate(31.5125 57.22682)scale(0.1 -0.1)">
       <use xlink:href="#DejaVuSans-31"/>
       <use x="63.623047" xlink:href="#DejaVuSans-35"/>
       <use x="127.246094" xlink:href="#DejaVuSans-30"/>
      </g>
     </g>
    </g>
    <g id="text_15">
     <!-- Position in Y direction [mm] -->
     <g transform="translate(17.053125 243.511594)rotate(-90)scale(0.1 -0.1)">
      <defs>
       <path d="M -13 4666 
L 666 4666 
L 1959 2747 
L 3244 4666 
L 3922 4666 
L 2272 2222 
L 2272 0 
L 1638 0 
L 1638 2222 
L -13 4666 
z
" id="DejaVuSans-59" transform="scale(0.015625)"/>
      </defs>
      <use xlink:href="#DejaVuSans-50"/>
      <use x="56.677734" xlink:href="#DejaVuSans-6f"/>
      <use x="117.859375" xlink:href="#DejaVuSans-73"/>
      <use x="169.958984" xlink:href="#DejaVuSans-69"/>
      <use x="197.742188" xlink:href="#DejaVuSans-74"/>
      <use x="236.951172" xlink:href="#DejaVuSans-69"/>
      <use x="264.734375" xlink:href="#DejaVuSans-6f"/>
      <use x="325.916016" xlink:href="#DejaVuSans-6e"/>
      <use x="389.294922" xlink:href="#DejaVuSans-20"/>
      <use x="421.082031" xlink:href="#DejaVuSans-69"/>
      <use x="448.865234" xlink:href="#DejaVuSans-6e"/>
      <use x="512.244141" xlink:href="#DejaVuSans-20"/>
      <use x="544.03125" xlink:href="#DejaVuSans-59"/>
      <use x="605.115234" xlink:href="#DejaVuSans-20"/>
      <use x="636.902344" xlink:href="#DejaVuSans-64"/>
      <use x="700.378906" xlink:href="#DejaVuSans-69"/>
      <use x="728.162109" xlink:href="#DejaVuSans-72"/>
      <use x="767.025391" xlink:href="#DejaVuSans-65"/>
      <use x="828.548828" xlink:href="#DejaVuSans-63"/>
      <use x="883.529297" xlink:href="#DejaVuSans-74"/>
      <use x="922.738281" xlink:href="#DejaVuSans-69"/>
      <use x="950.521484" xlink:href="#DejaVuSans-6f"/>
      <use x="1011.703125" xlink:href="#DejaVuSans-6e"/>
      <use x="1075.082031" xlink:href="#DejaVuSans-20"/>
      <use x="1106.869141" xlink:href="#DejaVuSans-5b"/>
      <use x="1145.882812" xlink:href="#DejaVuSans-6d"/>
      <use x="1243.294922" xlink:href="#DejaVuSans-6d"/>
      <use x="1340.707031" xlink:href="#DejaVuSans-5d"/>
     </g>
    </g>
   </g>
   <g id="line2d_27">
    <path clip-path="url(#pbb8859ceac)" d="M 75.942841 53.646529 
L 76.262752 54.848313 
L 78.567925 53.867215 
L 78.687323 55.009775 
L 81.269028 54.088455 
L 81.425605 55.046279 
L 84.003748 54.227159 
L 84.120201 55.122548 
L 85.904266 54.428808 
L 86.9357 55.35479 
L 89.271158 54.463861 
L 89.605589 55.561834 
L 92.330278 55.967992 
L 95.052966 56.091097 
L 105.872008 57.612865 
L 106.577595 58.181599 
L 107.994361 57.836957 
L 108.92153 58.35892 
L 110.403194 57.969157 
L 111.582696 58.724789 
L 125.087279 60.995518 
L 125.836283 61.744617 
L 127.828382 61.188375 
L 128.07476 61.921174 
L 130.336288 61.345925 
L 130.752996 62.156599 
L 133.39908 62.512549 
L 138.79887 63.657928 
L 141.625896 64.242864 
L 144.201053 64.608003 
L 144.785767 65.260172 
L 146.97366 64.782246 
L 147.239362 65.48825 
L 148.789409 64.921327 
L 149.88316 65.773312 
L 155.276206 66.758988 
L 160.733207 67.805074 
L 161.809882 68.625256 
L 163.398163 68.065229 
L 163.785405 68.853473 
L 165.907158 68.340381 
L 166.351512 69.099024 
L 167.777219 68.485044 
L 169.021186 69.436672 
L 179.814702 71.449241 
L 180.452269 72.234041 
L 182.4728 71.713542 
L 182.826993 72.445226 
L 184.495868 71.957983 
L 185.458092 72.737932 
L 190.814237 73.659217 
L 196.303579 74.807434 
L 197.394917 75.635848 
L 198.954618 75.14559 
L 199.35074 75.850017 
L 201.086139 75.380917 
L 201.918025 76.131923 
L 207.296755 77.19953 
L 210.001544 77.934938 
L 212.757669 78.49988 
L 213.983018 79.141143 
L 215.085365 78.85359 
L 215.809478 79.293548 
L 218.256155 79.719517 
L 229.055002 82.136475 
L 230.026877 82.687678 
L 231.374893 82.324589 
L 232.061546 82.957002 
L 242.816573 85.435097 
L 243.660937 86.200809 
L 245.277941 85.863663 
L 245.813639 86.441429 
L 247.049727 86.011523 
L 248.434424 86.92127 
L 251.102637 87.559808 
L 253.883879 88.540789 
L 256.421658 88.953326 
L 257.272061 89.773874 
L 258.686437 89.303053 
L 259.488307 90.135765 
L 262.042921 90.729093 
L 267.471198 92.269276 
L 268.350979 93.328031 
L 269.919408 92.752908 
L 270.497528 93.646836 
L 272.983469 94.247899 
L 278.111393 95.855284 
L 278.548966 96.763557 
L 280.701654 96.334015 
L 281.736782 97.378697 
L 283.939546 98.119018 
L 286.546125 99.141949 
L 287.678256 100.251787 
L 288.775275 99.76659 
L 289.671474 100.690923 
L 294.796974 102.670989 
L 295.970376 104.163563 
L 296.870767 103.277973 
L 297.716844 104.836691 
L 302.746354 106.497124 
L 303.569282 107.472181 
L 304.620839 106.987213 
L 306.008197 108.398497 
L 308.554872 109.550329 
L 309.665702 110.811491 
L 310.62728 110.262161 
L 311.54858 111.411073 
L 314.036905 112.695503 
L 315.290875 114.229154 
L 316.169396 113.634577 
L 317.060605 114.755711 
L 319.628791 116.053753 
L 320.6925 117.827925 
L 321.662238 117.132941 
L 322.53112 118.408416 
L 324.927989 119.790545 
L 326.039674 121.453456 
L 326.967919 120.738695 
L 327.947951 122.162888 
L 330.267396 123.65327 
L 331.145269 125.140247 
L 332.169941 124.346477 
L 333.262805 126.153637 
L 335.398444 127.429601 
L 336.401714 128.897649 
L 338.592062 130.286829 
L 339.719162 131.960297 
L 340.487816 131.261971 
L 341.552883 132.892252 
L 343.737932 134.327209 
L 344.714395 135.826158 
L 346.535083 136.834807 
L 347.235286 138.731172 
L 348.99278 138.209872 
L 350.206949 139.267421 
L 352.403942 141.023046 
L 353.640593 142.306574 
L 353.886951 142.061203 
L 355.363706 143.91901 
L 356.291873 145.922036 
L 357.211367 145.108393 
L 358.219035 146.30686 
L 360.254272 147.688052 
L 361.019683 149.840722 
L 362.593247 148.725066 
L 363.441029 150.396464 
L 365.796858 153.15296 
L 365.914692 151.225729 
L 367.83645 152.306227 
L 369.191459 153.548397 
L 369.870355 157.188148 
L 371.222279 155.250811 
L 371.982375 157.326838 
L 374.06025 158.512327 
L 375.038249 160.171465 
L 375.916216 159.459154 
L 378.172977 163.501929 
L 378.96703 162.64448 
L 379.962298 164.356247 
L 381.841446 165.888609 
L 383.053659 167.935143 
L 384.744993 169.219578 
L 385.570716 171.298677 
L 387.440305 172.510766 
L 388.646572 174.855175 
L 390.093883 176.1911 
L 392.017684 180.864827 
L 392.48503 179.722614 
L 393.196403 182.581707 
L 394.238327 185.570687 
L 395.382751 186.080708 
L 396.482223 193.038665 
L 396.518498 196.515757 
L 395.803477 203.423966 
L 394.864487 208.907194 
L 394.754994 205.121474 
L 394.378912 207.485481 
L 392.625975 213.108875 
L 391.321877 214.587711 
L 390.164538 216.860759 
L 388.631726 218.377294 
L 387.446376 220.427933 
L 385.836612 221.874868 
L 384.69289 223.640589 
L 382.799355 225.243662 
L 381.663808 226.801729 
L 380.986323 226.188302 
L 379.743399 227.936791 
L 377.730019 229.277169 
L 376.638168 230.614049 
L 374.418791 232.150398 
L 373.318155 233.616687 
L 372.597711 233.061868 
L 371.447444 234.598335 
L 369.091248 236.017764 
L 368.082642 237.260501 
L 367.299771 236.704189 
L 366.039678 238.25105 
L 363.690273 239.618923 
L 362.680706 240.76362 
L 361.870773 240.197801 
L 360.596079 241.837583 
L 358.285234 243.190718 
L 357.244637 244.330534 
L 352.727123 246.792166 
L 351.893366 247.919532 
L 350.958029 247.25513 
L 349.636691 249.048931 
L 347.447428 250.235605 
L 346.532295 251.465468 
L 344.186315 252.724348 
L 341.967733 253.719181 
L 341.01284 254.878075 
L 336.269383 257.200264 
L 335.336409 258.318383 
L 334.47942 257.771017 
L 333.182315 259.244398 
L 330.639122 260.490475 
L 329.748353 261.645962 
L 328.594811 261.048858 
L 327.585704 262.297706 
L 325.023465 263.496259 
L 323.749164 264.921821 
L 322.694494 264.358911 
L 321.956316 265.347099 
L 319.510674 266.179376 
L 316.851141 267.288753 
L 315.654546 268.467177 
L 314.444229 267.959744 
L 313.805593 268.868996 
L 311.317082 269.54781 
L 308.545889 270.537779 
L 305.989543 271.215634 
L 305.430412 272.215697 
L 303.792216 271.571868 
L 303.126433 272.642576 
L 301.522203 271.7922 
L 300.593737 273.30232 
L 297.641101 274.207796 
L 294.940878 274.875973 
L 294.071056 275.553745 
L 292.565866 275.08991 
L 291.982494 275.810672 
L 290.408723 275.177315 
L 289.416228 276.195627 
L 281.203202 277.870796 
L 278.653854 278.267375 
L 278.119947 279.035484 
L 276.025267 278.634159 
L 275.610334 279.227987 
L 274.313338 278.802792 
L 272.978539 279.521378 
L 267.51585 280.276291 
L 262.031541 280.913317 
L 256.551616 281.449838 
L 253.860155 281.684288 
L 253.236049 282.4483 
L 251.126374 281.784453 
L 250.977476 282.516914 
L 248.425922 281.905084 
L 248.269785 282.618557 
L 245.715604 282.007172 
L 245.558365 282.706966 
L 243.08342 282.083463 
L 242.829231 282.838828 
L 240.325068 282.195918 
L 240.107581 282.94497 
L 237.630062 282.274097 
L 237.35263 283.039706 
L 235.990993 282.308088 
L 234.669519 283.177911 
L 229.178086 283.476872 
L 226.43431 283.699345 
L 207.319387 284.512021 
L 196.399286 285.142713 
L 195.8157 285.953595 
L 193.61652 285.205993 
L 193.401251 286.003928 
L 190.886871 285.24636 
L 190.788286 286.064408 
L 188.150979 285.31741 
L 188.13712 286.102912 
L 185.422488 285.391942 
L 185.338389 286.148083 
L 182.698049 285.480013 
L 182.636296 286.174123 
L 179.997102 285.531829 
L 179.891142 286.23515 
L 177.233284 285.593443 
L 177.141201 286.337654 
L 174.665436 285.67945 
L 174.390222 286.43205 
L 171.76233 285.731373 
L 171.663762 286.588475 
L 169.364859 285.813384 
L 168.958982 286.699619 
L 166.225602 286.734403 
L 152.624238 287.504437 
L 149.812451 287.521574 
L 136.232041 288.475424 
L 133.377976 288.789633 
L 130.730699 288.867563 
L 130.191728 289.534681 
L 128.02794 289.033733 
L 127.830736 289.64584 
L 125.344177 289.145578 
L 125.097463 289.710776 
L 123.104314 289.295311 
L 122.382688 289.875427 
L 119.651327 290.031488 
L 114.249178 290.770361 
L 103.330328 292.291023 
L 101.972278 292.964187 
L 100.702166 292.558182 
L 100.367432 293.106402 
L 98.011958 292.731382 
L 97.767982 293.195605 
L 94.896756 293.442301 
L 94.417301 292.587368 
L 92.438107 292.624326 
L 92.356986 293.526286 
L 90.645896 292.792817 
L 89.533143 293.769258 
L 87.108388 294.624868 
L 84.088061 295.251393 
L 81.338655 295.423921 
L 78.640141 295.318906 
L 74.489682 295.488 
L 74.489682 295.488 
" style="fill:none;stroke:#1f77b4;stroke-linecap:square;stroke-width:1.5;"/>
   </g>
   <g id="line2d_28">
    <path clip-path="url(#pbb8859ceac)" d="M 73.832727 174.485189 
L 75.365621 175.466672 
L 76.898515 175.606884 
L 78.431409 175.887307 
L 81.497196 175.606884 
L 83.03009 175.32646 
L 84.562984 175.606884 
L 86.095878 175.606884 
L 89.161665 175.32646 
L 90.694559 175.466672 
L 92.227453 175.466672 
L 93.760347 175.046036 
L 95.293241 175.046036 
L 96.826134 175.186248 
L 98.359028 175.186248 
L 99.891922 175.32646 
L 101.424816 175.186248 
L 104.490603 175.186248 
L 106.023497 175.32646 
L 107.556391 175.186248 
L 109.089285 175.32646 
L 110.622179 175.32646 
L 112.155072 175.466672 
L 115.22086 175.466672 
L 116.753754 175.606884 
L 118.286648 175.606884 
L 121.352435 175.32646 
L 124.418223 175.887307 
L 125.951117 175.887307 
L 127.48401 176.027519 
L 130.549798 176.027519 
L 132.082692 176.167731 
L 133.615586 176.167731 
L 139.747161 176.728578 
L 141.280055 176.728578 
L 142.812948 177.009002 
L 144.345842 176.86879 
L 147.41163 177.149214 
L 148.944524 177.149214 
L 152.010311 177.710061 
L 153.543205 177.850273 
L 155.076099 177.850273 
L 156.608993 177.990485 
L 158.141887 177.990485 
L 162.740568 178.41112 
L 164.273462 178.41112 
L 168.872143 178.831756 
L 170.405037 178.831756 
L 171.937931 178.971968 
L 173.470825 178.971968 
L 175.003718 179.11218 
L 176.536612 179.11218 
L 184.201081 179.813239 
L 185.733975 179.813239 
L 187.266869 180.093662 
L 188.799763 180.093662 
L 196.464232 180.794722 
L 197.997125 180.794722 
L 201.062913 181.075145 
L 202.595807 181.075145 
L 204.128701 181.215357 
L 205.661594 181.215357 
L 207.194488 181.495781 
L 208.727382 181.495781 
L 210.260276 181.776204 
L 211.79317 181.776204 
L 216.391851 182.19684 
L 217.924745 182.477263 
L 227.122108 183.318534 
L 228.655001 183.318534 
L 234.786577 183.879382 
L 236.319471 184.159805 
L 242.451046 184.720653 
L 243.98394 184.720653 
L 247.049727 185.001076 
L 248.582621 185.2815 
L 265.444453 186.82383 
L 266.977347 187.104254 
L 268.51024 187.104254 
L 276.174709 187.805313 
L 277.707603 187.524889 
L 279.240497 187.524889 
L 280.773391 188.085737 
L 282.306285 188.225949 
L 283.839178 188.506372 
L 285.372072 188.085737 
L 286.904966 188.225949 
L 288.43786 188.927008 
L 294.569435 189.487855 
L 296.102329 190.048702 
L 297.635223 190.329126 
L 299.168116 190.048702 
L 300.70101 190.329126 
L 302.233904 190.048702 
L 303.766798 190.048702 
L 305.299692 190.60955 
L 314.497055 191.450821 
L 316.029948 191.731244 
L 322.161524 192.292092 
L 325.227311 192.852939 
L 326.760205 192.712727 
L 328.293099 193.133363 
L 332.89178 193.553998 
L 334.424674 193.553998 
L 335.957568 193.834422 
L 339.023355 194.114846 
L 340.556249 194.395269 
L 342.089143 193.974634 
L 345.154931 194.255057 
L 346.687824 194.255057 
L 348.220718 194.535481 
L 349.753612 194.535481 
L 351.286506 194.675693 
L 352.8194 194.675693 
L 354.352293 194.956117 
L 355.885187 195.376752 
L 357.418081 195.376752 
L 358.950975 195.096328 
L 360.483869 195.376752 
L 362.016762 195.096328 
L 366.615444 195.096328 
L 368.148338 195.376752 
L 369.681231 195.516964 
L 371.214125 196.358235 
L 372.747019 195.657176 
L 374.279913 196.498447 
L 375.812807 196.498447 
L 377.345701 195.937599 
L 378.878594 196.77887 
L 380.411488 197.059294 
L 381.944382 197.620141 
L 383.477276 197.760353 
L 385.01017 197.620141 
L 386.543063 197.760353 
L 388.075957 197.760353 
L 389.608851 198.180989 
L 391.141745 197.059294 
L 392.674639 196.77887 
L 394.207532 196.919082 
L 394.207532 196.919082 
" style="fill:none;stroke:#000000;stroke-linecap:square;stroke-width:1.5;"/>
   </g>
   <g id="line2d_29">
    <path clip-path="url(#pbb8859ceac)" d="M 73.836275 53.568 
L 113.761292 60.387166 
L 162.274807 69.988655 
L 192.050984 76.520099 
L 203.212775 78.997865 
L 241.561362 88.227215 
L 266.173894 95.002598 
L 272.283642 96.936372 
L 280.792764 99.865167 
L 289.285373 102.871334 
L 295.31055 105.198811 
L 301.261152 107.822121 
L 315.464876 114.39621 
L 318.94918 116.259625 
L 328.114694 121.600597 
L 337.227174 127.086015 
L 349.582018 135.089213 
L 354.035757 138.095565 
L 358.49261 141.094605 
L 365.213021 145.506161 
L 371.747583 150.354582 
L 374.989884 152.832559 
L 379.153011 156.458346 
L 382.23812 159.246464 
L 385.198828 162.247272 
L 388.044242 165.425566 
L 389.823587 167.705524 
L 392.30041 171.353143 
L 393.838691 173.904641 
L 395.252099 176.571524 
L 396.480137 179.384232 
L 397.459668 182.351903 
L 398.135169 185.454907 
L 398.462795 188.64839 
L 398.417172 191.868603 
L 397.996953 195.044161 
L 397.223293 198.109113 
L 396.133787 201.012865 
L 394.781114 203.729825 
L 393.232881 206.270751 
L 391.551745 208.669693 
L 389.75699 210.929475 
L 387.844849 213.025466 
L 383.837251 216.927628 
L 380.701465 219.620078 
L 376.392698 222.954722 
L 368.63006 228.290723 
L 358.358396 234.408513 
L 352.549867 237.510864 
L 344.3884 241.761584 
L 334.930704 246.188934 
L 327.804929 249.391529 
L 315.758507 254.064618 
L 309.693335 256.215295 
L 303.570989 258.081599 
L 296.173879 260.031562 
L 289.974285 261.417607 
L 282.500029 262.788584 
L 252.53143 267.677455 
L 235.0299 270.327728 
L 216.27716 273.152042 
L 160.01012 281.536942 
L 121.26767 287.52048 
L 105.043482 290.256599 
L 90.065544 292.761055 
L 73.832727 295.402378 
L 73.832727 295.402378 
" style="fill:none;stroke:#ff7f0e;stroke-linecap:square;stroke-width:1.5;"/>
   </g>
   <g id="patch_3">
    <path d="M 57.6 307.584 
L 57.6 41.472 
" style="fill:none;stroke:#000000;stroke-linecap:square;stroke-linejoin:miter;stroke-width:0.8;"/>
   </g>
   <g id="patch_4">
    <path d="M 414.72 307.584 
L 414.72 41.472 
" style="fill:none;stroke:#000000;stroke-linecap:square;stroke-linejoin:miter;stroke-width:0.8;"/>
   </g>
   <g id="patch_5">
    <path d="M 57.6 307.584 
L 414.72 307.584 
" style="fill:none;stroke:#000000;stroke-linecap:square;stroke-linejoin:miter;stroke-width:0.8;"/>
   </g>
   <g id="patch_6">
    <path d="M 57.6 41.472 
L 414.72 41.472 
" style="fill:none;stroke:#000000;stroke-linecap:square;stroke-linejoin:miter;stroke-width:0.8;"/>
   </g>
   <g id="legend_1">
    <g id="patch_7">
     <path d="M 69.7225 38.91145 
L 402.5975 38.91145 
Q 404.5975 38.91145 404.5975 36.91145 
L 404.5975 8.5552 
Q 404.5975 6.5552 402.5975 6.5552 
L 69.7225 6.5552 
Q 67.7225 6.5552 67.7225 8.5552 
L 67.7225 36.91145 
Q 67.7225 38.91145 69.7225 38.91145 
z
" style="fill:#ffffff;opacity:0.8;stroke:#cccccc;stroke-linejoin:miter;"/>
    </g>
    <g id="line2d_30">
     <path d="M 71.7225 14.653638 
L 91.7225 14.653638 
" style="fill:none;stroke:#1f77b4;stroke-linecap:square;stroke-width:1.5;"/>
    </g>
    <g id="line2d_31"/>
    <g id="text_16">
     <!-- Initial Experimental Contour -->
     <g transform="translate(99.7225 18.153638)scale(0.1 -0.1)">
      <defs>
       <path d="M 628 4666 
L 1259 4666 
L 1259 0 
L 628 0 
L 628 4666 
z
" id="DejaVuSans-49" transform="scale(0.015625)"/>
       <path d="M 2194 1759 
Q 1497 1759 1228 1600 
Q 959 1441 959 1056 
Q 959 750 1161 570 
Q 1363 391 1709 391 
Q 2188 391 2477 730 
Q 2766 1069 2766 1631 
L 2766 1759 
L 2194 1759 
z
M 3341 1997 
L 3341 0 
L 2766 0 
L 2766 531 
Q 2569 213 2275 61 
Q 1981 -91 1556 -91 
Q 1019 -91 701 211 
Q 384 513 384 1019 
Q 384 1609 779 1909 
Q 1175 2209 1959 2209 
L 2766 2209 
L 2766 2266 
Q 2766 2663 2505 2880 
Q 2244 3097 1772 3097 
Q 1472 3097 1187 3025 
Q 903 2953 641 2809 
L 641 3341 
Q 956 3463 1253 3523 
Q 1550 3584 1831 3584 
Q 2591 3584 2966 3190 
Q 3341 2797 3341 1997 
z
" id="DejaVuSans-61" transform="scale(0.015625)"/>
       <path d="M 603 4863 
L 1178 4863 
L 1178 0 
L 603 0 
L 603 4863 
z
" id="DejaVuSans-6c" transform="scale(0.015625)"/>
       <path d="M 628 4666 
L 3578 4666 
L 3578 4134 
L 1259 4134 
L 1259 2753 
L 3481 2753 
L 3481 2222 
L 1259 2222 
L 1259 531 
L 3634 531 
L 3634 0 
L 628 0 
L 628 4666 
z
" id="DejaVuSans-45" transform="scale(0.015625)"/>
       <path d="M 3513 3500 
L 2247 1797 
L 3578 0 
L 2900 0 
L 1881 1375 
L 863 0 
L 184 0 
L 1544 1831 
L 300 3500 
L 978 3500 
L 1906 2253 
L 2834 3500 
L 3513 3500 
z
" id="DejaVuSans-78" transform="scale(0.015625)"/>
       <path d="M 1159 525 
L 1159 -1331 
L 581 -1331 
L 581 3500 
L 1159 3500 
L 1159 2969 
Q 1341 3281 1617 3432 
Q 1894 3584 2278 3584 
Q 2916 3584 3314 3078 
Q 3713 2572 3713 1747 
Q 3713 922 3314 415 
Q 2916 -91 2278 -91 
Q 1894 -91 1617 61 
Q 1341 213 1159 525 
z
M 3116 1747 
Q 3116 2381 2855 2742 
Q 2594 3103 2138 3103 
Q 1681 3103 1420 2742 
Q 1159 2381 1159 1747 
Q 1159 1113 1420 752 
Q 1681 391 2138 391 
Q 2594 391 2855 752 
Q 3116 1113 3116 1747 
z
" id="DejaVuSans-70" transform="scale(0.015625)"/>
       <path d="M 4122 4306 
L 4122 3641 
Q 3803 3938 3442 4084 
Q 3081 4231 2675 4231 
Q 1875 4231 1450 3742 
Q 1025 3253 1025 2328 
Q 1025 1406 1450 917 
Q 1875 428 2675 428 
Q 3081 428 3442 575 
Q 3803 722 4122 1019 
L 4122 359 
Q 3791 134 3420 21 
Q 3050 -91 2638 -91 
Q 1578 -91 968 557 
Q 359 1206 359 2328 
Q 359 3453 968 4101 
Q 1578 4750 2638 4750 
Q 3056 4750 3426 4639 
Q 3797 4528 4122 4306 
z
" id="DejaVuSans-43" transform="scale(0.015625)"/>
       <path d="M 544 1381 
L 544 3500 
L 1119 3500 
L 1119 1403 
Q 1119 906 1312 657 
Q 1506 409 1894 409 
Q 2359 409 2629 706 
Q 2900 1003 2900 1516 
L 2900 3500 
L 3475 3500 
L 3475 0 
L 2900 0 
L 2900 538 
Q 2691 219 2414 64 
Q 2138 -91 1772 -91 
Q 1169 -91 856 284 
Q 544 659 544 1381 
z
M 1991 3584 
L 1991 3584 
z
" id="DejaVuSans-75" transform="scale(0.015625)"/>
      </defs>
      <use xlink:href="#DejaVuSans-49"/>
      <use x="29.492188" xlink:href="#DejaVuSans-6e"/>
      <use x="92.871094" xlink:href="#DejaVuSans-69"/>
      <use x="120.654297" xlink:href="#DejaVuSans-74"/>
      <use x="159.863281" xlink:href="#DejaVuSans-69"/>
      <use x="187.646484" xlink:href="#DejaVuSans-61"/>
      <use x="248.925781" xlink:href="#DejaVuSans-6c"/>
      <use x="276.708984" xlink:href="#DejaVuSans-20"/>
      <use x="308.496094" xlink:href="#DejaVuSans-45"/>
      <use x="371.679688" xlink:href="#DejaVuSans-78"/>
      <use x="430.859375" xlink:href="#DejaVuSans-70"/>
      <use x="494.335938" xlink:href="#DejaVuSans-65"/>
      <use x="555.859375" xlink:href="#DejaVuSans-72"/>
      <use x="596.972656" xlink:href="#DejaVuSans-69"/>
      <use x="624.755859" xlink:href="#DejaVuSans-6d"/>
      <use x="722.167969" xlink:href="#DejaVuSans-65"/>
      <use x="783.691406" xlink:href="#DejaVuSans-6e"/>
      <use x="847.070312" xlink:href="#DejaVuSans-74"/>
      <use x="886.279297" xlink:href="#DejaVuSans-61"/>
      <use x="947.558594" xlink:href="#DejaVuSans-6c"/>
      <use x="975.341797" xlink:href="#DejaVuSans-20"/>
      <use x="1007.128906" xlink:href="#DejaVuSans-43"/>
      <use x="1076.953125" xlink:href="#DejaVuSans-6f"/>
      <use x="1138.134766" xlink:href="#DejaVuSans-6e"/>
      <use x="1201.513672" xlink:href="#DejaVuSans-74"/>
      <use x="1240.722656" xlink:href="#DejaVuSans-6f"/>
      <use x="1301.904297" xlink:href="#DejaVuSans-75"/>
      <use x="1365.283203" xlink:href="#DejaVuSans-72"/>
     </g>
    </g>
    <g id="line2d_32">
     <path d="M 71.7225 29.331763 
L 91.7225 29.331763 
" style="fill:none;stroke:#000000;stroke-linecap:square;stroke-width:1.5;"/>
    </g>
    <g id="line2d_33"/>
    <g id="text_17">
     <!-- Initial Experimental Camberline -->
     <g transform="translate(99.7225 32.831763)scale(0.1 -0.1)">
      <defs>
       <path d="M 3116 1747 
Q 3116 2381 2855 2742 
Q 2594 3103 2138 3103 
Q 1681 3103 1420 2742 
Q 1159 2381 1159 1747 
Q 1159 1113 1420 752 
Q 1681 391 2138 391 
Q 2594 391 2855 752 
Q 3116 1113 3116 1747 
z
M 1159 2969 
Q 1341 3281 1617 3432 
Q 1894 3584 2278 3584 
Q 2916 3584 3314 3078 
Q 3713 2572 3713 1747 
Q 3713 922 3314 415 
Q 2916 -91 2278 -91 
Q 1894 -91 1617 61 
Q 1341 213 1159 525 
L 1159 0 
L 581 0 
L 581 4863 
L 1159 4863 
L 1159 2969 
z
" id="DejaVuSans-62" transform="scale(0.015625)"/>
      </defs>
      <use xlink:href="#DejaVuSans-49"/>
      <use x="29.492188" xlink:href="#DejaVuSans-6e"/>
      <use x="92.871094" xlink:href="#DejaVuSans-69"/>
      <use x="120.654297" xlink:href="#DejaVuSans-74"/>
      <use x="159.863281" xlink:href="#DejaVuSans-69"/>
      <use x="187.646484" xlink:href="#DejaVuSans-61"/>
      <use x="248.925781" xlink:href="#DejaVuSans-6c"/>
      <use x="276.708984" xlink:href="#DejaVuSans-20"/>
      <use x="308.496094" xlink:href="#DejaVuSans-45"/>
      <use x="371.679688" xlink:href="#DejaVuSans-78"/>
      <use x="430.859375" xlink:href="#DejaVuSans-70"/>
      <use x="494.335938" xlink:href="#DejaVuSans-65"/>
      <use x="555.859375" xlink:href="#DejaVuSans-72"/>
      <use x="596.972656" xlink:href="#DejaVuSans-69"/>
      <use x="624.755859" xlink:href="#DejaVuSans-6d"/>
      <use x="722.167969" xlink:href="#DejaVuSans-65"/>
      <use x="783.691406" xlink:href="#DejaVuSans-6e"/>
      <use x="847.070312" xlink:href="#DejaVuSans-74"/>
      <use x="886.279297" xlink:href="#DejaVuSans-61"/>
      <use x="947.558594" xlink:href="#DejaVuSans-6c"/>
      <use x="975.341797" xlink:href="#DejaVuSans-20"/>
      <use x="1007.128906" xlink:href="#DejaVuSans-43"/>
      <use x="1076.953125" xlink:href="#DejaVuSans-61"/>
      <use x="1138.232422" xlink:href="#DejaVuSans-6d"/>
      <use x="1235.644531" xlink:href="#DejaVuSans-62"/>
      <use x="1299.121094" xlink:href="#DejaVuSans-65"/>
      <use x="1360.644531" xlink:href="#DejaVuSans-72"/>
      <use x="1401.757812" xlink:href="#DejaVuSans-6c"/>
      <use x="1429.541016" xlink:href="#DejaVuSans-69"/>
      <use x="1457.324219" xlink:href="#DejaVuSans-6e"/>
      <use x="1520.703125" xlink:href="#DejaVuSans-65"/>
     </g>
    </g>
    <g id="line2d_34">
     <path d="M 277.945938 14.653638 
L 297.945938 14.653638 
" style="fill:none;stroke:#ff7f0e;stroke-linecap:square;stroke-width:1.5;"/>
    </g>
    <g id="line2d_35"/>
    <g id="text_18">
     <!-- Initial FEM Contour -->
     <g transform="translate(305.945938 18.153638)scale(0.1 -0.1)">
      <defs>
       <path d="M 628 4666 
L 3309 4666 
L 3309 4134 
L 1259 4134 
L 1259 2759 
L 3109 2759 
L 3109 2228 
L 1259 2228 
L 1259 0 
L 628 0 
L 628 4666 
z
" id="DejaVuSans-46" transform="scale(0.015625)"/>
       <path d="M 628 4666 
L 1569 4666 
L 2759 1491 
L 3956 4666 
L 4897 4666 
L 4897 0 
L 4281 0 
L 4281 4097 
L 3078 897 
L 2444 897 
L 1241 4097 
L 1241 0 
L 628 0 
L 628 4666 
z
" id="DejaVuSans-4d" transform="scale(0.015625)"/>
      </defs>
      <use xlink:href="#DejaVuSans-49"/>
      <use x="29.492188" xlink:href="#DejaVuSans-6e"/>
      <use x="92.871094" xlink:href="#DejaVuSans-69"/>
      <use x="120.654297" xlink:href="#DejaVuSans-74"/>
      <use x="159.863281" xlink:href="#DejaVuSans-69"/>
      <use x="187.646484" xlink:href="#DejaVuSans-61"/>
      <use x="248.925781" xlink:href="#DejaVuSans-6c"/>
      <use x="276.708984" xlink:href="#DejaVuSans-20"/>
      <use x="308.496094" xlink:href="#DejaVuSans-46"/>
      <use x="366.015625" xlink:href="#DejaVuSans-45"/>
      <use x="429.199219" xlink:href="#DejaVuSans-4d"/>
      <use x="515.478516" xlink:href="#DejaVuSans-20"/>
      <use x="547.265625" xlink:href="#DejaVuSans-43"/>
      <use x="617.089844" xlink:href="#DejaVuSans-6f"/>
      <use x="678.271484" xlink:href="#DejaVuSans-6e"/>
      <use x="741.650391" xlink:href="#DejaVuSans-74"/>
      <use x="780.859375" xlink:href="#DejaVuSans-6f"/>
      <use x="842.041016" xlink:href="#DejaVuSans-75"/>
      <use x="905.419922" xlink:href="#DejaVuSans-72"/>
     </g>
    </g>
   </g>
  </g>
 </g>
 <defs>
  <clipPath id="pbb8859ceac">
   <rect height="266.112" width="357.12" x="57.6" y="41.472"/>
  </clipPath>
 </defs>
</svg>
