<?xml version="1.0" encoding="utf-8" standalone="no"?>
<!DOCTYPE svg PUBLIC "-//W3C//DTD SVG 1.1//EN"
  "http://www.w3.org/Graphics/SVG/1.1/DTD/svg11.dtd">
<svg height="345.6pt" version="1.1" viewBox="0 0 460.8 345.6" width="460.8pt" xmlns="http://www.w3.org/2000/svg" xmlns:xlink="http://www.w3.org/1999/xlink">
 <metadata>
  <rdf:RDF xmlns:cc="http://creativecommons.org/ns#" xmlns:dc="http://purl.org/dc/elements/1.1/" xmlns:rdf="http://www.w3.org/1999/02/22-rdf-syntax-ns#">
   <cc:Work>
    <dc:type rdf:resource="http://purl.org/dc/dcmitype/StillImage"/>
    <dc:date>2022-06-02T16:34:55.310327</dc:date>
    <dc:format>image/svg+xml</dc:format>
    <dc:creator>
     <cc:Agent>
      <dc:title>Matplotlib v3.4.1, https://matplotlib.org/</dc:title>
     </cc:Agent>
    </dc:creator>
   </cc:Work>
  </rdf:RDF>
 </metadata>
 <defs>
  <style type="text/css">*{stroke-linecap:butt;stroke-linejoin:round;}</style>
 </defs>
 <g id="figure_1">
  <g id="patch_1">
   <path d="M 0 345.6 
L 460.8 345.6 
L 460.8 0 
L 0 0 
z
" style="fill:#ffffff;"/>
  </g>
  <g id="axes_1">
   <g id="patch_2">
    <path d="M 57.6 307.584 
L 414.72 307.584 
L 414.72 41.472 
L 57.6 41.472 
z
" style="fill:#ffffff;"/>
   </g>
   <g id="matplotlib.axis_1">
    <g id="xtick_1">
     <g id="line2d_1">
      <path clip-path="url(#p228cf6ba58)" d="M 73.832727 307.584 
L 73.832727 41.472 
" style="fill:none;stroke:#b0b0b0;stroke-linecap:square;stroke-width:0.8;"/>
     </g>
     <g id="line2d_2">
      <defs>
       <path d="M 0 0 
L 0 3.5 
" id="m5bbf4e2238" style="stroke:#000000;stroke-width:0.8;"/>
      </defs>
      <g>
       <use style="stroke:#000000;stroke-width:0.8;" x="73.832727" xlink:href="#m5bbf4e2238" y="307.584"/>
      </g>
     </g>
     <g id="text_1">
      <!-- 0 -->
      <g transform="translate(70.651477 322.182437)scale(0.1 -0.1)">
       <defs>
        <path d="M 2034 4250 
Q 1547 4250 1301 3770 
Q 1056 3291 1056 2328 
Q 1056 1369 1301 889 
Q 1547 409 2034 409 
Q 2525 409 2770 889 
Q 3016 1369 3016 2328 
Q 3016 3291 2770 3770 
Q 2525 4250 2034 4250 
z
M 2034 4750 
Q 2819 4750 3233 4129 
Q 3647 3509 3647 2328 
Q 3647 1150 3233 529 
Q 2819 -91 2034 -91 
Q 1250 -91 836 529 
Q 422 1150 422 2328 
Q 422 3509 836 4129 
Q 1250 4750 2034 4750 
z
" id="DejaVuSans-30" transform="scale(0.015625)"/>
       </defs>
       <use xlink:href="#DejaVuSans-30"/>
      </g>
     </g>
    </g>
    <g id="xtick_2">
     <g id="line2d_3">
      <path clip-path="url(#p228cf6ba58)" d="M 136.85588 307.584 
L 136.85588 41.472 
" style="fill:none;stroke:#b0b0b0;stroke-linecap:square;stroke-width:0.8;"/>
     </g>
     <g id="line2d_4">
      <g>
       <use style="stroke:#000000;stroke-width:0.8;" x="136.85588" xlink:href="#m5bbf4e2238" y="307.584"/>
      </g>
     </g>
     <g id="text_2">
      <!-- 100 -->
      <g transform="translate(127.31213 322.182437)scale(0.1 -0.1)">
       <defs>
        <path d="M 794 531 
L 1825 531 
L 1825 4091 
L 703 3866 
L 703 4441 
L 1819 4666 
L 2450 4666 
L 2450 531 
L 3481 531 
L 3481 0 
L 794 0 
L 794 531 
z
" id="DejaVuSans-31" transform="scale(0.015625)"/>
       </defs>
       <use xlink:href="#DejaVuSans-31"/>
       <use x="63.623047" xlink:href="#DejaVuSans-30"/>
       <use x="127.246094" xlink:href="#DejaVuSans-30"/>
      </g>
     </g>
    </g>
    <g id="xtick_3">
     <g id="line2d_5">
      <path clip-path="url(#p228cf6ba58)" d="M 199.879033 307.584 
L 199.879033 41.472 
" style="fill:none;stroke:#b0b0b0;stroke-linecap:square;stroke-width:0.8;"/>
     </g>
     <g id="line2d_6">
      <g>
       <use style="stroke:#000000;stroke-width:0.8;" x="199.879033" xlink:href="#m5bbf4e2238" y="307.584"/>
      </g>
     </g>
     <g id="text_3">
      <!-- 200 -->
      <g transform="translate(190.335283 322.182437)scale(0.1 -0.1)">
       <defs>
        <path d="M 1228 531 
L 3431 531 
L 3431 0 
L 469 0 
L 469 531 
Q 828 903 1448 1529 
Q 2069 2156 2228 2338 
Q 2531 2678 2651 2914 
Q 2772 3150 2772 3378 
Q 2772 3750 2511 3984 
Q 2250 4219 1831 4219 
Q 1534 4219 1204 4116 
Q 875 4013 500 3803 
L 500 4441 
Q 881 4594 1212 4672 
Q 1544 4750 1819 4750 
Q 2544 4750 2975 4387 
Q 3406 4025 3406 3419 
Q 3406 3131 3298 2873 
Q 3191 2616 2906 2266 
Q 2828 2175 2409 1742 
Q 1991 1309 1228 531 
z
" id="DejaVuSans-32" transform="scale(0.015625)"/>
       </defs>
       <use xlink:href="#DejaVuSans-32"/>
       <use x="63.623047" xlink:href="#DejaVuSans-30"/>
       <use x="127.246094" xlink:href="#DejaVuSans-30"/>
      </g>
     </g>
    </g>
    <g id="xtick_4">
     <g id="line2d_7">
      <path clip-path="url(#p228cf6ba58)" d="M 262.902186 307.584 
L 262.902186 41.472 
" style="fill:none;stroke:#b0b0b0;stroke-linecap:square;stroke-width:0.8;"/>
     </g>
     <g id="line2d_8">
      <g>
       <use style="stroke:#000000;stroke-width:0.8;" x="262.902186" xlink:href="#m5bbf4e2238" y="307.584"/>
      </g>
     </g>
     <g id="text_4">
      <!-- 300 -->
      <g transform="translate(253.358436 322.182437)scale(0.1 -0.1)">
       <defs>
        <path d="M 2597 2516 
Q 3050 2419 3304 2112 
Q 3559 1806 3559 1356 
Q 3559 666 3084 287 
Q 2609 -91 1734 -91 
Q 1441 -91 1130 -33 
Q 819 25 488 141 
L 488 750 
Q 750 597 1062 519 
Q 1375 441 1716 441 
Q 2309 441 2620 675 
Q 2931 909 2931 1356 
Q 2931 1769 2642 2001 
Q 2353 2234 1838 2234 
L 1294 2234 
L 1294 2753 
L 1863 2753 
Q 2328 2753 2575 2939 
Q 2822 3125 2822 3475 
Q 2822 3834 2567 4026 
Q 2313 4219 1838 4219 
Q 1578 4219 1281 4162 
Q 984 4106 628 3988 
L 628 4550 
Q 988 4650 1302 4700 
Q 1616 4750 1894 4750 
Q 2613 4750 3031 4423 
Q 3450 4097 3450 3541 
Q 3450 3153 3228 2886 
Q 3006 2619 2597 2516 
z
" id="DejaVuSans-33" transform="scale(0.015625)"/>
       </defs>
       <use xlink:href="#DejaVuSans-33"/>
       <use x="63.623047" xlink:href="#DejaVuSans-30"/>
       <use x="127.246094" xlink:href="#DejaVuSans-30"/>
      </g>
     </g>
    </g>
    <g id="xtick_5">
     <g id="line2d_9">
      <path clip-path="url(#p228cf6ba58)" d="M 325.925339 307.584 
L 325.925339 41.472 
" style="fill:none;stroke:#b0b0b0;stroke-linecap:square;stroke-width:0.8;"/>
     </g>
     <g id="line2d_10">
      <g>
       <use style="stroke:#000000;stroke-width:0.8;" x="325.925339" xlink:href="#m5bbf4e2238" y="307.584"/>
      </g>
     </g>
     <g id="text_5">
      <!-- 400 -->
      <g transform="translate(316.381589 322.182437)scale(0.1 -0.1)">
       <defs>
        <path d="M 2419 4116 
L 825 1625 
L 2419 1625 
L 2419 4116 
z
M 2253 4666 
L 3047 4666 
L 3047 1625 
L 3713 1625 
L 3713 1100 
L 3047 1100 
L 3047 0 
L 2419 0 
L 2419 1100 
L 313 1100 
L 313 1709 
L 2253 4666 
z
" id="DejaVuSans-34" transform="scale(0.015625)"/>
       </defs>
       <use xlink:href="#DejaVuSans-34"/>
       <use x="63.623047" xlink:href="#DejaVuSans-30"/>
       <use x="127.246094" xlink:href="#DejaVuSans-30"/>
      </g>
     </g>
    </g>
    <g id="xtick_6">
     <g id="line2d_11">
      <path clip-path="url(#p228cf6ba58)" d="M 388.948492 307.584 
L 388.948492 41.472 
" style="fill:none;stroke:#b0b0b0;stroke-linecap:square;stroke-width:0.8;"/>
     </g>
     <g id="line2d_12">
      <g>
       <use style="stroke:#000000;stroke-width:0.8;" x="388.948492" xlink:href="#m5bbf4e2238" y="307.584"/>
      </g>
     </g>
     <g id="text_6">
      <!-- 500 -->
      <g transform="translate(379.404742 322.182437)scale(0.1 -0.1)">
       <defs>
        <path d="M 691 4666 
L 3169 4666 
L 3169 4134 
L 1269 4134 
L 1269 2991 
Q 1406 3038 1543 3061 
Q 1681 3084 1819 3084 
Q 2600 3084 3056 2656 
Q 3513 2228 3513 1497 
Q 3513 744 3044 326 
Q 2575 -91 1722 -91 
Q 1428 -91 1123 -41 
Q 819 9 494 109 
L 494 744 
Q 775 591 1075 516 
Q 1375 441 1709 441 
Q 2250 441 2565 725 
Q 2881 1009 2881 1497 
Q 2881 1984 2565 2268 
Q 2250 2553 1709 2553 
Q 1456 2553 1204 2497 
Q 953 2441 691 2322 
L 691 4666 
z
" id="DejaVuSans-35" transform="scale(0.015625)"/>
       </defs>
       <use xlink:href="#DejaVuSans-35"/>
       <use x="63.623047" xlink:href="#DejaVuSans-30"/>
       <use x="127.246094" xlink:href="#DejaVuSans-30"/>
      </g>
     </g>
    </g>
    <g id="text_7">
     <!-- Position in X direction [mm] -->
     <g transform="translate(166.805313 335.860562)scale(0.1 -0.1)">
      <defs>
       <path d="M 1259 4147 
L 1259 2394 
L 2053 2394 
Q 2494 2394 2734 2622 
Q 2975 2850 2975 3272 
Q 2975 3691 2734 3919 
Q 2494 4147 2053 4147 
L 1259 4147 
z
M 628 4666 
L 2053 4666 
Q 2838 4666 3239 4311 
Q 3641 3956 3641 3272 
Q 3641 2581 3239 2228 
Q 2838 1875 2053 1875 
L 1259 1875 
L 1259 0 
L 628 0 
L 628 4666 
z
" id="DejaVuSans-50" transform="scale(0.015625)"/>
       <path d="M 1959 3097 
Q 1497 3097 1228 2736 
Q 959 2375 959 1747 
Q 959 1119 1226 758 
Q 1494 397 1959 397 
Q 2419 397 2687 759 
Q 2956 1122 2956 1747 
Q 2956 2369 2687 2733 
Q 2419 3097 1959 3097 
z
M 1959 3584 
Q 2709 3584 3137 3096 
Q 3566 2609 3566 1747 
Q 3566 888 3137 398 
Q 2709 -91 1959 -91 
Q 1206 -91 779 398 
Q 353 888 353 1747 
Q 353 2609 779 3096 
Q 1206 3584 1959 3584 
z
" id="DejaVuSans-6f" transform="scale(0.015625)"/>
       <path d="M 2834 3397 
L 2834 2853 
Q 2591 2978 2328 3040 
Q 2066 3103 1784 3103 
Q 1356 3103 1142 2972 
Q 928 2841 928 2578 
Q 928 2378 1081 2264 
Q 1234 2150 1697 2047 
L 1894 2003 
Q 2506 1872 2764 1633 
Q 3022 1394 3022 966 
Q 3022 478 2636 193 
Q 2250 -91 1575 -91 
Q 1294 -91 989 -36 
Q 684 19 347 128 
L 347 722 
Q 666 556 975 473 
Q 1284 391 1588 391 
Q 1994 391 2212 530 
Q 2431 669 2431 922 
Q 2431 1156 2273 1281 
Q 2116 1406 1581 1522 
L 1381 1569 
Q 847 1681 609 1914 
Q 372 2147 372 2553 
Q 372 3047 722 3315 
Q 1072 3584 1716 3584 
Q 2034 3584 2315 3537 
Q 2597 3491 2834 3397 
z
" id="DejaVuSans-73" transform="scale(0.015625)"/>
       <path d="M 603 3500 
L 1178 3500 
L 1178 0 
L 603 0 
L 603 3500 
z
M 603 4863 
L 1178 4863 
L 1178 4134 
L 603 4134 
L 603 4863 
z
" id="DejaVuSans-69" transform="scale(0.015625)"/>
       <path d="M 1172 4494 
L 1172 3500 
L 2356 3500 
L 2356 3053 
L 1172 3053 
L 1172 1153 
Q 1172 725 1289 603 
Q 1406 481 1766 481 
L 2356 481 
L 2356 0 
L 1766 0 
Q 1100 0 847 248 
Q 594 497 594 1153 
L 594 3053 
L 172 3053 
L 172 3500 
L 594 3500 
L 594 4494 
L 1172 4494 
z
" id="DejaVuSans-74" transform="scale(0.015625)"/>
       <path d="M 3513 2113 
L 3513 0 
L 2938 0 
L 2938 2094 
Q 2938 2591 2744 2837 
Q 2550 3084 2163 3084 
Q 1697 3084 1428 2787 
Q 1159 2491 1159 1978 
L 1159 0 
L 581 0 
L 581 3500 
L 1159 3500 
L 1159 2956 
Q 1366 3272 1645 3428 
Q 1925 3584 2291 3584 
Q 2894 3584 3203 3211 
Q 3513 2838 3513 2113 
z
" id="DejaVuSans-6e" transform="scale(0.015625)"/>
       <path id="DejaVuSans-20" transform="scale(0.015625)"/>
       <path d="M 403 4666 
L 1081 4666 
L 2241 2931 
L 3406 4666 
L 4084 4666 
L 2584 2425 
L 4184 0 
L 3506 0 
L 2194 1984 
L 872 0 
L 191 0 
L 1856 2491 
L 403 4666 
z
" id="DejaVuSans-58" transform="scale(0.015625)"/>
       <path d="M 2906 2969 
L 2906 4863 
L 3481 4863 
L 3481 0 
L 2906 0 
L 2906 525 
Q 2725 213 2448 61 
Q 2172 -91 1784 -91 
Q 1150 -91 751 415 
Q 353 922 353 1747 
Q 353 2572 751 3078 
Q 1150 3584 1784 3584 
Q 2172 3584 2448 3432 
Q 2725 3281 2906 2969 
z
M 947 1747 
Q 947 1113 1208 752 
Q 1469 391 1925 391 
Q 2381 391 2643 752 
Q 2906 1113 2906 1747 
Q 2906 2381 2643 2742 
Q 2381 3103 1925 3103 
Q 1469 3103 1208 2742 
Q 947 2381 947 1747 
z
" id="DejaVuSans-64" transform="scale(0.015625)"/>
       <path d="M 2631 2963 
Q 2534 3019 2420 3045 
Q 2306 3072 2169 3072 
Q 1681 3072 1420 2755 
Q 1159 2438 1159 1844 
L 1159 0 
L 581 0 
L 581 3500 
L 1159 3500 
L 1159 2956 
Q 1341 3275 1631 3429 
Q 1922 3584 2338 3584 
Q 2397 3584 2469 3576 
Q 2541 3569 2628 3553 
L 2631 2963 
z
" id="DejaVuSans-72" transform="scale(0.015625)"/>
       <path d="M 3597 1894 
L 3597 1613 
L 953 1613 
Q 991 1019 1311 708 
Q 1631 397 2203 397 
Q 2534 397 2845 478 
Q 3156 559 3463 722 
L 3463 178 
Q 3153 47 2828 -22 
Q 2503 -91 2169 -91 
Q 1331 -91 842 396 
Q 353 884 353 1716 
Q 353 2575 817 3079 
Q 1281 3584 2069 3584 
Q 2775 3584 3186 3129 
Q 3597 2675 3597 1894 
z
M 3022 2063 
Q 3016 2534 2758 2815 
Q 2500 3097 2075 3097 
Q 1594 3097 1305 2825 
Q 1016 2553 972 2059 
L 3022 2063 
z
" id="DejaVuSans-65" transform="scale(0.015625)"/>
       <path d="M 3122 3366 
L 3122 2828 
Q 2878 2963 2633 3030 
Q 2388 3097 2138 3097 
Q 1578 3097 1268 2742 
Q 959 2388 959 1747 
Q 959 1106 1268 751 
Q 1578 397 2138 397 
Q 2388 397 2633 464 
Q 2878 531 3122 666 
L 3122 134 
Q 2881 22 2623 -34 
Q 2366 -91 2075 -91 
Q 1284 -91 818 406 
Q 353 903 353 1747 
Q 353 2603 823 3093 
Q 1294 3584 2113 3584 
Q 2378 3584 2631 3529 
Q 2884 3475 3122 3366 
z
" id="DejaVuSans-63" transform="scale(0.015625)"/>
       <path d="M 550 4863 
L 1875 4863 
L 1875 4416 
L 1125 4416 
L 1125 -397 
L 1875 -397 
L 1875 -844 
L 550 -844 
L 550 4863 
z
" id="DejaVuSans-5b" transform="scale(0.015625)"/>
       <path d="M 3328 2828 
Q 3544 3216 3844 3400 
Q 4144 3584 4550 3584 
Q 5097 3584 5394 3201 
Q 5691 2819 5691 2113 
L 5691 0 
L 5113 0 
L 5113 2094 
Q 5113 2597 4934 2840 
Q 4756 3084 4391 3084 
Q 3944 3084 3684 2787 
Q 3425 2491 3425 1978 
L 3425 0 
L 2847 0 
L 2847 2094 
Q 2847 2600 2669 2842 
Q 2491 3084 2119 3084 
Q 1678 3084 1418 2786 
Q 1159 2488 1159 1978 
L 1159 0 
L 581 0 
L 581 3500 
L 1159 3500 
L 1159 2956 
Q 1356 3278 1631 3431 
Q 1906 3584 2284 3584 
Q 2666 3584 2933 3390 
Q 3200 3197 3328 2828 
z
" id="DejaVuSans-6d" transform="scale(0.015625)"/>
       <path d="M 1947 4863 
L 1947 -844 
L 622 -844 
L 622 -397 
L 1369 -397 
L 1369 4416 
L 622 4416 
L 622 4863 
L 1947 4863 
z
" id="DejaVuSans-5d" transform="scale(0.015625)"/>
      </defs>
      <use xlink:href="#DejaVuSans-50"/>
      <use x="56.677734" xlink:href="#DejaVuSans-6f"/>
      <use x="117.859375" xlink:href="#DejaVuSans-73"/>
      <use x="169.958984" xlink:href="#DejaVuSans-69"/>
      <use x="197.742188" xlink:href="#DejaVuSans-74"/>
      <use x="236.951172" xlink:href="#DejaVuSans-69"/>
      <use x="264.734375" xlink:href="#DejaVuSans-6f"/>
      <use x="325.916016" xlink:href="#DejaVuSans-6e"/>
      <use x="389.294922" xlink:href="#DejaVuSans-20"/>
      <use x="421.082031" xlink:href="#DejaVuSans-69"/>
      <use x="448.865234" xlink:href="#DejaVuSans-6e"/>
      <use x="512.244141" xlink:href="#DejaVuSans-20"/>
      <use x="544.03125" xlink:href="#DejaVuSans-58"/>
      <use x="612.537109" xlink:href="#DejaVuSans-20"/>
      <use x="644.324219" xlink:href="#DejaVuSans-64"/>
      <use x="707.800781" xlink:href="#DejaVuSans-69"/>
      <use x="735.583984" xlink:href="#DejaVuSans-72"/>
      <use x="774.447266" xlink:href="#DejaVuSans-65"/>
      <use x="835.970703" xlink:href="#DejaVuSans-63"/>
      <use x="890.951172" xlink:href="#DejaVuSans-74"/>
      <use x="930.160156" xlink:href="#DejaVuSans-69"/>
      <use x="957.943359" xlink:href="#DejaVuSans-6f"/>
      <use x="1019.125" xlink:href="#DejaVuSans-6e"/>
      <use x="1082.503906" xlink:href="#DejaVuSans-20"/>
      <use x="1114.291016" xlink:href="#DejaVuSans-5b"/>
      <use x="1153.304688" xlink:href="#DejaVuSans-6d"/>
      <use x="1250.716797" xlink:href="#DejaVuSans-6d"/>
      <use x="1348.128906" xlink:href="#DejaVuSans-5d"/>
     </g>
    </g>
   </g>
   <g id="matplotlib.axis_2">
    <g id="ytick_1">
     <g id="line2d_13">
      <path clip-path="url(#p228cf6ba58)" d="M 57.6 295.628448 
L 414.72 295.628448 
" style="fill:none;stroke:#b0b0b0;stroke-linecap:square;stroke-width:0.8;"/>
     </g>
     <g id="line2d_14">
      <defs>
       <path d="M 0 0 
L -3.5 0 
" id="med561b8168" style="stroke:#000000;stroke-width:0.8;"/>
      </defs>
      <g>
       <use style="stroke:#000000;stroke-width:0.8;" x="57.6" xlink:href="#med561b8168" y="295.628448"/>
      </g>
     </g>
     <g id="text_8">
      <!-- −150 -->
      <g transform="translate(23.132812 299.427667)scale(0.1 -0.1)">
       <defs>
        <path d="M 678 2272 
L 4684 2272 
L 4684 1741 
L 678 1741 
L 678 2272 
z
" id="DejaVuSans-2212" transform="scale(0.015625)"/>
       </defs>
       <use xlink:href="#DejaVuSans-2212"/>
       <use x="83.789062" xlink:href="#DejaVuSans-31"/>
       <use x="147.412109" xlink:href="#DejaVuSans-35"/>
       <use x="211.035156" xlink:href="#DejaVuSans-30"/>
      </g>
     </g>
    </g>
    <g id="ytick_2">
     <g id="line2d_15">
      <path clip-path="url(#p228cf6ba58)" d="M 57.6 255.261632 
L 414.72 255.261632 
" style="fill:none;stroke:#b0b0b0;stroke-linecap:square;stroke-width:0.8;"/>
     </g>
     <g id="line2d_16">
      <g>
       <use style="stroke:#000000;stroke-width:0.8;" x="57.6" xlink:href="#med561b8168" y="255.261632"/>
      </g>
     </g>
     <g id="text_9">
      <!-- −100 -->
      <g transform="translate(23.132812 259.060851)scale(0.1 -0.1)">
       <use xlink:href="#DejaVuSans-2212"/>
       <use x="83.789062" xlink:href="#DejaVuSans-31"/>
       <use x="147.412109" xlink:href="#DejaVuSans-30"/>
       <use x="211.035156" xlink:href="#DejaVuSans-30"/>
      </g>
     </g>
    </g>
    <g id="ytick_3">
     <g id="line2d_17">
      <path clip-path="url(#p228cf6ba58)" d="M 57.6 214.894816 
L 414.72 214.894816 
" style="fill:none;stroke:#b0b0b0;stroke-linecap:square;stroke-width:0.8;"/>
     </g>
     <g id="line2d_18">
      <g>
       <use style="stroke:#000000;stroke-width:0.8;" x="57.6" xlink:href="#med561b8168" y="214.894816"/>
      </g>
     </g>
     <g id="text_10">
      <!-- −50 -->
      <g transform="translate(29.495313 218.694035)scale(0.1 -0.1)">
       <use xlink:href="#DejaVuSans-2212"/>
       <use x="83.789062" xlink:href="#DejaVuSans-35"/>
       <use x="147.412109" xlink:href="#DejaVuSans-30"/>
      </g>
     </g>
    </g>
    <g id="ytick_4">
     <g id="line2d_19">
      <path clip-path="url(#p228cf6ba58)" d="M 57.6 174.528 
L 414.72 174.528 
" style="fill:none;stroke:#b0b0b0;stroke-linecap:square;stroke-width:0.8;"/>
     </g>
     <g id="line2d_20">
      <g>
       <use style="stroke:#000000;stroke-width:0.8;" x="57.6" xlink:href="#med561b8168" y="174.528"/>
      </g>
     </g>
     <g id="text_11">
      <!-- 0 -->
      <g transform="translate(44.2375 178.327219)scale(0.1 -0.1)">
       <use xlink:href="#DejaVuSans-30"/>
      </g>
     </g>
    </g>
    <g id="ytick_5">
     <g id="line2d_21">
      <path clip-path="url(#p228cf6ba58)" d="M 57.6 134.161184 
L 414.72 134.161184 
" style="fill:none;stroke:#b0b0b0;stroke-linecap:square;stroke-width:0.8;"/>
     </g>
     <g id="line2d_22">
      <g>
       <use style="stroke:#000000;stroke-width:0.8;" x="57.6" xlink:href="#med561b8168" y="134.161184"/>
      </g>
     </g>
     <g id="text_12">
      <!-- 50 -->
      <g transform="translate(37.875 137.960403)scale(0.1 -0.1)">
       <use xlink:href="#DejaVuSans-35"/>
       <use x="63.623047" xlink:href="#DejaVuSans-30"/>
      </g>
     </g>
    </g>
    <g id="ytick_6">
     <g id="line2d_23">
      <path clip-path="url(#p228cf6ba58)" d="M 57.6 93.794368 
L 414.72 93.794368 
" style="fill:none;stroke:#b0b0b0;stroke-linecap:square;stroke-width:0.8;"/>
     </g>
     <g id="line2d_24">
      <g>
       <use style="stroke:#000000;stroke-width:0.8;" x="57.6" xlink:href="#med561b8168" y="93.794368"/>
      </g>
     </g>
     <g id="text_13">
      <!-- 100 -->
      <g transform="translate(31.5125 97.593587)scale(0.1 -0.1)">
       <use xlink:href="#DejaVuSans-31"/>
       <use x="63.623047" xlink:href="#DejaVuSans-30"/>
       <use x="127.246094" xlink:href="#DejaVuSans-30"/>
      </g>
     </g>
    </g>
    <g id="ytick_7">
     <g id="line2d_25">
      <path clip-path="url(#p228cf6ba58)" d="M 57.6 53.427552 
L 414.72 53.427552 
" style="fill:none;stroke:#b0b0b0;stroke-linecap:square;stroke-width:0.8;"/>
     </g>
     <g id="line2d_26">
      <g>
       <use style="stroke:#000000;stroke-width:0.8;" x="57.6" xlink:href="#med561b8168" y="53.427552"/>
      </g>
     </g>
     <g id="text_14">
      <!-- 150 -->
      <g transform="translate(31.5125 57.22677)scale(0.1 -0.1)">
       <use xlink:href="#DejaVuSans-31"/>
       <use x="63.623047" xlink:href="#DejaVuSans-35"/>
       <use x="127.246094" xlink:href="#DejaVuSans-30"/>
      </g>
     </g>
    </g>
    <g id="text_15">
     <!-- Position in Y direction [mm] -->
     <g transform="translate(17.053125 243.511594)rotate(-90)scale(0.1 -0.1)">
      <defs>
       <path d="M -13 4666 
L 666 4666 
L 1959 2747 
L 3244 4666 
L 3922 4666 
L 2272 2222 
L 2272 0 
L 1638 0 
L 1638 2222 
L -13 4666 
z
" id="DejaVuSans-59" transform="scale(0.015625)"/>
      </defs>
      <use xlink:href="#DejaVuSans-50"/>
      <use x="56.677734" xlink:href="#DejaVuSans-6f"/>
      <use x="117.859375" xlink:href="#DejaVuSans-73"/>
      <use x="169.958984" xlink:href="#DejaVuSans-69"/>
      <use x="197.742188" xlink:href="#DejaVuSans-74"/>
      <use x="236.951172" xlink:href="#DejaVuSans-69"/>
      <use x="264.734375" xlink:href="#DejaVuSans-6f"/>
      <use x="325.916016" xlink:href="#DejaVuSans-6e"/>
      <use x="389.294922" xlink:href="#DejaVuSans-20"/>
      <use x="421.082031" xlink:href="#DejaVuSans-69"/>
      <use x="448.865234" xlink:href="#DejaVuSans-6e"/>
      <use x="512.244141" xlink:href="#DejaVuSans-20"/>
      <use x="544.03125" xlink:href="#DejaVuSans-59"/>
      <use x="605.115234" xlink:href="#DejaVuSans-20"/>
      <use x="636.902344" xlink:href="#DejaVuSans-64"/>
      <use x="700.378906" xlink:href="#DejaVuSans-69"/>
      <use x="728.162109" xlink:href="#DejaVuSans-72"/>
      <use x="767.025391" xlink:href="#DejaVuSans-65"/>
      <use x="828.548828" xlink:href="#DejaVuSans-63"/>
      <use x="883.529297" xlink:href="#DejaVuSans-74"/>
      <use x="922.738281" xlink:href="#DejaVuSans-69"/>
      <use x="950.521484" xlink:href="#DejaVuSans-6f"/>
      <use x="1011.703125" xlink:href="#DejaVuSans-6e"/>
      <use x="1075.082031" xlink:href="#DejaVuSans-20"/>
      <use x="1106.869141" xlink:href="#DejaVuSans-5b"/>
      <use x="1145.882812" xlink:href="#DejaVuSans-6d"/>
      <use x="1243.294922" xlink:href="#DejaVuSans-6d"/>
      <use x="1340.707031" xlink:href="#DejaVuSans-5d"/>
     </g>
    </g>
   </g>
   <g id="line2d_27">
    <path clip-path="url(#p228cf6ba58)" d="M 75.93311 54.204005 
L 76.251546 55.400671 
L 78.546088 54.423751 
L 78.664936 55.561445 
L 81.234735 54.644049 
L 81.39059 55.597794 
L 83.956844 54.782163 
L 84.07276 55.673738 
L 85.848598 54.982953 
L 86.875275 55.904991 
L 89.199963 55.017856 
L 89.532852 56.111153 
L 92.244975 56.515581 
L 94.955108 56.638162 
L 105.724257 58.153448 
L 106.426591 58.71976 
L 107.836823 58.376586 
L 108.759717 58.896326 
L 110.234548 58.508223 
L 111.408611 59.260637 
L 124.850917 61.521695 
L 125.596467 62.267603 
L 127.579379 61.71373 
L 127.824621 62.443408 
L 130.07572 61.870609 
L 130.490506 62.677831 
L 133.124388 63.032264 
L 138.499276 64.172764 
L 141.313266 64.75521 
L 143.876547 65.118793 
L 144.458565 65.768185 
L 146.636368 65.292294 
L 146.900845 65.995291 
L 148.443744 65.430783 
L 149.532451 66.27914 
L 154.900627 67.260617 
L 160.332463 68.302247 
L 161.404173 69.118936 
L 162.985129 68.561294 
L 163.370585 69.346182 
L 165.482554 68.835275 
L 165.924859 69.590687 
L 167.343991 68.979322 
L 168.582221 69.926896 
L 179.325963 71.930893 
L 179.96059 72.712352 
L 181.971803 72.194069 
L 182.324363 72.922636 
L 183.985542 72.437469 
L 184.943328 73.214096 
L 190.274773 74.131457 
L 195.738801 75.274784 
L 196.825106 76.099669 
L 198.377614 75.611499 
L 198.77191 76.312927 
L 200.499305 75.845824 
L 201.327356 76.593632 
L 206.681282 77.656691 
L 209.373597 78.388967 
L 212.117012 78.951504 
L 213.33671 79.590035 
L 214.433974 79.303707 
L 215.154748 79.74179 
L 217.590142 80.165946 
L 228.339189 82.57261 
L 229.306583 83.121465 
L 230.648382 82.759923 
L 231.331869 83.389642 
L 242.037299 85.857182 
L 242.877769 86.619633 
L 244.487316 86.283923 
L 245.020544 86.859228 
L 246.250931 86.431153 
L 247.629243 87.337025 
L 250.285152 87.972844 
L 253.053567 88.949647 
L 255.579643 89.360427 
L 256.426124 90.17748 
L 257.833979 89.708665 
L 258.632151 90.53783 
L 261.174983 91.128631 
L 266.578228 92.662254 
L 267.453952 93.7165 
L 269.015148 93.143826 
L 269.590602 94.033947 
L 272.065079 94.63245 
L 277.169355 96.232989 
L 277.60491 97.137393 
L 279.747672 96.709681 
L 280.778026 97.749913 
L 282.970632 98.487081 
L 285.565191 99.505655 
L 286.692101 100.610767 
L 287.784061 100.127636 
L 288.676127 101.048032 
L 293.77799 103.019665 
L 294.945982 104.505881 
L 295.842219 103.624063 
L 296.684395 105.176143 
L 301.690712 106.829504 
L 302.509845 107.800408 
L 303.556552 107.317506 
L 304.937512 108.722779 
L 307.472443 109.869705 
L 308.57815 111.125495 
L 309.535294 110.578505 
L 310.452346 111.722524 
L 312.929195 113.001483 
L 314.177383 114.528603 
L 315.051853 113.936557 
L 315.938952 115.052916 
L 318.495295 116.34543 
L 319.554099 118.112045 
L 320.519364 117.420022 
L 321.38424 118.690064 
L 323.770055 120.066306 
L 324.876614 121.722135 
L 325.800577 121.010418 
L 326.776091 122.428546 
L 329.084839 123.91258 
L 329.958664 125.393223 
L 330.978611 124.602834 
L 332.066435 126.402298 
L 334.192225 127.672827 
L 335.190869 129.134622 
L 337.371116 130.517886 
L 338.493018 132.184227 
L 339.258128 131.488874 
L 340.318283 133.112211 
L 342.493256 134.541057 
L 343.465215 136.033622 
L 345.277507 137.037975 
L 345.974482 138.926263 
L 347.723871 138.407183 
L 348.93244 139.460228 
L 351.119302 141.208376 
L 352.35025 142.486437 
L 352.595472 142.242111 
L 354.065417 144.092005 
L 354.989304 146.086501 
L 355.904557 145.276323 
L 356.907578 146.469685 
L 358.93343 147.844995 
L 359.695311 149.988497 
L 361.261618 148.877592 
L 362.105491 150.541871 
L 364.450456 153.286628 
L 364.567747 151.367604 
L 366.480643 152.4435 
L 367.829403 153.68038 
L 368.505168 157.304629 
L 369.850857 155.375543 
L 370.607448 157.442729 
L 372.675741 158.623168 
L 373.64923 160.27524 
L 374.523148 159.565963 
L 376.769502 163.591519 
L 377.559894 162.737721 
L 378.550572 164.442198 
L 380.421054 165.968033 
L 381.627677 168.005852 
L 383.311211 169.284815 
L 384.133126 171.355059 
L 385.994093 172.561987 
L 387.194798 174.89641 
L 388.635435 176.226645 
L 390.550364 180.880467 
L 391.015554 179.743118 
L 391.723648 182.590034 
L 392.760766 185.566284 
L 393.899913 186.074132 
L 394.994314 193.002454 
L 395.030422 196.464737 
L 394.318698 203.343523 
L 393.384039 208.803398 
L 393.275051 205.033802 
L 392.900703 207.38774 
L 391.15585 212.987183 
L 389.857766 214.459721 
L 388.705763 216.723088 
L 387.18002 218.233164 
L 386.000136 220.275068 
L 384.397796 221.71584 
L 383.259349 223.474042 
L 381.374545 225.070287 
L 380.244235 226.621718 
L 379.569875 226.010904 
L 378.332682 227.751946 
L 376.328587 229.086614 
L 375.241771 230.417801 
L 373.032629 231.947606 
L 371.937069 233.40765 
L 371.219947 232.855195 
L 370.074984 234.385117 
L 367.729654 235.798501 
L 366.725699 237.035944 
L 365.946439 236.482003 
L 364.692156 238.022275 
L 362.353586 239.384322 
L 361.348674 240.524144 
L 360.542476 239.960734 
L 359.273661 241.593533 
L 356.973472 242.940904 
L 355.937674 244.075866 
L 351.440993 246.527014 
L 350.61108 247.649578 
L 349.680056 246.988005 
L 348.364812 248.774167 
L 346.185645 249.955786 
L 345.274733 251.180411 
L 342.939571 252.43393 
L 340.73122 253.424526 
L 339.78073 254.578484 
L 335.059148 256.890782 
L 334.130476 258.004138 
L 333.27744 257.459104 
L 331.986316 258.92621 
L 329.454851 260.166979 
L 328.568189 261.317546 
L 327.419968 260.722985 
L 326.415514 261.966514 
L 323.865091 263.159961 
L 322.596666 264.579452 
L 321.54686 264.01894 
L 320.812086 265.002919 
L 318.377723 265.831651 
L 315.730454 266.936303 
L 314.539377 268.109708 
L 313.334642 267.604436 
L 312.698951 268.509816 
L 310.221915 269.185738 
L 307.463501 270.171491 
L 304.918944 270.846459 
L 304.362392 271.842263 
L 302.73175 271.201175 
L 302.069038 272.267324 
L 300.472206 271.42057 
L 299.548022 272.924257 
L 296.609002 273.825877 
L 293.92123 274.491208 
L 293.05542 275.166094 
L 291.557171 274.704234 
L 290.97649 275.421926 
L 289.409976 274.791266 
L 288.422057 275.805242 
L 280.246907 277.473276 
L 277.709315 277.868166 
L 277.17787 278.633003 
L 275.09285 278.233388 
L 274.67983 278.824687 
L 273.388816 278.401302 
L 272.060172 279.116828 
L 266.622674 279.868526 
L 261.163656 280.502838 
L 255.709002 281.037074 
L 253.029953 281.270526 
L 252.408724 282.031283 
L 250.308778 281.370264 
L 250.160568 282.099605 
L 247.62078 281.490381 
L 247.465363 282.200816 
L 244.922961 281.592034 
L 244.766447 282.288848 
L 242.302915 281.668 
L 242.049898 282.420149 
L 239.557283 281.779977 
L 239.340799 282.525839 
L 236.874705 281.857823 
L 236.598552 282.620171 
L 235.243195 281.891669 
L 233.927815 282.757787 
L 228.461706 283.055475 
L 225.730583 283.277 
L 206.703809 284.086215 
L 195.834066 284.714221 
L 195.253171 285.52165 
L 193.064133 284.777231 
L 192.849857 285.571768 
L 190.347072 284.817426 
L 190.248942 285.63199 
L 187.623797 284.888174 
L 187.610002 285.67033 
L 184.907888 284.962389 
L 184.824178 285.715309 
L 182.196013 285.050084 
L 182.134545 285.741238 
L 179.507522 285.10168 
L 179.40205 285.802005 
L 176.756449 285.163032 
L 176.66479 285.904073 
L 174.200443 285.248672 
L 173.926498 285.998067 
L 171.310724 285.300374 
L 171.212611 286.153825 
L 168.924309 285.382035 
L 168.520304 286.264496 
L 165.799529 286.299132 
L 152.260889 287.065886 
L 149.462068 287.08295 
L 135.944285 288.032738 
L 133.103381 288.345608 
L 130.468312 288.423206 
L 129.931827 289.087483 
L 127.778018 288.588668 
L 127.581723 289.198169 
L 125.10663 288.700038 
L 124.861054 289.262828 
L 122.877096 288.849132 
L 122.158799 289.426778 
L 119.440033 289.582174 
L 114.062797 290.3179 
L 103.194299 291.832086 
L 101.842511 292.502382 
L 100.578257 292.098107 
L 100.245066 292.643992 
L 97.900455 292.270569 
L 97.657604 292.732814 
L 94.799618 292.97846 
L 94.322375 292.127168 
L 92.352308 292.163969 
L 92.271561 293.062088 
L 90.568361 292.331742 
L 89.46074 293.304024 
L 87.047167 294.15599 
L 84.040768 294.779847 
L 81.304041 294.95164 
L 78.617972 294.847072 
L 74.486652 295.015446 
L 74.486652 295.015446 
" style="fill:none;stroke:#1f77b4;stroke-linecap:square;stroke-width:1.5;"/>
   </g>
   <g id="line2d_28">
    <path clip-path="url(#p228cf6ba58)" d="M 73.832727 174.528 
L 75.358552 175.505303 
L 76.884377 175.644917 
L 78.410202 175.924147 
L 81.461851 175.644917 
L 82.987676 175.365688 
L 84.513501 175.644917 
L 86.039326 175.644917 
L 89.090975 175.365688 
L 90.6168 175.505303 
L 92.142625 175.505303 
L 93.66845 175.086459 
L 95.194275 175.086459 
L 96.720099 175.226073 
L 98.245924 175.226073 
L 99.771749 175.365688 
L 101.297574 175.226073 
L 104.349224 175.226073 
L 105.875048 175.365688 
L 107.400873 175.226073 
L 108.926698 175.365688 
L 110.452523 175.365688 
L 111.978348 175.505303 
L 115.029997 175.505303 
L 116.555822 175.644917 
L 118.081647 175.644917 
L 121.133297 175.365688 
L 124.184946 175.924147 
L 125.710771 175.924147 
L 127.236596 176.063761 
L 130.288245 176.063761 
L 131.81407 176.203376 
L 133.339895 176.203376 
L 139.443194 176.761834 
L 140.969019 176.761834 
L 142.494844 177.041064 
L 144.020669 176.901449 
L 147.072318 177.180678 
L 148.598143 177.180678 
L 151.649793 177.739137 
L 153.175618 177.878752 
L 154.701442 177.878752 
L 156.227267 178.018366 
L 157.753092 178.018366 
L 162.330567 178.43721 
L 163.856391 178.43721 
L 168.433866 178.856054 
L 169.959691 178.856054 
L 171.485515 178.995669 
L 173.01134 178.995669 
L 174.537165 179.135284 
L 176.06299 179.135284 
L 183.692114 179.833357 
L 185.217939 179.833357 
L 186.743764 180.112586 
L 188.269588 180.112586 
L 195.898712 180.810659 
L 197.424537 180.810659 
L 200.476187 181.089889 
L 202.002012 181.089889 
L 203.527837 181.229503 
L 205.053661 181.229503 
L 206.579486 181.508733 
L 208.105311 181.508733 
L 209.631136 181.787962 
L 211.156961 181.787962 
L 215.734435 182.206806 
L 217.26026 182.486035 
L 226.415209 183.323723 
L 227.941034 183.323723 
L 234.044333 183.882182 
L 235.570158 184.161411 
L 241.673457 184.71987 
L 243.199282 184.71987 
L 246.250931 184.999099 
L 247.776756 185.278328 
L 264.560829 186.81409 
L 266.086654 187.093319 
L 267.612479 187.093319 
L 275.241603 187.791392 
L 276.767428 187.512163 
L 278.293252 187.512163 
L 279.819077 188.070621 
L 281.344902 188.210236 
L 282.870727 188.489465 
L 284.396552 188.070621 
L 285.922377 188.210236 
L 287.448201 188.908309 
L 293.551501 189.466768 
L 295.077325 190.025227 
L 296.60315 190.304456 
L 298.128975 190.025227 
L 299.6548 190.304456 
L 301.180625 190.025227 
L 302.70645 190.025227 
L 304.232274 190.583685 
L 313.387223 191.421373 
L 314.913048 191.700602 
L 321.016347 192.259061 
L 324.067997 192.81752 
L 325.593822 192.677905 
L 327.119647 193.096749 
L 331.697121 193.515593 
L 333.222946 193.515593 
L 334.748771 193.794822 
L 337.80042 194.074052 
L 339.326245 194.353281 
L 340.85207 193.934437 
L 343.90372 194.213666 
L 345.429544 194.213666 
L 346.955369 194.492895 
L 348.481194 194.492895 
L 350.007019 194.63251 
L 351.532844 194.63251 
L 353.058668 194.911739 
L 354.584493 195.330583 
L 356.110318 195.330583 
L 357.636143 195.051354 
L 359.161968 195.330583 
L 360.687793 195.051354 
L 365.265267 195.051354 
L 366.791092 195.330583 
L 368.316917 195.470198 
L 369.842741 196.307886 
L 371.368566 195.609813 
L 372.894391 196.447501 
L 374.420216 196.447501 
L 375.946041 195.889042 
L 377.471865 196.72673 
L 378.99769 197.005959 
L 380.523515 197.564418 
L 382.04934 197.704033 
L 383.575165 197.564418 
L 385.10099 197.704033 
L 386.626814 197.704033 
L 388.152639 198.122876 
L 389.678464 197.005959 
L 391.204289 196.72673 
L 392.730114 196.866345 
L 392.730114 196.866345 
" style="fill:none;stroke:#000000;stroke-linecap:square;stroke-width:1.5;"/>
   </g>
   <g id="line2d_29">
    <path clip-path="url(#p228cf6ba58)" d="M 73.836275 53.568 
L 113.761292 60.38958 
L 162.274807 69.994468 
L 192.050984 76.528225 
L 203.212775 79.006869 
L 241.561362 88.239486 
L 266.173894 95.017268 
L 272.283642 96.951727 
L 280.792764 99.881559 
L 289.285373 102.888789 
L 295.31055 105.217091 
L 301.261152 107.84133 
L 315.464876 114.417746 
L 318.94918 116.281821 
L 328.114694 121.624684 
L 337.227174 127.112044 
L 349.582018 135.118075 
L 354.035757 138.125492 
L 358.49261 141.125594 
L 365.213021 145.538712 
L 371.747583 150.38885 
L 374.989884 152.867703 
L 379.153011 156.494775 
L 382.23812 159.28388 
L 385.198828 162.28575 
L 388.044242 165.465169 
L 389.823587 167.745935 
L 392.30041 171.394845 
L 393.838691 173.947247 
L 395.252099 176.615073 
L 396.480137 179.428778 
L 397.459668 182.397499 
L 398.135169 185.501602 
L 398.462795 188.696216 
L 398.417172 191.917568 
L 397.996953 195.094251 
L 397.223293 198.160288 
L 396.133787 201.065068 
L 394.781114 203.78299 
L 393.232881 206.324816 
L 391.551745 208.724607 
L 389.75699 210.985189 
L 387.844849 213.081922 
L 383.837251 216.985466 
L 380.701465 219.678869 
L 376.392698 223.014694 
L 368.63006 228.352584 
L 358.358396 234.47254 
L 352.549867 237.57599 
L 344.3884 241.828214 
L 334.930704 246.257132 
L 327.804929 249.46086 
L 315.758507 254.135604 
L 309.693335 256.287042 
L 303.570989 258.154007 
L 296.173879 260.104661 
L 289.974285 261.491197 
L 282.500029 262.862659 
L 252.53143 267.75326 
L 235.0299 270.404472 
L 216.27716 273.229786 
L 160.01012 281.617655 
L 121.26767 287.603311 
L 105.043482 290.340399 
L 90.065544 292.845742 
L 73.832727 295.488 
L 73.832727 295.488 
" style="fill:none;stroke:#ff7f0e;stroke-linecap:square;stroke-width:1.5;"/>
   </g>
   <g id="patch_3">
    <path d="M 57.6 307.584 
L 57.6 41.472 
" style="fill:none;stroke:#000000;stroke-linecap:square;stroke-linejoin:miter;stroke-width:0.8;"/>
   </g>
   <g id="patch_4">
    <path d="M 414.72 307.584 
L 414.72 41.472 
" style="fill:none;stroke:#000000;stroke-linecap:square;stroke-linejoin:miter;stroke-width:0.8;"/>
   </g>
   <g id="patch_5">
    <path d="M 57.6 307.584 
L 414.72 307.584 
" style="fill:none;stroke:#000000;stroke-linecap:square;stroke-linejoin:miter;stroke-width:0.8;"/>
   </g>
   <g id="patch_6">
    <path d="M 57.6 41.472 
L 414.72 41.472 
" style="fill:none;stroke:#000000;stroke-linecap:square;stroke-linejoin:miter;stroke-width:0.8;"/>
   </g>
   <g id="legend_1">
    <g id="patch_7">
     <path d="M 69.7225 38.91145 
L 402.5975 38.91145 
Q 404.5975 38.91145 404.5975 36.91145 
L 404.5975 8.5552 
Q 404.5975 6.5552 402.5975 6.5552 
L 69.7225 6.5552 
Q 67.7225 6.5552 67.7225 8.5552 
L 67.7225 36.91145 
Q 67.7225 38.91145 69.7225 38.91145 
z
" style="fill:#ffffff;opacity:0.8;stroke:#cccccc;stroke-linejoin:miter;"/>
    </g>
    <g id="line2d_30">
     <path d="M 71.7225 14.653638 
L 91.7225 14.653638 
" style="fill:none;stroke:#1f77b4;stroke-linecap:square;stroke-width:1.5;"/>
    </g>
    <g id="line2d_31"/>
    <g id="text_16">
     <!-- Initial Experimental Contour -->
     <g transform="translate(99.7225 18.153638)scale(0.1 -0.1)">
      <defs>
       <path d="M 628 4666 
L 1259 4666 
L 1259 0 
L 628 0 
L 628 4666 
z
" id="DejaVuSans-49" transform="scale(0.015625)"/>
       <path d="M 2194 1759 
Q 1497 1759 1228 1600 
Q 959 1441 959 1056 
Q 959 750 1161 570 
Q 1363 391 1709 391 
Q 2188 391 2477 730 
Q 2766 1069 2766 1631 
L 2766 1759 
L 2194 1759 
z
M 3341 1997 
L 3341 0 
L 2766 0 
L 2766 531 
Q 2569 213 2275 61 
Q 1981 -91 1556 -91 
Q 1019 -91 701 211 
Q 384 513 384 1019 
Q 384 1609 779 1909 
Q 1175 2209 1959 2209 
L 2766 2209 
L 2766 2266 
Q 2766 2663 2505 2880 
Q 2244 3097 1772 3097 
Q 1472 3097 1187 3025 
Q 903 2953 641 2809 
L 641 3341 
Q 956 3463 1253 3523 
Q 1550 3584 1831 3584 
Q 2591 3584 2966 3190 
Q 3341 2797 3341 1997 
z
" id="DejaVuSans-61" transform="scale(0.015625)"/>
       <path d="M 603 4863 
L 1178 4863 
L 1178 0 
L 603 0 
L 603 4863 
z
" id="DejaVuSans-6c" transform="scale(0.015625)"/>
       <path d="M 628 4666 
L 3578 4666 
L 3578 4134 
L 1259 4134 
L 1259 2753 
L 3481 2753 
L 3481 2222 
L 1259 2222 
L 1259 531 
L 3634 531 
L 3634 0 
L 628 0 
L 628 4666 
z
" id="DejaVuSans-45" transform="scale(0.015625)"/>
       <path d="M 3513 3500 
L 2247 1797 
L 3578 0 
L 2900 0 
L 1881 1375 
L 863 0 
L 184 0 
L 1544 1831 
L 300 3500 
L 978 3500 
L 1906 2253 
L 2834 3500 
L 3513 3500 
z
" id="DejaVuSans-78" transform="scale(0.015625)"/>
       <path d="M 1159 525 
L 1159 -1331 
L 581 -1331 
L 581 3500 
L 1159 3500 
L 1159 2969 
Q 1341 3281 1617 3432 
Q 1894 3584 2278 3584 
Q 2916 3584 3314 3078 
Q 3713 2572 3713 1747 
Q 3713 922 3314 415 
Q 2916 -91 2278 -91 
Q 1894 -91 1617 61 
Q 1341 213 1159 525 
z
M 3116 1747 
Q 3116 2381 2855 2742 
Q 2594 3103 2138 3103 
Q 1681 3103 1420 2742 
Q 1159 2381 1159 1747 
Q 1159 1113 1420 752 
Q 1681 391 2138 391 
Q 2594 391 2855 752 
Q 3116 1113 3116 1747 
z
" id="DejaVuSans-70" transform="scale(0.015625)"/>
       <path d="M 4122 4306 
L 4122 3641 
Q 3803 3938 3442 4084 
Q 3081 4231 2675 4231 
Q 1875 4231 1450 3742 
Q 1025 3253 1025 2328 
Q 1025 1406 1450 917 
Q 1875 428 2675 428 
Q 3081 428 3442 575 
Q 3803 722 4122 1019 
L 4122 359 
Q 3791 134 3420 21 
Q 3050 -91 2638 -91 
Q 1578 -91 968 557 
Q 359 1206 359 2328 
Q 359 3453 968 4101 
Q 1578 4750 2638 4750 
Q 3056 4750 3426 4639 
Q 3797 4528 4122 4306 
z
" id="DejaVuSans-43" transform="scale(0.015625)"/>
       <path d="M 544 1381 
L 544 3500 
L 1119 3500 
L 1119 1403 
Q 1119 906 1312 657 
Q 1506 409 1894 409 
Q 2359 409 2629 706 
Q 2900 1003 2900 1516 
L 2900 3500 
L 3475 3500 
L 3475 0 
L 2900 0 
L 2900 538 
Q 2691 219 2414 64 
Q 2138 -91 1772 -91 
Q 1169 -91 856 284 
Q 544 659 544 1381 
z
M 1991 3584 
L 1991 3584 
z
" id="DejaVuSans-75" transform="scale(0.015625)"/>
      </defs>
      <use xlink:href="#DejaVuSans-49"/>
      <use x="29.492188" xlink:href="#DejaVuSans-6e"/>
      <use x="92.871094" xlink:href="#DejaVuSans-69"/>
      <use x="120.654297" xlink:href="#DejaVuSans-74"/>
      <use x="159.863281" xlink:href="#DejaVuSans-69"/>
      <use x="187.646484" xlink:href="#DejaVuSans-61"/>
      <use x="248.925781" xlink:href="#DejaVuSans-6c"/>
      <use x="276.708984" xlink:href="#DejaVuSans-20"/>
      <use x="308.496094" xlink:href="#DejaVuSans-45"/>
      <use x="371.679688" xlink:href="#DejaVuSans-78"/>
      <use x="430.859375" xlink:href="#DejaVuSans-70"/>
      <use x="494.335938" xlink:href="#DejaVuSans-65"/>
      <use x="555.859375" xlink:href="#DejaVuSans-72"/>
      <use x="596.972656" xlink:href="#DejaVuSans-69"/>
      <use x="624.755859" xlink:href="#DejaVuSans-6d"/>
      <use x="722.167969" xlink:href="#DejaVuSans-65"/>
      <use x="783.691406" xlink:href="#DejaVuSans-6e"/>
      <use x="847.070312" xlink:href="#DejaVuSans-74"/>
      <use x="886.279297" xlink:href="#DejaVuSans-61"/>
      <use x="947.558594" xlink:href="#DejaVuSans-6c"/>
      <use x="975.341797" xlink:href="#DejaVuSans-20"/>
      <use x="1007.128906" xlink:href="#DejaVuSans-43"/>
      <use x="1076.953125" xlink:href="#DejaVuSans-6f"/>
      <use x="1138.134766" xlink:href="#DejaVuSans-6e"/>
      <use x="1201.513672" xlink:href="#DejaVuSans-74"/>
      <use x="1240.722656" xlink:href="#DejaVuSans-6f"/>
      <use x="1301.904297" xlink:href="#DejaVuSans-75"/>
      <use x="1365.283203" xlink:href="#DejaVuSans-72"/>
     </g>
    </g>
    <g id="line2d_32">
     <path d="M 71.7225 29.331763 
L 91.7225 29.331763 
" style="fill:none;stroke:#000000;stroke-linecap:square;stroke-width:1.5;"/>
    </g>
    <g id="line2d_33"/>
    <g id="text_17">
     <!-- Initial Experimental Camberline -->
     <g transform="translate(99.7225 32.831763)scale(0.1 -0.1)">
      <defs>
       <path d="M 3116 1747 
Q 3116 2381 2855 2742 
Q 2594 3103 2138 3103 
Q 1681 3103 1420 2742 
Q 1159 2381 1159 1747 
Q 1159 1113 1420 752 
Q 1681 391 2138 391 
Q 2594 391 2855 752 
Q 3116 1113 3116 1747 
z
M 1159 2969 
Q 1341 3281 1617 3432 
Q 1894 3584 2278 3584 
Q 2916 3584 3314 3078 
Q 3713 2572 3713 1747 
Q 3713 922 3314 415 
Q 2916 -91 2278 -91 
Q 1894 -91 1617 61 
Q 1341 213 1159 525 
L 1159 0 
L 581 0 
L 581 4863 
L 1159 4863 
L 1159 2969 
z
" id="DejaVuSans-62" transform="scale(0.015625)"/>
      </defs>
      <use xlink:href="#DejaVuSans-49"/>
      <use x="29.492188" xlink:href="#DejaVuSans-6e"/>
      <use x="92.871094" xlink:href="#DejaVuSans-69"/>
      <use x="120.654297" xlink:href="#DejaVuSans-74"/>
      <use x="159.863281" xlink:href="#DejaVuSans-69"/>
      <use x="187.646484" xlink:href="#DejaVuSans-61"/>
      <use x="248.925781" xlink:href="#DejaVuSans-6c"/>
      <use x="276.708984" xlink:href="#DejaVuSans-20"/>
      <use x="308.496094" xlink:href="#DejaVuSans-45"/>
      <use x="371.679688" xlink:href="#DejaVuSans-78"/>
      <use x="430.859375" xlink:href="#DejaVuSans-70"/>
      <use x="494.335938" xlink:href="#DejaVuSans-65"/>
      <use x="555.859375" xlink:href="#DejaVuSans-72"/>
      <use x="596.972656" xlink:href="#DejaVuSans-69"/>
      <use x="624.755859" xlink:href="#DejaVuSans-6d"/>
      <use x="722.167969" xlink:href="#DejaVuSans-65"/>
      <use x="783.691406" xlink:href="#DejaVuSans-6e"/>
      <use x="847.070312" xlink:href="#DejaVuSans-74"/>
      <use x="886.279297" xlink:href="#DejaVuSans-61"/>
      <use x="947.558594" xlink:href="#DejaVuSans-6c"/>
      <use x="975.341797" xlink:href="#DejaVuSans-20"/>
      <use x="1007.128906" xlink:href="#DejaVuSans-43"/>
      <use x="1076.953125" xlink:href="#DejaVuSans-61"/>
      <use x="1138.232422" xlink:href="#DejaVuSans-6d"/>
      <use x="1235.644531" xlink:href="#DejaVuSans-62"/>
      <use x="1299.121094" xlink:href="#DejaVuSans-65"/>
      <use x="1360.644531" xlink:href="#DejaVuSans-72"/>
      <use x="1401.757812" xlink:href="#DejaVuSans-6c"/>
      <use x="1429.541016" xlink:href="#DejaVuSans-69"/>
      <use x="1457.324219" xlink:href="#DejaVuSans-6e"/>
      <use x="1520.703125" xlink:href="#DejaVuSans-65"/>
     </g>
    </g>
    <g id="line2d_34">
     <path d="M 277.945938 14.653638 
L 297.945938 14.653638 
" style="fill:none;stroke:#ff7f0e;stroke-linecap:square;stroke-width:1.5;"/>
    </g>
    <g id="line2d_35"/>
    <g id="text_18">
     <!-- Initial FEM Contour -->
     <g transform="translate(305.945938 18.153638)scale(0.1 -0.1)">
      <defs>
       <path d="M 628 4666 
L 3309 4666 
L 3309 4134 
L 1259 4134 
L 1259 2759 
L 3109 2759 
L 3109 2228 
L 1259 2228 
L 1259 0 
L 628 0 
L 628 4666 
z
" id="DejaVuSans-46" transform="scale(0.015625)"/>
       <path d="M 628 4666 
L 1569 4666 
L 2759 1491 
L 3956 4666 
L 4897 4666 
L 4897 0 
L 4281 0 
L 4281 4097 
L 3078 897 
L 2444 897 
L 1241 4097 
L 1241 0 
L 628 0 
L 628 4666 
z
" id="DejaVuSans-4d" transform="scale(0.015625)"/>
      </defs>
      <use xlink:href="#DejaVuSans-49"/>
      <use x="29.492188" xlink:href="#DejaVuSans-6e"/>
      <use x="92.871094" xlink:href="#DejaVuSans-69"/>
      <use x="120.654297" xlink:href="#DejaVuSans-74"/>
      <use x="159.863281" xlink:href="#DejaVuSans-69"/>
      <use x="187.646484" xlink:href="#DejaVuSans-61"/>
      <use x="248.925781" xlink:href="#DejaVuSans-6c"/>
      <use x="276.708984" xlink:href="#DejaVuSans-20"/>
      <use x="308.496094" xlink:href="#DejaVuSans-46"/>
      <use x="366.015625" xlink:href="#DejaVuSans-45"/>
      <use x="429.199219" xlink:href="#DejaVuSans-4d"/>
      <use x="515.478516" xlink:href="#DejaVuSans-20"/>
      <use x="547.265625" xlink:href="#DejaVuSans-43"/>
      <use x="617.089844" xlink:href="#DejaVuSans-6f"/>
      <use x="678.271484" xlink:href="#DejaVuSans-6e"/>
      <use x="741.650391" xlink:href="#DejaVuSans-74"/>
      <use x="780.859375" xlink:href="#DejaVuSans-6f"/>
      <use x="842.041016" xlink:href="#DejaVuSans-75"/>
      <use x="905.419922" xlink:href="#DejaVuSans-72"/>
     </g>
    </g>
   </g>
  </g>
 </g>
 <defs>
  <clipPath id="p228cf6ba58">
   <rect height="266.112" width="357.12" x="57.6" y="41.472"/>
  </clipPath>
 </defs>
</svg>
