<?xml version="1.0" encoding="utf-8" standalone="no"?>
<!DOCTYPE svg PUBLIC "-//W3C//DTD SVG 1.1//EN"
  "http://www.w3.org/Graphics/SVG/1.1/DTD/svg11.dtd">
<svg height="345.6pt" version="1.1" viewBox="0 0 460.8 345.6" width="460.8pt" xmlns="http://www.w3.org/2000/svg" xmlns:xlink="http://www.w3.org/1999/xlink">
 <metadata>
  <rdf:RDF xmlns:cc="http://creativecommons.org/ns#" xmlns:dc="http://purl.org/dc/elements/1.1/" xmlns:rdf="http://www.w3.org/1999/02/22-rdf-syntax-ns#">
   <cc:Work>
    <dc:type rdf:resource="http://purl.org/dc/dcmitype/StillImage"/>
    <dc:date>2022-06-01T09:57:19.569078</dc:date>
    <dc:format>image/svg+xml</dc:format>
    <dc:creator>
     <cc:Agent>
      <dc:title>Matplotlib v3.4.1, https://matplotlib.org/</dc:title>
     </cc:Agent>
    </dc:creator>
   </cc:Work>
  </rdf:RDF>
 </metadata>
 <defs>
  <style type="text/css">*{stroke-linecap:butt;stroke-linejoin:round;}</style>
 </defs>
 <g id="figure_1">
  <g id="patch_1">
   <path d="M 0 345.6 
L 460.8 345.6 
L 460.8 0 
L 0 0 
z
" style="fill:#ffffff;"/>
  </g>
  <g id="axes_1">
   <g id="patch_2">
    <path d="M 57.6 307.584 
L 414.72 307.584 
L 414.72 41.472 
L 57.6 41.472 
z
" style="fill:#ffffff;"/>
   </g>
   <g id="matplotlib.axis_1">
    <g id="xtick_1">
     <g id="line2d_1">
      <path clip-path="url(#p5b18a0c808)" d="M 76.521668 307.584 
L 76.521668 41.472 
" style="fill:none;stroke:#b0b0b0;stroke-linecap:square;stroke-width:0.8;"/>
     </g>
     <g id="line2d_2">
      <defs>
       <path d="M 0 0 
L 0 3.5 
" id="m4c8f230065" style="stroke:#000000;stroke-width:0.8;"/>
      </defs>
      <g>
       <use style="stroke:#000000;stroke-width:0.8;" x="76.521668" xlink:href="#m4c8f230065" y="307.584"/>
      </g>
     </g>
     <g id="text_1">
      <!-- 0 -->
      <g transform="translate(73.340418 322.182437)scale(0.1 -0.1)">
       <defs>
        <path d="M 2034 4250 
Q 1547 4250 1301 3770 
Q 1056 3291 1056 2328 
Q 1056 1369 1301 889 
Q 1547 409 2034 409 
Q 2525 409 2770 889 
Q 3016 1369 3016 2328 
Q 3016 3291 2770 3770 
Q 2525 4250 2034 4250 
z
M 2034 4750 
Q 2819 4750 3233 4129 
Q 3647 3509 3647 2328 
Q 3647 1150 3233 529 
Q 2819 -91 2034 -91 
Q 1250 -91 836 529 
Q 422 1150 422 2328 
Q 422 3509 836 4129 
Q 1250 4750 2034 4750 
z
" id="DejaVuSans-30" transform="scale(0.015625)"/>
       </defs>
       <use xlink:href="#DejaVuSans-30"/>
      </g>
     </g>
    </g>
    <g id="xtick_2">
     <g id="line2d_3">
      <path clip-path="url(#p5b18a0c808)" d="M 139.022834 307.584 
L 139.022834 41.472 
" style="fill:none;stroke:#b0b0b0;stroke-linecap:square;stroke-width:0.8;"/>
     </g>
     <g id="line2d_4">
      <g>
       <use style="stroke:#000000;stroke-width:0.8;" x="139.022834" xlink:href="#m4c8f230065" y="307.584"/>
      </g>
     </g>
     <g id="text_2">
      <!-- 100 -->
      <g transform="translate(129.479084 322.182437)scale(0.1 -0.1)">
       <defs>
        <path d="M 794 531 
L 1825 531 
L 1825 4091 
L 703 3866 
L 703 4441 
L 1819 4666 
L 2450 4666 
L 2450 531 
L 3481 531 
L 3481 0 
L 794 0 
L 794 531 
z
" id="DejaVuSans-31" transform="scale(0.015625)"/>
       </defs>
       <use xlink:href="#DejaVuSans-31"/>
       <use x="63.623047" xlink:href="#DejaVuSans-30"/>
       <use x="127.246094" xlink:href="#DejaVuSans-30"/>
      </g>
     </g>
    </g>
    <g id="xtick_3">
     <g id="line2d_5">
      <path clip-path="url(#p5b18a0c808)" d="M 201.524 307.584 
L 201.524 41.472 
" style="fill:none;stroke:#b0b0b0;stroke-linecap:square;stroke-width:0.8;"/>
     </g>
     <g id="line2d_6">
      <g>
       <use style="stroke:#000000;stroke-width:0.8;" x="201.524" xlink:href="#m4c8f230065" y="307.584"/>
      </g>
     </g>
     <g id="text_3">
      <!-- 200 -->
      <g transform="translate(191.98025 322.182437)scale(0.1 -0.1)">
       <defs>
        <path d="M 1228 531 
L 3431 531 
L 3431 0 
L 469 0 
L 469 531 
Q 828 903 1448 1529 
Q 2069 2156 2228 2338 
Q 2531 2678 2651 2914 
Q 2772 3150 2772 3378 
Q 2772 3750 2511 3984 
Q 2250 4219 1831 4219 
Q 1534 4219 1204 4116 
Q 875 4013 500 3803 
L 500 4441 
Q 881 4594 1212 4672 
Q 1544 4750 1819 4750 
Q 2544 4750 2975 4387 
Q 3406 4025 3406 3419 
Q 3406 3131 3298 2873 
Q 3191 2616 2906 2266 
Q 2828 2175 2409 1742 
Q 1991 1309 1228 531 
z
" id="DejaVuSans-32" transform="scale(0.015625)"/>
       </defs>
       <use xlink:href="#DejaVuSans-32"/>
       <use x="63.623047" xlink:href="#DejaVuSans-30"/>
       <use x="127.246094" xlink:href="#DejaVuSans-30"/>
      </g>
     </g>
    </g>
    <g id="xtick_4">
     <g id="line2d_7">
      <path clip-path="url(#p5b18a0c808)" d="M 264.025165 307.584 
L 264.025165 41.472 
" style="fill:none;stroke:#b0b0b0;stroke-linecap:square;stroke-width:0.8;"/>
     </g>
     <g id="line2d_8">
      <g>
       <use style="stroke:#000000;stroke-width:0.8;" x="264.025165" xlink:href="#m4c8f230065" y="307.584"/>
      </g>
     </g>
     <g id="text_4">
      <!-- 300 -->
      <g transform="translate(254.481415 322.182437)scale(0.1 -0.1)">
       <defs>
        <path d="M 2597 2516 
Q 3050 2419 3304 2112 
Q 3559 1806 3559 1356 
Q 3559 666 3084 287 
Q 2609 -91 1734 -91 
Q 1441 -91 1130 -33 
Q 819 25 488 141 
L 488 750 
Q 750 597 1062 519 
Q 1375 441 1716 441 
Q 2309 441 2620 675 
Q 2931 909 2931 1356 
Q 2931 1769 2642 2001 
Q 2353 2234 1838 2234 
L 1294 2234 
L 1294 2753 
L 1863 2753 
Q 2328 2753 2575 2939 
Q 2822 3125 2822 3475 
Q 2822 3834 2567 4026 
Q 2313 4219 1838 4219 
Q 1578 4219 1281 4162 
Q 984 4106 628 3988 
L 628 4550 
Q 988 4650 1302 4700 
Q 1616 4750 1894 4750 
Q 2613 4750 3031 4423 
Q 3450 4097 3450 3541 
Q 3450 3153 3228 2886 
Q 3006 2619 2597 2516 
z
" id="DejaVuSans-33" transform="scale(0.015625)"/>
       </defs>
       <use xlink:href="#DejaVuSans-33"/>
       <use x="63.623047" xlink:href="#DejaVuSans-30"/>
       <use x="127.246094" xlink:href="#DejaVuSans-30"/>
      </g>
     </g>
    </g>
    <g id="xtick_5">
     <g id="line2d_9">
      <path clip-path="url(#p5b18a0c808)" d="M 326.526331 307.584 
L 326.526331 41.472 
" style="fill:none;stroke:#b0b0b0;stroke-linecap:square;stroke-width:0.8;"/>
     </g>
     <g id="line2d_10">
      <g>
       <use style="stroke:#000000;stroke-width:0.8;" x="326.526331" xlink:href="#m4c8f230065" y="307.584"/>
      </g>
     </g>
     <g id="text_5">
      <!-- 400 -->
      <g transform="translate(316.982581 322.182437)scale(0.1 -0.1)">
       <defs>
        <path d="M 2419 4116 
L 825 1625 
L 2419 1625 
L 2419 4116 
z
M 2253 4666 
L 3047 4666 
L 3047 1625 
L 3713 1625 
L 3713 1100 
L 3047 1100 
L 3047 0 
L 2419 0 
L 2419 1100 
L 313 1100 
L 313 1709 
L 2253 4666 
z
" id="DejaVuSans-34" transform="scale(0.015625)"/>
       </defs>
       <use xlink:href="#DejaVuSans-34"/>
       <use x="63.623047" xlink:href="#DejaVuSans-30"/>
       <use x="127.246094" xlink:href="#DejaVuSans-30"/>
      </g>
     </g>
    </g>
    <g id="xtick_6">
     <g id="line2d_11">
      <path clip-path="url(#p5b18a0c808)" d="M 389.027496 307.584 
L 389.027496 41.472 
" style="fill:none;stroke:#b0b0b0;stroke-linecap:square;stroke-width:0.8;"/>
     </g>
     <g id="line2d_12">
      <g>
       <use style="stroke:#000000;stroke-width:0.8;" x="389.027496" xlink:href="#m4c8f230065" y="307.584"/>
      </g>
     </g>
     <g id="text_6">
      <!-- 500 -->
      <g transform="translate(379.483746 322.182437)scale(0.1 -0.1)">
       <defs>
        <path d="M 691 4666 
L 3169 4666 
L 3169 4134 
L 1269 4134 
L 1269 2991 
Q 1406 3038 1543 3061 
Q 1681 3084 1819 3084 
Q 2600 3084 3056 2656 
Q 3513 2228 3513 1497 
Q 3513 744 3044 326 
Q 2575 -91 1722 -91 
Q 1428 -91 1123 -41 
Q 819 9 494 109 
L 494 744 
Q 775 591 1075 516 
Q 1375 441 1709 441 
Q 2250 441 2565 725 
Q 2881 1009 2881 1497 
Q 2881 1984 2565 2268 
Q 2250 2553 1709 2553 
Q 1456 2553 1204 2497 
Q 953 2441 691 2322 
L 691 4666 
z
" id="DejaVuSans-35" transform="scale(0.015625)"/>
       </defs>
       <use xlink:href="#DejaVuSans-35"/>
       <use x="63.623047" xlink:href="#DejaVuSans-30"/>
       <use x="127.246094" xlink:href="#DejaVuSans-30"/>
      </g>
     </g>
    </g>
    <g id="text_7">
     <!-- Position in X direction [mm] -->
     <g transform="translate(166.805313 335.860562)scale(0.1 -0.1)">
      <defs>
       <path d="M 1259 4147 
L 1259 2394 
L 2053 2394 
Q 2494 2394 2734 2622 
Q 2975 2850 2975 3272 
Q 2975 3691 2734 3919 
Q 2494 4147 2053 4147 
L 1259 4147 
z
M 628 4666 
L 2053 4666 
Q 2838 4666 3239 4311 
Q 3641 3956 3641 3272 
Q 3641 2581 3239 2228 
Q 2838 1875 2053 1875 
L 1259 1875 
L 1259 0 
L 628 0 
L 628 4666 
z
" id="DejaVuSans-50" transform="scale(0.015625)"/>
       <path d="M 1959 3097 
Q 1497 3097 1228 2736 
Q 959 2375 959 1747 
Q 959 1119 1226 758 
Q 1494 397 1959 397 
Q 2419 397 2687 759 
Q 2956 1122 2956 1747 
Q 2956 2369 2687 2733 
Q 2419 3097 1959 3097 
z
M 1959 3584 
Q 2709 3584 3137 3096 
Q 3566 2609 3566 1747 
Q 3566 888 3137 398 
Q 2709 -91 1959 -91 
Q 1206 -91 779 398 
Q 353 888 353 1747 
Q 353 2609 779 3096 
Q 1206 3584 1959 3584 
z
" id="DejaVuSans-6f" transform="scale(0.015625)"/>
       <path d="M 2834 3397 
L 2834 2853 
Q 2591 2978 2328 3040 
Q 2066 3103 1784 3103 
Q 1356 3103 1142 2972 
Q 928 2841 928 2578 
Q 928 2378 1081 2264 
Q 1234 2150 1697 2047 
L 1894 2003 
Q 2506 1872 2764 1633 
Q 3022 1394 3022 966 
Q 3022 478 2636 193 
Q 2250 -91 1575 -91 
Q 1294 -91 989 -36 
Q 684 19 347 128 
L 347 722 
Q 666 556 975 473 
Q 1284 391 1588 391 
Q 1994 391 2212 530 
Q 2431 669 2431 922 
Q 2431 1156 2273 1281 
Q 2116 1406 1581 1522 
L 1381 1569 
Q 847 1681 609 1914 
Q 372 2147 372 2553 
Q 372 3047 722 3315 
Q 1072 3584 1716 3584 
Q 2034 3584 2315 3537 
Q 2597 3491 2834 3397 
z
" id="DejaVuSans-73" transform="scale(0.015625)"/>
       <path d="M 603 3500 
L 1178 3500 
L 1178 0 
L 603 0 
L 603 3500 
z
M 603 4863 
L 1178 4863 
L 1178 4134 
L 603 4134 
L 603 4863 
z
" id="DejaVuSans-69" transform="scale(0.015625)"/>
       <path d="M 1172 4494 
L 1172 3500 
L 2356 3500 
L 2356 3053 
L 1172 3053 
L 1172 1153 
Q 1172 725 1289 603 
Q 1406 481 1766 481 
L 2356 481 
L 2356 0 
L 1766 0 
Q 1100 0 847 248 
Q 594 497 594 1153 
L 594 3053 
L 172 3053 
L 172 3500 
L 594 3500 
L 594 4494 
L 1172 4494 
z
" id="DejaVuSans-74" transform="scale(0.015625)"/>
       <path d="M 3513 2113 
L 3513 0 
L 2938 0 
L 2938 2094 
Q 2938 2591 2744 2837 
Q 2550 3084 2163 3084 
Q 1697 3084 1428 2787 
Q 1159 2491 1159 1978 
L 1159 0 
L 581 0 
L 581 3500 
L 1159 3500 
L 1159 2956 
Q 1366 3272 1645 3428 
Q 1925 3584 2291 3584 
Q 2894 3584 3203 3211 
Q 3513 2838 3513 2113 
z
" id="DejaVuSans-6e" transform="scale(0.015625)"/>
       <path id="DejaVuSans-20" transform="scale(0.015625)"/>
       <path d="M 403 4666 
L 1081 4666 
L 2241 2931 
L 3406 4666 
L 4084 4666 
L 2584 2425 
L 4184 0 
L 3506 0 
L 2194 1984 
L 872 0 
L 191 0 
L 1856 2491 
L 403 4666 
z
" id="DejaVuSans-58" transform="scale(0.015625)"/>
       <path d="M 2906 2969 
L 2906 4863 
L 3481 4863 
L 3481 0 
L 2906 0 
L 2906 525 
Q 2725 213 2448 61 
Q 2172 -91 1784 -91 
Q 1150 -91 751 415 
Q 353 922 353 1747 
Q 353 2572 751 3078 
Q 1150 3584 1784 3584 
Q 2172 3584 2448 3432 
Q 2725 3281 2906 2969 
z
M 947 1747 
Q 947 1113 1208 752 
Q 1469 391 1925 391 
Q 2381 391 2643 752 
Q 2906 1113 2906 1747 
Q 2906 2381 2643 2742 
Q 2381 3103 1925 3103 
Q 1469 3103 1208 2742 
Q 947 2381 947 1747 
z
" id="DejaVuSans-64" transform="scale(0.015625)"/>
       <path d="M 2631 2963 
Q 2534 3019 2420 3045 
Q 2306 3072 2169 3072 
Q 1681 3072 1420 2755 
Q 1159 2438 1159 1844 
L 1159 0 
L 581 0 
L 581 3500 
L 1159 3500 
L 1159 2956 
Q 1341 3275 1631 3429 
Q 1922 3584 2338 3584 
Q 2397 3584 2469 3576 
Q 2541 3569 2628 3553 
L 2631 2963 
z
" id="DejaVuSans-72" transform="scale(0.015625)"/>
       <path d="M 3597 1894 
L 3597 1613 
L 953 1613 
Q 991 1019 1311 708 
Q 1631 397 2203 397 
Q 2534 397 2845 478 
Q 3156 559 3463 722 
L 3463 178 
Q 3153 47 2828 -22 
Q 2503 -91 2169 -91 
Q 1331 -91 842 396 
Q 353 884 353 1716 
Q 353 2575 817 3079 
Q 1281 3584 2069 3584 
Q 2775 3584 3186 3129 
Q 3597 2675 3597 1894 
z
M 3022 2063 
Q 3016 2534 2758 2815 
Q 2500 3097 2075 3097 
Q 1594 3097 1305 2825 
Q 1016 2553 972 2059 
L 3022 2063 
z
" id="DejaVuSans-65" transform="scale(0.015625)"/>
       <path d="M 3122 3366 
L 3122 2828 
Q 2878 2963 2633 3030 
Q 2388 3097 2138 3097 
Q 1578 3097 1268 2742 
Q 959 2388 959 1747 
Q 959 1106 1268 751 
Q 1578 397 2138 397 
Q 2388 397 2633 464 
Q 2878 531 3122 666 
L 3122 134 
Q 2881 22 2623 -34 
Q 2366 -91 2075 -91 
Q 1284 -91 818 406 
Q 353 903 353 1747 
Q 353 2603 823 3093 
Q 1294 3584 2113 3584 
Q 2378 3584 2631 3529 
Q 2884 3475 3122 3366 
z
" id="DejaVuSans-63" transform="scale(0.015625)"/>
       <path d="M 550 4863 
L 1875 4863 
L 1875 4416 
L 1125 4416 
L 1125 -397 
L 1875 -397 
L 1875 -844 
L 550 -844 
L 550 4863 
z
" id="DejaVuSans-5b" transform="scale(0.015625)"/>
       <path d="M 3328 2828 
Q 3544 3216 3844 3400 
Q 4144 3584 4550 3584 
Q 5097 3584 5394 3201 
Q 5691 2819 5691 2113 
L 5691 0 
L 5113 0 
L 5113 2094 
Q 5113 2597 4934 2840 
Q 4756 3084 4391 3084 
Q 3944 3084 3684 2787 
Q 3425 2491 3425 1978 
L 3425 0 
L 2847 0 
L 2847 2094 
Q 2847 2600 2669 2842 
Q 2491 3084 2119 3084 
Q 1678 3084 1418 2786 
Q 1159 2488 1159 1978 
L 1159 0 
L 581 0 
L 581 3500 
L 1159 3500 
L 1159 2956 
Q 1356 3278 1631 3431 
Q 1906 3584 2284 3584 
Q 2666 3584 2933 3390 
Q 3200 3197 3328 2828 
z
" id="DejaVuSans-6d" transform="scale(0.015625)"/>
       <path d="M 1947 4863 
L 1947 -844 
L 622 -844 
L 622 -397 
L 1369 -397 
L 1369 4416 
L 622 4416 
L 622 4863 
L 1947 4863 
z
" id="DejaVuSans-5d" transform="scale(0.015625)"/>
      </defs>
      <use xlink:href="#DejaVuSans-50"/>
      <use x="56.677734" xlink:href="#DejaVuSans-6f"/>
      <use x="117.859375" xlink:href="#DejaVuSans-73"/>
      <use x="169.958984" xlink:href="#DejaVuSans-69"/>
      <use x="197.742188" xlink:href="#DejaVuSans-74"/>
      <use x="236.951172" xlink:href="#DejaVuSans-69"/>
      <use x="264.734375" xlink:href="#DejaVuSans-6f"/>
      <use x="325.916016" xlink:href="#DejaVuSans-6e"/>
      <use x="389.294922" xlink:href="#DejaVuSans-20"/>
      <use x="421.082031" xlink:href="#DejaVuSans-69"/>
      <use x="448.865234" xlink:href="#DejaVuSans-6e"/>
      <use x="512.244141" xlink:href="#DejaVuSans-20"/>
      <use x="544.03125" xlink:href="#DejaVuSans-58"/>
      <use x="612.537109" xlink:href="#DejaVuSans-20"/>
      <use x="644.324219" xlink:href="#DejaVuSans-64"/>
      <use x="707.800781" xlink:href="#DejaVuSans-69"/>
      <use x="735.583984" xlink:href="#DejaVuSans-72"/>
      <use x="774.447266" xlink:href="#DejaVuSans-65"/>
      <use x="835.970703" xlink:href="#DejaVuSans-63"/>
      <use x="890.951172" xlink:href="#DejaVuSans-74"/>
      <use x="930.160156" xlink:href="#DejaVuSans-69"/>
      <use x="957.943359" xlink:href="#DejaVuSans-6f"/>
      <use x="1019.125" xlink:href="#DejaVuSans-6e"/>
      <use x="1082.503906" xlink:href="#DejaVuSans-20"/>
      <use x="1114.291016" xlink:href="#DejaVuSans-5b"/>
      <use x="1153.304688" xlink:href="#DejaVuSans-6d"/>
      <use x="1250.716797" xlink:href="#DejaVuSans-6d"/>
      <use x="1348.128906" xlink:href="#DejaVuSans-5d"/>
     </g>
    </g>
   </g>
   <g id="matplotlib.axis_2">
    <g id="ytick_1">
     <g id="line2d_13">
      <path clip-path="url(#p5b18a0c808)" d="M 57.6 295.628126 
L 414.72 295.628126 
" style="fill:none;stroke:#b0b0b0;stroke-linecap:square;stroke-width:0.8;"/>
     </g>
     <g id="line2d_14">
      <defs>
       <path d="M 0 0 
L -3.5 0 
" id="m26be02529f" style="stroke:#000000;stroke-width:0.8;"/>
      </defs>
      <g>
       <use style="stroke:#000000;stroke-width:0.8;" x="57.6" xlink:href="#m26be02529f" y="295.628126"/>
      </g>
     </g>
     <g id="text_8">
      <!-- −150 -->
      <g transform="translate(23.132812 299.427344)scale(0.1 -0.1)">
       <defs>
        <path d="M 678 2272 
L 4684 2272 
L 4684 1741 
L 678 1741 
L 678 2272 
z
" id="DejaVuSans-2212" transform="scale(0.015625)"/>
       </defs>
       <use xlink:href="#DejaVuSans-2212"/>
       <use x="83.789062" xlink:href="#DejaVuSans-31"/>
       <use x="147.412109" xlink:href="#DejaVuSans-35"/>
       <use x="211.035156" xlink:href="#DejaVuSans-30"/>
      </g>
     </g>
    </g>
    <g id="ytick_2">
     <g id="line2d_15">
      <path clip-path="url(#p5b18a0c808)" d="M 57.6 255.354041 
L 414.72 255.354041 
" style="fill:none;stroke:#b0b0b0;stroke-linecap:square;stroke-width:0.8;"/>
     </g>
     <g id="line2d_16">
      <g>
       <use style="stroke:#000000;stroke-width:0.8;" x="57.6" xlink:href="#m26be02529f" y="255.354041"/>
      </g>
     </g>
     <g id="text_9">
      <!-- −100 -->
      <g transform="translate(23.132812 259.15326)scale(0.1 -0.1)">
       <use xlink:href="#DejaVuSans-2212"/>
       <use x="83.789062" xlink:href="#DejaVuSans-31"/>
       <use x="147.412109" xlink:href="#DejaVuSans-30"/>
       <use x="211.035156" xlink:href="#DejaVuSans-30"/>
      </g>
     </g>
    </g>
    <g id="ytick_3">
     <g id="line2d_17">
      <path clip-path="url(#p5b18a0c808)" d="M 57.6 215.079957 
L 414.72 215.079957 
" style="fill:none;stroke:#b0b0b0;stroke-linecap:square;stroke-width:0.8;"/>
     </g>
     <g id="line2d_18">
      <g>
       <use style="stroke:#000000;stroke-width:0.8;" x="57.6" xlink:href="#m26be02529f" y="215.079957"/>
      </g>
     </g>
     <g id="text_10">
      <!-- −50 -->
      <g transform="translate(29.495313 218.879176)scale(0.1 -0.1)">
       <use xlink:href="#DejaVuSans-2212"/>
       <use x="83.789062" xlink:href="#DejaVuSans-35"/>
       <use x="147.412109" xlink:href="#DejaVuSans-30"/>
      </g>
     </g>
    </g>
    <g id="ytick_4">
     <g id="line2d_19">
      <path clip-path="url(#p5b18a0c808)" d="M 57.6 174.805873 
L 414.72 174.805873 
" style="fill:none;stroke:#b0b0b0;stroke-linecap:square;stroke-width:0.8;"/>
     </g>
     <g id="line2d_20">
      <g>
       <use style="stroke:#000000;stroke-width:0.8;" x="57.6" xlink:href="#m26be02529f" y="174.805873"/>
      </g>
     </g>
     <g id="text_11">
      <!-- 0 -->
      <g transform="translate(44.2375 178.605092)scale(0.1 -0.1)">
       <use xlink:href="#DejaVuSans-30"/>
      </g>
     </g>
    </g>
    <g id="ytick_5">
     <g id="line2d_21">
      <path clip-path="url(#p5b18a0c808)" d="M 57.6 134.531789 
L 414.72 134.531789 
" style="fill:none;stroke:#b0b0b0;stroke-linecap:square;stroke-width:0.8;"/>
     </g>
     <g id="line2d_22">
      <g>
       <use style="stroke:#000000;stroke-width:0.8;" x="57.6" xlink:href="#m26be02529f" y="134.531789"/>
      </g>
     </g>
     <g id="text_12">
      <!-- 50 -->
      <g transform="translate(37.875 138.331008)scale(0.1 -0.1)">
       <use xlink:href="#DejaVuSans-35"/>
       <use x="63.623047" xlink:href="#DejaVuSans-30"/>
      </g>
     </g>
    </g>
    <g id="ytick_6">
     <g id="line2d_23">
      <path clip-path="url(#p5b18a0c808)" d="M 57.6 94.257705 
L 414.72 94.257705 
" style="fill:none;stroke:#b0b0b0;stroke-linecap:square;stroke-width:0.8;"/>
     </g>
     <g id="line2d_24">
      <g>
       <use style="stroke:#000000;stroke-width:0.8;" x="57.6" xlink:href="#m26be02529f" y="94.257705"/>
      </g>
     </g>
     <g id="text_13">
      <!-- 100 -->
      <g transform="translate(31.5125 98.056924)scale(0.1 -0.1)">
       <use xlink:href="#DejaVuSans-31"/>
       <use x="63.623047" xlink:href="#DejaVuSans-30"/>
       <use x="127.246094" xlink:href="#DejaVuSans-30"/>
      </g>
     </g>
    </g>
    <g id="ytick_7">
     <g id="line2d_25">
      <path clip-path="url(#p5b18a0c808)" d="M 57.6 53.983621 
L 414.72 53.983621 
" style="fill:none;stroke:#b0b0b0;stroke-linecap:square;stroke-width:0.8;"/>
     </g>
     <g id="line2d_26">
      <g>
       <use style="stroke:#000000;stroke-width:0.8;" x="57.6" xlink:href="#m26be02529f" y="53.983621"/>
      </g>
     </g>
     <g id="text_14">
      <!-- 150 -->
      <g transform="translate(31.5125 57.782839)scale(0.1 -0.1)">
       <use xlink:href="#DejaVuSans-31"/>
       <use x="63.623047" xlink:href="#DejaVuSans-35"/>
       <use x="127.246094" xlink:href="#DejaVuSans-30"/>
      </g>
     </g>
    </g>
    <g id="text_15">
     <!-- Position in Y direction [mm] -->
     <g transform="translate(17.053125 243.511594)rotate(-90)scale(0.1 -0.1)">
      <defs>
       <path d="M -13 4666 
L 666 4666 
L 1959 2747 
L 3244 4666 
L 3922 4666 
L 2272 2222 
L 2272 0 
L 1638 0 
L 1638 2222 
L -13 4666 
z
" id="DejaVuSans-59" transform="scale(0.015625)"/>
      </defs>
      <use xlink:href="#DejaVuSans-50"/>
      <use x="56.677734" xlink:href="#DejaVuSans-6f"/>
      <use x="117.859375" xlink:href="#DejaVuSans-73"/>
      <use x="169.958984" xlink:href="#DejaVuSans-69"/>
      <use x="197.742188" xlink:href="#DejaVuSans-74"/>
      <use x="236.951172" xlink:href="#DejaVuSans-69"/>
      <use x="264.734375" xlink:href="#DejaVuSans-6f"/>
      <use x="325.916016" xlink:href="#DejaVuSans-6e"/>
      <use x="389.294922" xlink:href="#DejaVuSans-20"/>
      <use x="421.082031" xlink:href="#DejaVuSans-69"/>
      <use x="448.865234" xlink:href="#DejaVuSans-6e"/>
      <use x="512.244141" xlink:href="#DejaVuSans-20"/>
      <use x="544.03125" xlink:href="#DejaVuSans-59"/>
      <use x="605.115234" xlink:href="#DejaVuSans-20"/>
      <use x="636.902344" xlink:href="#DejaVuSans-64"/>
      <use x="700.378906" xlink:href="#DejaVuSans-69"/>
      <use x="728.162109" xlink:href="#DejaVuSans-72"/>
      <use x="767.025391" xlink:href="#DejaVuSans-65"/>
      <use x="828.548828" xlink:href="#DejaVuSans-63"/>
      <use x="883.529297" xlink:href="#DejaVuSans-74"/>
      <use x="922.738281" xlink:href="#DejaVuSans-69"/>
      <use x="950.521484" xlink:href="#DejaVuSans-6f"/>
      <use x="1011.703125" xlink:href="#DejaVuSans-6e"/>
      <use x="1075.082031" xlink:href="#DejaVuSans-20"/>
      <use x="1106.869141" xlink:href="#DejaVuSans-5b"/>
      <use x="1145.882812" xlink:href="#DejaVuSans-6d"/>
      <use x="1243.294922" xlink:href="#DejaVuSans-6d"/>
      <use x="1340.707031" xlink:href="#DejaVuSans-5d"/>
     </g>
    </g>
   </g>
   <g id="line2d_27">
    <path clip-path="url(#p5b18a0c808)" d="M 73.832727 53.568 
L 78.603194 54.842454 
L 78.918772 56.035534 
L 81.192714 55.061542 
L 81.310495 56.195826 
L 83.857223 55.28118 
L 84.011679 56.232066 
L 86.554894 55.418879 
L 86.669769 56.307783 
L 88.429663 55.619067 
L 89.447123 56.538343 
L 91.750941 55.653866 
L 92.080841 56.743887 
L 94.768616 57.147103 
L 97.454417 57.269317 
L 108.126884 58.780062 
L 108.822913 59.344677 
L 110.220484 59.002531 
L 111.135093 59.520713 
L 112.596683 59.133773 
L 113.760205 59.883933 
L 127.08183 62.138215 
L 127.820686 62.881887 
L 129.785796 62.329675 
L 130.028837 63.057166 
L 132.259725 62.486083 
L 132.670788 63.290886 
L 135.281023 63.644258 
L 140.607657 64.78134 
L 143.396384 65.36204 
L 145.936652 65.724533 
L 146.513445 66.371979 
L 148.671697 65.897515 
L 148.933799 66.598405 
L 150.462846 66.035588 
L 151.541779 66.881403 
L 156.86176 67.859939 
L 162.244831 68.898448 
L 163.30692 69.71269 
L 164.873682 69.156719 
L 165.255678 69.939254 
L 167.348686 69.429878 
L 167.78702 70.183027 
L 169.193411 69.573493 
L 170.420525 70.518229 
L 181.067812 72.51622 
L 181.696742 73.295337 
L 183.689899 72.778608 
L 184.039293 73.504991 
L 185.685559 73.021278 
L 186.634746 73.795578 
L 191.918327 74.71019 
L 197.3333 75.85009 
L 198.409853 76.672503 
L 199.948422 76.185796 
L 200.339179 76.885122 
L 202.051066 76.419419 
L 202.871682 77.164986 
L 208.177542 78.22486 
L 210.845686 78.954941 
L 213.564472 79.515792 
L 214.77322 80.15241 
L 215.860633 79.86694 
L 216.574936 80.30371 
L 218.988465 80.726595 
L 229.64101 83.126046 
L 230.599719 83.673257 
L 231.929471 83.312798 
L 232.606822 83.94063 
L 243.216142 86.400776 
L 244.049066 87.160942 
L 245.644163 86.826238 
L 246.172604 87.399819 
L 247.391945 86.973027 
L 248.757883 87.876184 
L 251.389947 88.510098 
L 254.133508 89.483973 
L 256.636906 89.893522 
L 257.475788 90.708127 
L 258.871003 90.240717 
L 259.662009 91.067397 
L 262.182013 91.656427 
L 267.536749 93.185455 
L 268.40461 94.236542 
L 269.95179 93.665584 
L 270.522078 94.553037 
L 272.97434 95.149746 
L 278.032791 96.745489 
L 278.464436 97.647183 
L 280.58796 97.220752 
L 281.609064 98.257868 
L 283.781986 98.992827 
L 286.353251 100.008348 
L 287.470044 101.110148 
L 288.552201 100.628465 
L 289.436258 101.546103 
L 294.492318 103.511828 
L 295.649823 104.99359 
L 296.538015 104.114415 
L 297.37263 105.661844 
L 302.334001 107.31025 
L 303.14578 108.278244 
L 304.18309 107.796789 
L 305.551653 109.197851 
L 308.063825 110.34134 
L 309.159606 111.593367 
L 310.108157 111.048016 
L 311.016976 112.188607 
L 313.471589 113.463733 
L 314.70857 114.986276 
L 315.575189 114.396005 
L 316.454324 115.509019 
L 318.987717 116.797659 
L 320.037015 118.558981 
L 320.993615 117.869031 
L 321.850725 119.135267 
L 324.215121 120.507385 
L 325.311746 122.158252 
L 326.227415 121.448668 
L 327.19417 122.862546 
L 329.482191 124.342133 
L 330.348171 125.818339 
L 331.358961 125.030318 
L 332.437018 126.82439 
L 334.543724 128.091111 
L 335.533402 129.548526 
L 337.694076 130.927644 
L 338.805906 132.588992 
L 339.564146 131.895723 
L 340.614784 133.514196 
L 342.77023 134.938759 
L 343.733464 136.426852 
L 345.529485 137.428195 
L 346.220203 139.310824 
L 347.953886 138.7933 
L 349.151605 139.843189 
L 351.318834 141.586098 
L 352.538731 142.860329 
L 352.781751 142.616736 
L 354.2385 144.461086 
L 355.154092 146.449605 
L 356.061128 145.641855 
L 357.055144 146.831641 
L 359.062809 148.202829 
L 359.817849 150.339908 
L 361.370095 149.232332 
L 362.206392 150.891624 
L 364.530304 153.628155 
L 364.646542 151.714882 
L 366.542264 152.787554 
L 367.878916 154.020727 
L 368.548614 157.634115 
L 369.882222 155.71081 
L 370.63202 157.771801 
L 372.681745 158.948703 
L 373.646494 160.595824 
L 374.512567 159.888673 
L 376.738753 163.902165 
L 377.522049 163.050927 
L 378.503833 164.750295 
L 380.357522 166.271558 
L 381.553312 168.30327 
L 383.221732 169.578401 
L 384.036268 171.642441 
L 385.880528 172.845751 
L 387.070453 175.17318 
L 388.498156 176.499428 
L 390.395894 181.139303 
L 390.856908 180.005363 
L 391.558644 182.843748 
L 392.586452 185.811078 
L 393.715371 186.317405 
L 394.799947 193.224965 
L 394.835731 196.676872 
L 394.130397 203.535045 
L 393.204128 208.978557 
L 393.096119 205.220258 
L 392.725132 207.567142 
L 390.995944 213.149806 
L 389.709514 214.617931 
L 388.567854 216.874515 
L 387.055808 218.380065 
L 385.886517 220.415851 
L 384.298562 221.852305 
L 383.170335 223.605238 
L 381.302453 225.1967 
L 380.18229 226.743481 
L 379.513984 226.134498 
L 378.287899 227.870322 
L 376.301796 229.200991 
L 375.224738 230.528189 
L 373.035428 232.053409 
L 371.949704 233.509078 
L 371.23902 232.958278 
L 370.104336 234.483616 
L 367.780062 235.892764 
L 366.785121 237.126499 
L 366.012856 236.574218 
L 364.769834 238.109875 
L 362.452259 239.46784 
L 361.456369 240.604246 
L 360.657409 240.042525 
L 359.399985 241.67043 
L 357.120447 243.013764 
L 356.093948 244.145325 
L 351.637636 246.589127 
L 350.815175 247.708327 
L 349.892509 247.048737 
L 348.589073 248.829546 
L 346.42947 250.007624 
L 345.526736 251.22858 
L 343.212538 252.478342 
L 341.024013 253.465969 
L 340.082057 254.616469 
L 335.402864 256.921838 
L 334.48253 258.031858 
L 333.637151 257.488457 
L 332.357619 258.951167 
L 329.848881 260.188217 
L 328.97018 261.335336 
L 327.832266 260.742557 
L 326.83683 261.982359 
L 324.309304 263.17223 
L 323.052267 264.587467 
L 322.011886 264.028635 
L 321.283708 265.009665 
L 318.8712 265.835913 
L 316.247698 266.937256 
L 315.067314 268.107144 
L 313.873395 267.603386 
L 313.243411 268.506053 
L 310.788614 269.17995 
L 308.054964 270.162748 
L 305.533252 270.835694 
L 304.981696 271.828514 
L 303.365693 271.189347 
L 302.708931 272.2523 
L 301.126435 271.408084 
L 300.210548 272.907266 
L 297.297914 273.806184 
L 294.634272 274.469521 
L 293.776235 275.142384 
L 292.291437 274.681908 
L 291.715969 275.397449 
L 290.163519 274.76868 
L 289.184469 275.779617 
L 281.082713 277.442652 
L 278.567903 277.836359 
L 278.041229 278.598904 
L 275.974928 278.200486 
L 275.565616 278.790013 
L 274.286192 278.367898 
L 272.969477 279.081279 
L 267.580796 279.830724 
L 262.170787 280.463136 
L 256.765103 280.995771 
L 254.110106 281.228523 
L 253.494455 281.987001 
L 251.413362 281.327962 
L 251.266482 282.055118 
L 248.749496 281.447719 
L 248.595474 282.156025 
L 246.075897 281.549068 
L 245.920788 282.243794 
L 243.479373 281.624806 
L 243.228628 282.374701 
L 240.758391 281.736447 
L 240.543851 282.480074 
L 238.099896 281.81406 
L 237.826223 282.574123 
L 236.483034 281.847804 
L 235.179463 282.711327 
L 229.762427 283.008123 
L 227.055823 283.228984 
L 208.199867 284.035774 
L 197.42771 284.661898 
L 196.85203 285.466907 
L 194.682645 284.72472 
L 194.470293 285.516875 
L 191.989977 284.764794 
L 191.892727 285.576917 
L 189.29115 284.83533 
L 189.277479 285.615142 
L 186.599624 284.909322 
L 186.516665 285.659986 
L 183.912096 284.996755 
L 183.85118 285.685837 
L 181.247741 285.048196 
L 181.143216 285.746422 
L 178.521367 285.109364 
L 178.430531 285.848184 
L 175.988308 285.194748 
L 175.716822 285.941897 
L 173.124532 285.246294 
L 173.0273 286.097188 
L 170.759542 285.327711 
L 170.359164 286.207528 
L 167.662815 286.24206 
L 154.245722 287.006516 
L 151.472028 287.023529 
L 138.075604 287.97047 
L 135.260205 288.282403 
L 132.648793 288.359769 
L 132.117124 289.022055 
L 129.982651 288.524735 
L 129.788119 289.132409 
L 127.335247 288.635771 
L 127.091876 289.196875 
L 125.125729 288.784418 
L 124.41388 289.360333 
L 121.719523 289.515264 
L 116.390562 290.248785 
L 105.619639 291.758433 
L 104.279988 292.426721 
L 103.027083 292.023657 
L 102.696884 292.567906 
L 100.373322 292.195603 
L 100.132651 292.656462 
L 97.300324 292.901371 
L 96.827365 292.052631 
L 94.874984 292.089321 
L 94.794963 292.984749 
L 93.107054 292.256592 
L 92.009377 293.225961 
L 89.617472 294.075373 
L 86.638064 294.69736 
L 83.925907 294.868639 
L 81.263952 294.764384 
L 77.169723 294.932254 
L 77.169723 294.932254 
" style="fill:none;stroke:#1f77b4;stroke-linecap:square;stroke-width:1.5;"/>
   </g>
   <g id="line2d_28">
    <path clip-path="url(#p5b18a0c808)" d="M 76.521668 174.805873 
L 78.033795 175.780247 
L 79.545921 175.919443 
L 81.058047 176.197836 
L 84.0823 175.919443 
L 85.594426 175.641051 
L 87.106553 175.919443 
L 88.618679 175.919443 
L 91.642932 175.641051 
L 93.155058 175.780247 
L 94.667184 175.780247 
L 96.179311 175.362658 
L 97.691437 175.362658 
L 99.203564 175.501854 
L 100.71569 175.501854 
L 102.227816 175.641051 
L 103.739943 175.501854 
L 106.764195 175.501854 
L 108.276322 175.641051 
L 109.788448 175.501854 
L 111.300574 175.641051 
L 112.812701 175.641051 
L 114.324827 175.780247 
L 117.34908 175.780247 
L 118.861206 175.919443 
L 120.373332 175.919443 
L 123.397585 175.641051 
L 126.421838 176.197836 
L 127.933964 176.197836 
L 129.44609 176.337032 
L 132.470343 176.337032 
L 133.982469 176.476228 
L 135.494596 176.476228 
L 141.543101 177.033013 
L 143.055227 177.033013 
L 144.567354 177.311406 
L 146.07948 177.17221 
L 149.103733 177.450602 
L 150.615859 177.450602 
L 153.640112 178.007387 
L 155.152238 178.146584 
L 156.664365 178.146584 
L 158.176491 178.28578 
L 159.688617 178.28578 
L 164.224996 178.703369 
L 165.737123 178.703369 
L 170.273502 179.120958 
L 171.785628 179.120958 
L 173.297754 179.260154 
L 174.809881 179.260154 
L 176.322007 179.39935 
L 177.834133 179.39935 
L 185.394765 180.095331 
L 186.906891 180.095331 
L 188.419018 180.373724 
L 189.931144 180.373724 
L 197.491776 181.069705 
L 199.003902 181.069705 
L 202.028155 181.348098 
L 203.540281 181.348098 
L 205.052408 181.487294 
L 206.564534 181.487294 
L 208.07666 181.765687 
L 209.588787 181.765687 
L 211.100913 182.044079 
L 212.613039 182.044079 
L 217.149418 182.461668 
L 218.661545 182.740061 
L 227.734303 183.575238 
L 229.246429 183.575238 
L 235.294934 184.132023 
L 236.807061 184.410416 
L 242.855566 184.967201 
L 244.367692 184.967201 
L 247.391945 185.245593 
L 248.904072 185.523986 
L 265.537461 187.055145 
L 267.049588 187.333537 
L 268.561714 187.333537 
L 276.122346 188.029519 
L 277.634472 187.751126 
L 279.146598 187.751126 
L 280.658725 188.307911 
L 282.170851 188.447108 
L 283.682977 188.7255 
L 285.195104 188.307911 
L 286.70723 188.447108 
L 288.219356 189.143089 
L 294.267862 189.699874 
L 295.779988 190.256659 
L 297.292115 190.535052 
L 298.804241 190.256659 
L 300.316367 190.535052 
L 301.828494 190.256659 
L 303.34062 190.256659 
L 304.852746 190.813444 
L 313.925504 191.648622 
L 315.437631 191.927014 
L 321.486136 192.483799 
L 324.510389 193.040584 
L 326.022515 192.901388 
L 327.534641 193.318977 
L 332.07102 193.736566 
L 333.583147 193.736566 
L 335.095273 194.014958 
L 338.119526 194.293351 
L 339.631652 194.571743 
L 341.143778 194.154155 
L 344.168031 194.432547 
L 345.680157 194.432547 
L 347.192284 194.71094 
L 348.70441 194.71094 
L 350.216537 194.850136 
L 351.728663 194.850136 
L 353.240789 195.128528 
L 354.752916 195.546117 
L 356.265042 195.546117 
L 357.777168 195.267725 
L 359.289295 195.546117 
L 360.801421 195.267725 
L 365.3378 195.267725 
L 366.849926 195.546117 
L 368.362053 195.685314 
L 369.874179 196.520491 
L 371.386305 195.82451 
L 372.898432 196.659687 
L 374.410558 196.659687 
L 375.922684 196.102902 
L 377.434811 196.93808 
L 378.946937 197.216473 
L 380.459063 197.773258 
L 381.97119 197.912454 
L 383.483316 197.773258 
L 384.995442 197.912454 
L 386.507569 197.912454 
L 388.019695 198.330043 
L 389.531821 197.216473 
L 391.043948 196.93808 
L 392.556074 197.077276 
L 392.556074 197.077276 
" style="fill:none;stroke:#000000;stroke-linecap:square;stroke-width:1.5;"/>
   </g>
   <g id="line2d_29">
    <path clip-path="url(#p5b18a0c808)" d="M 76.525187 54.123746 
L 116.119526 60.929656 
L 164.231229 70.512479 
L 193.760786 77.031227 
L 204.83013 79.504176 
L 242.861095 88.715584 
L 267.269776 95.477796 
L 273.32892 97.407811 
L 281.767565 100.330912 
L 290.189834 103.331234 
L 296.165108 105.654187 
L 302.066425 108.272397 
L 316.152506 114.833706 
L 319.607952 116.693499 
L 328.697552 122.024088 
L 337.734558 127.498842 
L 349.987074 135.486482 
L 354.403926 138.48699 
L 358.823864 141.4802 
L 365.488614 145.883181 
L 371.969053 150.722176 
L 375.184501 153.195335 
L 379.313146 156.814074 
L 382.372703 159.596772 
L 385.308889 162.591746 
L 388.130736 165.763862 
L 389.895344 168.039388 
L 392.351652 171.679916 
L 394.596931 175.540799 
L 395.914862 178.272316 
L 397.016945 181.157584 
L 397.843879 184.191164 
L 398.345745 187.34026 
L 398.487273 190.549613 
L 398.254937 193.75013 
L 397.659195 196.871782 
L 396.729784 199.855359 
L 395.511192 202.661327 
L 394.063971 205.281607 
L 392.456873 207.74307 
L 390.733878 210.070816 
L 388.894644 212.245576 
L 385.961533 215.245166 
L 382.938802 218.09355 
L 379.788637 220.702393 
L 376.575695 223.181182 
L 368.877352 228.506809 
L 358.690762 234.612707 
L 352.930342 237.709027 
L 344.836472 241.951483 
L 335.45711 246.370226 
L 328.390353 249.566595 
L 316.443705 254.2306 
L 310.428768 256.377096 
L 304.35713 258.239772 
L 297.021287 260.185945 
L 290.873041 261.569295 
L 283.46069 262.937607 
L 253.740305 267.816974 
L 236.383731 270.462095 
L 217.786309 273.280918 
L 161.9853 281.649519 
L 123.563733 287.621424 
L 107.473921 290.352225 
L 92.620037 292.851811 
L 76.521668 295.488 
L 76.521668 295.488 
" style="fill:none;stroke:#ff7f0e;stroke-linecap:square;stroke-width:1.5;"/>
   </g>
   <g id="patch_3">
    <path d="M 57.6 307.584 
L 57.6 41.472 
" style="fill:none;stroke:#000000;stroke-linecap:square;stroke-linejoin:miter;stroke-width:0.8;"/>
   </g>
   <g id="patch_4">
    <path d="M 414.72 307.584 
L 414.72 41.472 
" style="fill:none;stroke:#000000;stroke-linecap:square;stroke-linejoin:miter;stroke-width:0.8;"/>
   </g>
   <g id="patch_5">
    <path d="M 57.6 307.584 
L 414.72 307.584 
" style="fill:none;stroke:#000000;stroke-linecap:square;stroke-linejoin:miter;stroke-width:0.8;"/>
   </g>
   <g id="patch_6">
    <path d="M 57.6 41.472 
L 414.72 41.472 
" style="fill:none;stroke:#000000;stroke-linecap:square;stroke-linejoin:miter;stroke-width:0.8;"/>
   </g>
   <g id="legend_1">
    <g id="patch_7">
     <path d="M 69.7225 38.91145 
L 402.5975 38.91145 
Q 404.5975 38.91145 404.5975 36.91145 
L 404.5975 8.5552 
Q 404.5975 6.5552 402.5975 6.5552 
L 69.7225 6.5552 
Q 67.7225 6.5552 67.7225 8.5552 
L 67.7225 36.91145 
Q 67.7225 38.91145 69.7225 38.91145 
z
" style="fill:#ffffff;opacity:0.8;stroke:#cccccc;stroke-linejoin:miter;"/>
    </g>
    <g id="line2d_30">
     <path d="M 71.7225 14.653638 
L 91.7225 14.653638 
" style="fill:none;stroke:#1f77b4;stroke-linecap:square;stroke-width:1.5;"/>
    </g>
    <g id="line2d_31"/>
    <g id="text_16">
     <!-- Initial Experimental Contour -->
     <g transform="translate(99.7225 18.153638)scale(0.1 -0.1)">
      <defs>
       <path d="M 628 4666 
L 1259 4666 
L 1259 0 
L 628 0 
L 628 4666 
z
" id="DejaVuSans-49" transform="scale(0.015625)"/>
       <path d="M 2194 1759 
Q 1497 1759 1228 1600 
Q 959 1441 959 1056 
Q 959 750 1161 570 
Q 1363 391 1709 391 
Q 2188 391 2477 730 
Q 2766 1069 2766 1631 
L 2766 1759 
L 2194 1759 
z
M 3341 1997 
L 3341 0 
L 2766 0 
L 2766 531 
Q 2569 213 2275 61 
Q 1981 -91 1556 -91 
Q 1019 -91 701 211 
Q 384 513 384 1019 
Q 384 1609 779 1909 
Q 1175 2209 1959 2209 
L 2766 2209 
L 2766 2266 
Q 2766 2663 2505 2880 
Q 2244 3097 1772 3097 
Q 1472 3097 1187 3025 
Q 903 2953 641 2809 
L 641 3341 
Q 956 3463 1253 3523 
Q 1550 3584 1831 3584 
Q 2591 3584 2966 3190 
Q 3341 2797 3341 1997 
z
" id="DejaVuSans-61" transform="scale(0.015625)"/>
       <path d="M 603 4863 
L 1178 4863 
L 1178 0 
L 603 0 
L 603 4863 
z
" id="DejaVuSans-6c" transform="scale(0.015625)"/>
       <path d="M 628 4666 
L 3578 4666 
L 3578 4134 
L 1259 4134 
L 1259 2753 
L 3481 2753 
L 3481 2222 
L 1259 2222 
L 1259 531 
L 3634 531 
L 3634 0 
L 628 0 
L 628 4666 
z
" id="DejaVuSans-45" transform="scale(0.015625)"/>
       <path d="M 3513 3500 
L 2247 1797 
L 3578 0 
L 2900 0 
L 1881 1375 
L 863 0 
L 184 0 
L 1544 1831 
L 300 3500 
L 978 3500 
L 1906 2253 
L 2834 3500 
L 3513 3500 
z
" id="DejaVuSans-78" transform="scale(0.015625)"/>
       <path d="M 1159 525 
L 1159 -1331 
L 581 -1331 
L 581 3500 
L 1159 3500 
L 1159 2969 
Q 1341 3281 1617 3432 
Q 1894 3584 2278 3584 
Q 2916 3584 3314 3078 
Q 3713 2572 3713 1747 
Q 3713 922 3314 415 
Q 2916 -91 2278 -91 
Q 1894 -91 1617 61 
Q 1341 213 1159 525 
z
M 3116 1747 
Q 3116 2381 2855 2742 
Q 2594 3103 2138 3103 
Q 1681 3103 1420 2742 
Q 1159 2381 1159 1747 
Q 1159 1113 1420 752 
Q 1681 391 2138 391 
Q 2594 391 2855 752 
Q 3116 1113 3116 1747 
z
" id="DejaVuSans-70" transform="scale(0.015625)"/>
       <path d="M 4122 4306 
L 4122 3641 
Q 3803 3938 3442 4084 
Q 3081 4231 2675 4231 
Q 1875 4231 1450 3742 
Q 1025 3253 1025 2328 
Q 1025 1406 1450 917 
Q 1875 428 2675 428 
Q 3081 428 3442 575 
Q 3803 722 4122 1019 
L 4122 359 
Q 3791 134 3420 21 
Q 3050 -91 2638 -91 
Q 1578 -91 968 557 
Q 359 1206 359 2328 
Q 359 3453 968 4101 
Q 1578 4750 2638 4750 
Q 3056 4750 3426 4639 
Q 3797 4528 4122 4306 
z
" id="DejaVuSans-43" transform="scale(0.015625)"/>
       <path d="M 544 1381 
L 544 3500 
L 1119 3500 
L 1119 1403 
Q 1119 906 1312 657 
Q 1506 409 1894 409 
Q 2359 409 2629 706 
Q 2900 1003 2900 1516 
L 2900 3500 
L 3475 3500 
L 3475 0 
L 2900 0 
L 2900 538 
Q 2691 219 2414 64 
Q 2138 -91 1772 -91 
Q 1169 -91 856 284 
Q 544 659 544 1381 
z
M 1991 3584 
L 1991 3584 
z
" id="DejaVuSans-75" transform="scale(0.015625)"/>
      </defs>
      <use xlink:href="#DejaVuSans-49"/>
      <use x="29.492188" xlink:href="#DejaVuSans-6e"/>
      <use x="92.871094" xlink:href="#DejaVuSans-69"/>
      <use x="120.654297" xlink:href="#DejaVuSans-74"/>
      <use x="159.863281" xlink:href="#DejaVuSans-69"/>
      <use x="187.646484" xlink:href="#DejaVuSans-61"/>
      <use x="248.925781" xlink:href="#DejaVuSans-6c"/>
      <use x="276.708984" xlink:href="#DejaVuSans-20"/>
      <use x="308.496094" xlink:href="#DejaVuSans-45"/>
      <use x="371.679688" xlink:href="#DejaVuSans-78"/>
      <use x="430.859375" xlink:href="#DejaVuSans-70"/>
      <use x="494.335938" xlink:href="#DejaVuSans-65"/>
      <use x="555.859375" xlink:href="#DejaVuSans-72"/>
      <use x="596.972656" xlink:href="#DejaVuSans-69"/>
      <use x="624.755859" xlink:href="#DejaVuSans-6d"/>
      <use x="722.167969" xlink:href="#DejaVuSans-65"/>
      <use x="783.691406" xlink:href="#DejaVuSans-6e"/>
      <use x="847.070312" xlink:href="#DejaVuSans-74"/>
      <use x="886.279297" xlink:href="#DejaVuSans-61"/>
      <use x="947.558594" xlink:href="#DejaVuSans-6c"/>
      <use x="975.341797" xlink:href="#DejaVuSans-20"/>
      <use x="1007.128906" xlink:href="#DejaVuSans-43"/>
      <use x="1076.953125" xlink:href="#DejaVuSans-6f"/>
      <use x="1138.134766" xlink:href="#DejaVuSans-6e"/>
      <use x="1201.513672" xlink:href="#DejaVuSans-74"/>
      <use x="1240.722656" xlink:href="#DejaVuSans-6f"/>
      <use x="1301.904297" xlink:href="#DejaVuSans-75"/>
      <use x="1365.283203" xlink:href="#DejaVuSans-72"/>
     </g>
    </g>
    <g id="line2d_32">
     <path d="M 71.7225 29.331763 
L 91.7225 29.331763 
" style="fill:none;stroke:#000000;stroke-linecap:square;stroke-width:1.5;"/>
    </g>
    <g id="line2d_33"/>
    <g id="text_17">
     <!-- Initial Experimental Camberline -->
     <g transform="translate(99.7225 32.831763)scale(0.1 -0.1)">
      <defs>
       <path d="M 3116 1747 
Q 3116 2381 2855 2742 
Q 2594 3103 2138 3103 
Q 1681 3103 1420 2742 
Q 1159 2381 1159 1747 
Q 1159 1113 1420 752 
Q 1681 391 2138 391 
Q 2594 391 2855 752 
Q 3116 1113 3116 1747 
z
M 1159 2969 
Q 1341 3281 1617 3432 
Q 1894 3584 2278 3584 
Q 2916 3584 3314 3078 
Q 3713 2572 3713 1747 
Q 3713 922 3314 415 
Q 2916 -91 2278 -91 
Q 1894 -91 1617 61 
Q 1341 213 1159 525 
L 1159 0 
L 581 0 
L 581 4863 
L 1159 4863 
L 1159 2969 
z
" id="DejaVuSans-62" transform="scale(0.015625)"/>
      </defs>
      <use xlink:href="#DejaVuSans-49"/>
      <use x="29.492188" xlink:href="#DejaVuSans-6e"/>
      <use x="92.871094" xlink:href="#DejaVuSans-69"/>
      <use x="120.654297" xlink:href="#DejaVuSans-74"/>
      <use x="159.863281" xlink:href="#DejaVuSans-69"/>
      <use x="187.646484" xlink:href="#DejaVuSans-61"/>
      <use x="248.925781" xlink:href="#DejaVuSans-6c"/>
      <use x="276.708984" xlink:href="#DejaVuSans-20"/>
      <use x="308.496094" xlink:href="#DejaVuSans-45"/>
      <use x="371.679688" xlink:href="#DejaVuSans-78"/>
      <use x="430.859375" xlink:href="#DejaVuSans-70"/>
      <use x="494.335938" xlink:href="#DejaVuSans-65"/>
      <use x="555.859375" xlink:href="#DejaVuSans-72"/>
      <use x="596.972656" xlink:href="#DejaVuSans-69"/>
      <use x="624.755859" xlink:href="#DejaVuSans-6d"/>
      <use x="722.167969" xlink:href="#DejaVuSans-65"/>
      <use x="783.691406" xlink:href="#DejaVuSans-6e"/>
      <use x="847.070312" xlink:href="#DejaVuSans-74"/>
      <use x="886.279297" xlink:href="#DejaVuSans-61"/>
      <use x="947.558594" xlink:href="#DejaVuSans-6c"/>
      <use x="975.341797" xlink:href="#DejaVuSans-20"/>
      <use x="1007.128906" xlink:href="#DejaVuSans-43"/>
      <use x="1076.953125" xlink:href="#DejaVuSans-61"/>
      <use x="1138.232422" xlink:href="#DejaVuSans-6d"/>
      <use x="1235.644531" xlink:href="#DejaVuSans-62"/>
      <use x="1299.121094" xlink:href="#DejaVuSans-65"/>
      <use x="1360.644531" xlink:href="#DejaVuSans-72"/>
      <use x="1401.757812" xlink:href="#DejaVuSans-6c"/>
      <use x="1429.541016" xlink:href="#DejaVuSans-69"/>
      <use x="1457.324219" xlink:href="#DejaVuSans-6e"/>
      <use x="1520.703125" xlink:href="#DejaVuSans-65"/>
     </g>
    </g>
    <g id="line2d_34">
     <path d="M 277.945938 14.653638 
L 297.945938 14.653638 
" style="fill:none;stroke:#ff7f0e;stroke-linecap:square;stroke-width:1.5;"/>
    </g>
    <g id="line2d_35"/>
    <g id="text_18">
     <!-- Initial FEM Contour -->
     <g transform="translate(305.945938 18.153638)scale(0.1 -0.1)">
      <defs>
       <path d="M 628 4666 
L 3309 4666 
L 3309 4134 
L 1259 4134 
L 1259 2759 
L 3109 2759 
L 3109 2228 
L 1259 2228 
L 1259 0 
L 628 0 
L 628 4666 
z
" id="DejaVuSans-46" transform="scale(0.015625)"/>
       <path d="M 628 4666 
L 1569 4666 
L 2759 1491 
L 3956 4666 
L 4897 4666 
L 4897 0 
L 4281 0 
L 4281 4097 
L 3078 897 
L 2444 897 
L 1241 4097 
L 1241 0 
L 628 0 
L 628 4666 
z
" id="DejaVuSans-4d" transform="scale(0.015625)"/>
      </defs>
      <use xlink:href="#DejaVuSans-49"/>
      <use x="29.492188" xlink:href="#DejaVuSans-6e"/>
      <use x="92.871094" xlink:href="#DejaVuSans-69"/>
      <use x="120.654297" xlink:href="#DejaVuSans-74"/>
      <use x="159.863281" xlink:href="#DejaVuSans-69"/>
      <use x="187.646484" xlink:href="#DejaVuSans-61"/>
      <use x="248.925781" xlink:href="#DejaVuSans-6c"/>
      <use x="276.708984" xlink:href="#DejaVuSans-20"/>
      <use x="308.496094" xlink:href="#DejaVuSans-46"/>
      <use x="366.015625" xlink:href="#DejaVuSans-45"/>
      <use x="429.199219" xlink:href="#DejaVuSans-4d"/>
      <use x="515.478516" xlink:href="#DejaVuSans-20"/>
      <use x="547.265625" xlink:href="#DejaVuSans-43"/>
      <use x="617.089844" xlink:href="#DejaVuSans-6f"/>
      <use x="678.271484" xlink:href="#DejaVuSans-6e"/>
      <use x="741.650391" xlink:href="#DejaVuSans-74"/>
      <use x="780.859375" xlink:href="#DejaVuSans-6f"/>
      <use x="842.041016" xlink:href="#DejaVuSans-75"/>
      <use x="905.419922" xlink:href="#DejaVuSans-72"/>
     </g>
    </g>
   </g>
  </g>
 </g>
 <defs>
  <clipPath id="p5b18a0c808">
   <rect height="266.112" width="357.12" x="57.6" y="41.472"/>
  </clipPath>
 </defs>
</svg>
