<?xml version="1.0" encoding="utf-8" standalone="no"?>
<!DOCTYPE svg PUBLIC "-//W3C//DTD SVG 1.1//EN"
  "http://www.w3.org/Graphics/SVG/1.1/DTD/svg11.dtd">
<svg height="345.6pt" version="1.1" viewBox="0 0 460.8 345.6" width="460.8pt" xmlns="http://www.w3.org/2000/svg" xmlns:xlink="http://www.w3.org/1999/xlink">
 <metadata>
  <rdf:RDF xmlns:cc="http://creativecommons.org/ns#" xmlns:dc="http://purl.org/dc/elements/1.1/" xmlns:rdf="http://www.w3.org/1999/02/22-rdf-syntax-ns#">
   <cc:Work>
    <dc:type rdf:resource="http://purl.org/dc/dcmitype/StillImage"/>
    <dc:date>2022-06-02T16:34:55.059070</dc:date>
    <dc:format>image/svg+xml</dc:format>
    <dc:creator>
     <cc:Agent>
      <dc:title>Matplotlib v3.4.1, https://matplotlib.org/</dc:title>
     </cc:Agent>
    </dc:creator>
   </cc:Work>
  </rdf:RDF>
 </metadata>
 <defs>
  <style type="text/css">*{stroke-linecap:butt;stroke-linejoin:round;}</style>
 </defs>
 <g id="figure_1">
  <g id="patch_1">
   <path d="M 0 345.6 
L 460.8 345.6 
L 460.8 0 
L 0 0 
z
" style="fill:#ffffff;"/>
  </g>
  <g id="axes_1">
   <g id="patch_2">
    <path d="M 57.6 307.584 
L 414.72 307.584 
L 414.72 41.472 
L 57.6 41.472 
z
" style="fill:#ffffff;"/>
   </g>
   <g id="matplotlib.axis_1">
    <g id="xtick_1">
     <g id="line2d_1">
      <path clip-path="url(#pc9354cb244)" d="M 74.052899 307.584 
L 74.052899 41.472 
" style="fill:none;stroke:#b0b0b0;stroke-linecap:square;stroke-width:0.8;"/>
     </g>
     <g id="line2d_2">
      <defs>
       <path d="M 0 0 
L 0 3.5 
" id="m35599ce7eb" style="stroke:#000000;stroke-width:0.8;"/>
      </defs>
      <g>
       <use style="stroke:#000000;stroke-width:0.8;" x="74.052899" xlink:href="#m35599ce7eb" y="307.584"/>
      </g>
     </g>
     <g id="text_1">
      <!-- 0 -->
      <g transform="translate(70.871649 322.182437)scale(0.1 -0.1)">
       <defs>
        <path d="M 2034 4250 
Q 1547 4250 1301 3770 
Q 1056 3291 1056 2328 
Q 1056 1369 1301 889 
Q 1547 409 2034 409 
Q 2525 409 2770 889 
Q 3016 1369 3016 2328 
Q 3016 3291 2770 3770 
Q 2525 4250 2034 4250 
z
M 2034 4750 
Q 2819 4750 3233 4129 
Q 3647 3509 3647 2328 
Q 3647 1150 3233 529 
Q 2819 -91 2034 -91 
Q 1250 -91 836 529 
Q 422 1150 422 2328 
Q 422 3509 836 4129 
Q 1250 4750 2034 4750 
z
" id="DejaVuSans-30" transform="scale(0.015625)"/>
       </defs>
       <use xlink:href="#DejaVuSans-30"/>
      </g>
     </g>
    </g>
    <g id="xtick_2">
     <g id="line2d_3">
      <path clip-path="url(#pc9354cb244)" d="M 137.71113 307.584 
L 137.71113 41.472 
" style="fill:none;stroke:#b0b0b0;stroke-linecap:square;stroke-width:0.8;"/>
     </g>
     <g id="line2d_4">
      <g>
       <use style="stroke:#000000;stroke-width:0.8;" x="137.71113" xlink:href="#m35599ce7eb" y="307.584"/>
      </g>
     </g>
     <g id="text_2">
      <!-- 100 -->
      <g transform="translate(128.16738 322.182437)scale(0.1 -0.1)">
       <defs>
        <path d="M 794 531 
L 1825 531 
L 1825 4091 
L 703 3866 
L 703 4441 
L 1819 4666 
L 2450 4666 
L 2450 531 
L 3481 531 
L 3481 0 
L 794 0 
L 794 531 
z
" id="DejaVuSans-31" transform="scale(0.015625)"/>
       </defs>
       <use xlink:href="#DejaVuSans-31"/>
       <use x="63.623047" xlink:href="#DejaVuSans-30"/>
       <use x="127.246094" xlink:href="#DejaVuSans-30"/>
      </g>
     </g>
    </g>
    <g id="xtick_3">
     <g id="line2d_5">
      <path clip-path="url(#pc9354cb244)" d="M 201.369361 307.584 
L 201.369361 41.472 
" style="fill:none;stroke:#b0b0b0;stroke-linecap:square;stroke-width:0.8;"/>
     </g>
     <g id="line2d_6">
      <g>
       <use style="stroke:#000000;stroke-width:0.8;" x="201.369361" xlink:href="#m35599ce7eb" y="307.584"/>
      </g>
     </g>
     <g id="text_3">
      <!-- 200 -->
      <g transform="translate(191.825611 322.182437)scale(0.1 -0.1)">
       <defs>
        <path d="M 1228 531 
L 3431 531 
L 3431 0 
L 469 0 
L 469 531 
Q 828 903 1448 1529 
Q 2069 2156 2228 2338 
Q 2531 2678 2651 2914 
Q 2772 3150 2772 3378 
Q 2772 3750 2511 3984 
Q 2250 4219 1831 4219 
Q 1534 4219 1204 4116 
Q 875 4013 500 3803 
L 500 4441 
Q 881 4594 1212 4672 
Q 1544 4750 1819 4750 
Q 2544 4750 2975 4387 
Q 3406 4025 3406 3419 
Q 3406 3131 3298 2873 
Q 3191 2616 2906 2266 
Q 2828 2175 2409 1742 
Q 1991 1309 1228 531 
z
" id="DejaVuSans-32" transform="scale(0.015625)"/>
       </defs>
       <use xlink:href="#DejaVuSans-32"/>
       <use x="63.623047" xlink:href="#DejaVuSans-30"/>
       <use x="127.246094" xlink:href="#DejaVuSans-30"/>
      </g>
     </g>
    </g>
    <g id="xtick_4">
     <g id="line2d_7">
      <path clip-path="url(#pc9354cb244)" d="M 265.027592 307.584 
L 265.027592 41.472 
" style="fill:none;stroke:#b0b0b0;stroke-linecap:square;stroke-width:0.8;"/>
     </g>
     <g id="line2d_8">
      <g>
       <use style="stroke:#000000;stroke-width:0.8;" x="265.027592" xlink:href="#m35599ce7eb" y="307.584"/>
      </g>
     </g>
     <g id="text_4">
      <!-- 300 -->
      <g transform="translate(255.483842 322.182437)scale(0.1 -0.1)">
       <defs>
        <path d="M 2597 2516 
Q 3050 2419 3304 2112 
Q 3559 1806 3559 1356 
Q 3559 666 3084 287 
Q 2609 -91 1734 -91 
Q 1441 -91 1130 -33 
Q 819 25 488 141 
L 488 750 
Q 750 597 1062 519 
Q 1375 441 1716 441 
Q 2309 441 2620 675 
Q 2931 909 2931 1356 
Q 2931 1769 2642 2001 
Q 2353 2234 1838 2234 
L 1294 2234 
L 1294 2753 
L 1863 2753 
Q 2328 2753 2575 2939 
Q 2822 3125 2822 3475 
Q 2822 3834 2567 4026 
Q 2313 4219 1838 4219 
Q 1578 4219 1281 4162 
Q 984 4106 628 3988 
L 628 4550 
Q 988 4650 1302 4700 
Q 1616 4750 1894 4750 
Q 2613 4750 3031 4423 
Q 3450 4097 3450 3541 
Q 3450 3153 3228 2886 
Q 3006 2619 2597 2516 
z
" id="DejaVuSans-33" transform="scale(0.015625)"/>
       </defs>
       <use xlink:href="#DejaVuSans-33"/>
       <use x="63.623047" xlink:href="#DejaVuSans-30"/>
       <use x="127.246094" xlink:href="#DejaVuSans-30"/>
      </g>
     </g>
    </g>
    <g id="xtick_5">
     <g id="line2d_9">
      <path clip-path="url(#pc9354cb244)" d="M 328.685824 307.584 
L 328.685824 41.472 
" style="fill:none;stroke:#b0b0b0;stroke-linecap:square;stroke-width:0.8;"/>
     </g>
     <g id="line2d_10">
      <g>
       <use style="stroke:#000000;stroke-width:0.8;" x="328.685824" xlink:href="#m35599ce7eb" y="307.584"/>
      </g>
     </g>
     <g id="text_5">
      <!-- 400 -->
      <g transform="translate(319.142074 322.182437)scale(0.1 -0.1)">
       <defs>
        <path d="M 2419 4116 
L 825 1625 
L 2419 1625 
L 2419 4116 
z
M 2253 4666 
L 3047 4666 
L 3047 1625 
L 3713 1625 
L 3713 1100 
L 3047 1100 
L 3047 0 
L 2419 0 
L 2419 1100 
L 313 1100 
L 313 1709 
L 2253 4666 
z
" id="DejaVuSans-34" transform="scale(0.015625)"/>
       </defs>
       <use xlink:href="#DejaVuSans-34"/>
       <use x="63.623047" xlink:href="#DejaVuSans-30"/>
       <use x="127.246094" xlink:href="#DejaVuSans-30"/>
      </g>
     </g>
    </g>
    <g id="xtick_6">
     <g id="line2d_11">
      <path clip-path="url(#pc9354cb244)" d="M 392.344055 307.584 
L 392.344055 41.472 
" style="fill:none;stroke:#b0b0b0;stroke-linecap:square;stroke-width:0.8;"/>
     </g>
     <g id="line2d_12">
      <g>
       <use style="stroke:#000000;stroke-width:0.8;" x="392.344055" xlink:href="#m35599ce7eb" y="307.584"/>
      </g>
     </g>
     <g id="text_6">
      <!-- 500 -->
      <g transform="translate(382.800305 322.182437)scale(0.1 -0.1)">
       <defs>
        <path d="M 691 4666 
L 3169 4666 
L 3169 4134 
L 1269 4134 
L 1269 2991 
Q 1406 3038 1543 3061 
Q 1681 3084 1819 3084 
Q 2600 3084 3056 2656 
Q 3513 2228 3513 1497 
Q 3513 744 3044 326 
Q 2575 -91 1722 -91 
Q 1428 -91 1123 -41 
Q 819 9 494 109 
L 494 744 
Q 775 591 1075 516 
Q 1375 441 1709 441 
Q 2250 441 2565 725 
Q 2881 1009 2881 1497 
Q 2881 1984 2565 2268 
Q 2250 2553 1709 2553 
Q 1456 2553 1204 2497 
Q 953 2441 691 2322 
L 691 4666 
z
" id="DejaVuSans-35" transform="scale(0.015625)"/>
       </defs>
       <use xlink:href="#DejaVuSans-35"/>
       <use x="63.623047" xlink:href="#DejaVuSans-30"/>
       <use x="127.246094" xlink:href="#DejaVuSans-30"/>
      </g>
     </g>
    </g>
    <g id="text_7">
     <!-- Position in X direction [mm] -->
     <g transform="translate(166.805313 335.860562)scale(0.1 -0.1)">
      <defs>
       <path d="M 1259 4147 
L 1259 2394 
L 2053 2394 
Q 2494 2394 2734 2622 
Q 2975 2850 2975 3272 
Q 2975 3691 2734 3919 
Q 2494 4147 2053 4147 
L 1259 4147 
z
M 628 4666 
L 2053 4666 
Q 2838 4666 3239 4311 
Q 3641 3956 3641 3272 
Q 3641 2581 3239 2228 
Q 2838 1875 2053 1875 
L 1259 1875 
L 1259 0 
L 628 0 
L 628 4666 
z
" id="DejaVuSans-50" transform="scale(0.015625)"/>
       <path d="M 1959 3097 
Q 1497 3097 1228 2736 
Q 959 2375 959 1747 
Q 959 1119 1226 758 
Q 1494 397 1959 397 
Q 2419 397 2687 759 
Q 2956 1122 2956 1747 
Q 2956 2369 2687 2733 
Q 2419 3097 1959 3097 
z
M 1959 3584 
Q 2709 3584 3137 3096 
Q 3566 2609 3566 1747 
Q 3566 888 3137 398 
Q 2709 -91 1959 -91 
Q 1206 -91 779 398 
Q 353 888 353 1747 
Q 353 2609 779 3096 
Q 1206 3584 1959 3584 
z
" id="DejaVuSans-6f" transform="scale(0.015625)"/>
       <path d="M 2834 3397 
L 2834 2853 
Q 2591 2978 2328 3040 
Q 2066 3103 1784 3103 
Q 1356 3103 1142 2972 
Q 928 2841 928 2578 
Q 928 2378 1081 2264 
Q 1234 2150 1697 2047 
L 1894 2003 
Q 2506 1872 2764 1633 
Q 3022 1394 3022 966 
Q 3022 478 2636 193 
Q 2250 -91 1575 -91 
Q 1294 -91 989 -36 
Q 684 19 347 128 
L 347 722 
Q 666 556 975 473 
Q 1284 391 1588 391 
Q 1994 391 2212 530 
Q 2431 669 2431 922 
Q 2431 1156 2273 1281 
Q 2116 1406 1581 1522 
L 1381 1569 
Q 847 1681 609 1914 
Q 372 2147 372 2553 
Q 372 3047 722 3315 
Q 1072 3584 1716 3584 
Q 2034 3584 2315 3537 
Q 2597 3491 2834 3397 
z
" id="DejaVuSans-73" transform="scale(0.015625)"/>
       <path d="M 603 3500 
L 1178 3500 
L 1178 0 
L 603 0 
L 603 3500 
z
M 603 4863 
L 1178 4863 
L 1178 4134 
L 603 4134 
L 603 4863 
z
" id="DejaVuSans-69" transform="scale(0.015625)"/>
       <path d="M 1172 4494 
L 1172 3500 
L 2356 3500 
L 2356 3053 
L 1172 3053 
L 1172 1153 
Q 1172 725 1289 603 
Q 1406 481 1766 481 
L 2356 481 
L 2356 0 
L 1766 0 
Q 1100 0 847 248 
Q 594 497 594 1153 
L 594 3053 
L 172 3053 
L 172 3500 
L 594 3500 
L 594 4494 
L 1172 4494 
z
" id="DejaVuSans-74" transform="scale(0.015625)"/>
       <path d="M 3513 2113 
L 3513 0 
L 2938 0 
L 2938 2094 
Q 2938 2591 2744 2837 
Q 2550 3084 2163 3084 
Q 1697 3084 1428 2787 
Q 1159 2491 1159 1978 
L 1159 0 
L 581 0 
L 581 3500 
L 1159 3500 
L 1159 2956 
Q 1366 3272 1645 3428 
Q 1925 3584 2291 3584 
Q 2894 3584 3203 3211 
Q 3513 2838 3513 2113 
z
" id="DejaVuSans-6e" transform="scale(0.015625)"/>
       <path id="DejaVuSans-20" transform="scale(0.015625)"/>
       <path d="M 403 4666 
L 1081 4666 
L 2241 2931 
L 3406 4666 
L 4084 4666 
L 2584 2425 
L 4184 0 
L 3506 0 
L 2194 1984 
L 872 0 
L 191 0 
L 1856 2491 
L 403 4666 
z
" id="DejaVuSans-58" transform="scale(0.015625)"/>
       <path d="M 2906 2969 
L 2906 4863 
L 3481 4863 
L 3481 0 
L 2906 0 
L 2906 525 
Q 2725 213 2448 61 
Q 2172 -91 1784 -91 
Q 1150 -91 751 415 
Q 353 922 353 1747 
Q 353 2572 751 3078 
Q 1150 3584 1784 3584 
Q 2172 3584 2448 3432 
Q 2725 3281 2906 2969 
z
M 947 1747 
Q 947 1113 1208 752 
Q 1469 391 1925 391 
Q 2381 391 2643 752 
Q 2906 1113 2906 1747 
Q 2906 2381 2643 2742 
Q 2381 3103 1925 3103 
Q 1469 3103 1208 2742 
Q 947 2381 947 1747 
z
" id="DejaVuSans-64" transform="scale(0.015625)"/>
       <path d="M 2631 2963 
Q 2534 3019 2420 3045 
Q 2306 3072 2169 3072 
Q 1681 3072 1420 2755 
Q 1159 2438 1159 1844 
L 1159 0 
L 581 0 
L 581 3500 
L 1159 3500 
L 1159 2956 
Q 1341 3275 1631 3429 
Q 1922 3584 2338 3584 
Q 2397 3584 2469 3576 
Q 2541 3569 2628 3553 
L 2631 2963 
z
" id="DejaVuSans-72" transform="scale(0.015625)"/>
       <path d="M 3597 1894 
L 3597 1613 
L 953 1613 
Q 991 1019 1311 708 
Q 1631 397 2203 397 
Q 2534 397 2845 478 
Q 3156 559 3463 722 
L 3463 178 
Q 3153 47 2828 -22 
Q 2503 -91 2169 -91 
Q 1331 -91 842 396 
Q 353 884 353 1716 
Q 353 2575 817 3079 
Q 1281 3584 2069 3584 
Q 2775 3584 3186 3129 
Q 3597 2675 3597 1894 
z
M 3022 2063 
Q 3016 2534 2758 2815 
Q 2500 3097 2075 3097 
Q 1594 3097 1305 2825 
Q 1016 2553 972 2059 
L 3022 2063 
z
" id="DejaVuSans-65" transform="scale(0.015625)"/>
       <path d="M 3122 3366 
L 3122 2828 
Q 2878 2963 2633 3030 
Q 2388 3097 2138 3097 
Q 1578 3097 1268 2742 
Q 959 2388 959 1747 
Q 959 1106 1268 751 
Q 1578 397 2138 397 
Q 2388 397 2633 464 
Q 2878 531 3122 666 
L 3122 134 
Q 2881 22 2623 -34 
Q 2366 -91 2075 -91 
Q 1284 -91 818 406 
Q 353 903 353 1747 
Q 353 2603 823 3093 
Q 1294 3584 2113 3584 
Q 2378 3584 2631 3529 
Q 2884 3475 3122 3366 
z
" id="DejaVuSans-63" transform="scale(0.015625)"/>
       <path d="M 550 4863 
L 1875 4863 
L 1875 4416 
L 1125 4416 
L 1125 -397 
L 1875 -397 
L 1875 -844 
L 550 -844 
L 550 4863 
z
" id="DejaVuSans-5b" transform="scale(0.015625)"/>
       <path d="M 3328 2828 
Q 3544 3216 3844 3400 
Q 4144 3584 4550 3584 
Q 5097 3584 5394 3201 
Q 5691 2819 5691 2113 
L 5691 0 
L 5113 0 
L 5113 2094 
Q 5113 2597 4934 2840 
Q 4756 3084 4391 3084 
Q 3944 3084 3684 2787 
Q 3425 2491 3425 1978 
L 3425 0 
L 2847 0 
L 2847 2094 
Q 2847 2600 2669 2842 
Q 2491 3084 2119 3084 
Q 1678 3084 1418 2786 
Q 1159 2488 1159 1978 
L 1159 0 
L 581 0 
L 581 3500 
L 1159 3500 
L 1159 2956 
Q 1356 3278 1631 3431 
Q 1906 3584 2284 3584 
Q 2666 3584 2933 3390 
Q 3200 3197 3328 2828 
z
" id="DejaVuSans-6d" transform="scale(0.015625)"/>
       <path d="M 1947 4863 
L 1947 -844 
L 622 -844 
L 622 -397 
L 1369 -397 
L 1369 4416 
L 622 4416 
L 622 4863 
L 1947 4863 
z
" id="DejaVuSans-5d" transform="scale(0.015625)"/>
      </defs>
      <use xlink:href="#DejaVuSans-50"/>
      <use x="56.677734" xlink:href="#DejaVuSans-6f"/>
      <use x="117.859375" xlink:href="#DejaVuSans-73"/>
      <use x="169.958984" xlink:href="#DejaVuSans-69"/>
      <use x="197.742188" xlink:href="#DejaVuSans-74"/>
      <use x="236.951172" xlink:href="#DejaVuSans-69"/>
      <use x="264.734375" xlink:href="#DejaVuSans-6f"/>
      <use x="325.916016" xlink:href="#DejaVuSans-6e"/>
      <use x="389.294922" xlink:href="#DejaVuSans-20"/>
      <use x="421.082031" xlink:href="#DejaVuSans-69"/>
      <use x="448.865234" xlink:href="#DejaVuSans-6e"/>
      <use x="512.244141" xlink:href="#DejaVuSans-20"/>
      <use x="544.03125" xlink:href="#DejaVuSans-58"/>
      <use x="612.537109" xlink:href="#DejaVuSans-20"/>
      <use x="644.324219" xlink:href="#DejaVuSans-64"/>
      <use x="707.800781" xlink:href="#DejaVuSans-69"/>
      <use x="735.583984" xlink:href="#DejaVuSans-72"/>
      <use x="774.447266" xlink:href="#DejaVuSans-65"/>
      <use x="835.970703" xlink:href="#DejaVuSans-63"/>
      <use x="890.951172" xlink:href="#DejaVuSans-74"/>
      <use x="930.160156" xlink:href="#DejaVuSans-69"/>
      <use x="957.943359" xlink:href="#DejaVuSans-6f"/>
      <use x="1019.125" xlink:href="#DejaVuSans-6e"/>
      <use x="1082.503906" xlink:href="#DejaVuSans-20"/>
      <use x="1114.291016" xlink:href="#DejaVuSans-5b"/>
      <use x="1153.304688" xlink:href="#DejaVuSans-6d"/>
      <use x="1250.716797" xlink:href="#DejaVuSans-6d"/>
      <use x="1348.128906" xlink:href="#DejaVuSans-5d"/>
     </g>
    </g>
   </g>
   <g id="matplotlib.axis_2">
    <g id="ytick_1">
     <g id="line2d_13">
      <path clip-path="url(#pc9354cb244)" d="M 57.6 277.884416 
L 414.72 277.884416 
" style="fill:none;stroke:#b0b0b0;stroke-linecap:square;stroke-width:0.8;"/>
     </g>
     <g id="line2d_14">
      <defs>
       <path d="M 0 0 
L -3.5 0 
" id="mfbf8516a28" style="stroke:#000000;stroke-width:0.8;"/>
      </defs>
      <g>
       <use style="stroke:#000000;stroke-width:0.8;" x="57.6" xlink:href="#mfbf8516a28" y="277.884416"/>
      </g>
     </g>
     <g id="text_8">
      <!-- −150 -->
      <g transform="translate(23.132812 281.683634)scale(0.1 -0.1)">
       <defs>
        <path d="M 678 2272 
L 4684 2272 
L 4684 1741 
L 678 1741 
L 678 2272 
z
" id="DejaVuSans-2212" transform="scale(0.015625)"/>
       </defs>
       <use xlink:href="#DejaVuSans-2212"/>
       <use x="83.789062" xlink:href="#DejaVuSans-31"/>
       <use x="147.412109" xlink:href="#DejaVuSans-35"/>
       <use x="211.035156" xlink:href="#DejaVuSans-30"/>
      </g>
     </g>
    </g>
    <g id="ytick_2">
     <g id="line2d_15">
      <path clip-path="url(#pc9354cb244)" d="M 57.6 240.638096 
L 414.72 240.638096 
" style="fill:none;stroke:#b0b0b0;stroke-linecap:square;stroke-width:0.8;"/>
     </g>
     <g id="line2d_16">
      <g>
       <use style="stroke:#000000;stroke-width:0.8;" x="57.6" xlink:href="#mfbf8516a28" y="240.638096"/>
      </g>
     </g>
     <g id="text_9">
      <!-- −100 -->
      <g transform="translate(23.132812 244.437315)scale(0.1 -0.1)">
       <use xlink:href="#DejaVuSans-2212"/>
       <use x="83.789062" xlink:href="#DejaVuSans-31"/>
       <use x="147.412109" xlink:href="#DejaVuSans-30"/>
       <use x="211.035156" xlink:href="#DejaVuSans-30"/>
      </g>
     </g>
    </g>
    <g id="ytick_3">
     <g id="line2d_17">
      <path clip-path="url(#pc9354cb244)" d="M 57.6 203.391777 
L 414.72 203.391777 
" style="fill:none;stroke:#b0b0b0;stroke-linecap:square;stroke-width:0.8;"/>
     </g>
     <g id="line2d_18">
      <g>
       <use style="stroke:#000000;stroke-width:0.8;" x="57.6" xlink:href="#mfbf8516a28" y="203.391777"/>
      </g>
     </g>
     <g id="text_10">
      <!-- −50 -->
      <g transform="translate(29.495313 207.190996)scale(0.1 -0.1)">
       <use xlink:href="#DejaVuSans-2212"/>
       <use x="83.789062" xlink:href="#DejaVuSans-35"/>
       <use x="147.412109" xlink:href="#DejaVuSans-30"/>
      </g>
     </g>
    </g>
    <g id="ytick_4">
     <g id="line2d_19">
      <path clip-path="url(#pc9354cb244)" d="M 57.6 166.145458 
L 414.72 166.145458 
" style="fill:none;stroke:#b0b0b0;stroke-linecap:square;stroke-width:0.8;"/>
     </g>
     <g id="line2d_20">
      <g>
       <use style="stroke:#000000;stroke-width:0.8;" x="57.6" xlink:href="#mfbf8516a28" y="166.145458"/>
      </g>
     </g>
     <g id="text_11">
      <!-- 0 -->
      <g transform="translate(44.2375 169.944677)scale(0.1 -0.1)">
       <use xlink:href="#DejaVuSans-30"/>
      </g>
     </g>
    </g>
    <g id="ytick_5">
     <g id="line2d_21">
      <path clip-path="url(#pc9354cb244)" d="M 57.6 128.899139 
L 414.72 128.899139 
" style="fill:none;stroke:#b0b0b0;stroke-linecap:square;stroke-width:0.8;"/>
     </g>
     <g id="line2d_22">
      <g>
       <use style="stroke:#000000;stroke-width:0.8;" x="57.6" xlink:href="#mfbf8516a28" y="128.899139"/>
      </g>
     </g>
     <g id="text_12">
      <!-- 50 -->
      <g transform="translate(37.875 132.698358)scale(0.1 -0.1)">
       <use xlink:href="#DejaVuSans-35"/>
       <use x="63.623047" xlink:href="#DejaVuSans-30"/>
      </g>
     </g>
    </g>
    <g id="ytick_6">
     <g id="line2d_23">
      <path clip-path="url(#pc9354cb244)" d="M 57.6 91.65282 
L 414.72 91.65282 
" style="fill:none;stroke:#b0b0b0;stroke-linecap:square;stroke-width:0.8;"/>
     </g>
     <g id="line2d_24">
      <g>
       <use style="stroke:#000000;stroke-width:0.8;" x="57.6" xlink:href="#mfbf8516a28" y="91.65282"/>
      </g>
     </g>
     <g id="text_13">
      <!-- 100 -->
      <g transform="translate(31.5125 95.452039)scale(0.1 -0.1)">
       <use xlink:href="#DejaVuSans-31"/>
       <use x="63.623047" xlink:href="#DejaVuSans-30"/>
       <use x="127.246094" xlink:href="#DejaVuSans-30"/>
      </g>
     </g>
    </g>
    <g id="ytick_7">
     <g id="line2d_25">
      <path clip-path="url(#pc9354cb244)" d="M 57.6 54.406501 
L 414.72 54.406501 
" style="fill:none;stroke:#b0b0b0;stroke-linecap:square;stroke-width:0.8;"/>
     </g>
     <g id="line2d_26">
      <g>
       <use style="stroke:#000000;stroke-width:0.8;" x="57.6" xlink:href="#mfbf8516a28" y="54.406501"/>
      </g>
     </g>
     <g id="text_14">
      <!-- 150 -->
      <g transform="translate(31.5125 58.20572)scale(0.1 -0.1)">
       <use xlink:href="#DejaVuSans-31"/>
       <use x="63.623047" xlink:href="#DejaVuSans-35"/>
       <use x="127.246094" xlink:href="#DejaVuSans-30"/>
      </g>
     </g>
    </g>
    <g id="text_15">
     <!-- Position in Y direction [mm] -->
     <g transform="translate(17.053125 243.511594)rotate(-90)scale(0.1 -0.1)">
      <defs>
       <path d="M -13 4666 
L 666 4666 
L 1959 2747 
L 3244 4666 
L 3922 4666 
L 2272 2222 
L 2272 0 
L 1638 0 
L 1638 2222 
L -13 4666 
z
" id="DejaVuSans-59" transform="scale(0.015625)"/>
      </defs>
      <use xlink:href="#DejaVuSans-50"/>
      <use x="56.677734" xlink:href="#DejaVuSans-6f"/>
      <use x="117.859375" xlink:href="#DejaVuSans-73"/>
      <use x="169.958984" xlink:href="#DejaVuSans-69"/>
      <use x="197.742188" xlink:href="#DejaVuSans-74"/>
      <use x="236.951172" xlink:href="#DejaVuSans-69"/>
      <use x="264.734375" xlink:href="#DejaVuSans-6f"/>
      <use x="325.916016" xlink:href="#DejaVuSans-6e"/>
      <use x="389.294922" xlink:href="#DejaVuSans-20"/>
      <use x="421.082031" xlink:href="#DejaVuSans-69"/>
      <use x="448.865234" xlink:href="#DejaVuSans-6e"/>
      <use x="512.244141" xlink:href="#DejaVuSans-20"/>
      <use x="544.03125" xlink:href="#DejaVuSans-59"/>
      <use x="605.115234" xlink:href="#DejaVuSans-20"/>
      <use x="636.902344" xlink:href="#DejaVuSans-64"/>
      <use x="700.378906" xlink:href="#DejaVuSans-69"/>
      <use x="728.162109" xlink:href="#DejaVuSans-72"/>
      <use x="767.025391" xlink:href="#DejaVuSans-65"/>
      <use x="828.548828" xlink:href="#DejaVuSans-63"/>
      <use x="883.529297" xlink:href="#DejaVuSans-74"/>
      <use x="922.738281" xlink:href="#DejaVuSans-69"/>
      <use x="950.521484" xlink:href="#DejaVuSans-6f"/>
      <use x="1011.703125" xlink:href="#DejaVuSans-6e"/>
      <use x="1075.082031" xlink:href="#DejaVuSans-20"/>
      <use x="1106.869141" xlink:href="#DejaVuSans-5b"/>
      <use x="1145.882812" xlink:href="#DejaVuSans-6d"/>
      <use x="1243.294922" xlink:href="#DejaVuSans-6d"/>
      <use x="1340.707031" xlink:href="#DejaVuSans-5d"/>
     </g>
    </g>
   </g>
   <g id="line2d_27">
    <path clip-path="url(#pc9354cb244)" d="M 76.174447 55.122932 
L 76.496092 56.227091 
L 78.813756 55.325691 
L 78.933801 56.375437 
L 81.529496 55.528959 
L 81.686922 56.408976 
L 84.279036 55.656396 
L 84.39612 56.47905 
L 86.189852 55.841664 
L 87.226875 56.692426 
L 89.574989 55.87387 
L 89.911232 56.882651 
L 92.650685 57.255816 
L 95.388127 57.36892 
L 106.265797 58.76707 
L 106.975208 59.289603 
L 108.399651 58.972958 
L 109.331845 59.45252 
L 110.821537 59.094419 
L 112.007431 59.788669 
L 125.585194 61.874939 
L 126.338257 62.563185 
L 128.34115 62.052129 
L 128.588864 62.7254 
L 130.862647 62.19688 
L 131.281613 62.941701 
L 133.942036 63.268736 
L 139.371086 64.321071 
L 142.213432 64.858491 
L 144.802544 65.193968 
L 145.390426 65.79316 
L 147.590175 65.354057 
L 147.857317 66.00271 
L 149.415764 65.48184 
L 150.515441 66.264616 
L 155.937712 67.170222 
L 161.424284 68.131331 
L 162.506794 68.884887 
L 164.103681 68.370352 
L 164.493021 69.094565 
L 166.626272 68.623153 
L 167.073034 69.320169 
L 168.506467 68.756065 
L 169.757175 69.630389 
L 180.60918 71.47947 
L 181.250202 72.200518 
L 183.281682 71.722301 
L 183.637794 72.394547 
L 185.315713 71.946885 
L 186.283151 72.663476 
L 191.66832 73.509922 
L 197.187408 74.564866 
L 198.28466 75.325984 
L 199.852813 74.875552 
L 200.251082 75.522756 
L 201.995884 75.091762 
L 202.832278 75.781762 
L 208.240155 76.762643 
L 210.959601 77.438311 
L 213.730661 77.957362 
L 214.96265 78.546533 
L 216.070971 78.282339 
L 216.799008 78.686557 
L 219.258943 79.077923 
L 230.116308 81.298544 
L 231.09345 81.80497 
L 232.44877 81.471377 
L 233.139144 82.052416 
L 243.952452 84.329207 
L 244.801391 85.032718 
L 246.427157 84.72296 
L 246.965759 85.253791 
L 248.208545 84.858808 
L 249.600745 85.694653 
L 252.283418 86.281321 
L 255.07973 87.182613 
L 257.631261 87.561639 
L 258.486272 88.315531 
L 259.908313 87.882956 
L 260.714529 88.648024 
L 263.282985 89.193154 
L 268.740678 90.608223 
L 269.625226 91.580972 
L 271.202154 91.052568 
L 271.783407 91.873879 
L 274.28282 92.426115 
L 279.438531 93.902927 
L 279.878475 94.737418 
L 282.042829 94.342769 
L 283.083565 95.302588 
L 285.298267 95.98277 
L 287.91897 96.922605 
L 289.057236 97.942288 
L 290.1602 97.496505 
L 291.061255 98.345751 
L 296.214529 100.164969 
L 297.39429 101.536296 
L 298.29956 100.722646 
L 299.150222 102.154744 
L 304.206986 103.680294 
L 305.034374 104.576144 
L 306.091629 104.130572 
L 307.486505 105.427213 
L 310.04698 106.485477 
L 311.163829 107.644191 
L 312.130618 107.139485 
L 313.056911 108.195067 
L 315.558719 109.375158 
L 316.819484 110.784226 
L 317.702767 110.237948 
L 318.598805 111.268008 
L 321.180908 112.460606 
L 322.250381 114.090656 
L 323.225374 113.452128 
L 324.098964 114.623992 
L 326.508821 115.893845 
L 327.626531 117.421673 
L 328.559805 116.764974 
L 329.545149 118.073475 
L 331.877162 119.442789 
L 332.759792 120.808973 
L 333.790017 120.079684 
L 334.888803 121.740042 
L 337.036015 122.912355 
L 338.044721 124.261149 
L 340.246939 125.537481 
L 341.380146 127.075008 
L 342.152966 126.433409 
L 343.223804 127.931256 
L 345.420694 129.249647 
L 346.402448 130.626832 
L 348.233002 131.553544 
L 348.937 133.295861 
L 350.704017 132.816908 
L 351.924766 133.788549 
L 354.133664 135.401558 
L 355.377016 136.580821 
L 355.624709 136.355383 
L 357.109467 138.062273 
L 358.042664 139.902587 
L 358.96714 139.155039 
L 359.980268 140.25615 
L 362.026534 141.525144 
L 362.796092 143.502945 
L 364.378184 142.477917 
L 365.23056 144.013542 
L 367.599155 146.546119 
L 367.717628 144.775443 
L 369.649799 145.768168 
L 371.012151 146.909433 
L 371.694726 150.253514 
L 373.053976 148.473554 
L 373.81819 150.380939 
L 375.907326 151.470126 
L 376.890624 152.994487 
L 377.773349 152.34004 
L 380.042338 156.054406 
L 380.840695 155.26661 
L 381.841356 156.839324 
L 383.730687 158.247207 
L 384.949469 160.127495 
L 386.649968 161.30759 
L 387.480165 163.217797 
L 389.359885 164.331425 
L 390.572689 166.485389 
L 392.027843 167.712792 
L 393.962069 172.006857 
L 394.431947 170.95743 
L 395.147176 173.584269 
L 396.194746 176.330444 
L 397.345371 176.799034 
L 398.450801 183.191772 
L 398.487273 186.386408 
L 397.768376 192.73344 
L 396.824298 197.771247 
L 396.714213 194.293054 
L 396.336092 196.465024 
L 394.573657 201.631611 
L 393.262492 202.990317 
L 392.098881 205.078717 
L 390.557762 206.472059 
L 389.365989 208.356117 
L 387.747503 209.685513 
L 386.597583 211.307799 
L 384.693786 212.780649 
L 383.552086 214.212148 
L 382.87093 213.648552 
L 381.621271 215.255006 
L 379.59698 216.4865 
L 378.499213 217.714781 
L 376.26781 219.126327 
L 375.161209 220.473504 
L 374.436861 219.963756 
L 373.280361 221.37541 
L 370.911397 222.679534 
L 369.897326 223.821318 
L 369.110213 223.310198 
L 367.84329 224.731403 
L 365.481155 225.988158 
L 364.466117 227.039868 
L 363.651794 226.520012 
L 362.370193 228.026589 
L 360.046826 229.269804 
L 359.000591 230.317029 
L 354.458596 232.578695 
L 353.620321 233.614481 
L 352.679915 233.00405 
L 351.351417 234.652135 
L 349.150291 235.742411 
L 348.2302 236.872368 
L 345.871507 238.028985 
L 343.640902 238.943005 
L 342.680835 240.007758 
L 337.911674 242.141307 
L 336.973644 243.168597 
L 336.112011 242.665696 
L 334.807876 244.01939 
L 332.250903 245.164243 
L 331.355306 246.225867 
L 330.195514 245.677267 
L 329.180938 246.824667 
L 326.604815 247.925857 
L 325.323608 249.235616 
L 324.263223 248.718434 
L 323.521045 249.626347 
L 321.062151 250.391015 
L 318.388206 251.410274 
L 317.185126 252.492971 
L 315.968251 252.026758 
L 315.326155 252.862149 
L 312.824158 253.48582 
L 310.037948 254.39537 
L 307.46775 255.018162 
L 306.905589 255.936986 
L 305.258516 255.345457 
L 304.589125 256.329188 
L 302.976202 255.547891 
L 302.042705 256.935338 
L 299.074069 257.76726 
L 296.359213 258.381159 
L 295.484678 259.003873 
L 293.971331 258.577717 
L 293.384798 259.239928 
L 291.802499 258.658021 
L 290.804625 259.593613 
L 282.547094 261.132702 
L 279.983931 261.497066 
L 279.447131 262.202778 
L 277.3411 261.834054 
L 276.923919 262.379644 
L 275.619895 261.988989 
L 274.277863 262.649201 
L 268.785572 263.34279 
L 263.271543 263.928068 
L 257.761923 264.421006 
L 255.055878 264.636411 
L 254.428389 265.338359 
L 252.307282 264.728439 
L 252.157578 265.4014 
L 249.592197 264.839271 
L 249.435215 265.494786 
L 246.867192 264.933066 
L 246.709101 265.576014 
L 244.220745 265.003159 
L 243.965178 265.697164 
L 241.447445 265.10648 
L 241.22878 265.794684 
L 238.737835 265.178308 
L 238.4589 265.881724 
L 237.089885 265.209537 
L 235.76125 266.008702 
L 230.240059 266.283378 
L 224.781119 266.581951 
L 216.483024 266.89989 
L 208.262909 267.234437 
L 197.283633 267.813896 
L 196.696885 268.558908 
L 194.485788 267.872036 
L 194.269353 268.605152 
L 191.741348 267.909123 
L 191.642228 268.660719 
L 188.99063 267.974403 
L 188.976696 268.696095 
L 186.247354 268.04288 
L 186.162799 268.737597 
L 183.508151 268.123796 
L 183.446064 268.761521 
L 180.792568 268.171403 
L 180.686034 268.817591 
L 178.013774 268.228013 
L 177.921191 268.911768 
L 175.43201 268.307032 
L 175.155305 268.998496 
L 172.513172 268.354738 
L 172.41407 269.142214 
L 170.10271 268.430086 
L 169.694633 269.24433 
L 166.946441 269.276288 
L 153.271373 269.983769 
L 150.44435 269.999515 
L 136.790349 270.87588 
L 133.920817 271.164564 
L 131.259195 271.236164 
L 130.717304 271.84909 
L 128.541791 271.388835 
L 128.343518 271.951219 
L 125.843484 271.491595 
L 125.595434 272.01088 
L 123.591483 271.629165 
L 122.865947 272.162156 
L 120.119785 272.30554 
L 114.688363 272.984391 
L 103.710344 274.381525 
L 102.344935 275.000006 
L 101.06794 274.626982 
L 100.731392 275.130668 
L 98.363154 274.786113 
L 98.117856 275.212624 
L 95.231071 275.43928 
L 94.749019 274.653797 
L 92.759099 274.687752 
L 92.677539 275.516444 
L 90.957176 274.842557 
L 89.838394 275.739678 
L 87.400499 276.525784 
L 84.363805 277.101414 
L 81.599501 277.259927 
L 78.886364 277.163442 
L 74.713413 277.318801 
L 74.713413 277.318801 
" style="fill:none;stroke:#1f77b4;stroke-linecap:square;stroke-width:1.5;"/>
   </g>
   <g id="line2d_28">
    <path clip-path="url(#pc9354cb244)" d="M 76.270814 53.568 
L 76.960681 54.687819 
L 78.825648 53.796096 
L 78.968467 54.82089 
L 81.553972 54.010906 
L 81.691673 54.860995 
L 84.273042 54.924035 
L 84.364539 54.159472 
L 86.789208 54.36379 
L 87.303668 55.14022 
L 89.920866 55.284596 
L 90.019001 54.422476 
L 92.601826 55.533731 
L 95.209699 55.911637 
L 98.167613 56.124567 
L 106.398092 57.211 
L 107.317141 57.827669 
L 108.943667 57.453502 
L 109.388935 57.948948 
L 111.459275 57.624071 
L 112.097237 58.204789 
L 114.685366 58.507328 
L 125.670571 60.269579 
L 126.802317 61.112629 
L 128.322043 60.498285 
L 128.580925 61.227137 
L 131.060378 60.650191 
L 131.27842 61.430486 
L 133.324358 60.818359 
L 134.008936 61.63577 
L 136.685328 62.010352 
L 144.876748 63.518579 
L 145.828803 64.247297 
L 147.627321 63.758089 
L 147.907686 64.447988 
L 150.197099 63.911537 
L 150.567251 64.671364 
L 152.440828 64.09432 
L 153.27659 64.907509 
L 158.698258 65.790868 
L 164.186852 66.669052 
L 165.22391 67.502979 
L 166.806056 66.904076 
L 167.142226 67.695391 
L 169.522732 67.1424 
L 169.80322 67.912446 
L 171.57052 67.317553 
L 172.52518 68.175228 
L 177.9633 69.019647 
L 180.745684 69.565157 
L 181.551627 70.688394 
L 183.383894 69.969568 
L 184.165215 70.76391 
L 186.042973 70.231255 
L 186.470924 70.991974 
L 188.678178 70.458857 
L 189.085162 71.17485 
L 191.738666 71.520449 
L 197.224668 72.558752 
L 199.950873 73.095618 
L 201.04292 73.93757 
L 202.558964 73.411479 
L 202.988128 74.13375 
L 204.807241 73.672769 
L 205.587897 74.412463 
L 210.991894 75.500739 
L 216.420282 76.693189 
L 217.003033 77.276082 
L 218.852347 76.957729 
L 219.228286 77.591323 
L 227.399676 79.84618 
L 228.452741 80.462759 
L 229.508845 80.092396 
L 230.428953 80.771323 
L 233.071144 81.530192 
L 235.678071 82.421229 
L 238.259129 83.083603 
L 239.156868 83.793624 
L 240.188012 83.423364 
L 241.326109 84.342913 
L 246.349709 86.161797 
L 247.435979 86.986671 
L 249.704154 87.547153 
L 254.4048 89.382913 
L 255.484212 90.295355 
L 256.643865 89.834556 
L 257.829631 90.996936 
L 260.487166 92.232281 
L 261.627418 93.381397 
L 262.469052 92.881839 
L 263.457356 93.831031 
L 266.095119 95.008138 
L 267.326769 96.495724 
L 268.345545 95.869695 
L 269.177652 96.954668 
L 273.926701 99.051913 
L 274.729078 100.159379 
L 277.070037 101.139676 
L 279.222505 102.192517 
L 279.80086 103.366228 
L 284.721372 105.49349 
L 285.632036 106.67683 
L 288.029032 107.950285 
L 289.131471 109.470581 
L 290.015326 108.79755 
L 291.059644 110.273913 
L 293.322563 111.595031 
L 294.347735 112.934233 
L 295.182779 112.267573 
L 296.336828 114.228452 
L 297.112607 116.108866 
L 298.443422 115.188863 
L 298.78555 116.479149 
L 301.683481 117.503211 
L 303.497799 118.708309 
L 305.022288 120.501292 
L 306.749957 121.594077 
L 307.693053 122.950701 
L 309.864796 124.270717 
L 310.914416 125.822175 
L 311.753038 125.13909 
L 312.82565 126.898176 
L 314.067341 128.690477 
L 314.930513 128.061006 
L 315.277765 129.129808 
L 318.640069 131.365484 
L 318.837573 132.525041 
L 319.764278 131.749998 
L 321.915058 135.512753 
L 322.773288 134.697288 
L 325.014521 138.468558 
L 325.787541 137.700783 
L 326.841675 139.556608 
L 327.828059 141.572672 
L 328.749801 140.70066 
L 329.724744 142.514682 
L 331.567972 143.772014 
L 332.649955 145.546498 
L 334.511019 146.880262 
L 335.518215 148.645192 
L 337.29437 149.895648 
L 338.332073 151.832896 
L 339.065978 151.03035 
L 340.103982 153.054725 
L 340.73728 154.699823 
L 341.938692 154.146614 
L 344.680351 157.342625 
L 354.650974 168.235237 
L 356.13922 169.671686 
L 357.489286 171.177566 
L 359.153267 172.826056 
L 361.71147 175.845928 
L 363.266494 178.48016 
L 363.523361 180.471533 
L 364.243381 179.461122 
L 365.186923 181.538755 
L 366.284678 183.525686 
L 366.966043 182.696151 
L 367.899509 184.966345 
L 368.965503 186.948125 
L 369.648304 186.032902 
L 370.59985 188.262854 
L 371.618817 190.252177 
L 372.2711 189.404977 
L 373.289207 191.577814 
L 374.177459 193.829295 
L 375.027321 192.68278 
L 375.949683 194.79362 
L 376.930232 196.739138 
L 377.660205 195.978475 
L 379.574794 200.383897 
L 380.311437 199.381521 
L 382.152759 203.68878 
L 383.331525 204.976769 
L 385.639587 209.35234 
L 387.206001 210.98173 
L 387.99321 213.641926 
L 388.369713 216.252903 
L 388.595389 212.1671 
L 389.027034 214.227417 
L 389.449995 217.240223 
L 389.792879 220.502971 
L 390.366362 223.494818 
L 390.421422 226.842438 
L 389.718661 233.209457 
L 388.644081 238.414572 
L 388.21969 237.14283 
L 387.558278 239.680771 
L 385.917947 244.818863 
L 385.410609 243.8354 
L 384.551081 246.235635 
L 383.484984 248.620595 
L 382.138379 249.754423 
L 380.915421 251.932753 
L 379.482299 253.212738 
L 378.297639 255.318145 
L 376.794487 256.620843 
L 375.645993 258.406456 
L 373.981804 259.855419 
L 372.885262 261.375105 
L 370.914275 262.862848 
L 369.835133 264.379499 
L 369.156082 263.749555 
L 366.722728 267.302894 
L 366.047179 266.695761 
L 364.94738 268.24022 
L 362.890994 269.605586 
L 361.752686 270.910362 
L 359.690498 272.216644 
L 358.489996 273.74757 
L 357.650083 273.227511 
L 356.653045 274.466638 
L 354.293757 275.771623 
L 353.34043 277.105324 
L 352.42624 276.501061 
L 351.313741 277.946655 
L 348.814929 279.207497 
L 347.908485 280.287226 
L 346.752667 279.695227 
L 345.81322 281.000733 
L 343.157499 282.192098 
L 342.143137 283.34276 
L 340.883989 282.83294 
L 340.076857 283.828133 
L 337.589362 284.805536 
L 334.988271 285.683543 
L 334.213498 286.655117 
L 332.659078 286.080264 
L 331.891757 287.078647 
L 329.339069 287.731518 
L 326.637846 288.588212 
L 325.488737 289.685708 
L 324.009055 289.068752 
L 323.549458 289.952553 
L 321.487048 289.367836 
L 320.97886 290.257422 
L 310.133741 292.098819 
L 309.364545 293.095546 
L 307.427193 292.299668 
L 307.17809 293.189665 
L 305.284333 292.479713 
L 304.591183 293.380431 
L 301.71455 293.539209 
L 296.280915 294.074367 
L 279.878683 295.223896 
L 274.15705 295.488 
L 266.059549 295.290004 
L 260.552219 294.987264 
L 252.301588 294.190291 
L 246.810879 293.556312 
L 245.921208 292.727337 
L 244.105297 293.347837 
L 243.849149 292.595653 
L 241.491416 293.165011 
L 241.135367 292.408356 
L 238.968848 292.999945 
L 238.431009 292.183422 
L 237.089885 292.906257 
L 235.769928 291.838456 
L 227.587806 290.406674 
L 226.84847 289.476372 
L 224.908129 290.084157 
L 224.558196 289.234831 
L 222.336752 289.831834 
L 221.907643 288.929367 
L 216.497311 287.812475 
L 213.780897 287.205397 
L 212.658189 286.224691 
L 211.186488 286.807532 
L 210.748217 286.077553 
L 208.844552 286.539329 
L 208.117611 285.758785 
L 200.033498 284.03965 
L 199.148833 283.057819 
L 197.408925 283.691738 
L 196.986602 282.818585 
L 195.011726 283.426943 
L 194.360476 282.477006 
L 193.000545 283.24461 
L 191.732514 281.986702 
L 186.316251 280.72647 
L 185.501609 279.852299 
L 183.608162 280.355195 
L 183.231439 279.570834 
L 181.312116 280.111104 
L 180.607565 279.296808 
L 169.840621 277.425822 
L 169.361887 276.547981 
L 167.172283 277.179446 
L 166.820212 276.285194 
L 164.680038 276.94344 
L 164.126598 276.032007 
L 158.720423 275.316529 
L 153.250386 274.331275 
L 152.213777 273.454142 
L 150.548925 274.071389 
L 150.249315 273.356415 
L 147.704848 273.953327 
L 147.568158 273.186193 
L 145.078728 273.832966 
L 144.881946 273.043038 
L 142.542244 273.690706 
L 142.140691 272.924791 
L 140.489645 273.582964 
L 139.483974 272.816813 
L 125.682151 272.640145 
L 120.197822 272.888124 
L 119.353182 273.582964 
L 117.439469 273.00782 
L 117.274942 273.624744 
L 114.754534 273.126934 
L 114.610874 273.738171 
L 112.010229 273.271873 
L 111.805637 273.867934 
L 109.650959 273.406908 
L 109.093191 274.014179 
L 106.431144 274.263799 
L 100.91382 275.056741 
L 98.187252 275.386471 
L 92.665936 275.626112 
L 91.673498 276.924283 
L 90.210099 276.081877 
L 89.58137 276.965941 
L 87.470657 276.654872 
L 87.012397 277.143057 
L 81.623525 277.503329 
L 81.208472 276.657124 
L 79.486417 276.619482 
L 78.916958 277.793592 
L 74.630849 278.832459 
L 74.630849 278.832459 
" style="fill:none;stroke:#ff7f0e;stroke-linecap:square;stroke-width:1.5;"/>
   </g>
   <g id="line2d_29">
    <path clip-path="url(#pc9354cb244)" d="M 74.052899 166.145458 
L 75.594099 167.047212 
L 77.1353 167.176034 
L 78.6765 167.433678 
L 81.758901 167.176034 
L 83.300101 166.91839 
L 84.841302 167.176034 
L 86.382502 167.176034 
L 89.464903 166.91839 
L 91.006103 167.047212 
L 92.547304 167.047212 
L 94.088504 166.660746 
L 95.629704 166.660746 
L 97.170905 166.789568 
L 98.712105 166.789568 
L 100.253306 166.91839 
L 101.794506 166.789568 
L 104.876907 166.789568 
L 106.418107 166.91839 
L 107.959308 166.789568 
L 109.500508 166.91839 
L 111.041709 166.91839 
L 112.582909 167.047212 
L 115.66531 167.047212 
L 117.20651 167.176034 
L 118.747711 167.176034 
L 121.830111 166.91839 
L 124.912512 167.433678 
L 126.453713 167.433678 
L 127.994913 167.5625 
L 131.077314 167.5625 
L 132.618514 167.691322 
L 134.159715 167.691322 
L 140.324516 168.20661 
L 141.865717 168.20661 
L 143.406917 168.464254 
L 144.948118 168.335432 
L 148.030518 168.593075 
L 149.571719 168.593075 
L 152.65412 169.108363 
L 154.19532 169.237185 
L 155.73652 169.237185 
L 157.277721 169.366007 
L 158.818921 169.366007 
L 163.442522 169.752473 
L 164.983723 169.752473 
L 169.607324 170.138939 
L 171.148524 170.138939 
L 172.689725 170.267761 
L 174.230925 170.267761 
L 175.772126 170.396583 
L 177.313326 170.396583 
L 185.019328 171.040693 
L 186.560529 171.040693 
L 188.101729 171.298336 
L 189.642929 171.298336 
L 197.348931 171.942446 
L 198.890132 171.942446 
L 201.972533 172.20009 
L 203.513733 172.20009 
L 205.054933 172.328912 
L 206.596134 172.328912 
L 208.137334 172.586556 
L 209.678535 172.586556 
L 211.219735 172.8442 
L 212.760935 172.8442 
L 217.384537 173.230666 
L 218.925737 173.48831 
L 228.17294 174.261241 
L 229.71414 174.261241 
L 235.878942 174.776529 
L 237.420142 175.034173 
L 243.584944 175.549461 
L 245.126144 175.549461 
L 248.208545 175.807105 
L 249.749745 176.064749 
L 266.70295 177.48179 
L 268.24415 177.739434 
L 269.785351 177.739434 
L 277.491353 178.383544 
L 279.032553 178.1259 
L 280.573753 178.1259 
L 282.114954 178.641188 
L 283.656154 178.770009 
L 285.197355 179.027653 
L 286.738555 178.641188 
L 288.279755 178.770009 
L 289.820956 179.414119 
L 295.985757 179.929407 
L 297.526958 180.444695 
L 299.068158 180.702339 
L 300.609359 180.444695 
L 302.150559 180.702339 
L 303.69176 180.444695 
L 305.23296 180.444695 
L 306.77416 180.959983 
L 316.021363 181.732914 
L 317.562563 181.990558 
L 323.727365 182.505846 
L 326.809766 183.021134 
L 328.350966 182.892312 
L 329.892166 183.278778 
L 334.515768 183.665244 
L 336.056968 183.665244 
L 337.598169 183.922887 
L 340.680569 184.180531 
L 342.22177 184.438175 
L 343.76297 184.051709 
L 346.845371 184.309353 
L 348.386571 184.309353 
L 349.927772 184.566997 
L 351.468972 184.566997 
L 353.010173 184.695819 
L 354.551373 184.695819 
L 356.092573 184.953463 
L 357.633774 185.339929 
L 359.174974 185.339929 
L 360.716175 185.082285 
L 362.257375 185.339929 
L 363.798575 185.082285 
L 368.422177 185.082285 
L 369.963377 185.339929 
L 371.504577 185.468751 
L 373.045778 186.241683 
L 374.586978 185.597573 
L 376.128179 186.370504 
L 377.669379 186.370504 
L 379.21058 185.855217 
L 380.75178 186.628148 
L 382.29298 186.885792 
L 383.834181 187.40108 
L 385.375381 187.529902 
L 386.916582 187.40108 
L 388.457782 187.529902 
L 389.998982 187.529902 
L 391.540183 187.916368 
L 393.081383 186.885792 
L 394.622584 186.628148 
L 396.163784 186.75697 
L 396.163784 186.75697 
" style="fill:none;stroke:#0000ff;stroke-dasharray:3,3;stroke-dashoffset:0;stroke-width:1.5;"/>
   </g>
   <g id="line2d_30">
    <path clip-path="url(#pc9354cb244)" d="M 73.832727 166.145458 
L 75.373928 166.789568 
L 76.915128 166.91839 
L 78.456328 166.660746 
L 81.538729 166.660746 
L 84.62113 166.403102 
L 86.162331 166.531924 
L 87.703531 166.531924 
L 89.244731 166.403102 
L 92.327132 166.403102 
L 95.409533 166.145458 
L 96.950733 166.27428 
L 98.491934 166.145458 
L 100.033134 166.145458 
L 101.574335 166.27428 
L 103.115535 166.27428 
L 104.656735 166.145458 
L 106.197936 166.27428 
L 107.739136 166.27428 
L 109.280337 166.145458 
L 113.903938 166.531924 
L 115.445138 166.531924 
L 118.527539 166.789568 
L 120.06874 166.660746 
L 126.233541 167.176034 
L 127.774742 167.433678 
L 129.315942 167.433678 
L 132.398343 167.691322 
L 133.939543 167.948966 
L 135.480744 167.948966 
L 138.563144 168.464254 
L 140.104345 168.593075 
L 141.645545 168.850719 
L 143.186746 168.979541 
L 144.727946 169.366007 
L 147.810347 169.623651 
L 149.351547 170.010117 
L 150.892748 170.138939 
L 153.975148 170.911871 
L 155.516349 171.040693 
L 158.59875 171.55598 
L 160.13995 171.684802 
L 161.681151 171.942446 
L 163.222351 172.328912 
L 164.763551 172.457734 
L 166.304752 172.8442 
L 167.845952 173.101844 
L 169.387153 173.48831 
L 170.928353 173.745953 
L 172.469553 173.874775 
L 174.010754 174.261241 
L 178.634355 175.034173 
L 180.175555 175.420639 
L 183.257956 175.935927 
L 184.799157 176.322392 
L 186.340357 176.580036 
L 189.422758 177.352968 
L 190.963958 177.610612 
L 192.505159 177.610612 
L 194.046359 178.383544 
L 195.587559 178.641188 
L 197.12876 179.027653 
L 198.66996 179.285297 
L 200.211161 179.671763 
L 201.752361 179.929407 
L 203.293562 180.315873 
L 204.834762 180.573517 
L 206.375962 180.959983 
L 207.917163 181.217627 
L 215.623165 183.149956 
L 217.164365 183.278778 
L 220.246766 184.309353 
L 223.329167 185.082285 
L 224.870367 185.339929 
L 226.411568 185.855217 
L 227.952768 186.112861 
L 229.493968 186.499326 
L 231.035169 186.499326 
L 232.576369 187.272258 
L 234.11757 187.787546 
L 235.65877 188.04519 
L 238.741171 188.818122 
L 240.282371 189.333409 
L 241.823572 189.591053 
L 243.364772 190.106341 
L 249.529574 191.652204 
L 251.070774 192.167492 
L 257.235576 193.713356 
L 260.317977 194.743931 
L 261.859177 195.001575 
L 263.400377 195.388041 
L 266.482778 196.418617 
L 268.023979 196.805082 
L 269.565179 197.32037 
L 271.106379 197.706836 
L 272.64758 198.222124 
L 274.18878 198.479768 
L 275.729981 198.866234 
L 277.271181 199.381521 
L 278.812382 199.767987 
L 280.353582 200.283275 
L 281.894782 200.669741 
L 283.435983 201.185029 
L 284.977183 201.056207 
L 288.059584 202.086782 
L 289.600784 202.988536 
L 292.683185 204.019112 
L 294.224386 204.920865 
L 295.765586 205.564975 
L 297.306786 205.049687 
L 300.389187 205.822619 
L 301.930388 206.337907 
L 303.471588 207.110838 
L 305.012788 208.141414 
L 306.553989 208.012592 
L 309.63639 209.043168 
L 311.17759 209.429633 
L 314.259991 210.460209 
L 315.801191 211.619607 
L 317.342392 211.490785 
L 318.883592 212.134894 
L 321.965993 213.16547 
L 323.507193 214.324867 
L 325.048394 214.324867 
L 326.589594 214.711333 
L 328.130795 215.355443 
L 329.671995 215.741909 
L 334.295596 217.287772 
L 335.836797 217.674238 
L 337.377997 218.189526 
L 340.460398 218.962458 
L 343.542799 219.993033 
L 345.083999 220.637143 
L 351.248801 222.183006 
L 352.790001 222.44065 
L 354.331202 222.569472 
L 355.872402 222.955938 
L 357.413602 223.213582 
L 358.954803 223.600048 
L 360.496003 223.857692 
L 362.037204 224.37298 
L 363.578404 224.759445 
L 365.119604 225.017089 
L 366.660805 225.532377 
L 369.743206 226.047665 
L 371.284406 227.464706 
L 372.825606 227.851172 
L 374.366807 227.335884 
L 375.908007 227.464706 
L 377.449208 227.72235 
L 378.990408 227.593528 
L 380.531608 226.949419 
L 382.072809 227.593528 
L 383.614009 227.464706 
L 385.15521 227.593528 
L 386.69641 227.979994 
L 388.23761 226.562953 
L 388.23761 226.562953 
" style="fill:none;stroke:#000000;stroke-linecap:square;stroke-width:1.5;"/>
   </g>
   <g id="patch_3">
    <path d="M 57.6 307.584 
L 57.6 41.472 
" style="fill:none;stroke:#000000;stroke-linecap:square;stroke-linejoin:miter;stroke-width:0.8;"/>
   </g>
   <g id="patch_4">
    <path d="M 414.72 307.584 
L 414.72 41.472 
" style="fill:none;stroke:#000000;stroke-linecap:square;stroke-linejoin:miter;stroke-width:0.8;"/>
   </g>
   <g id="patch_5">
    <path d="M 57.6 307.584 
L 414.72 307.584 
" style="fill:none;stroke:#000000;stroke-linecap:square;stroke-linejoin:miter;stroke-width:0.8;"/>
   </g>
   <g id="patch_6">
    <path d="M 57.6 41.472 
L 414.72 41.472 
" style="fill:none;stroke:#000000;stroke-linecap:square;stroke-linejoin:miter;stroke-width:0.8;"/>
   </g>
   <g id="legend_1">
    <g id="patch_7">
     <path d="M 46.72875 38.91145 
L 425.59125 38.91145 
Q 427.59125 38.91145 427.59125 36.91145 
L 427.59125 8.5552 
Q 427.59125 6.5552 425.59125 6.5552 
L 46.72875 6.5552 
Q 44.72875 6.5552 44.72875 8.5552 
L 44.72875 36.91145 
Q 44.72875 38.91145 46.72875 38.91145 
z
" style="fill:#ffffff;opacity:0.8;stroke:#cccccc;stroke-linejoin:miter;"/>
    </g>
    <g id="line2d_31">
     <path d="M 48.72875 14.653638 
L 68.72875 14.653638 
" style="fill:none;stroke:#1f77b4;stroke-linecap:square;stroke-width:1.5;"/>
    </g>
    <g id="line2d_32"/>
    <g id="text_16">
     <!-- Initial Experimental Contour -->
     <g transform="translate(76.72875 18.153638)scale(0.1 -0.1)">
      <defs>
       <path d="M 628 4666 
L 1259 4666 
L 1259 0 
L 628 0 
L 628 4666 
z
" id="DejaVuSans-49" transform="scale(0.015625)"/>
       <path d="M 2194 1759 
Q 1497 1759 1228 1600 
Q 959 1441 959 1056 
Q 959 750 1161 570 
Q 1363 391 1709 391 
Q 2188 391 2477 730 
Q 2766 1069 2766 1631 
L 2766 1759 
L 2194 1759 
z
M 3341 1997 
L 3341 0 
L 2766 0 
L 2766 531 
Q 2569 213 2275 61 
Q 1981 -91 1556 -91 
Q 1019 -91 701 211 
Q 384 513 384 1019 
Q 384 1609 779 1909 
Q 1175 2209 1959 2209 
L 2766 2209 
L 2766 2266 
Q 2766 2663 2505 2880 
Q 2244 3097 1772 3097 
Q 1472 3097 1187 3025 
Q 903 2953 641 2809 
L 641 3341 
Q 956 3463 1253 3523 
Q 1550 3584 1831 3584 
Q 2591 3584 2966 3190 
Q 3341 2797 3341 1997 
z
" id="DejaVuSans-61" transform="scale(0.015625)"/>
       <path d="M 603 4863 
L 1178 4863 
L 1178 0 
L 603 0 
L 603 4863 
z
" id="DejaVuSans-6c" transform="scale(0.015625)"/>
       <path d="M 628 4666 
L 3578 4666 
L 3578 4134 
L 1259 4134 
L 1259 2753 
L 3481 2753 
L 3481 2222 
L 1259 2222 
L 1259 531 
L 3634 531 
L 3634 0 
L 628 0 
L 628 4666 
z
" id="DejaVuSans-45" transform="scale(0.015625)"/>
       <path d="M 3513 3500 
L 2247 1797 
L 3578 0 
L 2900 0 
L 1881 1375 
L 863 0 
L 184 0 
L 1544 1831 
L 300 3500 
L 978 3500 
L 1906 2253 
L 2834 3500 
L 3513 3500 
z
" id="DejaVuSans-78" transform="scale(0.015625)"/>
       <path d="M 1159 525 
L 1159 -1331 
L 581 -1331 
L 581 3500 
L 1159 3500 
L 1159 2969 
Q 1341 3281 1617 3432 
Q 1894 3584 2278 3584 
Q 2916 3584 3314 3078 
Q 3713 2572 3713 1747 
Q 3713 922 3314 415 
Q 2916 -91 2278 -91 
Q 1894 -91 1617 61 
Q 1341 213 1159 525 
z
M 3116 1747 
Q 3116 2381 2855 2742 
Q 2594 3103 2138 3103 
Q 1681 3103 1420 2742 
Q 1159 2381 1159 1747 
Q 1159 1113 1420 752 
Q 1681 391 2138 391 
Q 2594 391 2855 752 
Q 3116 1113 3116 1747 
z
" id="DejaVuSans-70" transform="scale(0.015625)"/>
       <path d="M 4122 4306 
L 4122 3641 
Q 3803 3938 3442 4084 
Q 3081 4231 2675 4231 
Q 1875 4231 1450 3742 
Q 1025 3253 1025 2328 
Q 1025 1406 1450 917 
Q 1875 428 2675 428 
Q 3081 428 3442 575 
Q 3803 722 4122 1019 
L 4122 359 
Q 3791 134 3420 21 
Q 3050 -91 2638 -91 
Q 1578 -91 968 557 
Q 359 1206 359 2328 
Q 359 3453 968 4101 
Q 1578 4750 2638 4750 
Q 3056 4750 3426 4639 
Q 3797 4528 4122 4306 
z
" id="DejaVuSans-43" transform="scale(0.015625)"/>
       <path d="M 544 1381 
L 544 3500 
L 1119 3500 
L 1119 1403 
Q 1119 906 1312 657 
Q 1506 409 1894 409 
Q 2359 409 2629 706 
Q 2900 1003 2900 1516 
L 2900 3500 
L 3475 3500 
L 3475 0 
L 2900 0 
L 2900 538 
Q 2691 219 2414 64 
Q 2138 -91 1772 -91 
Q 1169 -91 856 284 
Q 544 659 544 1381 
z
M 1991 3584 
L 1991 3584 
z
" id="DejaVuSans-75" transform="scale(0.015625)"/>
      </defs>
      <use xlink:href="#DejaVuSans-49"/>
      <use x="29.492188" xlink:href="#DejaVuSans-6e"/>
      <use x="92.871094" xlink:href="#DejaVuSans-69"/>
      <use x="120.654297" xlink:href="#DejaVuSans-74"/>
      <use x="159.863281" xlink:href="#DejaVuSans-69"/>
      <use x="187.646484" xlink:href="#DejaVuSans-61"/>
      <use x="248.925781" xlink:href="#DejaVuSans-6c"/>
      <use x="276.708984" xlink:href="#DejaVuSans-20"/>
      <use x="308.496094" xlink:href="#DejaVuSans-45"/>
      <use x="371.679688" xlink:href="#DejaVuSans-78"/>
      <use x="430.859375" xlink:href="#DejaVuSans-70"/>
      <use x="494.335938" xlink:href="#DejaVuSans-65"/>
      <use x="555.859375" xlink:href="#DejaVuSans-72"/>
      <use x="596.972656" xlink:href="#DejaVuSans-69"/>
      <use x="624.755859" xlink:href="#DejaVuSans-6d"/>
      <use x="722.167969" xlink:href="#DejaVuSans-65"/>
      <use x="783.691406" xlink:href="#DejaVuSans-6e"/>
      <use x="847.070312" xlink:href="#DejaVuSans-74"/>
      <use x="886.279297" xlink:href="#DejaVuSans-61"/>
      <use x="947.558594" xlink:href="#DejaVuSans-6c"/>
      <use x="975.341797" xlink:href="#DejaVuSans-20"/>
      <use x="1007.128906" xlink:href="#DejaVuSans-43"/>
      <use x="1076.953125" xlink:href="#DejaVuSans-6f"/>
      <use x="1138.134766" xlink:href="#DejaVuSans-6e"/>
      <use x="1201.513672" xlink:href="#DejaVuSans-74"/>
      <use x="1240.722656" xlink:href="#DejaVuSans-6f"/>
      <use x="1301.904297" xlink:href="#DejaVuSans-75"/>
      <use x="1365.283203" xlink:href="#DejaVuSans-72"/>
     </g>
    </g>
    <g id="line2d_33">
     <path d="M 48.72875 29.331763 
L 68.72875 29.331763 
" style="fill:none;stroke:#ff7f0e;stroke-linecap:square;stroke-width:1.5;"/>
    </g>
    <g id="line2d_34"/>
    <g id="text_17">
     <!-- Final Experimental Contour -->
     <g transform="translate(76.72875 32.831763)scale(0.1 -0.1)">
      <defs>
       <path d="M 628 4666 
L 3309 4666 
L 3309 4134 
L 1259 4134 
L 1259 2759 
L 3109 2759 
L 3109 2228 
L 1259 2228 
L 1259 0 
L 628 0 
L 628 4666 
z
" id="DejaVuSans-46" transform="scale(0.015625)"/>
      </defs>
      <use xlink:href="#DejaVuSans-46"/>
      <use x="50.269531" xlink:href="#DejaVuSans-69"/>
      <use x="78.052734" xlink:href="#DejaVuSans-6e"/>
      <use x="141.431641" xlink:href="#DejaVuSans-61"/>
      <use x="202.710938" xlink:href="#DejaVuSans-6c"/>
      <use x="230.494141" xlink:href="#DejaVuSans-20"/>
      <use x="262.28125" xlink:href="#DejaVuSans-45"/>
      <use x="325.464844" xlink:href="#DejaVuSans-78"/>
      <use x="384.644531" xlink:href="#DejaVuSans-70"/>
      <use x="448.121094" xlink:href="#DejaVuSans-65"/>
      <use x="509.644531" xlink:href="#DejaVuSans-72"/>
      <use x="550.757812" xlink:href="#DejaVuSans-69"/>
      <use x="578.541016" xlink:href="#DejaVuSans-6d"/>
      <use x="675.953125" xlink:href="#DejaVuSans-65"/>
      <use x="737.476562" xlink:href="#DejaVuSans-6e"/>
      <use x="800.855469" xlink:href="#DejaVuSans-74"/>
      <use x="840.064453" xlink:href="#DejaVuSans-61"/>
      <use x="901.34375" xlink:href="#DejaVuSans-6c"/>
      <use x="929.126953" xlink:href="#DejaVuSans-20"/>
      <use x="960.914062" xlink:href="#DejaVuSans-43"/>
      <use x="1030.738281" xlink:href="#DejaVuSans-6f"/>
      <use x="1091.919922" xlink:href="#DejaVuSans-6e"/>
      <use x="1155.298828" xlink:href="#DejaVuSans-74"/>
      <use x="1194.507812" xlink:href="#DejaVuSans-6f"/>
      <use x="1255.689453" xlink:href="#DejaVuSans-75"/>
      <use x="1319.068359" xlink:href="#DejaVuSans-72"/>
     </g>
    </g>
    <g id="line2d_35">
     <path d="M 237.367812 14.653638 
L 257.367813 14.653638 
" style="fill:none;stroke:#0000ff;stroke-dasharray:3,3;stroke-dashoffset:0;stroke-width:1.5;"/>
    </g>
    <g id="line2d_36"/>
    <g id="text_18">
     <!-- Initial Experimental Camberline -->
     <g transform="translate(265.367813 18.153638)scale(0.1 -0.1)">
      <defs>
       <path d="M 3116 1747 
Q 3116 2381 2855 2742 
Q 2594 3103 2138 3103 
Q 1681 3103 1420 2742 
Q 1159 2381 1159 1747 
Q 1159 1113 1420 752 
Q 1681 391 2138 391 
Q 2594 391 2855 752 
Q 3116 1113 3116 1747 
z
M 1159 2969 
Q 1341 3281 1617 3432 
Q 1894 3584 2278 3584 
Q 2916 3584 3314 3078 
Q 3713 2572 3713 1747 
Q 3713 922 3314 415 
Q 2916 -91 2278 -91 
Q 1894 -91 1617 61 
Q 1341 213 1159 525 
L 1159 0 
L 581 0 
L 581 4863 
L 1159 4863 
L 1159 2969 
z
" id="DejaVuSans-62" transform="scale(0.015625)"/>
      </defs>
      <use xlink:href="#DejaVuSans-49"/>
      <use x="29.492188" xlink:href="#DejaVuSans-6e"/>
      <use x="92.871094" xlink:href="#DejaVuSans-69"/>
      <use x="120.654297" xlink:href="#DejaVuSans-74"/>
      <use x="159.863281" xlink:href="#DejaVuSans-69"/>
      <use x="187.646484" xlink:href="#DejaVuSans-61"/>
      <use x="248.925781" xlink:href="#DejaVuSans-6c"/>
      <use x="276.708984" xlink:href="#DejaVuSans-20"/>
      <use x="308.496094" xlink:href="#DejaVuSans-45"/>
      <use x="371.679688" xlink:href="#DejaVuSans-78"/>
      <use x="430.859375" xlink:href="#DejaVuSans-70"/>
      <use x="494.335938" xlink:href="#DejaVuSans-65"/>
      <use x="555.859375" xlink:href="#DejaVuSans-72"/>
      <use x="596.972656" xlink:href="#DejaVuSans-69"/>
      <use x="624.755859" xlink:href="#DejaVuSans-6d"/>
      <use x="722.167969" xlink:href="#DejaVuSans-65"/>
      <use x="783.691406" xlink:href="#DejaVuSans-6e"/>
      <use x="847.070312" xlink:href="#DejaVuSans-74"/>
      <use x="886.279297" xlink:href="#DejaVuSans-61"/>
      <use x="947.558594" xlink:href="#DejaVuSans-6c"/>
      <use x="975.341797" xlink:href="#DejaVuSans-20"/>
      <use x="1007.128906" xlink:href="#DejaVuSans-43"/>
      <use x="1076.953125" xlink:href="#DejaVuSans-61"/>
      <use x="1138.232422" xlink:href="#DejaVuSans-6d"/>
      <use x="1235.644531" xlink:href="#DejaVuSans-62"/>
      <use x="1299.121094" xlink:href="#DejaVuSans-65"/>
      <use x="1360.644531" xlink:href="#DejaVuSans-72"/>
      <use x="1401.757812" xlink:href="#DejaVuSans-6c"/>
      <use x="1429.541016" xlink:href="#DejaVuSans-69"/>
      <use x="1457.324219" xlink:href="#DejaVuSans-6e"/>
      <use x="1520.703125" xlink:href="#DejaVuSans-65"/>
     </g>
    </g>
    <g id="line2d_37">
     <path d="M 237.367812 29.331763 
L 257.367813 29.331763 
" style="fill:none;stroke:#000000;stroke-linecap:square;stroke-width:1.5;"/>
    </g>
    <g id="line2d_38"/>
    <g id="text_19">
     <!-- Final Experimental Camberline -->
     <g transform="translate(265.367813 32.831763)scale(0.1 -0.1)">
      <use xlink:href="#DejaVuSans-46"/>
      <use x="50.269531" xlink:href="#DejaVuSans-69"/>
      <use x="78.052734" xlink:href="#DejaVuSans-6e"/>
      <use x="141.431641" xlink:href="#DejaVuSans-61"/>
      <use x="202.710938" xlink:href="#DejaVuSans-6c"/>
      <use x="230.494141" xlink:href="#DejaVuSans-20"/>
      <use x="262.28125" xlink:href="#DejaVuSans-45"/>
      <use x="325.464844" xlink:href="#DejaVuSans-78"/>
      <use x="384.644531" xlink:href="#DejaVuSans-70"/>
      <use x="448.121094" xlink:href="#DejaVuSans-65"/>
      <use x="509.644531" xlink:href="#DejaVuSans-72"/>
      <use x="550.757812" xlink:href="#DejaVuSans-69"/>
      <use x="578.541016" xlink:href="#DejaVuSans-6d"/>
      <use x="675.953125" xlink:href="#DejaVuSans-65"/>
      <use x="737.476562" xlink:href="#DejaVuSans-6e"/>
      <use x="800.855469" xlink:href="#DejaVuSans-74"/>
      <use x="840.064453" xlink:href="#DejaVuSans-61"/>
      <use x="901.34375" xlink:href="#DejaVuSans-6c"/>
      <use x="929.126953" xlink:href="#DejaVuSans-20"/>
      <use x="960.914062" xlink:href="#DejaVuSans-43"/>
      <use x="1030.738281" xlink:href="#DejaVuSans-61"/>
      <use x="1092.017578" xlink:href="#DejaVuSans-6d"/>
      <use x="1189.429688" xlink:href="#DejaVuSans-62"/>
      <use x="1252.90625" xlink:href="#DejaVuSans-65"/>
      <use x="1314.429688" xlink:href="#DejaVuSans-72"/>
      <use x="1355.542969" xlink:href="#DejaVuSans-6c"/>
      <use x="1383.326172" xlink:href="#DejaVuSans-69"/>
      <use x="1411.109375" xlink:href="#DejaVuSans-6e"/>
      <use x="1474.488281" xlink:href="#DejaVuSans-65"/>
     </g>
    </g>
   </g>
  </g>
 </g>
 <defs>
  <clipPath id="pc9354cb244">
   <rect height="266.112" width="357.12" x="57.6" y="41.472"/>
  </clipPath>
 </defs>
</svg>
