<?xml version="1.0" encoding="utf-8" standalone="no"?>
<!DOCTYPE svg PUBLIC "-//W3C//DTD SVG 1.1//EN"
  "http://www.w3.org/Graphics/SVG/1.1/DTD/svg11.dtd">
<svg height="345.6pt" version="1.1" viewBox="0 0 460.8 345.6" width="460.8pt" xmlns="http://www.w3.org/2000/svg" xmlns:xlink="http://www.w3.org/1999/xlink">
 <metadata>
  <rdf:RDF xmlns:cc="http://creativecommons.org/ns#" xmlns:dc="http://purl.org/dc/elements/1.1/" xmlns:rdf="http://www.w3.org/1999/02/22-rdf-syntax-ns#">
   <cc:Work>
    <dc:type rdf:resource="http://purl.org/dc/dcmitype/StillImage"/>
    <dc:date>2022-06-02T15:23:49.189775</dc:date>
    <dc:format>image/svg+xml</dc:format>
    <dc:creator>
     <cc:Agent>
      <dc:title>Matplotlib v3.4.3, https://matplotlib.org/</dc:title>
     </cc:Agent>
    </dc:creator>
   </cc:Work>
  </rdf:RDF>
 </metadata>
 <defs>
  <style type="text/css">*{stroke-linecap:butt;stroke-linejoin:round;}</style>
 </defs>
 <g id="figure_1">
  <g id="patch_1">
   <path d="M 0 345.6 
L 460.8 345.6 
L 460.8 0 
L 0 0 
z
" style="fill:#ffffff;"/>
  </g>
  <g id="axes_1">
   <g id="patch_2">
    <path d="M 57.6 307.584 
L 414.72 307.584 
L 414.72 41.472 
L 57.6 41.472 
z
" style="fill:#ffffff;"/>
   </g>
   <g id="matplotlib.axis_1">
    <g id="xtick_1">
     <g id="line2d_1">
      <path clip-path="url(#p413ff805d5)" d="M 74.052899 307.584 
L 74.052899 41.472 
" style="fill:none;stroke:#b0b0b0;stroke-linecap:square;stroke-width:0.8;"/>
     </g>
     <g id="line2d_2">
      <defs>
       <path d="M 0 0 
L 0 3.5 
" id="m9113249163" style="stroke:#000000;stroke-width:0.8;"/>
      </defs>
      <g>
       <use style="stroke:#000000;stroke-width:0.8;" x="74.052899" xlink:href="#m9113249163" y="307.584"/>
      </g>
     </g>
     <g id="text_1">
      <!-- 0 -->
      <g transform="translate(70.871649 322.182437)scale(0.1 -0.1)">
       <defs>
        <path d="M 2034 4250 
Q 1547 4250 1301 3770 
Q 1056 3291 1056 2328 
Q 1056 1369 1301 889 
Q 1547 409 2034 409 
Q 2525 409 2770 889 
Q 3016 1369 3016 2328 
Q 3016 3291 2770 3770 
Q 2525 4250 2034 4250 
z
M 2034 4750 
Q 2819 4750 3233 4129 
Q 3647 3509 3647 2328 
Q 3647 1150 3233 529 
Q 2819 -91 2034 -91 
Q 1250 -91 836 529 
Q 422 1150 422 2328 
Q 422 3509 836 4129 
Q 1250 4750 2034 4750 
z
" id="DejaVuSans-30" transform="scale(0.015625)"/>
       </defs>
       <use xlink:href="#DejaVuSans-30"/>
      </g>
     </g>
    </g>
    <g id="xtick_2">
     <g id="line2d_3">
      <path clip-path="url(#p413ff805d5)" d="M 137.09811 307.584 
L 137.09811 41.472 
" style="fill:none;stroke:#b0b0b0;stroke-linecap:square;stroke-width:0.8;"/>
     </g>
     <g id="line2d_4">
      <g>
       <use style="stroke:#000000;stroke-width:0.8;" x="137.09811" xlink:href="#m9113249163" y="307.584"/>
      </g>
     </g>
     <g id="text_2">
      <!-- 100 -->
      <g transform="translate(127.55436 322.182437)scale(0.1 -0.1)">
       <defs>
        <path d="M 794 531 
L 1825 531 
L 1825 4091 
L 703 3866 
L 703 4441 
L 1819 4666 
L 2450 4666 
L 2450 531 
L 3481 531 
L 3481 0 
L 794 0 
L 794 531 
z
" id="DejaVuSans-31" transform="scale(0.015625)"/>
       </defs>
       <use xlink:href="#DejaVuSans-31"/>
       <use x="63.623047" xlink:href="#DejaVuSans-30"/>
       <use x="127.246094" xlink:href="#DejaVuSans-30"/>
      </g>
     </g>
    </g>
    <g id="xtick_3">
     <g id="line2d_5">
      <path clip-path="url(#p413ff805d5)" d="M 200.143321 307.584 
L 200.143321 41.472 
" style="fill:none;stroke:#b0b0b0;stroke-linecap:square;stroke-width:0.8;"/>
     </g>
     <g id="line2d_6">
      <g>
       <use style="stroke:#000000;stroke-width:0.8;" x="200.143321" xlink:href="#m9113249163" y="307.584"/>
      </g>
     </g>
     <g id="text_3">
      <!-- 200 -->
      <g transform="translate(190.599571 322.182437)scale(0.1 -0.1)">
       <defs>
        <path d="M 1228 531 
L 3431 531 
L 3431 0 
L 469 0 
L 469 531 
Q 828 903 1448 1529 
Q 2069 2156 2228 2338 
Q 2531 2678 2651 2914 
Q 2772 3150 2772 3378 
Q 2772 3750 2511 3984 
Q 2250 4219 1831 4219 
Q 1534 4219 1204 4116 
Q 875 4013 500 3803 
L 500 4441 
Q 881 4594 1212 4672 
Q 1544 4750 1819 4750 
Q 2544 4750 2975 4387 
Q 3406 4025 3406 3419 
Q 3406 3131 3298 2873 
Q 3191 2616 2906 2266 
Q 2828 2175 2409 1742 
Q 1991 1309 1228 531 
z
" id="DejaVuSans-32" transform="scale(0.015625)"/>
       </defs>
       <use xlink:href="#DejaVuSans-32"/>
       <use x="63.623047" xlink:href="#DejaVuSans-30"/>
       <use x="127.246094" xlink:href="#DejaVuSans-30"/>
      </g>
     </g>
    </g>
    <g id="xtick_4">
     <g id="line2d_7">
      <path clip-path="url(#p413ff805d5)" d="M 263.188532 307.584 
L 263.188532 41.472 
" style="fill:none;stroke:#b0b0b0;stroke-linecap:square;stroke-width:0.8;"/>
     </g>
     <g id="line2d_8">
      <g>
       <use style="stroke:#000000;stroke-width:0.8;" x="263.188532" xlink:href="#m9113249163" y="307.584"/>
      </g>
     </g>
     <g id="text_4">
      <!-- 300 -->
      <g transform="translate(253.644782 322.182437)scale(0.1 -0.1)">
       <defs>
        <path d="M 2597 2516 
Q 3050 2419 3304 2112 
Q 3559 1806 3559 1356 
Q 3559 666 3084 287 
Q 2609 -91 1734 -91 
Q 1441 -91 1130 -33 
Q 819 25 488 141 
L 488 750 
Q 750 597 1062 519 
Q 1375 441 1716 441 
Q 2309 441 2620 675 
Q 2931 909 2931 1356 
Q 2931 1769 2642 2001 
Q 2353 2234 1838 2234 
L 1294 2234 
L 1294 2753 
L 1863 2753 
Q 2328 2753 2575 2939 
Q 2822 3125 2822 3475 
Q 2822 3834 2567 4026 
Q 2313 4219 1838 4219 
Q 1578 4219 1281 4162 
Q 984 4106 628 3988 
L 628 4550 
Q 988 4650 1302 4700 
Q 1616 4750 1894 4750 
Q 2613 4750 3031 4423 
Q 3450 4097 3450 3541 
Q 3450 3153 3228 2886 
Q 3006 2619 2597 2516 
z
" id="DejaVuSans-33" transform="scale(0.015625)"/>
       </defs>
       <use xlink:href="#DejaVuSans-33"/>
       <use x="63.623047" xlink:href="#DejaVuSans-30"/>
       <use x="127.246094" xlink:href="#DejaVuSans-30"/>
      </g>
     </g>
    </g>
    <g id="xtick_5">
     <g id="line2d_9">
      <path clip-path="url(#p413ff805d5)" d="M 326.233743 307.584 
L 326.233743 41.472 
" style="fill:none;stroke:#b0b0b0;stroke-linecap:square;stroke-width:0.8;"/>
     </g>
     <g id="line2d_10">
      <g>
       <use style="stroke:#000000;stroke-width:0.8;" x="326.233743" xlink:href="#m9113249163" y="307.584"/>
      </g>
     </g>
     <g id="text_5">
      <!-- 400 -->
      <g transform="translate(316.689993 322.182437)scale(0.1 -0.1)">
       <defs>
        <path d="M 2419 4116 
L 825 1625 
L 2419 1625 
L 2419 4116 
z
M 2253 4666 
L 3047 4666 
L 3047 1625 
L 3713 1625 
L 3713 1100 
L 3047 1100 
L 3047 0 
L 2419 0 
L 2419 1100 
L 313 1100 
L 313 1709 
L 2253 4666 
z
" id="DejaVuSans-34" transform="scale(0.015625)"/>
       </defs>
       <use xlink:href="#DejaVuSans-34"/>
       <use x="63.623047" xlink:href="#DejaVuSans-30"/>
       <use x="127.246094" xlink:href="#DejaVuSans-30"/>
      </g>
     </g>
    </g>
    <g id="xtick_6">
     <g id="line2d_11">
      <path clip-path="url(#p413ff805d5)" d="M 389.278954 307.584 
L 389.278954 41.472 
" style="fill:none;stroke:#b0b0b0;stroke-linecap:square;stroke-width:0.8;"/>
     </g>
     <g id="line2d_12">
      <g>
       <use style="stroke:#000000;stroke-width:0.8;" x="389.278954" xlink:href="#m9113249163" y="307.584"/>
      </g>
     </g>
     <g id="text_6">
      <!-- 500 -->
      <g transform="translate(379.735204 322.182437)scale(0.1 -0.1)">
       <defs>
        <path d="M 691 4666 
L 3169 4666 
L 3169 4134 
L 1269 4134 
L 1269 2991 
Q 1406 3038 1543 3061 
Q 1681 3084 1819 3084 
Q 2600 3084 3056 2656 
Q 3513 2228 3513 1497 
Q 3513 744 3044 326 
Q 2575 -91 1722 -91 
Q 1428 -91 1123 -41 
Q 819 9 494 109 
L 494 744 
Q 775 591 1075 516 
Q 1375 441 1709 441 
Q 2250 441 2565 725 
Q 2881 1009 2881 1497 
Q 2881 1984 2565 2268 
Q 2250 2553 1709 2553 
Q 1456 2553 1204 2497 
Q 953 2441 691 2322 
L 691 4666 
z
" id="DejaVuSans-35" transform="scale(0.015625)"/>
       </defs>
       <use xlink:href="#DejaVuSans-35"/>
       <use x="63.623047" xlink:href="#DejaVuSans-30"/>
       <use x="127.246094" xlink:href="#DejaVuSans-30"/>
      </g>
     </g>
    </g>
    <g id="text_7">
     <!-- Position in X direction [mm] -->
     <g transform="translate(166.805313 335.860562)scale(0.1 -0.1)">
      <defs>
       <path d="M 1259 4147 
L 1259 2394 
L 2053 2394 
Q 2494 2394 2734 2622 
Q 2975 2850 2975 3272 
Q 2975 3691 2734 3919 
Q 2494 4147 2053 4147 
L 1259 4147 
z
M 628 4666 
L 2053 4666 
Q 2838 4666 3239 4311 
Q 3641 3956 3641 3272 
Q 3641 2581 3239 2228 
Q 2838 1875 2053 1875 
L 1259 1875 
L 1259 0 
L 628 0 
L 628 4666 
z
" id="DejaVuSans-50" transform="scale(0.015625)"/>
       <path d="M 1959 3097 
Q 1497 3097 1228 2736 
Q 959 2375 959 1747 
Q 959 1119 1226 758 
Q 1494 397 1959 397 
Q 2419 397 2687 759 
Q 2956 1122 2956 1747 
Q 2956 2369 2687 2733 
Q 2419 3097 1959 3097 
z
M 1959 3584 
Q 2709 3584 3137 3096 
Q 3566 2609 3566 1747 
Q 3566 888 3137 398 
Q 2709 -91 1959 -91 
Q 1206 -91 779 398 
Q 353 888 353 1747 
Q 353 2609 779 3096 
Q 1206 3584 1959 3584 
z
" id="DejaVuSans-6f" transform="scale(0.015625)"/>
       <path d="M 2834 3397 
L 2834 2853 
Q 2591 2978 2328 3040 
Q 2066 3103 1784 3103 
Q 1356 3103 1142 2972 
Q 928 2841 928 2578 
Q 928 2378 1081 2264 
Q 1234 2150 1697 2047 
L 1894 2003 
Q 2506 1872 2764 1633 
Q 3022 1394 3022 966 
Q 3022 478 2636 193 
Q 2250 -91 1575 -91 
Q 1294 -91 989 -36 
Q 684 19 347 128 
L 347 722 
Q 666 556 975 473 
Q 1284 391 1588 391 
Q 1994 391 2212 530 
Q 2431 669 2431 922 
Q 2431 1156 2273 1281 
Q 2116 1406 1581 1522 
L 1381 1569 
Q 847 1681 609 1914 
Q 372 2147 372 2553 
Q 372 3047 722 3315 
Q 1072 3584 1716 3584 
Q 2034 3584 2315 3537 
Q 2597 3491 2834 3397 
z
" id="DejaVuSans-73" transform="scale(0.015625)"/>
       <path d="M 603 3500 
L 1178 3500 
L 1178 0 
L 603 0 
L 603 3500 
z
M 603 4863 
L 1178 4863 
L 1178 4134 
L 603 4134 
L 603 4863 
z
" id="DejaVuSans-69" transform="scale(0.015625)"/>
       <path d="M 1172 4494 
L 1172 3500 
L 2356 3500 
L 2356 3053 
L 1172 3053 
L 1172 1153 
Q 1172 725 1289 603 
Q 1406 481 1766 481 
L 2356 481 
L 2356 0 
L 1766 0 
Q 1100 0 847 248 
Q 594 497 594 1153 
L 594 3053 
L 172 3053 
L 172 3500 
L 594 3500 
L 594 4494 
L 1172 4494 
z
" id="DejaVuSans-74" transform="scale(0.015625)"/>
       <path d="M 3513 2113 
L 3513 0 
L 2938 0 
L 2938 2094 
Q 2938 2591 2744 2837 
Q 2550 3084 2163 3084 
Q 1697 3084 1428 2787 
Q 1159 2491 1159 1978 
L 1159 0 
L 581 0 
L 581 3500 
L 1159 3500 
L 1159 2956 
Q 1366 3272 1645 3428 
Q 1925 3584 2291 3584 
Q 2894 3584 3203 3211 
Q 3513 2838 3513 2113 
z
" id="DejaVuSans-6e" transform="scale(0.015625)"/>
       <path id="DejaVuSans-20" transform="scale(0.015625)"/>
       <path d="M 403 4666 
L 1081 4666 
L 2241 2931 
L 3406 4666 
L 4084 4666 
L 2584 2425 
L 4184 0 
L 3506 0 
L 2194 1984 
L 872 0 
L 191 0 
L 1856 2491 
L 403 4666 
z
" id="DejaVuSans-58" transform="scale(0.015625)"/>
       <path d="M 2906 2969 
L 2906 4863 
L 3481 4863 
L 3481 0 
L 2906 0 
L 2906 525 
Q 2725 213 2448 61 
Q 2172 -91 1784 -91 
Q 1150 -91 751 415 
Q 353 922 353 1747 
Q 353 2572 751 3078 
Q 1150 3584 1784 3584 
Q 2172 3584 2448 3432 
Q 2725 3281 2906 2969 
z
M 947 1747 
Q 947 1113 1208 752 
Q 1469 391 1925 391 
Q 2381 391 2643 752 
Q 2906 1113 2906 1747 
Q 2906 2381 2643 2742 
Q 2381 3103 1925 3103 
Q 1469 3103 1208 2742 
Q 947 2381 947 1747 
z
" id="DejaVuSans-64" transform="scale(0.015625)"/>
       <path d="M 2631 2963 
Q 2534 3019 2420 3045 
Q 2306 3072 2169 3072 
Q 1681 3072 1420 2755 
Q 1159 2438 1159 1844 
L 1159 0 
L 581 0 
L 581 3500 
L 1159 3500 
L 1159 2956 
Q 1341 3275 1631 3429 
Q 1922 3584 2338 3584 
Q 2397 3584 2469 3576 
Q 2541 3569 2628 3553 
L 2631 2963 
z
" id="DejaVuSans-72" transform="scale(0.015625)"/>
       <path d="M 3597 1894 
L 3597 1613 
L 953 1613 
Q 991 1019 1311 708 
Q 1631 397 2203 397 
Q 2534 397 2845 478 
Q 3156 559 3463 722 
L 3463 178 
Q 3153 47 2828 -22 
Q 2503 -91 2169 -91 
Q 1331 -91 842 396 
Q 353 884 353 1716 
Q 353 2575 817 3079 
Q 1281 3584 2069 3584 
Q 2775 3584 3186 3129 
Q 3597 2675 3597 1894 
z
M 3022 2063 
Q 3016 2534 2758 2815 
Q 2500 3097 2075 3097 
Q 1594 3097 1305 2825 
Q 1016 2553 972 2059 
L 3022 2063 
z
" id="DejaVuSans-65" transform="scale(0.015625)"/>
       <path d="M 3122 3366 
L 3122 2828 
Q 2878 2963 2633 3030 
Q 2388 3097 2138 3097 
Q 1578 3097 1268 2742 
Q 959 2388 959 1747 
Q 959 1106 1268 751 
Q 1578 397 2138 397 
Q 2388 397 2633 464 
Q 2878 531 3122 666 
L 3122 134 
Q 2881 22 2623 -34 
Q 2366 -91 2075 -91 
Q 1284 -91 818 406 
Q 353 903 353 1747 
Q 353 2603 823 3093 
Q 1294 3584 2113 3584 
Q 2378 3584 2631 3529 
Q 2884 3475 3122 3366 
z
" id="DejaVuSans-63" transform="scale(0.015625)"/>
       <path d="M 550 4863 
L 1875 4863 
L 1875 4416 
L 1125 4416 
L 1125 -397 
L 1875 -397 
L 1875 -844 
L 550 -844 
L 550 4863 
z
" id="DejaVuSans-5b" transform="scale(0.015625)"/>
       <path d="M 3328 2828 
Q 3544 3216 3844 3400 
Q 4144 3584 4550 3584 
Q 5097 3584 5394 3201 
Q 5691 2819 5691 2113 
L 5691 0 
L 5113 0 
L 5113 2094 
Q 5113 2597 4934 2840 
Q 4756 3084 4391 3084 
Q 3944 3084 3684 2787 
Q 3425 2491 3425 1978 
L 3425 0 
L 2847 0 
L 2847 2094 
Q 2847 2600 2669 2842 
Q 2491 3084 2119 3084 
Q 1678 3084 1418 2786 
Q 1159 2488 1159 1978 
L 1159 0 
L 581 0 
L 581 3500 
L 1159 3500 
L 1159 2956 
Q 1356 3278 1631 3431 
Q 1906 3584 2284 3584 
Q 2666 3584 2933 3390 
Q 3200 3197 3328 2828 
z
" id="DejaVuSans-6d" transform="scale(0.015625)"/>
       <path d="M 1947 4863 
L 1947 -844 
L 622 -844 
L 622 -397 
L 1369 -397 
L 1369 4416 
L 622 4416 
L 622 4863 
L 1947 4863 
z
" id="DejaVuSans-5d" transform="scale(0.015625)"/>
      </defs>
      <use xlink:href="#DejaVuSans-50"/>
      <use x="56.677734" xlink:href="#DejaVuSans-6f"/>
      <use x="117.859375" xlink:href="#DejaVuSans-73"/>
      <use x="169.958984" xlink:href="#DejaVuSans-69"/>
      <use x="197.742188" xlink:href="#DejaVuSans-74"/>
      <use x="236.951172" xlink:href="#DejaVuSans-69"/>
      <use x="264.734375" xlink:href="#DejaVuSans-6f"/>
      <use x="325.916016" xlink:href="#DejaVuSans-6e"/>
      <use x="389.294922" xlink:href="#DejaVuSans-20"/>
      <use x="421.082031" xlink:href="#DejaVuSans-69"/>
      <use x="448.865234" xlink:href="#DejaVuSans-6e"/>
      <use x="512.244141" xlink:href="#DejaVuSans-20"/>
      <use x="544.03125" xlink:href="#DejaVuSans-58"/>
      <use x="612.537109" xlink:href="#DejaVuSans-20"/>
      <use x="644.324219" xlink:href="#DejaVuSans-64"/>
      <use x="707.800781" xlink:href="#DejaVuSans-69"/>
      <use x="735.583984" xlink:href="#DejaVuSans-72"/>
      <use x="774.447266" xlink:href="#DejaVuSans-65"/>
      <use x="835.970703" xlink:href="#DejaVuSans-63"/>
      <use x="890.951172" xlink:href="#DejaVuSans-74"/>
      <use x="930.160156" xlink:href="#DejaVuSans-69"/>
      <use x="957.943359" xlink:href="#DejaVuSans-6f"/>
      <use x="1019.125" xlink:href="#DejaVuSans-6e"/>
      <use x="1082.503906" xlink:href="#DejaVuSans-20"/>
      <use x="1114.291016" xlink:href="#DejaVuSans-5b"/>
      <use x="1153.304688" xlink:href="#DejaVuSans-6d"/>
      <use x="1250.716797" xlink:href="#DejaVuSans-6d"/>
      <use x="1348.128906" xlink:href="#DejaVuSans-5d"/>
     </g>
    </g>
   </g>
   <g id="matplotlib.axis_2">
    <g id="ytick_1">
     <g id="line2d_13">
      <path clip-path="url(#p413ff805d5)" d="M 57.6 276.790756 
L 414.72 276.790756 
" style="fill:none;stroke:#b0b0b0;stroke-linecap:square;stroke-width:0.8;"/>
     </g>
     <g id="line2d_14">
      <defs>
       <path d="M 0 0 
L -3.5 0 
" id="m6e796998c6" style="stroke:#000000;stroke-width:0.8;"/>
      </defs>
      <g>
       <use style="stroke:#000000;stroke-width:0.8;" x="57.6" xlink:href="#m6e796998c6" y="276.790756"/>
      </g>
     </g>
     <g id="text_8">
      <!-- −150 -->
      <g transform="translate(23.132812 280.589974)scale(0.1 -0.1)">
       <defs>
        <path d="M 678 2272 
L 4684 2272 
L 4684 1741 
L 678 1741 
L 678 2272 
z
" id="DejaVuSans-2212" transform="scale(0.015625)"/>
       </defs>
       <use xlink:href="#DejaVuSans-2212"/>
       <use x="83.789062" xlink:href="#DejaVuSans-31"/>
       <use x="147.412109" xlink:href="#DejaVuSans-35"/>
       <use x="211.035156" xlink:href="#DejaVuSans-30"/>
      </g>
     </g>
    </g>
    <g id="ytick_2">
     <g id="line2d_15">
      <path clip-path="url(#p413ff805d5)" d="M 57.6 239.868301 
L 414.72 239.868301 
" style="fill:none;stroke:#b0b0b0;stroke-linecap:square;stroke-width:0.8;"/>
     </g>
     <g id="line2d_16">
      <g>
       <use style="stroke:#000000;stroke-width:0.8;" x="57.6" xlink:href="#m6e796998c6" y="239.868301"/>
      </g>
     </g>
     <g id="text_9">
      <!-- −100 -->
      <g transform="translate(23.132812 243.66752)scale(0.1 -0.1)">
       <use xlink:href="#DejaVuSans-2212"/>
       <use x="83.789062" xlink:href="#DejaVuSans-31"/>
       <use x="147.412109" xlink:href="#DejaVuSans-30"/>
       <use x="211.035156" xlink:href="#DejaVuSans-30"/>
      </g>
     </g>
    </g>
    <g id="ytick_3">
     <g id="line2d_17">
      <path clip-path="url(#p413ff805d5)" d="M 57.6 202.945846 
L 414.72 202.945846 
" style="fill:none;stroke:#b0b0b0;stroke-linecap:square;stroke-width:0.8;"/>
     </g>
     <g id="line2d_18">
      <g>
       <use style="stroke:#000000;stroke-width:0.8;" x="57.6" xlink:href="#m6e796998c6" y="202.945846"/>
      </g>
     </g>
     <g id="text_10">
      <!-- −50 -->
      <g transform="translate(29.495313 206.745065)scale(0.1 -0.1)">
       <use xlink:href="#DejaVuSans-2212"/>
       <use x="83.789062" xlink:href="#DejaVuSans-35"/>
       <use x="147.412109" xlink:href="#DejaVuSans-30"/>
      </g>
     </g>
    </g>
    <g id="ytick_4">
     <g id="line2d_19">
      <path clip-path="url(#p413ff805d5)" d="M 57.6 166.023392 
L 414.72 166.023392 
" style="fill:none;stroke:#b0b0b0;stroke-linecap:square;stroke-width:0.8;"/>
     </g>
     <g id="line2d_20">
      <g>
       <use style="stroke:#000000;stroke-width:0.8;" x="57.6" xlink:href="#m6e796998c6" y="166.023392"/>
      </g>
     </g>
     <g id="text_11">
      <!-- 0 -->
      <g transform="translate(44.2375 169.82261)scale(0.1 -0.1)">
       <use xlink:href="#DejaVuSans-30"/>
      </g>
     </g>
    </g>
    <g id="ytick_5">
     <g id="line2d_21">
      <path clip-path="url(#p413ff805d5)" d="M 57.6 129.100937 
L 414.72 129.100937 
" style="fill:none;stroke:#b0b0b0;stroke-linecap:square;stroke-width:0.8;"/>
     </g>
     <g id="line2d_22">
      <g>
       <use style="stroke:#000000;stroke-width:0.8;" x="57.6" xlink:href="#m6e796998c6" y="129.100937"/>
      </g>
     </g>
     <g id="text_12">
      <!-- 50 -->
      <g transform="translate(37.875 132.900156)scale(0.1 -0.1)">
       <use xlink:href="#DejaVuSans-35"/>
       <use x="63.623047" xlink:href="#DejaVuSans-30"/>
      </g>
     </g>
    </g>
    <g id="ytick_6">
     <g id="line2d_23">
      <path clip-path="url(#p413ff805d5)" d="M 57.6 92.178482 
L 414.72 92.178482 
" style="fill:none;stroke:#b0b0b0;stroke-linecap:square;stroke-width:0.8;"/>
     </g>
     <g id="line2d_24">
      <g>
       <use style="stroke:#000000;stroke-width:0.8;" x="57.6" xlink:href="#m6e796998c6" y="92.178482"/>
      </g>
     </g>
     <g id="text_13">
      <!-- 100 -->
      <g transform="translate(31.5125 95.977701)scale(0.1 -0.1)">
       <use xlink:href="#DejaVuSans-31"/>
       <use x="63.623047" xlink:href="#DejaVuSans-30"/>
       <use x="127.246094" xlink:href="#DejaVuSans-30"/>
      </g>
     </g>
    </g>
    <g id="ytick_7">
     <g id="line2d_25">
      <path clip-path="url(#p413ff805d5)" d="M 57.6 55.256028 
L 414.72 55.256028 
" style="fill:none;stroke:#b0b0b0;stroke-linecap:square;stroke-width:0.8;"/>
     </g>
     <g id="line2d_26">
      <g>
       <use style="stroke:#000000;stroke-width:0.8;" x="57.6" xlink:href="#m6e796998c6" y="55.256028"/>
      </g>
     </g>
     <g id="text_14">
      <!-- 150 -->
      <g transform="translate(31.5125 59.055246)scale(0.1 -0.1)">
       <use xlink:href="#DejaVuSans-31"/>
       <use x="63.623047" xlink:href="#DejaVuSans-35"/>
       <use x="127.246094" xlink:href="#DejaVuSans-30"/>
      </g>
     </g>
    </g>
    <g id="text_15">
     <!-- Position in Y direction [mm] -->
     <g transform="translate(17.053125 243.511594)rotate(-90)scale(0.1 -0.1)">
      <defs>
       <path d="M -13 4666 
L 666 4666 
L 1959 2747 
L 3244 4666 
L 3922 4666 
L 2272 2222 
L 2272 0 
L 1638 0 
L 1638 2222 
L -13 4666 
z
" id="DejaVuSans-59" transform="scale(0.015625)"/>
      </defs>
      <use xlink:href="#DejaVuSans-50"/>
      <use x="56.677734" xlink:href="#DejaVuSans-6f"/>
      <use x="117.859375" xlink:href="#DejaVuSans-73"/>
      <use x="169.958984" xlink:href="#DejaVuSans-69"/>
      <use x="197.742188" xlink:href="#DejaVuSans-74"/>
      <use x="236.951172" xlink:href="#DejaVuSans-69"/>
      <use x="264.734375" xlink:href="#DejaVuSans-6f"/>
      <use x="325.916016" xlink:href="#DejaVuSans-6e"/>
      <use x="389.294922" xlink:href="#DejaVuSans-20"/>
      <use x="421.082031" xlink:href="#DejaVuSans-69"/>
      <use x="448.865234" xlink:href="#DejaVuSans-6e"/>
      <use x="512.244141" xlink:href="#DejaVuSans-20"/>
      <use x="544.03125" xlink:href="#DejaVuSans-59"/>
      <use x="605.115234" xlink:href="#DejaVuSans-20"/>
      <use x="636.902344" xlink:href="#DejaVuSans-64"/>
      <use x="700.378906" xlink:href="#DejaVuSans-69"/>
      <use x="728.162109" xlink:href="#DejaVuSans-72"/>
      <use x="767.025391" xlink:href="#DejaVuSans-65"/>
      <use x="828.548828" xlink:href="#DejaVuSans-63"/>
      <use x="883.529297" xlink:href="#DejaVuSans-74"/>
      <use x="922.738281" xlink:href="#DejaVuSans-69"/>
      <use x="950.521484" xlink:href="#DejaVuSans-6f"/>
      <use x="1011.703125" xlink:href="#DejaVuSans-6e"/>
      <use x="1075.082031" xlink:href="#DejaVuSans-20"/>
      <use x="1106.869141" xlink:href="#DejaVuSans-5b"/>
      <use x="1145.882812" xlink:href="#DejaVuSans-6d"/>
      <use x="1243.294922" xlink:href="#DejaVuSans-6d"/>
      <use x="1340.707031" xlink:href="#DejaVuSans-5d"/>
     </g>
    </g>
   </g>
   <g id="line2d_27">
    <path clip-path="url(#p413ff805d5)" d="M 76.496092 56.001289 
L 78.813756 55.099038 
L 78.933801 56.149775 
L 81.529496 55.302498 
L 81.686922 56.183346 
L 84.279036 55.430055 
L 84.39612 56.253485 
L 86.189852 55.615498 
L 87.226875 56.467063 
L 89.574989 55.647734 
L 89.911232 56.657467 
L 92.650685 57.030984 
L 95.388127 57.144196 
L 106.265797 58.543665 
L 106.975208 59.066691 
L 108.399651 58.749747 
L 109.331845 59.229762 
L 110.821537 58.871322 
L 112.007431 59.566228 
L 125.585194 61.654467 
L 126.338257 62.343363 
L 128.34115 61.831824 
L 128.588864 62.505731 
L 130.862647 61.976712 
L 131.281613 62.722236 
L 133.942036 63.049579 
L 139.371086 64.102908 
L 142.213432 64.640835 
L 144.802544 64.976629 
L 145.390426 65.576386 
L 147.590175 65.136869 
L 147.857317 65.786134 
L 149.415764 65.264772 
L 150.515441 66.048287 
L 155.937712 66.954748 
L 161.424284 67.916763 
L 162.506794 68.67103 
L 164.103681 68.15601 
L 164.493021 68.880906 
L 166.626272 68.40905 
L 167.073034 69.106724 
L 168.506467 68.542087 
L 169.757175 69.417236 
L 180.60918 71.268062 
L 181.250202 71.989791 
L 183.281682 71.511123 
L 183.637794 72.184003 
L 185.315713 71.735919 
L 186.283151 72.453186 
L 191.66832 73.300431 
L 197.187408 74.35637 
L 198.28466 75.118207 
L 199.852813 74.667349 
L 200.251082 75.315164 
L 201.995884 74.883764 
L 202.832278 75.574414 
L 208.240155 76.556221 
L 210.959601 77.232527 
L 213.730661 77.752068 
L 214.96265 78.341795 
L 216.070971 78.077351 
L 216.799008 78.481951 
L 219.258943 78.873687 
L 230.116308 81.096403 
L 231.09345 81.603307 
L 232.44877 81.269399 
L 233.139144 81.850987 
L 243.952452 84.129926 
L 244.801391 84.834101 
L 246.427157 84.524051 
L 246.965759 85.055383 
L 248.208545 84.660027 
L 249.600745 85.496661 
L 252.283418 86.083883 
L 255.07973 86.986025 
L 257.631261 87.365408 
L 258.486272 88.120012 
L 259.908313 87.687029 
L 260.714529 88.452819 
L 263.282985 88.998463 
L 268.740678 90.414868 
L 269.625226 91.388535 
L 271.202154 90.859632 
L 271.783407 91.681719 
L 274.28282 92.234476 
L 279.438531 93.712682 
L 279.878475 94.54796 
L 282.042829 94.152939 
L 283.083565 95.113663 
L 285.298267 95.794488 
L 287.91897 96.735209 
L 289.057236 97.755854 
L 290.1602 97.30965 
L 291.061255 98.159698 
L 296.214529 99.980634 
L 297.39429 101.353254 
L 298.29956 100.538836 
L 299.150222 101.972286 
L 304.206986 103.499276 
L 305.034374 104.395972 
L 306.091629 103.949979 
L 307.486505 105.247843 
L 310.04698 106.307106 
L 311.163829 107.466913 
L 312.130618 106.961731 
L 313.056911 108.018309 
L 315.558719 109.199514 
L 316.819484 110.609912 
L 317.702767 110.063118 
L 318.598805 111.094151 
L 321.180908 112.287874 
L 322.250381 113.919462 
L 323.225374 113.280332 
L 324.098964 114.453302 
L 326.508821 115.724354 
L 327.626531 117.253623 
L 328.559805 116.596305 
L 329.545149 117.906041 
L 331.877162 119.276646 
L 332.759792 120.64412 
L 333.790017 119.914142 
L 334.888803 121.576068 
L 337.036015 122.749487 
L 338.044721 124.099554 
L 340.246939 125.37709 
L 341.380146 126.916068 
L 342.152966 126.273864 
L 343.223804 127.773125 
L 345.420694 129.09276 
L 346.402448 130.471244 
L 348.233002 131.398832 
L 348.937 133.142793 
L 350.704017 132.663387 
L 351.924766 133.635945 
L 354.133664 135.250477 
L 355.377016 136.430853 
L 355.624709 136.205201 
L 357.109467 137.913703 
L 358.042664 139.755754 
L 358.96714 139.0075 
L 359.980268 140.10965 
L 362.026534 141.379841 
L 362.796092 143.359509 
L 364.378184 142.333514 
L 365.23056 143.870588 
L 367.599155 146.405555 
L 367.717628 144.633208 
L 369.649799 145.62687 
L 371.012151 146.769212 
L 371.694726 150.116449 
L 373.053976 148.334809 
L 373.81819 150.243994 
L 375.907326 151.334209 
L 376.890624 152.860009 
L 377.773349 152.204944 
L 380.042338 155.922815 
L 380.840695 155.134276 
L 381.841356 156.708475 
L 383.730687 158.117686 
L 384.949469 159.999749 
L 386.649968 161.180958 
L 387.480165 163.092968 
L 389.359885 164.207646 
L 390.572689 166.363643 
L 392.027843 167.592204 
L 393.962069 171.890322 
L 394.431947 170.839904 
L 395.147176 173.469222 
L 396.194746 176.217989 
L 397.345371 176.687021 
L 398.450801 183.085793 
L 398.487273 186.283444 
L 397.768376 192.636466 
L 396.824298 197.679027 
L 396.714213 194.197552 
L 396.336092 196.371572 
L 394.573657 201.543035 
L 393.262492 202.903022 
L 392.098881 204.993394 
L 390.557762 206.38805 
L 389.365989 208.273887 
L 387.747503 209.604537 
L 386.597583 211.228354 
L 384.693786 212.702594 
L 383.552086 214.135444 
L 382.87093 213.571316 
L 381.621271 215.179286 
L 379.59698 216.411942 
L 378.499213 217.641383 
L 376.26781 219.054261 
L 375.161209 220.402709 
L 374.436861 219.89248 
L 373.280361 221.305466 
L 370.911397 222.610821 
L 369.897326 223.753683 
L 369.110213 223.242081 
L 367.84329 224.664626 
L 365.481155 225.922568 
L 364.466117 226.97527 
L 363.651794 226.454924 
L 362.370193 227.962923 
L 360.046826 229.207311 
L 359.000591 230.255524 
L 354.458596 232.519324 
L 353.620321 233.556088 
L 352.679915 232.945081 
L 351.351417 234.594721 
L 349.150291 235.686026 
L 348.2302 236.81705 
L 345.871507 237.974759 
L 343.640902 238.889641 
L 342.680835 239.955398 
L 337.911674 242.090961 
L 336.973644 243.119221 
L 336.112011 242.615845 
L 334.807876 243.970816 
L 332.250903 245.11675 
L 331.355306 246.179375 
L 330.195514 245.630258 
L 329.180938 246.778741 
L 326.604815 247.88097 
L 325.323608 249.191965 
L 324.263223 248.674295 
L 323.521045 249.583065 
L 321.062151 250.348455 
L 318.388206 251.368676 
L 317.185126 252.452394 
L 315.968251 251.985741 
L 315.326155 252.821921 
L 312.824158 253.44618 
L 310.037948 254.356589 
L 307.46775 254.979968 
L 306.905589 255.89966 
L 305.258516 255.307572 
L 304.589125 256.292232 
L 302.976202 255.510198 
L 302.042705 256.898954 
L 299.074069 257.731661 
L 296.359213 258.346139 
L 295.484678 258.969441 
L 293.971331 258.542883 
L 293.384798 259.205719 
L 291.802499 258.623263 
L 290.804625 259.559738 
L 282.547094 261.100279 
L 279.983931 261.464987 
L 279.447131 262.171365 
L 277.3411 261.802293 
L 276.923919 262.348398 
L 275.619895 261.957374 
L 274.277863 262.61821 
L 268.785572 263.312453 
L 263.271543 263.898284 
L 257.761923 264.391687 
L 255.055878 264.607295 
L 254.428389 265.309906 
L 252.307282 264.69941 
L 252.157578 265.373006 
L 249.592197 264.810346 
L 249.435215 265.46648 
L 246.867192 264.90423 
L 246.709101 265.547784 
L 244.220745 264.974389 
L 243.965178 265.669049 
L 241.447445 265.077807 
L 241.22878 265.766661 
L 238.737835 265.149703 
L 238.4589 265.853783 
L 237.089885 265.180962 
L 235.76125 265.980881 
L 230.240059 266.255816 
L 224.781119 266.554671 
L 216.483024 266.87291 
L 208.262909 267.207773 
L 197.283633 267.787779 
L 196.696885 268.533494 
L 194.485788 267.845973 
L 194.269353 268.579781 
L 191.741348 267.883096 
L 191.642228 268.635401 
L 188.99063 267.948437 
L 188.976696 268.67081 
L 186.247354 268.016979 
L 186.162799 268.712351 
L 183.508151 268.097971 
L 183.446064 268.736298 
L 180.792568 268.145623 
L 180.686034 268.792421 
L 178.013774 268.202286 
L 177.921191 268.886687 
L 175.43201 268.28138 
L 175.155305 268.973497 
L 172.513172 268.329131 
L 172.41407 269.11735 
L 170.10271 268.40455 
L 169.694633 269.219562 
L 166.946441 269.251551 
L 153.271373 269.9597 
L 150.44435 269.97546 
L 136.790349 270.852653 
L 133.920817 271.141609 
L 131.259195 271.213277 
L 130.717304 271.826781 
L 128.541791 271.366092 
L 128.343518 271.929007 
L 125.843484 271.468949 
L 125.595434 271.988724 
L 123.591483 271.606648 
L 122.865947 272.140142 
L 120.119785 272.283661 
L 114.688363 272.963154 
L 103.710344 274.361606 
L 102.344935 274.98067 
L 101.06794 274.607295 
L 100.731392 275.111456 
L 98.363154 274.766575 
L 98.117856 275.19349 
L 95.231071 275.42036 
L 94.749019 274.634134 
L 92.759099 274.668122 
L 92.677539 275.497595 
L 90.957176 274.823072 
L 89.838394 275.72104 
L 87.400499 276.507888 
L 84.363805 277.084061 
L 81.599501 277.242725 
L 78.886364 277.146149 
L 76.557349 277.279088 
L 76.557349 277.279088 
" style="fill:none;stroke:#1f77b4;stroke-linecap:square;stroke-width:1.5;"/>
   </g>
   <g id="line2d_28">
    <path clip-path="url(#p413ff805d5)" d="M 76.960681 54.460565 
L 78.825648 53.568 
L 78.968467 54.593761 
L 81.553972 53.783013 
L 81.691673 54.633904 
L 84.273042 54.697003 
L 84.364539 53.931719 
L 86.789208 54.13623 
L 87.303668 54.913392 
L 89.920866 55.057905 
L 90.019001 54.194971 
L 92.601826 55.307275 
L 95.209699 55.685537 
L 98.167613 55.898668 
L 106.398092 56.986127 
L 107.317141 57.603378 
L 108.943667 57.228857 
L 109.388935 57.724771 
L 111.459275 57.399588 
L 112.097237 57.980854 
L 114.685366 58.283678 
L 125.670571 60.047592 
L 126.802317 60.891438 
L 128.322043 60.276514 
L 128.580925 61.006054 
L 131.060378 60.428563 
L 131.27842 61.209594 
L 133.324358 60.59689 
L 134.008936 61.415072 
L 136.685328 61.790008 
L 144.876748 63.299658 
L 145.828803 64.029063 
L 147.627321 63.539394 
L 147.907686 64.229944 
L 150.197099 63.692987 
L 150.567251 64.453532 
L 152.440828 63.875943 
L 153.27659 64.689899 
L 158.698258 65.574091 
L 164.186852 66.453104 
L 165.22391 67.287818 
L 166.806056 66.68835 
L 167.142226 67.480412 
L 169.522732 66.926899 
L 169.80322 67.697672 
L 171.57052 67.102217 
L 172.52518 67.960702 
L 177.9633 68.805918 
L 180.745684 69.351943 
L 181.551627 70.47624 
L 183.383894 69.756735 
L 184.165215 70.551827 
L 186.042973 70.018669 
L 186.470924 70.780107 
L 188.678178 70.246486 
L 189.085162 70.963155 
L 191.738666 71.30908 
L 197.224668 72.348363 
L 199.950873 72.885735 
L 201.04292 73.728482 
L 202.558964 73.201895 
L 202.988128 73.924847 
L 204.807241 73.463431 
L 205.587897 74.203823 
L 210.991894 75.293126 
L 216.420282 76.486702 
L 217.003033 77.070145 
L 218.852347 76.751491 
L 219.228286 77.385683 
L 227.399676 79.642668 
L 228.452741 80.25983 
L 229.508845 79.889117 
L 230.428953 80.568684 
L 233.071144 81.32827 
L 235.678071 82.220148 
L 238.259129 82.883147 
L 239.156868 83.593838 
L 240.188012 83.223228 
L 241.326109 84.143645 
L 246.349709 85.964246 
L 247.435979 86.789898 
L 249.704154 87.350909 
L 254.4048 89.188401 
L 255.484212 90.101705 
L 256.643865 89.640471 
L 257.829631 90.803948 
L 260.487166 92.040459 
L 261.627418 93.19066 
L 262.469052 92.69063 
L 263.457356 93.640717 
L 266.095119 94.818935 
L 267.326769 96.307926 
L 268.345545 95.681305 
L 269.177652 96.767303 
L 273.926701 98.866527 
L 274.729078 99.975037 
L 277.070037 100.95626 
L 279.222505 102.010095 
L 279.80086 103.184914 
L 284.721372 105.314183 
L 285.632036 106.49864 
L 288.029032 107.773296 
L 289.131471 109.295027 
L 290.015326 108.621361 
L 291.059644 110.099117 
L 293.322563 111.421482 
L 294.347735 112.761948 
L 295.182779 112.094659 
L 296.336828 114.057389 
L 297.112607 115.939577 
L 298.443422 115.018706 
L 298.78555 116.31021 
L 301.683481 117.335238 
L 303.497799 118.541474 
L 305.022288 120.336148 
L 306.749957 121.429965 
L 307.693053 122.787869 
L 309.864796 124.109131 
L 310.914416 125.662054 
L 311.753038 124.978323 
L 312.82565 126.73907 
L 314.067341 128.533062 
L 314.930513 127.902997 
L 315.277765 128.972808 
L 318.640069 131.210594 
L 318.837573 132.371245 
L 319.764278 131.59547 
L 321.915058 135.361776 
L 322.773288 134.545542 
L 325.014521 138.320371 
L 325.787541 137.551872 
L 326.841675 139.409448 
L 327.828059 141.427414 
L 328.749801 140.554579 
L 329.724744 142.370314 
L 331.567972 143.628832 
L 332.649955 145.404991 
L 334.511019 146.740014 
L 335.518215 148.506609 
L 337.29437 149.758245 
L 338.332073 151.697321 
L 339.065978 150.894018 
L 340.103982 152.920304 
L 340.73728 154.566955 
L 341.938692 154.013223 
L 344.680351 157.212251 
L 354.650974 168.115142 
L 356.13922 169.552947 
L 357.489286 171.060248 
L 359.153267 172.710294 
L 361.71147 175.733016 
L 363.266494 178.369734 
L 363.523361 180.362986 
L 364.243381 179.351622 
L 365.186923 181.431215 
L 366.284678 183.420022 
L 366.966043 182.589704 
L 367.899509 184.862041 
L 368.965503 186.845691 
L 369.648304 185.929604 
L 370.59985 188.161661 
L 371.618817 190.152861 
L 372.2711 189.304861 
L 373.289207 191.479749 
L 374.177459 193.733355 
L 375.027321 192.585758 
L 375.949683 194.698589 
L 376.930232 196.645944 
L 377.660205 195.884563 
L 379.574794 200.294143 
L 380.311437 199.290821 
L 382.152759 203.602145 
L 383.331525 204.891349 
L 385.639587 209.27105 
L 387.206001 210.901977 
L 387.99321 213.564684 
L 388.369713 216.178125 
L 388.595389 212.088466 
L 389.027034 214.150727 
L 389.449995 217.166377 
L 389.792879 220.432204 
L 390.366362 223.426875 
L 390.421422 226.777654 
L 389.718661 233.150682 
L 388.644081 238.360709 
L 388.21969 237.087767 
L 387.558278 239.628103 
L 385.917947 244.771044 
L 385.410609 243.786653 
L 384.551081 246.189153 
L 383.484984 248.576364 
L 382.138379 249.711262 
L 380.915421 251.891648 
L 379.482299 253.172841 
L 378.297639 255.280235 
L 376.794487 256.584162 
L 375.645993 258.37146 
L 373.981804 259.821791 
L 372.885262 261.342911 
L 370.914275 262.832058 
L 369.835133 264.350141 
L 369.156082 263.719602 
L 366.722728 267.276294 
L 366.047179 266.668588 
L 364.94738 268.214505 
L 362.890994 269.58116 
L 361.752686 270.887167 
L 359.690498 272.194681 
L 358.489996 273.727053 
L 357.650083 273.206503 
L 356.653045 274.446799 
L 354.293757 275.753016 
L 353.34043 277.087976 
L 352.42624 276.483142 
L 351.313741 277.930101 
L 348.814929 279.192132 
L 347.908485 280.272881 
L 346.752667 279.680322 
L 345.81322 280.987061 
L 343.157499 282.17955 
L 342.143137 283.331298 
L 340.883989 282.820997 
L 340.076857 283.817129 
L 337.589362 284.795454 
L 334.988271 285.67429 
L 334.213498 286.646781 
L 332.659078 286.071386 
L 331.891757 287.070711 
L 329.339069 287.724198 
L 326.637846 288.5817 
L 325.488737 289.680232 
L 324.009055 289.062694 
L 323.549458 289.947329 
L 321.487048 289.36206 
L 320.97886 290.252485 
L 310.133741 292.09562 
L 309.364545 293.093288 
L 307.427193 292.296659 
L 307.17809 293.187496 
L 305.284333 292.476874 
L 304.591183 293.378442 
L 301.71455 293.537369 
L 296.280915 294.073033 
L 279.878683 295.223647 
L 274.15705 295.488 
L 266.059549 295.289817 
L 260.552219 294.986791 
L 252.301588 294.189066 
L 246.810879 293.554489 
L 245.921208 292.724732 
L 244.105297 293.345817 
L 243.849149 292.592923 
L 241.491416 293.162819 
L 241.135367 292.405449 
L 238.968848 292.997597 
L 238.431009 292.180304 
L 237.089885 292.90382 
L 235.769928 291.835012 
L 227.587806 290.401879 
L 226.84847 289.470699 
L 224.908129 290.079057 
L 224.558196 289.22893 
L 222.336752 289.826496 
L 221.907643 288.923177 
L 216.497311 287.805231 
L 213.780897 287.197581 
L 212.658189 286.215949 
L 211.186488 286.799339 
L 210.748217 286.068672 
L 208.844552 286.530884 
L 208.117611 285.749603 
L 200.033498 284.028846 
L 199.148833 283.046088 
L 197.408925 283.680606 
L 196.986602 282.806628 
L 195.011726 283.41556 
L 194.360476 282.464727 
L 193.000545 283.233056 
L 191.732514 281.97396 
L 186.316251 280.712539 
L 185.501609 279.837543 
L 183.608162 280.340913 
L 183.231439 279.555812 
L 181.312116 280.096592 
L 180.607565 279.281527 
L 169.840621 277.408776 
L 169.361887 276.530106 
L 167.172283 277.162167 
L 166.820212 276.267071 
L 164.680038 276.925939 
L 164.126598 276.013646 
L 158.720423 275.297493 
L 153.250386 274.311308 
L 152.213777 273.433348 
L 150.548925 274.051177 
L 150.249315 273.335529 
L 147.704848 273.933004 
L 147.568158 273.165145 
L 145.078728 273.812529 
L 144.881946 273.021856 
L 142.542244 273.670135 
L 142.140691 272.903497 
L 140.489645 273.562291 
L 139.483974 272.795417 
L 125.682151 272.618582 
L 120.197822 272.866795 
L 119.353182 273.562291 
L 117.439469 272.986604 
L 117.274942 273.604111 
L 114.754534 273.105831 
L 114.610874 273.717645 
L 112.010229 273.250906 
L 111.805637 273.84753 
L 109.650959 273.386069 
L 109.093191 273.993913 
L 106.431144 274.243769 
L 100.91382 275.037459 
L 98.187252 275.367501 
L 92.665936 275.607368 
L 91.673498 276.906764 
L 90.210099 276.063562 
L 89.58137 276.94846 
L 87.470657 276.637098 
L 87.012397 277.125744 
L 81.623525 277.486356 
L 81.208472 276.639353 
L 79.486417 276.601674 
L 78.916958 277.776893 
L 76.302088 278.389615 
L 76.302088 278.389615 
" style="fill:none;stroke:#ff7f0e;stroke-linecap:square;stroke-width:1.5;"/>
   </g>
   <g id="line2d_29">
    <path clip-path="url(#p413ff805d5)" d="M 74.052899 166.023392 
L 75.594099 166.925996 
L 77.1353 167.05494 
L 78.6765 167.312827 
L 81.758901 167.05494 
L 83.300101 166.797053 
L 84.841302 167.05494 
L 86.382502 167.05494 
L 89.464903 166.797053 
L 91.006103 166.925996 
L 92.547304 166.925996 
L 94.088504 166.539166 
L 95.629704 166.539166 
L 97.170905 166.668109 
L 98.712105 166.668109 
L 100.253306 166.797053 
L 101.794506 166.668109 
L 104.876907 166.668109 
L 106.418107 166.797053 
L 107.959308 166.668109 
L 109.500508 166.797053 
L 111.041709 166.797053 
L 112.582909 166.925996 
L 115.66531 166.925996 
L 117.20651 167.05494 
L 118.747711 167.05494 
L 121.830111 166.797053 
L 124.912512 167.312827 
L 126.453713 167.312827 
L 127.994913 167.44177 
L 131.077314 167.44177 
L 132.618514 167.570714 
L 134.159715 167.570714 
L 140.324516 168.086488 
L 141.865717 168.086488 
L 143.406917 168.344375 
L 144.948118 168.215431 
L 148.030518 168.473319 
L 149.571719 168.473319 
L 152.65412 168.989093 
L 154.19532 169.118036 
L 155.73652 169.118036 
L 157.277721 169.24698 
L 158.818921 169.24698 
L 163.442522 169.63381 
L 164.983723 169.63381 
L 169.607324 170.020641 
L 171.148524 170.020641 
L 172.689725 170.149584 
L 174.230925 170.149584 
L 175.772126 170.278528 
L 177.313326 170.278528 
L 185.019328 170.923246 
L 186.560529 170.923246 
L 188.101729 171.181133 
L 189.642929 171.181133 
L 197.348931 171.82585 
L 198.890132 171.82585 
L 201.972533 172.083737 
L 203.513733 172.083737 
L 205.054933 172.212681 
L 206.596134 172.212681 
L 208.137334 172.470568 
L 209.678535 172.470568 
L 211.219735 172.728455 
L 212.760935 172.728455 
L 217.384537 173.115285 
L 218.925737 173.373172 
L 228.17294 174.146834 
L 229.71414 174.146834 
L 235.878942 174.662608 
L 237.420142 174.920495 
L 243.584944 175.436269 
L 245.126144 175.436269 
L 248.208545 175.694156 
L 249.749745 175.952043 
L 266.70295 177.370422 
L 268.24415 177.628309 
L 269.785351 177.628309 
L 277.491353 178.273026 
L 279.032553 178.015139 
L 280.573753 178.015139 
L 282.114954 178.530913 
L 283.656154 178.659857 
L 285.197355 178.917744 
L 286.738555 178.530913 
L 288.279755 178.659857 
L 289.820956 179.304575 
L 295.985757 179.820349 
L 297.526958 180.336123 
L 299.068158 180.59401 
L 300.609359 180.336123 
L 302.150559 180.59401 
L 303.69176 180.336123 
L 305.23296 180.336123 
L 306.77416 180.851897 
L 316.021363 181.625558 
L 317.562563 181.883445 
L 323.727365 182.399219 
L 326.809766 182.914993 
L 328.350966 182.78605 
L 329.892166 183.17288 
L 334.515768 183.559711 
L 336.056968 183.559711 
L 337.598169 183.817598 
L 340.680569 184.075485 
L 342.22177 184.333372 
L 343.76297 183.946542 
L 346.845371 184.204429 
L 348.386571 184.204429 
L 349.927772 184.462316 
L 351.468972 184.462316 
L 353.010173 184.591259 
L 354.551373 184.591259 
L 356.092573 184.849146 
L 357.633774 185.235977 
L 359.174974 185.235977 
L 360.716175 184.97809 
L 362.257375 185.235977 
L 363.798575 184.97809 
L 368.422177 184.97809 
L 369.963377 185.235977 
L 371.504577 185.36492 
L 373.045778 186.138581 
L 374.586978 185.493864 
L 376.128179 186.267525 
L 377.669379 186.267525 
L 379.21058 185.751751 
L 380.75178 186.525412 
L 382.29298 186.783299 
L 383.834181 187.299073 
L 385.375381 187.428017 
L 386.916582 187.299073 
L 388.457782 187.428017 
L 389.998982 187.428017 
L 391.540183 187.814847 
L 393.081383 186.783299 
L 394.622584 186.525412 
L 396.163784 186.654356 
L 396.163784 186.654356 
" style="fill:none;stroke:#0000ff;stroke-dasharray:3,3;stroke-dashoffset:0;stroke-width:1.5;"/>
   </g>
   <g id="line2d_30">
    <path clip-path="url(#p413ff805d5)" d="M 73.832727 166.023392 
L 75.373928 166.668109 
L 76.915128 166.797053 
L 78.456328 166.539166 
L 81.538729 166.539166 
L 84.62113 166.281279 
L 86.162331 166.410222 
L 87.703531 166.410222 
L 89.244731 166.281279 
L 92.327132 166.281279 
L 95.409533 166.023392 
L 96.950733 166.152335 
L 98.491934 166.023392 
L 100.033134 166.023392 
L 101.574335 166.152335 
L 103.115535 166.152335 
L 104.656735 166.023392 
L 106.197936 166.152335 
L 107.739136 166.152335 
L 109.280337 166.023392 
L 113.903938 166.410222 
L 115.445138 166.410222 
L 118.527539 166.668109 
L 120.06874 166.539166 
L 126.233541 167.05494 
L 127.774742 167.312827 
L 129.315942 167.312827 
L 132.398343 167.570714 
L 133.939543 167.828601 
L 135.480744 167.828601 
L 138.563144 168.344375 
L 140.104345 168.473319 
L 141.645545 168.731206 
L 143.186746 168.860149 
L 144.727946 169.24698 
L 147.810347 169.504867 
L 149.351547 169.891697 
L 150.892748 170.020641 
L 153.975148 170.794302 
L 155.516349 170.923246 
L 158.59875 171.43902 
L 160.13995 171.567963 
L 161.681151 171.82585 
L 163.222351 172.212681 
L 164.763551 172.341624 
L 166.304752 172.728455 
L 167.845952 172.986342 
L 169.387153 173.373172 
L 170.928353 173.63106 
L 172.469553 173.760003 
L 174.010754 174.146834 
L 178.634355 174.920495 
L 180.175555 175.307325 
L 183.257956 175.823099 
L 184.799157 176.20993 
L 186.340357 176.467817 
L 189.422758 177.241478 
L 190.963958 177.499365 
L 192.505159 177.499365 
L 194.046359 178.273026 
L 195.587559 178.530913 
L 197.12876 178.917744 
L 198.66996 179.175631 
L 200.211161 179.562462 
L 201.752361 179.820349 
L 203.293562 180.207179 
L 204.834762 180.465066 
L 206.375962 180.851897 
L 207.917163 181.109784 
L 215.623165 183.043937 
L 217.164365 183.17288 
L 220.246766 184.204429 
L 223.329167 184.97809 
L 224.870367 185.235977 
L 226.411568 185.751751 
L 227.952768 186.009638 
L 229.493968 186.396469 
L 231.035169 186.396469 
L 232.576369 187.17013 
L 234.11757 187.685904 
L 235.65877 187.943791 
L 238.741171 188.717452 
L 240.282371 189.233226 
L 241.823572 189.491113 
L 243.364772 190.006887 
L 249.529574 191.55421 
L 251.070774 192.069984 
L 257.235576 193.617306 
L 260.317977 194.648854 
L 261.859177 194.906741 
L 263.400377 195.293572 
L 266.482778 196.32512 
L 268.023979 196.71195 
L 269.565179 197.227725 
L 271.106379 197.614555 
L 272.64758 198.130329 
L 274.18878 198.388216 
L 275.729981 198.775047 
L 277.271181 199.290821 
L 278.812382 199.677652 
L 280.353582 200.193426 
L 281.894782 200.580256 
L 283.435983 201.09603 
L 284.977183 200.967087 
L 288.059584 201.998635 
L 289.600784 202.90124 
L 292.683185 203.932788 
L 294.224386 204.835393 
L 295.765586 205.48011 
L 297.306786 204.964336 
L 300.389187 205.737997 
L 301.930388 206.253771 
L 303.471588 207.027432 
L 305.012788 208.058981 
L 306.553989 207.930037 
L 309.63639 208.961585 
L 311.17759 209.348416 
L 314.259991 210.379964 
L 315.801191 211.540456 
L 317.342392 211.411512 
L 318.883592 212.05623 
L 321.965993 213.087778 
L 323.507193 214.24827 
L 325.048394 214.24827 
L 326.589594 214.6351 
L 328.130795 215.279818 
L 329.671995 215.666649 
L 334.295596 217.213971 
L 335.836797 217.600802 
L 337.377997 218.116576 
L 340.460398 218.890237 
L 343.542799 219.921785 
L 345.083999 220.566503 
L 351.248801 222.113825 
L 352.790001 222.371712 
L 354.331202 222.500655 
L 355.872402 222.887486 
L 357.413602 223.145373 
L 358.954803 223.532204 
L 360.496003 223.790091 
L 362.037204 224.305865 
L 363.578404 224.692695 
L 365.119604 224.950582 
L 366.660805 225.466357 
L 369.743206 225.982131 
L 371.284406 227.400509 
L 372.825606 227.78734 
L 374.366807 227.271566 
L 375.908007 227.400509 
L 377.449208 227.658396 
L 378.990408 227.529453 
L 380.531608 226.884735 
L 382.072809 227.529453 
L 383.614009 227.400509 
L 385.15521 227.529453 
L 386.69641 227.916284 
L 388.23761 226.497905 
L 388.23761 226.497905 
" style="fill:none;stroke:#000000;stroke-linecap:square;stroke-width:1.5;"/>
   </g>
   <g id="patch_3">
    <path d="M 57.6 307.584 
L 57.6 41.472 
" style="fill:none;stroke:#000000;stroke-linecap:square;stroke-linejoin:miter;stroke-width:0.8;"/>
   </g>
   <g id="patch_4">
    <path d="M 414.72 307.584 
L 414.72 41.472 
" style="fill:none;stroke:#000000;stroke-linecap:square;stroke-linejoin:miter;stroke-width:0.8;"/>
   </g>
   <g id="patch_5">
    <path d="M 57.6 307.584 
L 414.72 307.584 
" style="fill:none;stroke:#000000;stroke-linecap:square;stroke-linejoin:miter;stroke-width:0.8;"/>
   </g>
   <g id="patch_6">
    <path d="M 57.6 41.472 
L 414.72 41.472 
" style="fill:none;stroke:#000000;stroke-linecap:square;stroke-linejoin:miter;stroke-width:0.8;"/>
   </g>
   <g id="legend_1">
    <g id="patch_7">
     <path d="M 46.72875 38.91145 
L 425.59125 38.91145 
Q 427.59125 38.91145 427.59125 36.91145 
L 427.59125 8.5552 
Q 427.59125 6.5552 425.59125 6.5552 
L 46.72875 6.5552 
Q 44.72875 6.5552 44.72875 8.5552 
L 44.72875 36.91145 
Q 44.72875 38.91145 46.72875 38.91145 
z
" style="fill:#ffffff;opacity:0.8;stroke:#cccccc;stroke-linejoin:miter;"/>
    </g>
    <g id="line2d_31">
     <path d="M 48.72875 14.653638 
L 68.72875 14.653638 
" style="fill:none;stroke:#1f77b4;stroke-linecap:square;stroke-width:1.5;"/>
    </g>
    <g id="line2d_32"/>
    <g id="text_16">
     <!-- Initial Experimental Contour -->
     <g transform="translate(76.72875 18.153638)scale(0.1 -0.1)">
      <defs>
       <path d="M 628 4666 
L 1259 4666 
L 1259 0 
L 628 0 
L 628 4666 
z
" id="DejaVuSans-49" transform="scale(0.015625)"/>
       <path d="M 2194 1759 
Q 1497 1759 1228 1600 
Q 959 1441 959 1056 
Q 959 750 1161 570 
Q 1363 391 1709 391 
Q 2188 391 2477 730 
Q 2766 1069 2766 1631 
L 2766 1759 
L 2194 1759 
z
M 3341 1997 
L 3341 0 
L 2766 0 
L 2766 531 
Q 2569 213 2275 61 
Q 1981 -91 1556 -91 
Q 1019 -91 701 211 
Q 384 513 384 1019 
Q 384 1609 779 1909 
Q 1175 2209 1959 2209 
L 2766 2209 
L 2766 2266 
Q 2766 2663 2505 2880 
Q 2244 3097 1772 3097 
Q 1472 3097 1187 3025 
Q 903 2953 641 2809 
L 641 3341 
Q 956 3463 1253 3523 
Q 1550 3584 1831 3584 
Q 2591 3584 2966 3190 
Q 3341 2797 3341 1997 
z
" id="DejaVuSans-61" transform="scale(0.015625)"/>
       <path d="M 603 4863 
L 1178 4863 
L 1178 0 
L 603 0 
L 603 4863 
z
" id="DejaVuSans-6c" transform="scale(0.015625)"/>
       <path d="M 628 4666 
L 3578 4666 
L 3578 4134 
L 1259 4134 
L 1259 2753 
L 3481 2753 
L 3481 2222 
L 1259 2222 
L 1259 531 
L 3634 531 
L 3634 0 
L 628 0 
L 628 4666 
z
" id="DejaVuSans-45" transform="scale(0.015625)"/>
       <path d="M 3513 3500 
L 2247 1797 
L 3578 0 
L 2900 0 
L 1881 1375 
L 863 0 
L 184 0 
L 1544 1831 
L 300 3500 
L 978 3500 
L 1906 2253 
L 2834 3500 
L 3513 3500 
z
" id="DejaVuSans-78" transform="scale(0.015625)"/>
       <path d="M 1159 525 
L 1159 -1331 
L 581 -1331 
L 581 3500 
L 1159 3500 
L 1159 2969 
Q 1341 3281 1617 3432 
Q 1894 3584 2278 3584 
Q 2916 3584 3314 3078 
Q 3713 2572 3713 1747 
Q 3713 922 3314 415 
Q 2916 -91 2278 -91 
Q 1894 -91 1617 61 
Q 1341 213 1159 525 
z
M 3116 1747 
Q 3116 2381 2855 2742 
Q 2594 3103 2138 3103 
Q 1681 3103 1420 2742 
Q 1159 2381 1159 1747 
Q 1159 1113 1420 752 
Q 1681 391 2138 391 
Q 2594 391 2855 752 
Q 3116 1113 3116 1747 
z
" id="DejaVuSans-70" transform="scale(0.015625)"/>
       <path d="M 4122 4306 
L 4122 3641 
Q 3803 3938 3442 4084 
Q 3081 4231 2675 4231 
Q 1875 4231 1450 3742 
Q 1025 3253 1025 2328 
Q 1025 1406 1450 917 
Q 1875 428 2675 428 
Q 3081 428 3442 575 
Q 3803 722 4122 1019 
L 4122 359 
Q 3791 134 3420 21 
Q 3050 -91 2638 -91 
Q 1578 -91 968 557 
Q 359 1206 359 2328 
Q 359 3453 968 4101 
Q 1578 4750 2638 4750 
Q 3056 4750 3426 4639 
Q 3797 4528 4122 4306 
z
" id="DejaVuSans-43" transform="scale(0.015625)"/>
       <path d="M 544 1381 
L 544 3500 
L 1119 3500 
L 1119 1403 
Q 1119 906 1312 657 
Q 1506 409 1894 409 
Q 2359 409 2629 706 
Q 2900 1003 2900 1516 
L 2900 3500 
L 3475 3500 
L 3475 0 
L 2900 0 
L 2900 538 
Q 2691 219 2414 64 
Q 2138 -91 1772 -91 
Q 1169 -91 856 284 
Q 544 659 544 1381 
z
M 1991 3584 
L 1991 3584 
z
" id="DejaVuSans-75" transform="scale(0.015625)"/>
      </defs>
      <use xlink:href="#DejaVuSans-49"/>
      <use x="29.492188" xlink:href="#DejaVuSans-6e"/>
      <use x="92.871094" xlink:href="#DejaVuSans-69"/>
      <use x="120.654297" xlink:href="#DejaVuSans-74"/>
      <use x="159.863281" xlink:href="#DejaVuSans-69"/>
      <use x="187.646484" xlink:href="#DejaVuSans-61"/>
      <use x="248.925781" xlink:href="#DejaVuSans-6c"/>
      <use x="276.708984" xlink:href="#DejaVuSans-20"/>
      <use x="308.496094" xlink:href="#DejaVuSans-45"/>
      <use x="371.679688" xlink:href="#DejaVuSans-78"/>
      <use x="430.859375" xlink:href="#DejaVuSans-70"/>
      <use x="494.335938" xlink:href="#DejaVuSans-65"/>
      <use x="555.859375" xlink:href="#DejaVuSans-72"/>
      <use x="596.972656" xlink:href="#DejaVuSans-69"/>
      <use x="624.755859" xlink:href="#DejaVuSans-6d"/>
      <use x="722.167969" xlink:href="#DejaVuSans-65"/>
      <use x="783.691406" xlink:href="#DejaVuSans-6e"/>
      <use x="847.070312" xlink:href="#DejaVuSans-74"/>
      <use x="886.279297" xlink:href="#DejaVuSans-61"/>
      <use x="947.558594" xlink:href="#DejaVuSans-6c"/>
      <use x="975.341797" xlink:href="#DejaVuSans-20"/>
      <use x="1007.128906" xlink:href="#DejaVuSans-43"/>
      <use x="1076.953125" xlink:href="#DejaVuSans-6f"/>
      <use x="1138.134766" xlink:href="#DejaVuSans-6e"/>
      <use x="1201.513672" xlink:href="#DejaVuSans-74"/>
      <use x="1240.722656" xlink:href="#DejaVuSans-6f"/>
      <use x="1301.904297" xlink:href="#DejaVuSans-75"/>
      <use x="1365.283203" xlink:href="#DejaVuSans-72"/>
     </g>
    </g>
    <g id="line2d_33">
     <path d="M 48.72875 29.331763 
L 68.72875 29.331763 
" style="fill:none;stroke:#ff7f0e;stroke-linecap:square;stroke-width:1.5;"/>
    </g>
    <g id="line2d_34"/>
    <g id="text_17">
     <!-- Final Experimental Contour -->
     <g transform="translate(76.72875 32.831763)scale(0.1 -0.1)">
      <defs>
       <path d="M 628 4666 
L 3309 4666 
L 3309 4134 
L 1259 4134 
L 1259 2759 
L 3109 2759 
L 3109 2228 
L 1259 2228 
L 1259 0 
L 628 0 
L 628 4666 
z
" id="DejaVuSans-46" transform="scale(0.015625)"/>
      </defs>
      <use xlink:href="#DejaVuSans-46"/>
      <use x="50.269531" xlink:href="#DejaVuSans-69"/>
      <use x="78.052734" xlink:href="#DejaVuSans-6e"/>
      <use x="141.431641" xlink:href="#DejaVuSans-61"/>
      <use x="202.710938" xlink:href="#DejaVuSans-6c"/>
      <use x="230.494141" xlink:href="#DejaVuSans-20"/>
      <use x="262.28125" xlink:href="#DejaVuSans-45"/>
      <use x="325.464844" xlink:href="#DejaVuSans-78"/>
      <use x="384.644531" xlink:href="#DejaVuSans-70"/>
      <use x="448.121094" xlink:href="#DejaVuSans-65"/>
      <use x="509.644531" xlink:href="#DejaVuSans-72"/>
      <use x="550.757812" xlink:href="#DejaVuSans-69"/>
      <use x="578.541016" xlink:href="#DejaVuSans-6d"/>
      <use x="675.953125" xlink:href="#DejaVuSans-65"/>
      <use x="737.476562" xlink:href="#DejaVuSans-6e"/>
      <use x="800.855469" xlink:href="#DejaVuSans-74"/>
      <use x="840.064453" xlink:href="#DejaVuSans-61"/>
      <use x="901.34375" xlink:href="#DejaVuSans-6c"/>
      <use x="929.126953" xlink:href="#DejaVuSans-20"/>
      <use x="960.914062" xlink:href="#DejaVuSans-43"/>
      <use x="1030.738281" xlink:href="#DejaVuSans-6f"/>
      <use x="1091.919922" xlink:href="#DejaVuSans-6e"/>
      <use x="1155.298828" xlink:href="#DejaVuSans-74"/>
      <use x="1194.507812" xlink:href="#DejaVuSans-6f"/>
      <use x="1255.689453" xlink:href="#DejaVuSans-75"/>
      <use x="1319.068359" xlink:href="#DejaVuSans-72"/>
     </g>
    </g>
    <g id="line2d_35">
     <path d="M 237.367812 14.653638 
L 257.367813 14.653638 
" style="fill:none;stroke:#0000ff;stroke-dasharray:3,3;stroke-dashoffset:0;stroke-width:1.5;"/>
    </g>
    <g id="line2d_36"/>
    <g id="text_18">
     <!-- Initial Experimental Camberline -->
     <g transform="translate(265.367813 18.153638)scale(0.1 -0.1)">
      <defs>
       <path d="M 3116 1747 
Q 3116 2381 2855 2742 
Q 2594 3103 2138 3103 
Q 1681 3103 1420 2742 
Q 1159 2381 1159 1747 
Q 1159 1113 1420 752 
Q 1681 391 2138 391 
Q 2594 391 2855 752 
Q 3116 1113 3116 1747 
z
M 1159 2969 
Q 1341 3281 1617 3432 
Q 1894 3584 2278 3584 
Q 2916 3584 3314 3078 
Q 3713 2572 3713 1747 
Q 3713 922 3314 415 
Q 2916 -91 2278 -91 
Q 1894 -91 1617 61 
Q 1341 213 1159 525 
L 1159 0 
L 581 0 
L 581 4863 
L 1159 4863 
L 1159 2969 
z
" id="DejaVuSans-62" transform="scale(0.015625)"/>
      </defs>
      <use xlink:href="#DejaVuSans-49"/>
      <use x="29.492188" xlink:href="#DejaVuSans-6e"/>
      <use x="92.871094" xlink:href="#DejaVuSans-69"/>
      <use x="120.654297" xlink:href="#DejaVuSans-74"/>
      <use x="159.863281" xlink:href="#DejaVuSans-69"/>
      <use x="187.646484" xlink:href="#DejaVuSans-61"/>
      <use x="248.925781" xlink:href="#DejaVuSans-6c"/>
      <use x="276.708984" xlink:href="#DejaVuSans-20"/>
      <use x="308.496094" xlink:href="#DejaVuSans-45"/>
      <use x="371.679688" xlink:href="#DejaVuSans-78"/>
      <use x="430.859375" xlink:href="#DejaVuSans-70"/>
      <use x="494.335938" xlink:href="#DejaVuSans-65"/>
      <use x="555.859375" xlink:href="#DejaVuSans-72"/>
      <use x="596.972656" xlink:href="#DejaVuSans-69"/>
      <use x="624.755859" xlink:href="#DejaVuSans-6d"/>
      <use x="722.167969" xlink:href="#DejaVuSans-65"/>
      <use x="783.691406" xlink:href="#DejaVuSans-6e"/>
      <use x="847.070312" xlink:href="#DejaVuSans-74"/>
      <use x="886.279297" xlink:href="#DejaVuSans-61"/>
      <use x="947.558594" xlink:href="#DejaVuSans-6c"/>
      <use x="975.341797" xlink:href="#DejaVuSans-20"/>
      <use x="1007.128906" xlink:href="#DejaVuSans-43"/>
      <use x="1076.953125" xlink:href="#DejaVuSans-61"/>
      <use x="1138.232422" xlink:href="#DejaVuSans-6d"/>
      <use x="1235.644531" xlink:href="#DejaVuSans-62"/>
      <use x="1299.121094" xlink:href="#DejaVuSans-65"/>
      <use x="1360.644531" xlink:href="#DejaVuSans-72"/>
      <use x="1401.757812" xlink:href="#DejaVuSans-6c"/>
      <use x="1429.541016" xlink:href="#DejaVuSans-69"/>
      <use x="1457.324219" xlink:href="#DejaVuSans-6e"/>
      <use x="1520.703125" xlink:href="#DejaVuSans-65"/>
     </g>
    </g>
    <g id="line2d_37">
     <path d="M 237.367812 29.331763 
L 257.367813 29.331763 
" style="fill:none;stroke:#000000;stroke-linecap:square;stroke-width:1.5;"/>
    </g>
    <g id="line2d_38"/>
    <g id="text_19">
     <!-- Final Experimental Camberline -->
     <g transform="translate(265.367813 32.831763)scale(0.1 -0.1)">
      <use xlink:href="#DejaVuSans-46"/>
      <use x="50.269531" xlink:href="#DejaVuSans-69"/>
      <use x="78.052734" xlink:href="#DejaVuSans-6e"/>
      <use x="141.431641" xlink:href="#DejaVuSans-61"/>
      <use x="202.710938" xlink:href="#DejaVuSans-6c"/>
      <use x="230.494141" xlink:href="#DejaVuSans-20"/>
      <use x="262.28125" xlink:href="#DejaVuSans-45"/>
      <use x="325.464844" xlink:href="#DejaVuSans-78"/>
      <use x="384.644531" xlink:href="#DejaVuSans-70"/>
      <use x="448.121094" xlink:href="#DejaVuSans-65"/>
      <use x="509.644531" xlink:href="#DejaVuSans-72"/>
      <use x="550.757812" xlink:href="#DejaVuSans-69"/>
      <use x="578.541016" xlink:href="#DejaVuSans-6d"/>
      <use x="675.953125" xlink:href="#DejaVuSans-65"/>
      <use x="737.476562" xlink:href="#DejaVuSans-6e"/>
      <use x="800.855469" xlink:href="#DejaVuSans-74"/>
      <use x="840.064453" xlink:href="#DejaVuSans-61"/>
      <use x="901.34375" xlink:href="#DejaVuSans-6c"/>
      <use x="929.126953" xlink:href="#DejaVuSans-20"/>
      <use x="960.914062" xlink:href="#DejaVuSans-43"/>
      <use x="1030.738281" xlink:href="#DejaVuSans-61"/>
      <use x="1092.017578" xlink:href="#DejaVuSans-6d"/>
      <use x="1189.429688" xlink:href="#DejaVuSans-62"/>
      <use x="1252.90625" xlink:href="#DejaVuSans-65"/>
      <use x="1314.429688" xlink:href="#DejaVuSans-72"/>
      <use x="1355.542969" xlink:href="#DejaVuSans-6c"/>
      <use x="1383.326172" xlink:href="#DejaVuSans-69"/>
      <use x="1411.109375" xlink:href="#DejaVuSans-6e"/>
      <use x="1474.488281" xlink:href="#DejaVuSans-65"/>
     </g>
    </g>
   </g>
  </g>
 </g>
 <defs>
  <clipPath id="p413ff805d5">
   <rect height="266.112" width="357.12" x="57.6" y="41.472"/>
  </clipPath>
 </defs>
</svg>
