<?xml version="1.0" encoding="utf-8" standalone="no"?>
<!DOCTYPE svg PUBLIC "-//W3C//DTD SVG 1.1//EN"
  "http://www.w3.org/Graphics/SVG/1.1/DTD/svg11.dtd">
<svg height="345.6pt" version="1.1" viewBox="0 0 460.8 345.6" width="460.8pt" xmlns="http://www.w3.org/2000/svg" xmlns:xlink="http://www.w3.org/1999/xlink">
 <metadata>
  <rdf:RDF xmlns:cc="http://creativecommons.org/ns#" xmlns:dc="http://purl.org/dc/elements/1.1/" xmlns:rdf="http://www.w3.org/1999/02/22-rdf-syntax-ns#">
   <cc:Work>
    <dc:type rdf:resource="http://purl.org/dc/dcmitype/StillImage"/>
    <dc:date>2022-06-01T09:57:19.318857</dc:date>
    <dc:format>image/svg+xml</dc:format>
    <dc:creator>
     <cc:Agent>
      <dc:title>Matplotlib v3.4.1, https://matplotlib.org/</dc:title>
     </cc:Agent>
    </dc:creator>
   </cc:Work>
  </rdf:RDF>
 </metadata>
 <defs>
  <style type="text/css">*{stroke-linecap:butt;stroke-linejoin:round;}</style>
 </defs>
 <g id="figure_1">
  <g id="patch_1">
   <path d="M 0 345.6 
L 460.8 345.6 
L 460.8 0 
L 0 0 
z
" style="fill:#ffffff;"/>
  </g>
  <g id="axes_1">
   <g id="patch_2">
    <path d="M 57.6 307.584 
L 414.72 307.584 
L 414.72 41.472 
L 57.6 41.472 
z
" style="fill:#ffffff;"/>
   </g>
   <g id="matplotlib.axis_1">
    <g id="xtick_1">
     <g id="line2d_1">
      <path clip-path="url(#p5da3d469a0)" d="M 76.552256 307.584 
L 76.552256 41.472 
" style="fill:none;stroke:#b0b0b0;stroke-linecap:square;stroke-width:0.8;"/>
     </g>
     <g id="line2d_2">
      <defs>
       <path d="M 0 0 
L 0 3.5 
" id="meb5e956863" style="stroke:#000000;stroke-width:0.8;"/>
      </defs>
      <g>
       <use style="stroke:#000000;stroke-width:0.8;" x="76.552256" xlink:href="#meb5e956863" y="307.584"/>
      </g>
     </g>
     <g id="text_1">
      <!-- 0 -->
      <g transform="translate(73.371006 322.182437)scale(0.1 -0.1)">
       <defs>
        <path d="M 2034 4250 
Q 1547 4250 1301 3770 
Q 1056 3291 1056 2328 
Q 1056 1369 1301 889 
Q 1547 409 2034 409 
Q 2525 409 2770 889 
Q 3016 1369 3016 2328 
Q 3016 3291 2770 3770 
Q 2525 4250 2034 4250 
z
M 2034 4750 
Q 2819 4750 3233 4129 
Q 3647 3509 3647 2328 
Q 3647 1150 3233 529 
Q 2819 -91 2034 -91 
Q 1250 -91 836 529 
Q 422 1150 422 2328 
Q 422 3509 836 4129 
Q 1250 4750 2034 4750 
z
" id="DejaVuSans-30" transform="scale(0.015625)"/>
       </defs>
       <use xlink:href="#DejaVuSans-30"/>
      </g>
     </g>
    </g>
    <g id="xtick_2">
     <g id="line2d_3">
      <path clip-path="url(#p5da3d469a0)" d="M 139.764398 307.584 
L 139.764398 41.472 
" style="fill:none;stroke:#b0b0b0;stroke-linecap:square;stroke-width:0.8;"/>
     </g>
     <g id="line2d_4">
      <g>
       <use style="stroke:#000000;stroke-width:0.8;" x="139.764398" xlink:href="#meb5e956863" y="307.584"/>
      </g>
     </g>
     <g id="text_2">
      <!-- 100 -->
      <g transform="translate(130.220648 322.182437)scale(0.1 -0.1)">
       <defs>
        <path d="M 794 531 
L 1825 531 
L 1825 4091 
L 703 3866 
L 703 4441 
L 1819 4666 
L 2450 4666 
L 2450 531 
L 3481 531 
L 3481 0 
L 794 0 
L 794 531 
z
" id="DejaVuSans-31" transform="scale(0.015625)"/>
       </defs>
       <use xlink:href="#DejaVuSans-31"/>
       <use x="63.623047" xlink:href="#DejaVuSans-30"/>
       <use x="127.246094" xlink:href="#DejaVuSans-30"/>
      </g>
     </g>
    </g>
    <g id="xtick_3">
     <g id="line2d_5">
      <path clip-path="url(#p5da3d469a0)" d="M 202.97654 307.584 
L 202.97654 41.472 
" style="fill:none;stroke:#b0b0b0;stroke-linecap:square;stroke-width:0.8;"/>
     </g>
     <g id="line2d_6">
      <g>
       <use style="stroke:#000000;stroke-width:0.8;" x="202.97654" xlink:href="#meb5e956863" y="307.584"/>
      </g>
     </g>
     <g id="text_3">
      <!-- 200 -->
      <g transform="translate(193.43279 322.182437)scale(0.1 -0.1)">
       <defs>
        <path d="M 1228 531 
L 3431 531 
L 3431 0 
L 469 0 
L 469 531 
Q 828 903 1448 1529 
Q 2069 2156 2228 2338 
Q 2531 2678 2651 2914 
Q 2772 3150 2772 3378 
Q 2772 3750 2511 3984 
Q 2250 4219 1831 4219 
Q 1534 4219 1204 4116 
Q 875 4013 500 3803 
L 500 4441 
Q 881 4594 1212 4672 
Q 1544 4750 1819 4750 
Q 2544 4750 2975 4387 
Q 3406 4025 3406 3419 
Q 3406 3131 3298 2873 
Q 3191 2616 2906 2266 
Q 2828 2175 2409 1742 
Q 1991 1309 1228 531 
z
" id="DejaVuSans-32" transform="scale(0.015625)"/>
       </defs>
       <use xlink:href="#DejaVuSans-32"/>
       <use x="63.623047" xlink:href="#DejaVuSans-30"/>
       <use x="127.246094" xlink:href="#DejaVuSans-30"/>
      </g>
     </g>
    </g>
    <g id="xtick_4">
     <g id="line2d_7">
      <path clip-path="url(#p5da3d469a0)" d="M 266.188682 307.584 
L 266.188682 41.472 
" style="fill:none;stroke:#b0b0b0;stroke-linecap:square;stroke-width:0.8;"/>
     </g>
     <g id="line2d_8">
      <g>
       <use style="stroke:#000000;stroke-width:0.8;" x="266.188682" xlink:href="#meb5e956863" y="307.584"/>
      </g>
     </g>
     <g id="text_4">
      <!-- 300 -->
      <g transform="translate(256.644932 322.182437)scale(0.1 -0.1)">
       <defs>
        <path d="M 2597 2516 
Q 3050 2419 3304 2112 
Q 3559 1806 3559 1356 
Q 3559 666 3084 287 
Q 2609 -91 1734 -91 
Q 1441 -91 1130 -33 
Q 819 25 488 141 
L 488 750 
Q 750 597 1062 519 
Q 1375 441 1716 441 
Q 2309 441 2620 675 
Q 2931 909 2931 1356 
Q 2931 1769 2642 2001 
Q 2353 2234 1838 2234 
L 1294 2234 
L 1294 2753 
L 1863 2753 
Q 2328 2753 2575 2939 
Q 2822 3125 2822 3475 
Q 2822 3834 2567 4026 
Q 2313 4219 1838 4219 
Q 1578 4219 1281 4162 
Q 984 4106 628 3988 
L 628 4550 
Q 988 4650 1302 4700 
Q 1616 4750 1894 4750 
Q 2613 4750 3031 4423 
Q 3450 4097 3450 3541 
Q 3450 3153 3228 2886 
Q 3006 2619 2597 2516 
z
" id="DejaVuSans-33" transform="scale(0.015625)"/>
       </defs>
       <use xlink:href="#DejaVuSans-33"/>
       <use x="63.623047" xlink:href="#DejaVuSans-30"/>
       <use x="127.246094" xlink:href="#DejaVuSans-30"/>
      </g>
     </g>
    </g>
    <g id="xtick_5">
     <g id="line2d_9">
      <path clip-path="url(#p5da3d469a0)" d="M 329.400825 307.584 
L 329.400825 41.472 
" style="fill:none;stroke:#b0b0b0;stroke-linecap:square;stroke-width:0.8;"/>
     </g>
     <g id="line2d_10">
      <g>
       <use style="stroke:#000000;stroke-width:0.8;" x="329.400825" xlink:href="#meb5e956863" y="307.584"/>
      </g>
     </g>
     <g id="text_5">
      <!-- 400 -->
      <g transform="translate(319.857075 322.182437)scale(0.1 -0.1)">
       <defs>
        <path d="M 2419 4116 
L 825 1625 
L 2419 1625 
L 2419 4116 
z
M 2253 4666 
L 3047 4666 
L 3047 1625 
L 3713 1625 
L 3713 1100 
L 3047 1100 
L 3047 0 
L 2419 0 
L 2419 1100 
L 313 1100 
L 313 1709 
L 2253 4666 
z
" id="DejaVuSans-34" transform="scale(0.015625)"/>
       </defs>
       <use xlink:href="#DejaVuSans-34"/>
       <use x="63.623047" xlink:href="#DejaVuSans-30"/>
       <use x="127.246094" xlink:href="#DejaVuSans-30"/>
      </g>
     </g>
    </g>
    <g id="xtick_6">
     <g id="line2d_11">
      <path clip-path="url(#p5da3d469a0)" d="M 392.612967 307.584 
L 392.612967 41.472 
" style="fill:none;stroke:#b0b0b0;stroke-linecap:square;stroke-width:0.8;"/>
     </g>
     <g id="line2d_12">
      <g>
       <use style="stroke:#000000;stroke-width:0.8;" x="392.612967" xlink:href="#meb5e956863" y="307.584"/>
      </g>
     </g>
     <g id="text_6">
      <!-- 500 -->
      <g transform="translate(383.069217 322.182437)scale(0.1 -0.1)">
       <defs>
        <path d="M 691 4666 
L 3169 4666 
L 3169 4134 
L 1269 4134 
L 1269 2991 
Q 1406 3038 1543 3061 
Q 1681 3084 1819 3084 
Q 2600 3084 3056 2656 
Q 3513 2228 3513 1497 
Q 3513 744 3044 326 
Q 2575 -91 1722 -91 
Q 1428 -91 1123 -41 
Q 819 9 494 109 
L 494 744 
Q 775 591 1075 516 
Q 1375 441 1709 441 
Q 2250 441 2565 725 
Q 2881 1009 2881 1497 
Q 2881 1984 2565 2268 
Q 2250 2553 1709 2553 
Q 1456 2553 1204 2497 
Q 953 2441 691 2322 
L 691 4666 
z
" id="DejaVuSans-35" transform="scale(0.015625)"/>
       </defs>
       <use xlink:href="#DejaVuSans-35"/>
       <use x="63.623047" xlink:href="#DejaVuSans-30"/>
       <use x="127.246094" xlink:href="#DejaVuSans-30"/>
      </g>
     </g>
    </g>
    <g id="text_7">
     <!-- Position in X direction [mm] -->
     <g transform="translate(166.805313 335.860562)scale(0.1 -0.1)">
      <defs>
       <path d="M 1259 4147 
L 1259 2394 
L 2053 2394 
Q 2494 2394 2734 2622 
Q 2975 2850 2975 3272 
Q 2975 3691 2734 3919 
Q 2494 4147 2053 4147 
L 1259 4147 
z
M 628 4666 
L 2053 4666 
Q 2838 4666 3239 4311 
Q 3641 3956 3641 3272 
Q 3641 2581 3239 2228 
Q 2838 1875 2053 1875 
L 1259 1875 
L 1259 0 
L 628 0 
L 628 4666 
z
" id="DejaVuSans-50" transform="scale(0.015625)"/>
       <path d="M 1959 3097 
Q 1497 3097 1228 2736 
Q 959 2375 959 1747 
Q 959 1119 1226 758 
Q 1494 397 1959 397 
Q 2419 397 2687 759 
Q 2956 1122 2956 1747 
Q 2956 2369 2687 2733 
Q 2419 3097 1959 3097 
z
M 1959 3584 
Q 2709 3584 3137 3096 
Q 3566 2609 3566 1747 
Q 3566 888 3137 398 
Q 2709 -91 1959 -91 
Q 1206 -91 779 398 
Q 353 888 353 1747 
Q 353 2609 779 3096 
Q 1206 3584 1959 3584 
z
" id="DejaVuSans-6f" transform="scale(0.015625)"/>
       <path d="M 2834 3397 
L 2834 2853 
Q 2591 2978 2328 3040 
Q 2066 3103 1784 3103 
Q 1356 3103 1142 2972 
Q 928 2841 928 2578 
Q 928 2378 1081 2264 
Q 1234 2150 1697 2047 
L 1894 2003 
Q 2506 1872 2764 1633 
Q 3022 1394 3022 966 
Q 3022 478 2636 193 
Q 2250 -91 1575 -91 
Q 1294 -91 989 -36 
Q 684 19 347 128 
L 347 722 
Q 666 556 975 473 
Q 1284 391 1588 391 
Q 1994 391 2212 530 
Q 2431 669 2431 922 
Q 2431 1156 2273 1281 
Q 2116 1406 1581 1522 
L 1381 1569 
Q 847 1681 609 1914 
Q 372 2147 372 2553 
Q 372 3047 722 3315 
Q 1072 3584 1716 3584 
Q 2034 3584 2315 3537 
Q 2597 3491 2834 3397 
z
" id="DejaVuSans-73" transform="scale(0.015625)"/>
       <path d="M 603 3500 
L 1178 3500 
L 1178 0 
L 603 0 
L 603 3500 
z
M 603 4863 
L 1178 4863 
L 1178 4134 
L 603 4134 
L 603 4863 
z
" id="DejaVuSans-69" transform="scale(0.015625)"/>
       <path d="M 1172 4494 
L 1172 3500 
L 2356 3500 
L 2356 3053 
L 1172 3053 
L 1172 1153 
Q 1172 725 1289 603 
Q 1406 481 1766 481 
L 2356 481 
L 2356 0 
L 1766 0 
Q 1100 0 847 248 
Q 594 497 594 1153 
L 594 3053 
L 172 3053 
L 172 3500 
L 594 3500 
L 594 4494 
L 1172 4494 
z
" id="DejaVuSans-74" transform="scale(0.015625)"/>
       <path d="M 3513 2113 
L 3513 0 
L 2938 0 
L 2938 2094 
Q 2938 2591 2744 2837 
Q 2550 3084 2163 3084 
Q 1697 3084 1428 2787 
Q 1159 2491 1159 1978 
L 1159 0 
L 581 0 
L 581 3500 
L 1159 3500 
L 1159 2956 
Q 1366 3272 1645 3428 
Q 1925 3584 2291 3584 
Q 2894 3584 3203 3211 
Q 3513 2838 3513 2113 
z
" id="DejaVuSans-6e" transform="scale(0.015625)"/>
       <path id="DejaVuSans-20" transform="scale(0.015625)"/>
       <path d="M 403 4666 
L 1081 4666 
L 2241 2931 
L 3406 4666 
L 4084 4666 
L 2584 2425 
L 4184 0 
L 3506 0 
L 2194 1984 
L 872 0 
L 191 0 
L 1856 2491 
L 403 4666 
z
" id="DejaVuSans-58" transform="scale(0.015625)"/>
       <path d="M 2906 2969 
L 2906 4863 
L 3481 4863 
L 3481 0 
L 2906 0 
L 2906 525 
Q 2725 213 2448 61 
Q 2172 -91 1784 -91 
Q 1150 -91 751 415 
Q 353 922 353 1747 
Q 353 2572 751 3078 
Q 1150 3584 1784 3584 
Q 2172 3584 2448 3432 
Q 2725 3281 2906 2969 
z
M 947 1747 
Q 947 1113 1208 752 
Q 1469 391 1925 391 
Q 2381 391 2643 752 
Q 2906 1113 2906 1747 
Q 2906 2381 2643 2742 
Q 2381 3103 1925 3103 
Q 1469 3103 1208 2742 
Q 947 2381 947 1747 
z
" id="DejaVuSans-64" transform="scale(0.015625)"/>
       <path d="M 2631 2963 
Q 2534 3019 2420 3045 
Q 2306 3072 2169 3072 
Q 1681 3072 1420 2755 
Q 1159 2438 1159 1844 
L 1159 0 
L 581 0 
L 581 3500 
L 1159 3500 
L 1159 2956 
Q 1341 3275 1631 3429 
Q 1922 3584 2338 3584 
Q 2397 3584 2469 3576 
Q 2541 3569 2628 3553 
L 2631 2963 
z
" id="DejaVuSans-72" transform="scale(0.015625)"/>
       <path d="M 3597 1894 
L 3597 1613 
L 953 1613 
Q 991 1019 1311 708 
Q 1631 397 2203 397 
Q 2534 397 2845 478 
Q 3156 559 3463 722 
L 3463 178 
Q 3153 47 2828 -22 
Q 2503 -91 2169 -91 
Q 1331 -91 842 396 
Q 353 884 353 1716 
Q 353 2575 817 3079 
Q 1281 3584 2069 3584 
Q 2775 3584 3186 3129 
Q 3597 2675 3597 1894 
z
M 3022 2063 
Q 3016 2534 2758 2815 
Q 2500 3097 2075 3097 
Q 1594 3097 1305 2825 
Q 1016 2553 972 2059 
L 3022 2063 
z
" id="DejaVuSans-65" transform="scale(0.015625)"/>
       <path d="M 3122 3366 
L 3122 2828 
Q 2878 2963 2633 3030 
Q 2388 3097 2138 3097 
Q 1578 3097 1268 2742 
Q 959 2388 959 1747 
Q 959 1106 1268 751 
Q 1578 397 2138 397 
Q 2388 397 2633 464 
Q 2878 531 3122 666 
L 3122 134 
Q 2881 22 2623 -34 
Q 2366 -91 2075 -91 
Q 1284 -91 818 406 
Q 353 903 353 1747 
Q 353 2603 823 3093 
Q 1294 3584 2113 3584 
Q 2378 3584 2631 3529 
Q 2884 3475 3122 3366 
z
" id="DejaVuSans-63" transform="scale(0.015625)"/>
       <path d="M 550 4863 
L 1875 4863 
L 1875 4416 
L 1125 4416 
L 1125 -397 
L 1875 -397 
L 1875 -844 
L 550 -844 
L 550 4863 
z
" id="DejaVuSans-5b" transform="scale(0.015625)"/>
       <path d="M 3328 2828 
Q 3544 3216 3844 3400 
Q 4144 3584 4550 3584 
Q 5097 3584 5394 3201 
Q 5691 2819 5691 2113 
L 5691 0 
L 5113 0 
L 5113 2094 
Q 5113 2597 4934 2840 
Q 4756 3084 4391 3084 
Q 3944 3084 3684 2787 
Q 3425 2491 3425 1978 
L 3425 0 
L 2847 0 
L 2847 2094 
Q 2847 2600 2669 2842 
Q 2491 3084 2119 3084 
Q 1678 3084 1418 2786 
Q 1159 2488 1159 1978 
L 1159 0 
L 581 0 
L 581 3500 
L 1159 3500 
L 1159 2956 
Q 1356 3278 1631 3431 
Q 1906 3584 2284 3584 
Q 2666 3584 2933 3390 
Q 3200 3197 3328 2828 
z
" id="DejaVuSans-6d" transform="scale(0.015625)"/>
       <path d="M 1947 4863 
L 1947 -844 
L 622 -844 
L 622 -397 
L 1369 -397 
L 1369 4416 
L 622 4416 
L 622 4863 
L 1947 4863 
z
" id="DejaVuSans-5d" transform="scale(0.015625)"/>
      </defs>
      <use xlink:href="#DejaVuSans-50"/>
      <use x="56.677734" xlink:href="#DejaVuSans-6f"/>
      <use x="117.859375" xlink:href="#DejaVuSans-73"/>
      <use x="169.958984" xlink:href="#DejaVuSans-69"/>
      <use x="197.742188" xlink:href="#DejaVuSans-74"/>
      <use x="236.951172" xlink:href="#DejaVuSans-69"/>
      <use x="264.734375" xlink:href="#DejaVuSans-6f"/>
      <use x="325.916016" xlink:href="#DejaVuSans-6e"/>
      <use x="389.294922" xlink:href="#DejaVuSans-20"/>
      <use x="421.082031" xlink:href="#DejaVuSans-69"/>
      <use x="448.865234" xlink:href="#DejaVuSans-6e"/>
      <use x="512.244141" xlink:href="#DejaVuSans-20"/>
      <use x="544.03125" xlink:href="#DejaVuSans-58"/>
      <use x="612.537109" xlink:href="#DejaVuSans-20"/>
      <use x="644.324219" xlink:href="#DejaVuSans-64"/>
      <use x="707.800781" xlink:href="#DejaVuSans-69"/>
      <use x="735.583984" xlink:href="#DejaVuSans-72"/>
      <use x="774.447266" xlink:href="#DejaVuSans-65"/>
      <use x="835.970703" xlink:href="#DejaVuSans-63"/>
      <use x="890.951172" xlink:href="#DejaVuSans-74"/>
      <use x="930.160156" xlink:href="#DejaVuSans-69"/>
      <use x="957.943359" xlink:href="#DejaVuSans-6f"/>
      <use x="1019.125" xlink:href="#DejaVuSans-6e"/>
      <use x="1082.503906" xlink:href="#DejaVuSans-20"/>
      <use x="1114.291016" xlink:href="#DejaVuSans-5b"/>
      <use x="1153.304688" xlink:href="#DejaVuSans-6d"/>
      <use x="1250.716797" xlink:href="#DejaVuSans-6d"/>
      <use x="1348.128906" xlink:href="#DejaVuSans-5d"/>
     </g>
    </g>
   </g>
   <g id="matplotlib.axis_2">
    <g id="ytick_1">
     <g id="line2d_13">
      <path clip-path="url(#p5da3d469a0)" d="M 57.6 278.04928 
L 414.72 278.04928 
" style="fill:none;stroke:#b0b0b0;stroke-linecap:square;stroke-width:0.8;"/>
     </g>
     <g id="line2d_14">
      <defs>
       <path d="M 0 0 
L -3.5 0 
" id="m3736ce0e50" style="stroke:#000000;stroke-width:0.8;"/>
      </defs>
      <g>
       <use style="stroke:#000000;stroke-width:0.8;" x="57.6" xlink:href="#m3736ce0e50" y="278.04928"/>
      </g>
     </g>
     <g id="text_8">
      <!-- −150 -->
      <g transform="translate(23.132812 281.848499)scale(0.1 -0.1)">
       <defs>
        <path d="M 678 2272 
L 4684 2272 
L 4684 1741 
L 678 1741 
L 678 2272 
z
" id="DejaVuSans-2212" transform="scale(0.015625)"/>
       </defs>
       <use xlink:href="#DejaVuSans-2212"/>
       <use x="83.789062" xlink:href="#DejaVuSans-31"/>
       <use x="147.412109" xlink:href="#DejaVuSans-35"/>
       <use x="211.035156" xlink:href="#DejaVuSans-30"/>
      </g>
     </g>
    </g>
    <g id="ytick_2">
     <g id="line2d_15">
      <path clip-path="url(#p5da3d469a0)" d="M 57.6 240.960735 
L 414.72 240.960735 
" style="fill:none;stroke:#b0b0b0;stroke-linecap:square;stroke-width:0.8;"/>
     </g>
     <g id="line2d_16">
      <g>
       <use style="stroke:#000000;stroke-width:0.8;" x="57.6" xlink:href="#m3736ce0e50" y="240.960735"/>
      </g>
     </g>
     <g id="text_9">
      <!-- −100 -->
      <g transform="translate(23.132812 244.759954)scale(0.1 -0.1)">
       <use xlink:href="#DejaVuSans-2212"/>
       <use x="83.789062" xlink:href="#DejaVuSans-31"/>
       <use x="147.412109" xlink:href="#DejaVuSans-30"/>
       <use x="211.035156" xlink:href="#DejaVuSans-30"/>
      </g>
     </g>
    </g>
    <g id="ytick_3">
     <g id="line2d_17">
      <path clip-path="url(#p5da3d469a0)" d="M 57.6 203.872191 
L 414.72 203.872191 
" style="fill:none;stroke:#b0b0b0;stroke-linecap:square;stroke-width:0.8;"/>
     </g>
     <g id="line2d_18">
      <g>
       <use style="stroke:#000000;stroke-width:0.8;" x="57.6" xlink:href="#m3736ce0e50" y="203.872191"/>
      </g>
     </g>
     <g id="text_10">
      <!-- −50 -->
      <g transform="translate(29.495313 207.671409)scale(0.1 -0.1)">
       <use xlink:href="#DejaVuSans-2212"/>
       <use x="83.789062" xlink:href="#DejaVuSans-35"/>
       <use x="147.412109" xlink:href="#DejaVuSans-30"/>
      </g>
     </g>
    </g>
    <g id="ytick_4">
     <g id="line2d_19">
      <path clip-path="url(#p5da3d469a0)" d="M 57.6 166.783646 
L 414.72 166.783646 
" style="fill:none;stroke:#b0b0b0;stroke-linecap:square;stroke-width:0.8;"/>
     </g>
     <g id="line2d_20">
      <g>
       <use style="stroke:#000000;stroke-width:0.8;" x="57.6" xlink:href="#m3736ce0e50" y="166.783646"/>
      </g>
     </g>
     <g id="text_11">
      <!-- 0 -->
      <g transform="translate(44.2375 170.582865)scale(0.1 -0.1)">
       <use xlink:href="#DejaVuSans-30"/>
      </g>
     </g>
    </g>
    <g id="ytick_5">
     <g id="line2d_21">
      <path clip-path="url(#p5da3d469a0)" d="M 57.6 129.695101 
L 414.72 129.695101 
" style="fill:none;stroke:#b0b0b0;stroke-linecap:square;stroke-width:0.8;"/>
     </g>
     <g id="line2d_22">
      <g>
       <use style="stroke:#000000;stroke-width:0.8;" x="57.6" xlink:href="#m3736ce0e50" y="129.695101"/>
      </g>
     </g>
     <g id="text_12">
      <!-- 50 -->
      <g transform="translate(37.875 133.49432)scale(0.1 -0.1)">
       <use xlink:href="#DejaVuSans-35"/>
       <use x="63.623047" xlink:href="#DejaVuSans-30"/>
      </g>
     </g>
    </g>
    <g id="ytick_6">
     <g id="line2d_23">
      <path clip-path="url(#p5da3d469a0)" d="M 57.6 92.606557 
L 414.72 92.606557 
" style="fill:none;stroke:#b0b0b0;stroke-linecap:square;stroke-width:0.8;"/>
     </g>
     <g id="line2d_24">
      <g>
       <use style="stroke:#000000;stroke-width:0.8;" x="57.6" xlink:href="#m3736ce0e50" y="92.606557"/>
      </g>
     </g>
     <g id="text_13">
      <!-- 100 -->
      <g transform="translate(31.5125 96.405775)scale(0.1 -0.1)">
       <use xlink:href="#DejaVuSans-31"/>
       <use x="63.623047" xlink:href="#DejaVuSans-30"/>
       <use x="127.246094" xlink:href="#DejaVuSans-30"/>
      </g>
     </g>
    </g>
    <g id="ytick_7">
     <g id="line2d_25">
      <path clip-path="url(#p5da3d469a0)" d="M 57.6 55.518012 
L 414.72 55.518012 
" style="fill:none;stroke:#b0b0b0;stroke-linecap:square;stroke-width:0.8;"/>
     </g>
     <g id="line2d_26">
      <g>
       <use style="stroke:#000000;stroke-width:0.8;" x="57.6" xlink:href="#m3736ce0e50" y="55.518012"/>
      </g>
     </g>
     <g id="text_14">
      <!-- 150 -->
      <g transform="translate(31.5125 59.317231)scale(0.1 -0.1)">
       <use xlink:href="#DejaVuSans-31"/>
       <use x="63.623047" xlink:href="#DejaVuSans-35"/>
       <use x="127.246094" xlink:href="#DejaVuSans-30"/>
      </g>
     </g>
    </g>
    <g id="text_15">
     <!-- Position in Y direction [mm] -->
     <g transform="translate(17.053125 243.511594)rotate(-90)scale(0.1 -0.1)">
      <defs>
       <path d="M -13 4666 
L 666 4666 
L 1959 2747 
L 3244 4666 
L 3922 4666 
L 2272 2222 
L 2272 0 
L 1638 0 
L 1638 2222 
L -13 4666 
z
" id="DejaVuSans-59" transform="scale(0.015625)"/>
      </defs>
      <use xlink:href="#DejaVuSans-50"/>
      <use x="56.677734" xlink:href="#DejaVuSans-6f"/>
      <use x="117.859375" xlink:href="#DejaVuSans-73"/>
      <use x="169.958984" xlink:href="#DejaVuSans-69"/>
      <use x="197.742188" xlink:href="#DejaVuSans-74"/>
      <use x="236.951172" xlink:href="#DejaVuSans-69"/>
      <use x="264.734375" xlink:href="#DejaVuSans-6f"/>
      <use x="325.916016" xlink:href="#DejaVuSans-6e"/>
      <use x="389.294922" xlink:href="#DejaVuSans-20"/>
      <use x="421.082031" xlink:href="#DejaVuSans-69"/>
      <use x="448.865234" xlink:href="#DejaVuSans-6e"/>
      <use x="512.244141" xlink:href="#DejaVuSans-20"/>
      <use x="544.03125" xlink:href="#DejaVuSans-59"/>
      <use x="605.115234" xlink:href="#DejaVuSans-20"/>
      <use x="636.902344" xlink:href="#DejaVuSans-64"/>
      <use x="700.378906" xlink:href="#DejaVuSans-69"/>
      <use x="728.162109" xlink:href="#DejaVuSans-72"/>
      <use x="767.025391" xlink:href="#DejaVuSans-65"/>
      <use x="828.548828" xlink:href="#DejaVuSans-63"/>
      <use x="883.529297" xlink:href="#DejaVuSans-74"/>
      <use x="922.738281" xlink:href="#DejaVuSans-69"/>
      <use x="950.521484" xlink:href="#DejaVuSans-6f"/>
      <use x="1011.703125" xlink:href="#DejaVuSans-6e"/>
      <use x="1075.082031" xlink:href="#DejaVuSans-20"/>
      <use x="1106.869141" xlink:href="#DejaVuSans-5b"/>
      <use x="1145.882812" xlink:href="#DejaVuSans-6d"/>
      <use x="1243.294922" xlink:href="#DejaVuSans-6d"/>
      <use x="1340.707031" xlink:href="#DejaVuSans-5d"/>
     </g>
    </g>
   </g>
   <g id="line2d_27">
    <path clip-path="url(#p5da3d469a0)" d="M 73.832727 55.135266 
L 78.65746 56.308915 
L 78.976628 57.407626 
L 81.276437 56.510674 
L 81.395557 57.55524 
L 83.971256 56.712939 
L 84.127469 57.588614 
L 86.699614 56.839747 
L 86.815796 57.658341 
L 88.595709 57.024101 
L 89.624744 57.870665 
L 91.954768 57.056147 
L 92.288421 58.059951 
L 95.00677 58.431274 
L 97.723124 58.543821 
L 108.516995 59.935072 
L 109.22094 60.455027 
L 110.63441 60.139944 
L 111.559422 60.61714 
L 113.037639 60.260806 
L 114.214396 60.95163 
L 127.68756 63.027606 
L 128.434822 63.712457 
L 130.422285 63.203922 
L 130.668091 63.873871 
L 132.924357 63.34796 
L 133.340095 64.089105 
L 135.980023 64.414526 
L 141.36725 65.461669 
L 144.187699 65.996438 
L 146.756864 66.33026 
L 147.340218 66.926495 
L 149.523021 66.489558 
L 149.788104 67.135011 
L 151.334546 66.616711 
L 152.425751 67.395625 
L 157.80625 68.296762 
L 163.250555 69.253129 
L 164.324725 70.002967 
L 165.90931 69.490971 
L 166.295652 70.21161 
L 168.412468 69.742525 
L 168.855789 70.436101 
L 170.278178 69.87478 
L 171.519251 70.74479 
L 182.287655 72.584748 
L 182.923739 73.302239 
L 184.939569 72.826381 
L 185.292938 73.49531 
L 186.957931 73.049857 
L 187.917916 73.762912 
L 193.261599 74.605182 
L 198.73817 75.65492 
L 199.826969 76.412283 
L 201.38304 75.964073 
L 201.778242 76.608084 
L 203.509602 76.179217 
L 204.339553 76.865812 
L 209.705769 77.841854 
L 212.404265 78.514188 
L 215.153978 79.030677 
L 216.376476 79.616941 
L 217.476259 79.354051 
L 218.198687 79.756274 
L 220.639671 80.14571 
L 231.413394 82.355374 
L 232.383008 82.859302 
L 233.727887 82.527354 
L 234.412943 83.105526 
L 245.142948 85.371083 
L 245.985347 86.071123 
L 247.598589 85.762893 
L 248.133041 86.291106 
L 249.366253 85.898072 
L 250.747728 86.729792 
L 253.409734 87.313565 
L 256.184504 88.210411 
L 258.716379 88.587566 
L 259.564803 89.337738 
L 260.975889 88.907298 
L 261.775894 89.668591 
L 264.324564 90.211031 
L 269.740212 91.619118 
L 270.617945 92.587067 
L 272.182725 92.06127 
L 272.7595 92.878529 
L 275.239658 93.428041 
L 280.355651 94.897566 
L 280.792206 95.727939 
L 282.939886 95.335238 
L 283.972605 96.290321 
L 286.170245 96.967147 
L 288.770759 97.902344 
L 289.900256 98.916996 
L 290.994723 98.473412 
L 291.888837 99.318468 
L 297.002412 101.128711 
L 298.173084 102.493271 
L 299.07138 101.683636 
L 299.915489 103.108668 
L 304.933297 104.626691 
L 305.754311 105.518121 
L 306.803421 105.074747 
L 308.187551 106.364989 
L 310.728301 107.418032 
L 311.836546 108.571029 
L 312.795887 108.068813 
L 313.715044 109.119187 
L 316.197579 110.293455 
L 317.448632 111.695571 
L 318.325109 111.151988 
L 319.214245 112.176966 
L 321.776456 113.36368 
L 322.83769 114.985686 
L 323.805172 114.350309 
L 324.672032 115.516391 
L 327.063324 116.779979 
L 328.172423 118.300268 
L 329.098508 117.646809 
L 330.076261 118.948854 
L 332.390309 120.311412 
L 333.266139 121.670855 
L 334.288428 120.945164 
L 335.378749 122.59733 
L 337.509419 123.763858 
L 338.510355 125.105997 
L 340.695607 126.376032 
L 341.820085 127.905973 
L 342.586951 127.267539 
L 343.64954 128.757996 
L 345.829505 130.069882 
L 346.803696 131.440271 
L 348.620147 132.362412 
L 349.318722 134.096132 
L 351.072127 133.619542 
L 352.283471 134.586388 
L 354.475353 136.191439 
L 355.709126 137.364883 
L 355.954911 137.140557 
L 357.428231 138.839026 
L 358.354238 140.670259 
L 359.271593 139.9264 
L 360.276916 141.022078 
L 362.307418 142.28481 
L 363.071048 144.252853 
L 364.640951 143.232883 
L 365.486761 144.76093 
L 367.837109 147.281012 
L 367.954669 145.519072 
L 369.871956 146.506899 
L 371.223812 147.642532 
L 371.901128 150.970114 
L 373.249907 149.198936 
L 374.008234 151.09691 
L 376.081276 152.180723 
L 377.056999 153.697563 
L 377.932924 153.046344 
L 380.184433 156.742384 
L 380.97664 155.958475 
L 381.969592 157.523429 
L 383.844368 158.924366 
L 385.053761 160.795376 
L 386.741159 161.969648 
L 387.564961 163.87043 
L 389.4302 164.978563 
L 390.633661 167.1219 
L 392.077605 168.343246 
L 393.99693 172.616124 
L 394.463188 171.571874 
L 395.172907 174.185753 
L 396.212407 176.918378 
L 397.354168 177.384656 
L 398.451082 183.745852 
L 398.487273 186.924725 
L 397.773915 193.24044 
L 396.83711 198.25339 
L 396.727872 194.792359 
L 396.352664 196.953613 
L 394.603806 202.094707 
L 393.302742 203.446709 
L 392.148095 205.524805 
L 390.618849 206.911272 
L 389.436257 208.786034 
L 387.830239 210.10887 
L 386.689178 211.723151 
L 384.800048 213.188734 
L 383.667143 214.613171 
L 382.991235 214.052355 
L 381.751202 215.650882 
L 379.742506 216.8763 
L 378.653196 218.098521 
L 376.438982 219.503102 
L 375.340907 220.843633 
L 374.622139 220.336399 
L 373.474548 221.741088 
L 371.123834 223.038777 
L 370.117575 224.174928 
L 369.336526 223.66633 
L 368.079364 225.080522 
L 365.735425 226.331077 
L 364.728207 227.377597 
L 363.920158 226.860306 
L 362.64843 228.35945 
L 360.342961 229.59653 
L 359.304786 230.638589 
L 354.797782 232.889095 
L 353.965964 233.91977 
L 353.032803 233.312352 
L 351.71454 234.952305 
L 349.53037 236.037201 
L 348.617367 237.161583 
L 346.276845 238.312493 
L 344.063424 239.222003 
L 343.110753 240.281502 
L 338.378332 242.404524 
L 337.447528 243.426746 
L 336.592534 242.926326 
L 335.298446 244.27334 
L 332.76117 245.412545 
L 331.872473 246.46893 
L 330.721616 245.923038 
L 329.714856 247.064776 
L 327.158579 248.160533 
L 325.887242 249.463829 
L 324.835026 248.949199 
L 324.098565 249.852633 
L 321.658614 250.613528 
L 319.005268 251.627758 
L 317.811457 252.705112 
L 316.603956 252.2412 
L 315.966806 253.072469 
L 313.484084 253.693062 
L 310.719338 254.598125 
L 308.16894 255.217843 
L 307.611111 256.132134 
L 305.976725 255.543524 
L 305.312492 256.522401 
L 303.711994 255.744959 
L 302.785689 257.125561 
L 299.839922 257.953378 
L 297.145981 258.564247 
L 296.278183 259.183889 
L 294.776495 258.759835 
L 294.19448 259.41878 
L 292.624371 258.839744 
L 291.634184 259.770719 
L 283.440267 261.302214 
L 280.89685 261.66478 
L 280.364185 262.367011 
L 278.274379 262.000106 
L 277.860411 262.543003 
L 276.566433 262.154276 
L 275.23474 262.811231 
L 269.78476 263.501398 
L 264.31321 264.083788 
L 258.846034 264.574294 
L 256.160836 264.788636 
L 255.538181 265.48712 
L 253.433415 264.88021 
L 253.284864 265.54985 
L 250.739246 264.990494 
L 250.583473 265.642775 
L 248.035234 265.083827 
L 247.87836 265.723602 
L 245.409174 265.153574 
L 245.155576 265.844155 
L 242.657239 265.256385 
L 242.440258 265.941193 
L 239.968503 265.327859 
L 239.691716 266.027804 
L 238.333248 265.358934 
L 237.014849 266.154155 
L 231.536191 266.427476 
L 226.119306 266.724576 
L 217.885137 267.040947 
L 209.728348 267.373843 
L 198.833654 267.950443 
L 198.251425 268.691779 
L 196.057362 268.008296 
L 195.842595 268.737794 
L 193.334064 268.0452 
L 193.235709 268.793087 
L 190.604537 268.110157 
L 190.590711 268.828289 
L 187.882394 268.178297 
L 187.798492 268.869586 
L 185.164294 268.258814 
L 185.102685 268.893392 
L 182.469631 268.306186 
L 182.363917 268.949185 
L 179.712244 268.362516 
L 179.620374 269.042898 
L 177.150369 268.441146 
L 176.875796 269.129198 
L 174.254018 268.488615 
L 174.155679 269.272206 
L 171.862125 268.563592 
L 171.457192 269.373818 
L 168.730171 269.405619 
L 155.160453 270.10961 
L 152.355207 270.125277 
L 138.806393 270.997319 
L 135.958968 271.284578 
L 133.31785 271.355825 
L 132.780133 271.965727 
L 130.62138 271.507743 
L 130.424635 272.067352 
L 127.943861 271.609996 
L 127.697721 272.126719 
L 125.709208 271.746886 
L 124.989262 272.277248 
L 122.264255 272.419924 
L 116.874675 273.095426 
L 105.981228 274.485667 
L 104.626338 275.101095 
L 103.359181 274.729912 
L 103.025226 275.231113 
L 100.675232 274.888258 
L 100.431823 275.312665 
L 97.567277 275.538203 
L 97.088938 274.756594 
L 95.114349 274.790383 
L 95.033417 275.614985 
L 93.326308 274.944423 
L 92.216144 275.837118 
L 89.79703 276.619345 
L 86.78373 277.192135 
L 84.040721 277.349866 
L 81.348485 277.253857 
L 77.207682 277.408449 
L 77.207682 277.408449 
" style="fill:none;stroke:#1f77b4;stroke-linecap:square;stroke-width:1.5;"/>
   </g>
   <g id="line2d_28">
    <path clip-path="url(#p5da3d469a0)" d="M 74.037689 53.568 
L 75.864899 53.849517 
L 78.753085 54.761655 
L 79.437637 55.875949 
L 81.288238 54.988626 
L 81.429956 56.008363 
L 83.995543 55.202376 
L 84.132183 56.04827 
L 86.693666 56.110999 
L 86.784459 55.350209 
L 89.190448 55.553519 
L 89.700945 56.326117 
L 92.297981 56.469781 
L 92.39536 55.611915 
L 94.958287 56.717687 
L 97.54607 57.093728 
L 100.481197 57.305608 
L 108.64827 58.38668 
L 109.560239 59.000307 
L 111.174235 58.627985 
L 111.616073 59.120987 
L 113.670464 58.797713 
L 114.30351 59.375566 
L 116.871702 59.676612 
L 127.772279 61.430168 
L 128.895307 62.269058 
L 130.403325 61.657745 
L 130.660213 62.383001 
L 133.120564 61.808902 
L 133.336927 62.585346 
L 135.367104 61.97624 
L 136.046408 62.789618 
L 138.702182 63.162352 
L 146.830497 64.663137 
L 147.775218 65.388259 
L 149.55988 64.901465 
L 149.838085 65.58796 
L 152.109862 65.054156 
L 152.477162 65.810234 
L 154.336306 65.236037 
L 155.165629 66.045214 
L 160.54553 66.924214 
L 165.991841 67.798065 
L 167.02091 68.627877 
L 168.590868 68.03193 
L 168.924448 68.81934 
L 171.286615 68.269078 
L 171.564942 69.035324 
L 173.318627 68.443366 
L 174.265933 69.296809 
L 179.662159 70.137062 
L 182.423108 70.67988 
L 183.222843 71.797575 
L 185.040994 71.082296 
L 185.816296 71.872719 
L 187.679588 71.342692 
L 188.104242 72.099658 
L 190.294492 71.569171 
L 190.698341 72.281631 
L 193.331403 72.625525 
L 198.775142 73.658705 
L 201.480346 74.192922 
L 202.563979 75.030719 
L 204.068345 74.507225 
L 204.494202 75.225931 
L 206.299301 74.767225 
L 207.073943 75.50327 
L 212.436309 76.586175 
L 217.822878 77.772742 
L 218.40114 78.352759 
L 220.236207 78.035977 
L 220.60925 78.666444 
L 228.71769 80.910176 
L 229.762642 81.523713 
L 230.81061 81.155177 
L 231.723631 81.830754 
L 234.345466 82.585879 
L 236.93231 83.47252 
L 239.493484 84.131625 
L 240.384308 84.838143 
L 241.407508 84.46971 
L 242.536837 85.384722 
L 247.521736 87.194631 
L 248.599638 88.015435 
L 250.85034 88.573152 
L 255.514773 90.399853 
L 256.58587 91.307794 
L 257.736589 90.849269 
L 258.913221 92.005913 
L 261.550282 93.235163 
L 262.68175 94.378609 
L 263.516901 93.881516 
L 264.497592 94.826024 
L 267.115034 95.997323 
L 268.337195 97.47757 
L 269.348123 96.85463 
L 270.173819 97.934249 
L 274.886283 100.021146 
L 275.682479 101.123147 
L 278.005403 102.098608 
L 280.141289 103.146254 
L 280.715189 104.314174 
L 285.597795 106.43094 
L 286.501443 107.608441 
L 288.879973 108.875612 
L 289.97392 110.388407 
L 290.850965 109.718697 
L 291.887239 111.187776 
L 294.132725 112.502375 
L 295.149998 113.83497 
L 295.97861 113.171598 
L 297.123768 115.122803 
L 297.893571 116.993939 
L 299.214133 116.078475 
L 299.553626 117.362395 
L 302.429232 118.381403 
L 304.229573 119.580556 
L 305.742318 121.364692 
L 307.456677 122.452086 
L 308.392507 123.802015 
L 310.54752 125.115519 
L 311.589055 126.659322 
L 312.421216 125.979606 
L 313.485565 127.730014 
L 314.71769 129.51347 
L 315.574213 128.887105 
L 315.918789 129.950634 
L 319.255191 132.175279 
L 319.451173 133.329115 
L 320.370739 132.557896 
L 322.50495 136.302085 
L 323.356569 135.490644 
L 325.580536 139.243306 
L 326.347601 138.479319 
L 327.393613 140.325987 
L 328.372399 142.332104 
L 329.28704 141.464394 
L 330.254473 143.269466 
L 332.0835 144.520594 
L 333.157149 146.286323 
L 335.003875 147.613506 
L 336.003312 149.369727 
L 337.765784 150.614013 
L 338.795493 152.541703 
L 339.523744 151.743117 
L 340.553751 153.757503 
L 341.182171 155.394485 
L 342.374328 154.844005 
L 345.094866 158.024247 
L 354.988678 168.863113 
L 356.465458 170.292475 
L 357.805124 171.790925 
L 359.456286 173.431281 
L 361.994782 176.436252 
L 363.537826 179.057487 
L 363.792714 181.039034 
L 364.507187 180.033609 
L 365.44346 182.10099 
L 366.532759 184.078118 
L 367.208874 183.252676 
L 368.135149 185.511669 
L 369.192931 187.483671 
L 369.870472 186.572963 
L 370.814687 188.791913 
L 371.825805 190.77142 
L 372.473063 189.9284 
L 373.483326 192.090516 
L 374.364736 194.330888 
L 375.208051 193.19003 
L 376.123306 195.290455 
L 377.096302 197.226373 
L 377.820652 196.469464 
L 379.72049 200.853149 
L 380.451459 199.855719 
L 382.278596 204.141726 
L 383.448281 205.42336 
L 385.738562 209.777341 
L 387.292908 211.398692 
L 388.074053 214.045762 
L 388.447656 216.643856 
L 388.671594 212.578213 
L 389.099913 214.628364 
L 389.519615 217.626304 
L 389.859859 220.872953 
L 390.428923 223.850039 
L 390.483559 227.181142 
L 389.786212 233.516745 
L 388.71991 238.696177 
L 388.298788 237.43071 
L 387.642472 239.956128 
L 386.014777 245.068869 
L 385.511348 244.090258 
L 384.658441 246.478651 
L 383.600558 248.851843 
L 382.264327 249.980077 
L 381.05079 252.147658 
L 379.628708 253.421328 
L 378.453175 255.516347 
L 376.961603 256.812617 
L 375.821956 258.58942 
L 374.170588 260.031233 
L 373.082493 261.543421 
L 371.12669 263.023823 
L 370.055861 264.532991 
L 369.382041 263.906156 
L 366.967434 267.441962 
L 366.297089 266.837825 
L 365.205762 268.374663 
L 363.165218 269.733293 
L 362.03568 271.031631 
L 359.989378 272.331467 
L 358.798125 273.854839 
L 357.964682 273.337346 
L 356.975325 274.570359 
L 354.634213 275.868905 
L 353.688229 277.196026 
L 352.781082 276.594745 
L 351.677153 278.033206 
L 349.197592 279.287826 
L 348.29813 280.362228 
L 347.151217 279.77315 
L 346.219007 281.072214 
L 343.583745 282.257701 
L 342.577198 283.402686 
L 341.327749 282.895381 
L 340.526836 283.885663 
L 338.058503 284.858244 
L 335.47745 285.731919 
L 334.708647 286.698699 
L 333.166201 286.126683 
L 332.404791 287.12014 
L 329.871769 287.769789 
L 327.191355 288.622256 
L 326.051098 289.714337 
L 324.582815 289.100425 
L 324.12676 289.979866 
L 322.080238 289.398033 
L 321.575965 290.28323 
L 310.814394 292.115542 
L 310.051123 293.107351 
L 308.128696 292.315399 
L 307.881512 293.201005 
L 306.002344 292.494556 
L 305.314534 293.39083 
L 302.460062 293.548824 
L 297.068286 294.081342 
L 280.792412 295.225199 
L 275.114857 295.488 
L 267.079738 295.290981 
L 261.614835 294.989734 
L 253.427765 294.196694 
L 247.979355 293.565843 
L 247.096537 292.740959 
L 245.294616 293.358397 
L 245.040441 292.609924 
L 242.700871 293.176473 
L 242.347565 292.423551 
L 240.197736 293.012222 
L 239.66404 292.199727 
L 238.333248 292.918995 
L 237.02346 291.856464 
L 228.904371 290.431746 
L 228.170731 289.506034 
L 226.245337 290.11082 
L 225.8981 289.265685 
L 223.69377 289.859742 
L 223.267966 288.961728 
L 217.899314 287.850347 
L 215.203826 287.246264 
L 214.089767 286.270397 
L 212.629404 286.850362 
L 212.19451 286.123985 
L 210.30551 286.583483 
L 209.584169 285.80679 
L 201.562333 284.096137 
L 200.684484 283.11915 
L 198.95798 283.749942 
L 198.53891 282.881097 
L 196.579249 283.486453 
L 195.933015 282.541203 
L 194.58356 283.30502 
L 193.325298 282.053319 
L 187.950761 280.799305 
L 187.142394 279.929447 
L 185.263534 280.429861 
L 184.889714 279.649371 
L 182.985177 280.186974 
L 182.286053 279.376697 
L 171.602055 277.514942 
L 171.127009 276.641433 
L 168.954273 277.269782 
L 168.604914 276.379942 
L 166.481228 277.034941 
L 165.932051 276.128005 
L 160.567524 275.416057 
L 155.139627 274.435664 
L 154.111003 273.562859 
L 152.458977 274.17706 
L 152.161676 273.465614 
L 149.63681 274.059581 
L 149.501173 273.296232 
L 147.030921 273.939814 
L 146.835655 273.153784 
L 144.513977 273.798256 
L 144.115518 273.03612 
L 142.477191 273.691046 
L 141.479268 272.928674 
L 127.78377 272.752878 
L 122.341691 272.999633 
L 121.503558 273.691046 
L 119.604588 273.118739 
L 119.441328 273.73262 
L 116.940336 273.237266 
L 116.797783 273.845487 
L 114.217173 273.381489 
L 114.014157 273.974609 
L 111.876078 273.515858 
L 111.322607 274.120132 
L 108.681068 274.368522 
L 103.206248 275.15755 
L 100.500685 275.485654 
L 95.021904 275.724113 
L 94.037111 277.015879 
L 92.584985 276.177628 
L 91.961101 277.05733 
L 89.866648 276.747797 
L 89.411917 277.233572 
L 84.06456 277.592067 
L 83.652705 276.750038 
L 81.943916 276.712581 
L 81.378844 277.880897 
L 77.125754 278.914639 
L 77.125754 278.914639 
" style="fill:none;stroke:#ff7f0e;stroke-linecap:square;stroke-width:1.5;"/>
   </g>
   <g id="line2d_29">
    <path clip-path="url(#p5da3d469a0)" d="M 76.552256 166.783646 
L 78.081584 167.68095 
L 79.610911 167.809137 
L 81.140238 168.065509 
L 84.198893 167.809137 
L 85.728221 167.552764 
L 87.257548 167.809137 
L 88.786875 167.809137 
L 91.84553 167.552764 
L 93.374858 167.68095 
L 94.904185 167.68095 
L 96.433512 167.296391 
L 97.96284 167.296391 
L 99.492167 167.424578 
L 101.021495 167.424578 
L 102.550822 167.552764 
L 104.080149 167.424578 
L 107.138804 167.424578 
L 108.668132 167.552764 
L 110.197459 167.424578 
L 111.726786 167.552764 
L 113.256114 167.552764 
L 114.785441 167.68095 
L 117.844096 167.68095 
L 119.373423 167.809137 
L 120.902751 167.809137 
L 123.961406 167.552764 
L 127.02006 168.065509 
L 128.549388 168.065509 
L 130.078715 168.193696 
L 133.13737 168.193696 
L 134.666698 168.321882 
L 136.196025 168.321882 
L 142.313335 168.834627 
L 143.842662 168.834627 
L 145.371989 169.091 
L 146.901317 168.962814 
L 149.959972 169.219186 
L 151.489299 169.219186 
L 154.547954 169.731932 
L 156.077281 169.860118 
L 157.606609 169.860118 
L 159.135936 169.988304 
L 160.665263 169.988304 
L 165.253246 170.372863 
L 166.782573 170.372863 
L 171.370555 170.757422 
L 172.899883 170.757422 
L 174.42921 170.885609 
L 175.958537 170.885609 
L 177.487865 171.013795 
L 179.017192 171.013795 
L 186.663829 171.654727 
L 188.193157 171.654727 
L 189.722484 171.911099 
L 191.251811 171.911099 
L 198.898448 172.552031 
L 200.427776 172.552031 
L 203.486431 172.808404 
L 205.015758 172.808404 
L 206.545085 172.93659 
L 208.074413 172.93659 
L 209.60374 173.192963 
L 211.133068 173.192963 
L 212.662395 173.449335 
L 214.191723 173.449335 
L 218.779705 173.833894 
L 220.309032 174.090267 
L 229.484997 174.859385 
L 231.014324 174.859385 
L 237.131634 175.37213 
L 238.660961 175.628503 
L 244.778271 176.141248 
L 246.307598 176.141248 
L 249.366253 176.397621 
L 250.89558 176.653993 
L 267.718182 178.064043 
L 269.247509 178.320416 
L 270.776836 178.320416 
L 278.423473 178.961347 
L 279.952801 178.704975 
L 281.482128 178.704975 
L 283.011456 179.21772 
L 284.540783 179.345906 
L 286.07011 179.602279 
L 287.599438 179.21772 
L 289.128765 179.345906 
L 290.658093 179.986838 
L 296.775402 180.499583 
L 298.30473 181.012329 
L 299.834057 181.268701 
L 301.363385 181.012329 
L 302.892712 181.268701 
L 304.422039 181.012329 
L 305.951367 181.012329 
L 307.480694 181.525074 
L 316.656659 182.294192 
L 318.185986 182.550565 
L 324.303296 183.06331 
L 327.36195 183.576055 
L 328.891278 183.447869 
L 330.420605 183.832428 
L 335.008587 184.216987 
L 336.537915 184.216987 
L 338.067242 184.47336 
L 341.125897 184.729732 
L 342.655224 184.986105 
L 344.184552 184.601546 
L 347.243207 184.857919 
L 348.772534 184.857919 
L 350.301861 185.114291 
L 351.831189 185.114291 
L 353.360516 185.242478 
L 354.889844 185.242478 
L 356.419171 185.49885 
L 357.948498 185.883409 
L 359.477826 185.883409 
L 361.007153 185.627037 
L 362.536481 185.883409 
L 364.065808 185.627037 
L 368.65379 185.627037 
L 370.183118 185.883409 
L 371.712445 186.011596 
L 373.241772 186.780714 
L 374.7711 186.139782 
L 376.300427 186.9089 
L 377.829755 186.9089 
L 379.359082 186.396155 
L 380.88841 187.165273 
L 382.417737 187.421645 
L 383.947064 187.934391 
L 385.476392 188.062577 
L 387.005719 187.934391 
L 388.535047 188.062577 
L 390.064374 188.062577 
L 391.593701 188.447136 
L 393.123029 187.421645 
L 394.652356 187.165273 
L 396.181684 187.293459 
L 396.181684 187.293459 
" style="fill:none;stroke:#0000ff;stroke-dasharray:3,3;stroke-dashoffset:0;stroke-width:1.5;"/>
   </g>
   <g id="line2d_30">
    <path clip-path="url(#p5da3d469a0)" d="M 76.333781 166.783646 
L 77.863108 167.424578 
L 79.392436 167.552764 
L 80.921763 167.296391 
L 83.980418 167.296391 
L 87.039073 167.040019 
L 88.5684 167.168205 
L 90.097727 167.168205 
L 91.627055 167.040019 
L 94.68571 167.040019 
L 97.744364 166.783646 
L 99.273692 166.911832 
L 100.803019 166.783646 
L 102.332347 166.783646 
L 103.861674 166.911832 
L 105.391002 166.911832 
L 106.920329 166.783646 
L 108.449656 166.911832 
L 109.978984 166.911832 
L 111.508311 166.783646 
L 116.096293 167.168205 
L 117.625621 167.168205 
L 120.684276 167.424578 
L 122.213603 167.296391 
L 128.330913 167.809137 
L 129.86024 168.065509 
L 131.389567 168.065509 
L 134.448222 168.321882 
L 135.97755 168.578255 
L 137.506877 168.578255 
L 140.565532 169.091 
L 142.094859 169.219186 
L 143.624187 169.475559 
L 145.153514 169.603745 
L 146.682841 169.988304 
L 149.741496 170.244677 
L 151.270824 170.629236 
L 152.800151 170.757422 
L 155.858806 171.52654 
L 157.388133 171.654727 
L 160.446788 172.167472 
L 161.976115 172.295658 
L 163.505443 172.552031 
L 165.03477 172.93659 
L 166.564098 173.064776 
L 168.093425 173.449335 
L 169.622752 173.705708 
L 171.15208 174.090267 
L 172.681407 174.34664 
L 174.210735 174.474826 
L 175.740062 174.859385 
L 180.328044 175.628503 
L 181.857372 176.013062 
L 184.916026 176.525807 
L 186.445354 176.910366 
L 187.974681 177.166739 
L 191.033336 177.935857 
L 192.562664 178.192229 
L 194.091991 178.192229 
L 195.621318 178.961347 
L 197.150646 179.21772 
L 198.679973 179.602279 
L 200.209301 179.858652 
L 201.738628 180.243211 
L 203.267955 180.499583 
L 204.797283 180.884142 
L 206.32661 181.140515 
L 207.855938 181.525074 
L 209.385265 181.781447 
L 217.031902 183.704242 
L 218.561229 183.832428 
L 221.619884 184.857919 
L 224.678539 185.627037 
L 226.207866 185.883409 
L 227.737194 186.396155 
L 229.266521 186.652527 
L 230.795849 187.037086 
L 232.325176 187.037086 
L 233.854503 187.806204 
L 235.383831 188.31895 
L 236.913158 188.575322 
L 239.971813 189.34444 
L 241.50114 189.857186 
L 243.030468 190.113558 
L 244.559795 190.626304 
L 250.677105 192.164539 
L 252.206432 192.677285 
L 258.323742 194.215521 
L 261.382397 195.241011 
L 262.911724 195.497384 
L 264.441051 195.881943 
L 267.499706 196.907434 
L 269.029034 197.291993 
L 270.558361 197.804738 
L 272.087689 198.189297 
L 273.617016 198.702042 
L 275.146343 198.958415 
L 276.675671 199.342974 
L 278.204998 199.855719 
L 279.734326 200.240278 
L 281.263653 200.753024 
L 282.79298 201.137583 
L 284.322308 201.650328 
L 285.851635 201.522142 
L 288.91029 202.547632 
L 290.439617 203.444937 
L 293.498272 204.470427 
L 295.0276 205.367731 
L 296.556927 206.008663 
L 298.086254 205.495918 
L 301.144909 206.265036 
L 302.674237 206.777781 
L 304.203564 207.546899 
L 305.732891 208.57239 
L 307.262219 208.444203 
L 310.320874 209.469694 
L 311.850201 209.854253 
L 314.908856 210.879744 
L 316.438183 212.033421 
L 317.967511 211.905234 
L 319.496838 212.546166 
L 322.555493 213.571657 
L 324.08482 214.725334 
L 325.614148 214.725334 
L 327.143475 215.109893 
L 328.672802 215.750824 
L 330.20213 216.135383 
L 334.790112 217.673619 
L 336.319439 218.058178 
L 337.848767 218.570924 
L 340.907422 219.340042 
L 343.966076 220.365532 
L 345.495404 221.006464 
L 351.612713 222.5447 
L 353.142041 222.801072 
L 354.671368 222.929259 
L 356.200696 223.313818 
L 357.730023 223.57019 
L 359.259351 223.954749 
L 360.788678 224.211122 
L 362.318005 224.723867 
L 363.847333 225.108426 
L 365.37666 225.364799 
L 366.905988 225.877544 
L 369.964642 226.39029 
L 371.49397 227.800339 
L 373.023297 228.184898 
L 374.552625 227.672153 
L 376.081952 227.800339 
L 377.611279 228.056712 
L 379.140607 227.928526 
L 380.669934 227.287594 
L 382.199262 227.928526 
L 383.728589 227.800339 
L 385.257916 227.928526 
L 386.787244 228.313085 
L 388.316571 226.903035 
L 388.316571 226.903035 
" style="fill:none;stroke:#000000;stroke-linecap:square;stroke-width:1.5;"/>
   </g>
   <g id="patch_3">
    <path d="M 57.6 307.584 
L 57.6 41.472 
" style="fill:none;stroke:#000000;stroke-linecap:square;stroke-linejoin:miter;stroke-width:0.8;"/>
   </g>
   <g id="patch_4">
    <path d="M 414.72 307.584 
L 414.72 41.472 
" style="fill:none;stroke:#000000;stroke-linecap:square;stroke-linejoin:miter;stroke-width:0.8;"/>
   </g>
   <g id="patch_5">
    <path d="M 57.6 307.584 
L 414.72 307.584 
" style="fill:none;stroke:#000000;stroke-linecap:square;stroke-linejoin:miter;stroke-width:0.8;"/>
   </g>
   <g id="patch_6">
    <path d="M 57.6 41.472 
L 414.72 41.472 
" style="fill:none;stroke:#000000;stroke-linecap:square;stroke-linejoin:miter;stroke-width:0.8;"/>
   </g>
   <g id="legend_1">
    <g id="patch_7">
     <path d="M 46.72875 38.91145 
L 425.59125 38.91145 
Q 427.59125 38.91145 427.59125 36.91145 
L 427.59125 8.5552 
Q 427.59125 6.5552 425.59125 6.5552 
L 46.72875 6.5552 
Q 44.72875 6.5552 44.72875 8.5552 
L 44.72875 36.91145 
Q 44.72875 38.91145 46.72875 38.91145 
z
" style="fill:#ffffff;opacity:0.8;stroke:#cccccc;stroke-linejoin:miter;"/>
    </g>
    <g id="line2d_31">
     <path d="M 48.72875 14.653638 
L 68.72875 14.653638 
" style="fill:none;stroke:#1f77b4;stroke-linecap:square;stroke-width:1.5;"/>
    </g>
    <g id="line2d_32"/>
    <g id="text_16">
     <!-- Initial Experimental Contour -->
     <g transform="translate(76.72875 18.153638)scale(0.1 -0.1)">
      <defs>
       <path d="M 628 4666 
L 1259 4666 
L 1259 0 
L 628 0 
L 628 4666 
z
" id="DejaVuSans-49" transform="scale(0.015625)"/>
       <path d="M 2194 1759 
Q 1497 1759 1228 1600 
Q 959 1441 959 1056 
Q 959 750 1161 570 
Q 1363 391 1709 391 
Q 2188 391 2477 730 
Q 2766 1069 2766 1631 
L 2766 1759 
L 2194 1759 
z
M 3341 1997 
L 3341 0 
L 2766 0 
L 2766 531 
Q 2569 213 2275 61 
Q 1981 -91 1556 -91 
Q 1019 -91 701 211 
Q 384 513 384 1019 
Q 384 1609 779 1909 
Q 1175 2209 1959 2209 
L 2766 2209 
L 2766 2266 
Q 2766 2663 2505 2880 
Q 2244 3097 1772 3097 
Q 1472 3097 1187 3025 
Q 903 2953 641 2809 
L 641 3341 
Q 956 3463 1253 3523 
Q 1550 3584 1831 3584 
Q 2591 3584 2966 3190 
Q 3341 2797 3341 1997 
z
" id="DejaVuSans-61" transform="scale(0.015625)"/>
       <path d="M 603 4863 
L 1178 4863 
L 1178 0 
L 603 0 
L 603 4863 
z
" id="DejaVuSans-6c" transform="scale(0.015625)"/>
       <path d="M 628 4666 
L 3578 4666 
L 3578 4134 
L 1259 4134 
L 1259 2753 
L 3481 2753 
L 3481 2222 
L 1259 2222 
L 1259 531 
L 3634 531 
L 3634 0 
L 628 0 
L 628 4666 
z
" id="DejaVuSans-45" transform="scale(0.015625)"/>
       <path d="M 3513 3500 
L 2247 1797 
L 3578 0 
L 2900 0 
L 1881 1375 
L 863 0 
L 184 0 
L 1544 1831 
L 300 3500 
L 978 3500 
L 1906 2253 
L 2834 3500 
L 3513 3500 
z
" id="DejaVuSans-78" transform="scale(0.015625)"/>
       <path d="M 1159 525 
L 1159 -1331 
L 581 -1331 
L 581 3500 
L 1159 3500 
L 1159 2969 
Q 1341 3281 1617 3432 
Q 1894 3584 2278 3584 
Q 2916 3584 3314 3078 
Q 3713 2572 3713 1747 
Q 3713 922 3314 415 
Q 2916 -91 2278 -91 
Q 1894 -91 1617 61 
Q 1341 213 1159 525 
z
M 3116 1747 
Q 3116 2381 2855 2742 
Q 2594 3103 2138 3103 
Q 1681 3103 1420 2742 
Q 1159 2381 1159 1747 
Q 1159 1113 1420 752 
Q 1681 391 2138 391 
Q 2594 391 2855 752 
Q 3116 1113 3116 1747 
z
" id="DejaVuSans-70" transform="scale(0.015625)"/>
       <path d="M 4122 4306 
L 4122 3641 
Q 3803 3938 3442 4084 
Q 3081 4231 2675 4231 
Q 1875 4231 1450 3742 
Q 1025 3253 1025 2328 
Q 1025 1406 1450 917 
Q 1875 428 2675 428 
Q 3081 428 3442 575 
Q 3803 722 4122 1019 
L 4122 359 
Q 3791 134 3420 21 
Q 3050 -91 2638 -91 
Q 1578 -91 968 557 
Q 359 1206 359 2328 
Q 359 3453 968 4101 
Q 1578 4750 2638 4750 
Q 3056 4750 3426 4639 
Q 3797 4528 4122 4306 
z
" id="DejaVuSans-43" transform="scale(0.015625)"/>
       <path d="M 544 1381 
L 544 3500 
L 1119 3500 
L 1119 1403 
Q 1119 906 1312 657 
Q 1506 409 1894 409 
Q 2359 409 2629 706 
Q 2900 1003 2900 1516 
L 2900 3500 
L 3475 3500 
L 3475 0 
L 2900 0 
L 2900 538 
Q 2691 219 2414 64 
Q 2138 -91 1772 -91 
Q 1169 -91 856 284 
Q 544 659 544 1381 
z
M 1991 3584 
L 1991 3584 
z
" id="DejaVuSans-75" transform="scale(0.015625)"/>
      </defs>
      <use xlink:href="#DejaVuSans-49"/>
      <use x="29.492188" xlink:href="#DejaVuSans-6e"/>
      <use x="92.871094" xlink:href="#DejaVuSans-69"/>
      <use x="120.654297" xlink:href="#DejaVuSans-74"/>
      <use x="159.863281" xlink:href="#DejaVuSans-69"/>
      <use x="187.646484" xlink:href="#DejaVuSans-61"/>
      <use x="248.925781" xlink:href="#DejaVuSans-6c"/>
      <use x="276.708984" xlink:href="#DejaVuSans-20"/>
      <use x="308.496094" xlink:href="#DejaVuSans-45"/>
      <use x="371.679688" xlink:href="#DejaVuSans-78"/>
      <use x="430.859375" xlink:href="#DejaVuSans-70"/>
      <use x="494.335938" xlink:href="#DejaVuSans-65"/>
      <use x="555.859375" xlink:href="#DejaVuSans-72"/>
      <use x="596.972656" xlink:href="#DejaVuSans-69"/>
      <use x="624.755859" xlink:href="#DejaVuSans-6d"/>
      <use x="722.167969" xlink:href="#DejaVuSans-65"/>
      <use x="783.691406" xlink:href="#DejaVuSans-6e"/>
      <use x="847.070312" xlink:href="#DejaVuSans-74"/>
      <use x="886.279297" xlink:href="#DejaVuSans-61"/>
      <use x="947.558594" xlink:href="#DejaVuSans-6c"/>
      <use x="975.341797" xlink:href="#DejaVuSans-20"/>
      <use x="1007.128906" xlink:href="#DejaVuSans-43"/>
      <use x="1076.953125" xlink:href="#DejaVuSans-6f"/>
      <use x="1138.134766" xlink:href="#DejaVuSans-6e"/>
      <use x="1201.513672" xlink:href="#DejaVuSans-74"/>
      <use x="1240.722656" xlink:href="#DejaVuSans-6f"/>
      <use x="1301.904297" xlink:href="#DejaVuSans-75"/>
      <use x="1365.283203" xlink:href="#DejaVuSans-72"/>
     </g>
    </g>
    <g id="line2d_33">
     <path d="M 48.72875 29.331763 
L 68.72875 29.331763 
" style="fill:none;stroke:#ff7f0e;stroke-linecap:square;stroke-width:1.5;"/>
    </g>
    <g id="line2d_34"/>
    <g id="text_17">
     <!-- Final Experimental Contour -->
     <g transform="translate(76.72875 32.831763)scale(0.1 -0.1)">
      <defs>
       <path d="M 628 4666 
L 3309 4666 
L 3309 4134 
L 1259 4134 
L 1259 2759 
L 3109 2759 
L 3109 2228 
L 1259 2228 
L 1259 0 
L 628 0 
L 628 4666 
z
" id="DejaVuSans-46" transform="scale(0.015625)"/>
      </defs>
      <use xlink:href="#DejaVuSans-46"/>
      <use x="50.269531" xlink:href="#DejaVuSans-69"/>
      <use x="78.052734" xlink:href="#DejaVuSans-6e"/>
      <use x="141.431641" xlink:href="#DejaVuSans-61"/>
      <use x="202.710938" xlink:href="#DejaVuSans-6c"/>
      <use x="230.494141" xlink:href="#DejaVuSans-20"/>
      <use x="262.28125" xlink:href="#DejaVuSans-45"/>
      <use x="325.464844" xlink:href="#DejaVuSans-78"/>
      <use x="384.644531" xlink:href="#DejaVuSans-70"/>
      <use x="448.121094" xlink:href="#DejaVuSans-65"/>
      <use x="509.644531" xlink:href="#DejaVuSans-72"/>
      <use x="550.757812" xlink:href="#DejaVuSans-69"/>
      <use x="578.541016" xlink:href="#DejaVuSans-6d"/>
      <use x="675.953125" xlink:href="#DejaVuSans-65"/>
      <use x="737.476562" xlink:href="#DejaVuSans-6e"/>
      <use x="800.855469" xlink:href="#DejaVuSans-74"/>
      <use x="840.064453" xlink:href="#DejaVuSans-61"/>
      <use x="901.34375" xlink:href="#DejaVuSans-6c"/>
      <use x="929.126953" xlink:href="#DejaVuSans-20"/>
      <use x="960.914062" xlink:href="#DejaVuSans-43"/>
      <use x="1030.738281" xlink:href="#DejaVuSans-6f"/>
      <use x="1091.919922" xlink:href="#DejaVuSans-6e"/>
      <use x="1155.298828" xlink:href="#DejaVuSans-74"/>
      <use x="1194.507812" xlink:href="#DejaVuSans-6f"/>
      <use x="1255.689453" xlink:href="#DejaVuSans-75"/>
      <use x="1319.068359" xlink:href="#DejaVuSans-72"/>
     </g>
    </g>
    <g id="line2d_35">
     <path d="M 237.367812 14.653638 
L 257.367813 14.653638 
" style="fill:none;stroke:#0000ff;stroke-dasharray:3,3;stroke-dashoffset:0;stroke-width:1.5;"/>
    </g>
    <g id="line2d_36"/>
    <g id="text_18">
     <!-- Initial Experimental Camberline -->
     <g transform="translate(265.367813 18.153638)scale(0.1 -0.1)">
      <defs>
       <path d="M 3116 1747 
Q 3116 2381 2855 2742 
Q 2594 3103 2138 3103 
Q 1681 3103 1420 2742 
Q 1159 2381 1159 1747 
Q 1159 1113 1420 752 
Q 1681 391 2138 391 
Q 2594 391 2855 752 
Q 3116 1113 3116 1747 
z
M 1159 2969 
Q 1341 3281 1617 3432 
Q 1894 3584 2278 3584 
Q 2916 3584 3314 3078 
Q 3713 2572 3713 1747 
Q 3713 922 3314 415 
Q 2916 -91 2278 -91 
Q 1894 -91 1617 61 
Q 1341 213 1159 525 
L 1159 0 
L 581 0 
L 581 4863 
L 1159 4863 
L 1159 2969 
z
" id="DejaVuSans-62" transform="scale(0.015625)"/>
      </defs>
      <use xlink:href="#DejaVuSans-49"/>
      <use x="29.492188" xlink:href="#DejaVuSans-6e"/>
      <use x="92.871094" xlink:href="#DejaVuSans-69"/>
      <use x="120.654297" xlink:href="#DejaVuSans-74"/>
      <use x="159.863281" xlink:href="#DejaVuSans-69"/>
      <use x="187.646484" xlink:href="#DejaVuSans-61"/>
      <use x="248.925781" xlink:href="#DejaVuSans-6c"/>
      <use x="276.708984" xlink:href="#DejaVuSans-20"/>
      <use x="308.496094" xlink:href="#DejaVuSans-45"/>
      <use x="371.679688" xlink:href="#DejaVuSans-78"/>
      <use x="430.859375" xlink:href="#DejaVuSans-70"/>
      <use x="494.335938" xlink:href="#DejaVuSans-65"/>
      <use x="555.859375" xlink:href="#DejaVuSans-72"/>
      <use x="596.972656" xlink:href="#DejaVuSans-69"/>
      <use x="624.755859" xlink:href="#DejaVuSans-6d"/>
      <use x="722.167969" xlink:href="#DejaVuSans-65"/>
      <use x="783.691406" xlink:href="#DejaVuSans-6e"/>
      <use x="847.070312" xlink:href="#DejaVuSans-74"/>
      <use x="886.279297" xlink:href="#DejaVuSans-61"/>
      <use x="947.558594" xlink:href="#DejaVuSans-6c"/>
      <use x="975.341797" xlink:href="#DejaVuSans-20"/>
      <use x="1007.128906" xlink:href="#DejaVuSans-43"/>
      <use x="1076.953125" xlink:href="#DejaVuSans-61"/>
      <use x="1138.232422" xlink:href="#DejaVuSans-6d"/>
      <use x="1235.644531" xlink:href="#DejaVuSans-62"/>
      <use x="1299.121094" xlink:href="#DejaVuSans-65"/>
      <use x="1360.644531" xlink:href="#DejaVuSans-72"/>
      <use x="1401.757812" xlink:href="#DejaVuSans-6c"/>
      <use x="1429.541016" xlink:href="#DejaVuSans-69"/>
      <use x="1457.324219" xlink:href="#DejaVuSans-6e"/>
      <use x="1520.703125" xlink:href="#DejaVuSans-65"/>
     </g>
    </g>
    <g id="line2d_37">
     <path d="M 237.367812 29.331763 
L 257.367813 29.331763 
" style="fill:none;stroke:#000000;stroke-linecap:square;stroke-width:1.5;"/>
    </g>
    <g id="line2d_38"/>
    <g id="text_19">
     <!-- Final Experimental Camberline -->
     <g transform="translate(265.367813 32.831763)scale(0.1 -0.1)">
      <use xlink:href="#DejaVuSans-46"/>
      <use x="50.269531" xlink:href="#DejaVuSans-69"/>
      <use x="78.052734" xlink:href="#DejaVuSans-6e"/>
      <use x="141.431641" xlink:href="#DejaVuSans-61"/>
      <use x="202.710938" xlink:href="#DejaVuSans-6c"/>
      <use x="230.494141" xlink:href="#DejaVuSans-20"/>
      <use x="262.28125" xlink:href="#DejaVuSans-45"/>
      <use x="325.464844" xlink:href="#DejaVuSans-78"/>
      <use x="384.644531" xlink:href="#DejaVuSans-70"/>
      <use x="448.121094" xlink:href="#DejaVuSans-65"/>
      <use x="509.644531" xlink:href="#DejaVuSans-72"/>
      <use x="550.757812" xlink:href="#DejaVuSans-69"/>
      <use x="578.541016" xlink:href="#DejaVuSans-6d"/>
      <use x="675.953125" xlink:href="#DejaVuSans-65"/>
      <use x="737.476562" xlink:href="#DejaVuSans-6e"/>
      <use x="800.855469" xlink:href="#DejaVuSans-74"/>
      <use x="840.064453" xlink:href="#DejaVuSans-61"/>
      <use x="901.34375" xlink:href="#DejaVuSans-6c"/>
      <use x="929.126953" xlink:href="#DejaVuSans-20"/>
      <use x="960.914062" xlink:href="#DejaVuSans-43"/>
      <use x="1030.738281" xlink:href="#DejaVuSans-61"/>
      <use x="1092.017578" xlink:href="#DejaVuSans-6d"/>
      <use x="1189.429688" xlink:href="#DejaVuSans-62"/>
      <use x="1252.90625" xlink:href="#DejaVuSans-65"/>
      <use x="1314.429688" xlink:href="#DejaVuSans-72"/>
      <use x="1355.542969" xlink:href="#DejaVuSans-6c"/>
      <use x="1383.326172" xlink:href="#DejaVuSans-69"/>
      <use x="1411.109375" xlink:href="#DejaVuSans-6e"/>
      <use x="1474.488281" xlink:href="#DejaVuSans-65"/>
     </g>
    </g>
   </g>
  </g>
 </g>
 <defs>
  <clipPath id="p5da3d469a0">
   <rect height="266.112" width="357.12" x="57.6" y="41.472"/>
  </clipPath>
 </defs>
</svg>
