<?xml version="1.0" encoding="utf-8" standalone="no"?>
<!DOCTYPE svg PUBLIC "-//W3C//DTD SVG 1.1//EN"
  "http://www.w3.org/Graphics/SVG/1.1/DTD/svg11.dtd">
<svg height="345.6pt" version="1.1" viewBox="0 0 460.8 345.6" width="460.8pt" xmlns="http://www.w3.org/2000/svg" xmlns:xlink="http://www.w3.org/1999/xlink">
 <metadata>
  <rdf:RDF xmlns:cc="http://creativecommons.org/ns#" xmlns:dc="http://purl.org/dc/elements/1.1/" xmlns:rdf="http://www.w3.org/1999/02/22-rdf-syntax-ns#">
   <cc:Work>
    <dc:type rdf:resource="http://purl.org/dc/dcmitype/StillImage"/>
    <dc:date>2022-06-02T15:23:50.390214</dc:date>
    <dc:format>image/svg+xml</dc:format>
    <dc:creator>
     <cc:Agent>
      <dc:title>Matplotlib v3.4.3, https://matplotlib.org/</dc:title>
     </cc:Agent>
    </dc:creator>
   </cc:Work>
  </rdf:RDF>
 </metadata>
 <defs>
  <style type="text/css">*{stroke-linecap:butt;stroke-linejoin:round;}</style>
 </defs>
 <g id="figure_1">
  <g id="patch_1">
   <path d="M 0 345.6 
L 460.8 345.6 
L 460.8 0 
L 0 0 
z
" style="fill:#ffffff;"/>
  </g>
  <g id="axes_1">
   <g id="patch_2">
    <path d="M 57.6 307.584 
L 414.72 307.584 
L 414.72 41.472 
L 57.6 41.472 
z
" style="fill:#ffffff;"/>
   </g>
   <g id="matplotlib.axis_1">
    <g id="xtick_1">
     <g id="line2d_1">
      <path clip-path="url(#pa45cb9a967)" d="M 73.832727 307.584 
L 73.832727 41.472 
" style="fill:none;stroke:#b0b0b0;stroke-linecap:square;stroke-width:0.8;"/>
     </g>
     <g id="line2d_2">
      <defs>
       <path d="M 0 0 
L 0 3.5 
" id="m98f5ae9e0d" style="stroke:#000000;stroke-width:0.8;"/>
      </defs>
      <g>
       <use style="stroke:#000000;stroke-width:0.8;" x="73.832727" xlink:href="#m98f5ae9e0d" y="307.584"/>
      </g>
     </g>
     <g id="text_1">
      <!-- 0 -->
      <g transform="translate(70.651477 322.182437)scale(0.1 -0.1)">
       <defs>
        <path d="M 2034 4250 
Q 1547 4250 1301 3770 
Q 1056 3291 1056 2328 
Q 1056 1369 1301 889 
Q 1547 409 2034 409 
Q 2525 409 2770 889 
Q 3016 1369 3016 2328 
Q 3016 3291 2770 3770 
Q 2525 4250 2034 4250 
z
M 2034 4750 
Q 2819 4750 3233 4129 
Q 3647 3509 3647 2328 
Q 3647 1150 3233 529 
Q 2819 -91 2034 -91 
Q 1250 -91 836 529 
Q 422 1150 422 2328 
Q 422 3509 836 4129 
Q 1250 4750 2034 4750 
z
" id="DejaVuSans-30" transform="scale(0.015625)"/>
       </defs>
       <use xlink:href="#DejaVuSans-30"/>
      </g>
     </g>
    </g>
    <g id="xtick_2">
     <g id="line2d_3">
      <path clip-path="url(#pa45cb9a967)" d="M 136.85588 307.584 
L 136.85588 41.472 
" style="fill:none;stroke:#b0b0b0;stroke-linecap:square;stroke-width:0.8;"/>
     </g>
     <g id="line2d_4">
      <g>
       <use style="stroke:#000000;stroke-width:0.8;" x="136.85588" xlink:href="#m98f5ae9e0d" y="307.584"/>
      </g>
     </g>
     <g id="text_2">
      <!-- 100 -->
      <g transform="translate(127.31213 322.182437)scale(0.1 -0.1)">
       <defs>
        <path d="M 794 531 
L 1825 531 
L 1825 4091 
L 703 3866 
L 703 4441 
L 1819 4666 
L 2450 4666 
L 2450 531 
L 3481 531 
L 3481 0 
L 794 0 
L 794 531 
z
" id="DejaVuSans-31" transform="scale(0.015625)"/>
       </defs>
       <use xlink:href="#DejaVuSans-31"/>
       <use x="63.623047" xlink:href="#DejaVuSans-30"/>
       <use x="127.246094" xlink:href="#DejaVuSans-30"/>
      </g>
     </g>
    </g>
    <g id="xtick_3">
     <g id="line2d_5">
      <path clip-path="url(#pa45cb9a967)" d="M 199.879033 307.584 
L 199.879033 41.472 
" style="fill:none;stroke:#b0b0b0;stroke-linecap:square;stroke-width:0.8;"/>
     </g>
     <g id="line2d_6">
      <g>
       <use style="stroke:#000000;stroke-width:0.8;" x="199.879033" xlink:href="#m98f5ae9e0d" y="307.584"/>
      </g>
     </g>
     <g id="text_3">
      <!-- 200 -->
      <g transform="translate(190.335283 322.182437)scale(0.1 -0.1)">
       <defs>
        <path d="M 1228 531 
L 3431 531 
L 3431 0 
L 469 0 
L 469 531 
Q 828 903 1448 1529 
Q 2069 2156 2228 2338 
Q 2531 2678 2651 2914 
Q 2772 3150 2772 3378 
Q 2772 3750 2511 3984 
Q 2250 4219 1831 4219 
Q 1534 4219 1204 4116 
Q 875 4013 500 3803 
L 500 4441 
Q 881 4594 1212 4672 
Q 1544 4750 1819 4750 
Q 2544 4750 2975 4387 
Q 3406 4025 3406 3419 
Q 3406 3131 3298 2873 
Q 3191 2616 2906 2266 
Q 2828 2175 2409 1742 
Q 1991 1309 1228 531 
z
" id="DejaVuSans-32" transform="scale(0.015625)"/>
       </defs>
       <use xlink:href="#DejaVuSans-32"/>
       <use x="63.623047" xlink:href="#DejaVuSans-30"/>
       <use x="127.246094" xlink:href="#DejaVuSans-30"/>
      </g>
     </g>
    </g>
    <g id="xtick_4">
     <g id="line2d_7">
      <path clip-path="url(#pa45cb9a967)" d="M 262.902186 307.584 
L 262.902186 41.472 
" style="fill:none;stroke:#b0b0b0;stroke-linecap:square;stroke-width:0.8;"/>
     </g>
     <g id="line2d_8">
      <g>
       <use style="stroke:#000000;stroke-width:0.8;" x="262.902186" xlink:href="#m98f5ae9e0d" y="307.584"/>
      </g>
     </g>
     <g id="text_4">
      <!-- 300 -->
      <g transform="translate(253.358436 322.182437)scale(0.1 -0.1)">
       <defs>
        <path d="M 2597 2516 
Q 3050 2419 3304 2112 
Q 3559 1806 3559 1356 
Q 3559 666 3084 287 
Q 2609 -91 1734 -91 
Q 1441 -91 1130 -33 
Q 819 25 488 141 
L 488 750 
Q 750 597 1062 519 
Q 1375 441 1716 441 
Q 2309 441 2620 675 
Q 2931 909 2931 1356 
Q 2931 1769 2642 2001 
Q 2353 2234 1838 2234 
L 1294 2234 
L 1294 2753 
L 1863 2753 
Q 2328 2753 2575 2939 
Q 2822 3125 2822 3475 
Q 2822 3834 2567 4026 
Q 2313 4219 1838 4219 
Q 1578 4219 1281 4162 
Q 984 4106 628 3988 
L 628 4550 
Q 988 4650 1302 4700 
Q 1616 4750 1894 4750 
Q 2613 4750 3031 4423 
Q 3450 4097 3450 3541 
Q 3450 3153 3228 2886 
Q 3006 2619 2597 2516 
z
" id="DejaVuSans-33" transform="scale(0.015625)"/>
       </defs>
       <use xlink:href="#DejaVuSans-33"/>
       <use x="63.623047" xlink:href="#DejaVuSans-30"/>
       <use x="127.246094" xlink:href="#DejaVuSans-30"/>
      </g>
     </g>
    </g>
    <g id="xtick_5">
     <g id="line2d_9">
      <path clip-path="url(#pa45cb9a967)" d="M 325.925339 307.584 
L 325.925339 41.472 
" style="fill:none;stroke:#b0b0b0;stroke-linecap:square;stroke-width:0.8;"/>
     </g>
     <g id="line2d_10">
      <g>
       <use style="stroke:#000000;stroke-width:0.8;" x="325.925339" xlink:href="#m98f5ae9e0d" y="307.584"/>
      </g>
     </g>
     <g id="text_5">
      <!-- 400 -->
      <g transform="translate(316.381589 322.182437)scale(0.1 -0.1)">
       <defs>
        <path d="M 2419 4116 
L 825 1625 
L 2419 1625 
L 2419 4116 
z
M 2253 4666 
L 3047 4666 
L 3047 1625 
L 3713 1625 
L 3713 1100 
L 3047 1100 
L 3047 0 
L 2419 0 
L 2419 1100 
L 313 1100 
L 313 1709 
L 2253 4666 
z
" id="DejaVuSans-34" transform="scale(0.015625)"/>
       </defs>
       <use xlink:href="#DejaVuSans-34"/>
       <use x="63.623047" xlink:href="#DejaVuSans-30"/>
       <use x="127.246094" xlink:href="#DejaVuSans-30"/>
      </g>
     </g>
    </g>
    <g id="xtick_6">
     <g id="line2d_11">
      <path clip-path="url(#pa45cb9a967)" d="M 388.948492 307.584 
L 388.948492 41.472 
" style="fill:none;stroke:#b0b0b0;stroke-linecap:square;stroke-width:0.8;"/>
     </g>
     <g id="line2d_12">
      <g>
       <use style="stroke:#000000;stroke-width:0.8;" x="388.948492" xlink:href="#m98f5ae9e0d" y="307.584"/>
      </g>
     </g>
     <g id="text_6">
      <!-- 500 -->
      <g transform="translate(379.404742 322.182437)scale(0.1 -0.1)">
       <defs>
        <path d="M 691 4666 
L 3169 4666 
L 3169 4134 
L 1269 4134 
L 1269 2991 
Q 1406 3038 1543 3061 
Q 1681 3084 1819 3084 
Q 2600 3084 3056 2656 
Q 3513 2228 3513 1497 
Q 3513 744 3044 326 
Q 2575 -91 1722 -91 
Q 1428 -91 1123 -41 
Q 819 9 494 109 
L 494 744 
Q 775 591 1075 516 
Q 1375 441 1709 441 
Q 2250 441 2565 725 
Q 2881 1009 2881 1497 
Q 2881 1984 2565 2268 
Q 2250 2553 1709 2553 
Q 1456 2553 1204 2497 
Q 953 2441 691 2322 
L 691 4666 
z
" id="DejaVuSans-35" transform="scale(0.015625)"/>
       </defs>
       <use xlink:href="#DejaVuSans-35"/>
       <use x="63.623047" xlink:href="#DejaVuSans-30"/>
       <use x="127.246094" xlink:href="#DejaVuSans-30"/>
      </g>
     </g>
    </g>
    <g id="text_7">
     <!-- Position in X direction [mm] -->
     <g transform="translate(166.805313 335.860562)scale(0.1 -0.1)">
      <defs>
       <path d="M 1259 4147 
L 1259 2394 
L 2053 2394 
Q 2494 2394 2734 2622 
Q 2975 2850 2975 3272 
Q 2975 3691 2734 3919 
Q 2494 4147 2053 4147 
L 1259 4147 
z
M 628 4666 
L 2053 4666 
Q 2838 4666 3239 4311 
Q 3641 3956 3641 3272 
Q 3641 2581 3239 2228 
Q 2838 1875 2053 1875 
L 1259 1875 
L 1259 0 
L 628 0 
L 628 4666 
z
" id="DejaVuSans-50" transform="scale(0.015625)"/>
       <path d="M 1959 3097 
Q 1497 3097 1228 2736 
Q 959 2375 959 1747 
Q 959 1119 1226 758 
Q 1494 397 1959 397 
Q 2419 397 2687 759 
Q 2956 1122 2956 1747 
Q 2956 2369 2687 2733 
Q 2419 3097 1959 3097 
z
M 1959 3584 
Q 2709 3584 3137 3096 
Q 3566 2609 3566 1747 
Q 3566 888 3137 398 
Q 2709 -91 1959 -91 
Q 1206 -91 779 398 
Q 353 888 353 1747 
Q 353 2609 779 3096 
Q 1206 3584 1959 3584 
z
" id="DejaVuSans-6f" transform="scale(0.015625)"/>
       <path d="M 2834 3397 
L 2834 2853 
Q 2591 2978 2328 3040 
Q 2066 3103 1784 3103 
Q 1356 3103 1142 2972 
Q 928 2841 928 2578 
Q 928 2378 1081 2264 
Q 1234 2150 1697 2047 
L 1894 2003 
Q 2506 1872 2764 1633 
Q 3022 1394 3022 966 
Q 3022 478 2636 193 
Q 2250 -91 1575 -91 
Q 1294 -91 989 -36 
Q 684 19 347 128 
L 347 722 
Q 666 556 975 473 
Q 1284 391 1588 391 
Q 1994 391 2212 530 
Q 2431 669 2431 922 
Q 2431 1156 2273 1281 
Q 2116 1406 1581 1522 
L 1381 1569 
Q 847 1681 609 1914 
Q 372 2147 372 2553 
Q 372 3047 722 3315 
Q 1072 3584 1716 3584 
Q 2034 3584 2315 3537 
Q 2597 3491 2834 3397 
z
" id="DejaVuSans-73" transform="scale(0.015625)"/>
       <path d="M 603 3500 
L 1178 3500 
L 1178 0 
L 603 0 
L 603 3500 
z
M 603 4863 
L 1178 4863 
L 1178 4134 
L 603 4134 
L 603 4863 
z
" id="DejaVuSans-69" transform="scale(0.015625)"/>
       <path d="M 1172 4494 
L 1172 3500 
L 2356 3500 
L 2356 3053 
L 1172 3053 
L 1172 1153 
Q 1172 725 1289 603 
Q 1406 481 1766 481 
L 2356 481 
L 2356 0 
L 1766 0 
Q 1100 0 847 248 
Q 594 497 594 1153 
L 594 3053 
L 172 3053 
L 172 3500 
L 594 3500 
L 594 4494 
L 1172 4494 
z
" id="DejaVuSans-74" transform="scale(0.015625)"/>
       <path d="M 3513 2113 
L 3513 0 
L 2938 0 
L 2938 2094 
Q 2938 2591 2744 2837 
Q 2550 3084 2163 3084 
Q 1697 3084 1428 2787 
Q 1159 2491 1159 1978 
L 1159 0 
L 581 0 
L 581 3500 
L 1159 3500 
L 1159 2956 
Q 1366 3272 1645 3428 
Q 1925 3584 2291 3584 
Q 2894 3584 3203 3211 
Q 3513 2838 3513 2113 
z
" id="DejaVuSans-6e" transform="scale(0.015625)"/>
       <path id="DejaVuSans-20" transform="scale(0.015625)"/>
       <path d="M 403 4666 
L 1081 4666 
L 2241 2931 
L 3406 4666 
L 4084 4666 
L 2584 2425 
L 4184 0 
L 3506 0 
L 2194 1984 
L 872 0 
L 191 0 
L 1856 2491 
L 403 4666 
z
" id="DejaVuSans-58" transform="scale(0.015625)"/>
       <path d="M 2906 2969 
L 2906 4863 
L 3481 4863 
L 3481 0 
L 2906 0 
L 2906 525 
Q 2725 213 2448 61 
Q 2172 -91 1784 -91 
Q 1150 -91 751 415 
Q 353 922 353 1747 
Q 353 2572 751 3078 
Q 1150 3584 1784 3584 
Q 2172 3584 2448 3432 
Q 2725 3281 2906 2969 
z
M 947 1747 
Q 947 1113 1208 752 
Q 1469 391 1925 391 
Q 2381 391 2643 752 
Q 2906 1113 2906 1747 
Q 2906 2381 2643 2742 
Q 2381 3103 1925 3103 
Q 1469 3103 1208 2742 
Q 947 2381 947 1747 
z
" id="DejaVuSans-64" transform="scale(0.015625)"/>
       <path d="M 2631 2963 
Q 2534 3019 2420 3045 
Q 2306 3072 2169 3072 
Q 1681 3072 1420 2755 
Q 1159 2438 1159 1844 
L 1159 0 
L 581 0 
L 581 3500 
L 1159 3500 
L 1159 2956 
Q 1341 3275 1631 3429 
Q 1922 3584 2338 3584 
Q 2397 3584 2469 3576 
Q 2541 3569 2628 3553 
L 2631 2963 
z
" id="DejaVuSans-72" transform="scale(0.015625)"/>
       <path d="M 3597 1894 
L 3597 1613 
L 953 1613 
Q 991 1019 1311 708 
Q 1631 397 2203 397 
Q 2534 397 2845 478 
Q 3156 559 3463 722 
L 3463 178 
Q 3153 47 2828 -22 
Q 2503 -91 2169 -91 
Q 1331 -91 842 396 
Q 353 884 353 1716 
Q 353 2575 817 3079 
Q 1281 3584 2069 3584 
Q 2775 3584 3186 3129 
Q 3597 2675 3597 1894 
z
M 3022 2063 
Q 3016 2534 2758 2815 
Q 2500 3097 2075 3097 
Q 1594 3097 1305 2825 
Q 1016 2553 972 2059 
L 3022 2063 
z
" id="DejaVuSans-65" transform="scale(0.015625)"/>
       <path d="M 3122 3366 
L 3122 2828 
Q 2878 2963 2633 3030 
Q 2388 3097 2138 3097 
Q 1578 3097 1268 2742 
Q 959 2388 959 1747 
Q 959 1106 1268 751 
Q 1578 397 2138 397 
Q 2388 397 2633 464 
Q 2878 531 3122 666 
L 3122 134 
Q 2881 22 2623 -34 
Q 2366 -91 2075 -91 
Q 1284 -91 818 406 
Q 353 903 353 1747 
Q 353 2603 823 3093 
Q 1294 3584 2113 3584 
Q 2378 3584 2631 3529 
Q 2884 3475 3122 3366 
z
" id="DejaVuSans-63" transform="scale(0.015625)"/>
       <path d="M 550 4863 
L 1875 4863 
L 1875 4416 
L 1125 4416 
L 1125 -397 
L 1875 -397 
L 1875 -844 
L 550 -844 
L 550 4863 
z
" id="DejaVuSans-5b" transform="scale(0.015625)"/>
       <path d="M 3328 2828 
Q 3544 3216 3844 3400 
Q 4144 3584 4550 3584 
Q 5097 3584 5394 3201 
Q 5691 2819 5691 2113 
L 5691 0 
L 5113 0 
L 5113 2094 
Q 5113 2597 4934 2840 
Q 4756 3084 4391 3084 
Q 3944 3084 3684 2787 
Q 3425 2491 3425 1978 
L 3425 0 
L 2847 0 
L 2847 2094 
Q 2847 2600 2669 2842 
Q 2491 3084 2119 3084 
Q 1678 3084 1418 2786 
Q 1159 2488 1159 1978 
L 1159 0 
L 581 0 
L 581 3500 
L 1159 3500 
L 1159 2956 
Q 1356 3278 1631 3431 
Q 1906 3584 2284 3584 
Q 2666 3584 2933 3390 
Q 3200 3197 3328 2828 
z
" id="DejaVuSans-6d" transform="scale(0.015625)"/>
       <path d="M 1947 4863 
L 1947 -844 
L 622 -844 
L 622 -397 
L 1369 -397 
L 1369 4416 
L 622 4416 
L 622 4863 
L 1947 4863 
z
" id="DejaVuSans-5d" transform="scale(0.015625)"/>
      </defs>
      <use xlink:href="#DejaVuSans-50"/>
      <use x="56.677734" xlink:href="#DejaVuSans-6f"/>
      <use x="117.859375" xlink:href="#DejaVuSans-73"/>
      <use x="169.958984" xlink:href="#DejaVuSans-69"/>
      <use x="197.742188" xlink:href="#DejaVuSans-74"/>
      <use x="236.951172" xlink:href="#DejaVuSans-69"/>
      <use x="264.734375" xlink:href="#DejaVuSans-6f"/>
      <use x="325.916016" xlink:href="#DejaVuSans-6e"/>
      <use x="389.294922" xlink:href="#DejaVuSans-20"/>
      <use x="421.082031" xlink:href="#DejaVuSans-69"/>
      <use x="448.865234" xlink:href="#DejaVuSans-6e"/>
      <use x="512.244141" xlink:href="#DejaVuSans-20"/>
      <use x="544.03125" xlink:href="#DejaVuSans-58"/>
      <use x="612.537109" xlink:href="#DejaVuSans-20"/>
      <use x="644.324219" xlink:href="#DejaVuSans-64"/>
      <use x="707.800781" xlink:href="#DejaVuSans-69"/>
      <use x="735.583984" xlink:href="#DejaVuSans-72"/>
      <use x="774.447266" xlink:href="#DejaVuSans-65"/>
      <use x="835.970703" xlink:href="#DejaVuSans-63"/>
      <use x="890.951172" xlink:href="#DejaVuSans-74"/>
      <use x="930.160156" xlink:href="#DejaVuSans-69"/>
      <use x="957.943359" xlink:href="#DejaVuSans-6f"/>
      <use x="1019.125" xlink:href="#DejaVuSans-6e"/>
      <use x="1082.503906" xlink:href="#DejaVuSans-20"/>
      <use x="1114.291016" xlink:href="#DejaVuSans-5b"/>
      <use x="1153.304688" xlink:href="#DejaVuSans-6d"/>
      <use x="1250.716797" xlink:href="#DejaVuSans-6d"/>
      <use x="1348.128906" xlink:href="#DejaVuSans-5d"/>
     </g>
    </g>
   </g>
   <g id="matplotlib.axis_2">
    <g id="ytick_1">
     <g id="line2d_13">
      <path clip-path="url(#pa45cb9a967)" d="M 57.6 294.95628 
L 414.72 294.95628 
" style="fill:none;stroke:#b0b0b0;stroke-linecap:square;stroke-width:0.8;"/>
     </g>
     <g id="line2d_14">
      <defs>
       <path d="M 0 0 
L -3.5 0 
" id="mb9b790cabc" style="stroke:#000000;stroke-width:0.8;"/>
      </defs>
      <g>
       <use style="stroke:#000000;stroke-width:0.8;" x="57.6" xlink:href="#mb9b790cabc" y="294.95628"/>
      </g>
     </g>
     <g id="text_8">
      <!-- −150 -->
      <g transform="translate(23.132812 298.755499)scale(0.1 -0.1)">
       <defs>
        <path d="M 678 2272 
L 4684 2272 
L 4684 1741 
L 678 1741 
L 678 2272 
z
" id="DejaVuSans-2212" transform="scale(0.015625)"/>
       </defs>
       <use xlink:href="#DejaVuSans-2212"/>
       <use x="83.789062" xlink:href="#DejaVuSans-31"/>
       <use x="147.412109" xlink:href="#DejaVuSans-35"/>
       <use x="211.035156" xlink:href="#DejaVuSans-30"/>
      </g>
     </g>
    </g>
    <g id="ytick_2">
     <g id="line2d_15">
      <path clip-path="url(#pa45cb9a967)" d="M 57.6 254.75339 
L 414.72 254.75339 
" style="fill:none;stroke:#b0b0b0;stroke-linecap:square;stroke-width:0.8;"/>
     </g>
     <g id="line2d_16">
      <g>
       <use style="stroke:#000000;stroke-width:0.8;" x="57.6" xlink:href="#mb9b790cabc" y="254.75339"/>
      </g>
     </g>
     <g id="text_9">
      <!-- −100 -->
      <g transform="translate(23.132812 258.552609)scale(0.1 -0.1)">
       <use xlink:href="#DejaVuSans-2212"/>
       <use x="83.789062" xlink:href="#DejaVuSans-31"/>
       <use x="147.412109" xlink:href="#DejaVuSans-30"/>
       <use x="211.035156" xlink:href="#DejaVuSans-30"/>
      </g>
     </g>
    </g>
    <g id="ytick_3">
     <g id="line2d_17">
      <path clip-path="url(#pa45cb9a967)" d="M 57.6 214.550499 
L 414.72 214.550499 
" style="fill:none;stroke:#b0b0b0;stroke-linecap:square;stroke-width:0.8;"/>
     </g>
     <g id="line2d_18">
      <g>
       <use style="stroke:#000000;stroke-width:0.8;" x="57.6" xlink:href="#mb9b790cabc" y="214.550499"/>
      </g>
     </g>
     <g id="text_10">
      <!-- −50 -->
      <g transform="translate(29.495313 218.349718)scale(0.1 -0.1)">
       <use xlink:href="#DejaVuSans-2212"/>
       <use x="83.789062" xlink:href="#DejaVuSans-35"/>
       <use x="147.412109" xlink:href="#DejaVuSans-30"/>
      </g>
     </g>
    </g>
    <g id="ytick_4">
     <g id="line2d_19">
      <path clip-path="url(#pa45cb9a967)" d="M 57.6 174.347609 
L 414.72 174.347609 
" style="fill:none;stroke:#b0b0b0;stroke-linecap:square;stroke-width:0.8;"/>
     </g>
     <g id="line2d_20">
      <g>
       <use style="stroke:#000000;stroke-width:0.8;" x="57.6" xlink:href="#mb9b790cabc" y="174.347609"/>
      </g>
     </g>
     <g id="text_11">
      <!-- 0 -->
      <g transform="translate(44.2375 178.146828)scale(0.1 -0.1)">
       <use xlink:href="#DejaVuSans-30"/>
      </g>
     </g>
    </g>
    <g id="ytick_5">
     <g id="line2d_21">
      <path clip-path="url(#pa45cb9a967)" d="M 57.6 134.144718 
L 414.72 134.144718 
" style="fill:none;stroke:#b0b0b0;stroke-linecap:square;stroke-width:0.8;"/>
     </g>
     <g id="line2d_22">
      <g>
       <use style="stroke:#000000;stroke-width:0.8;" x="57.6" xlink:href="#mb9b790cabc" y="134.144718"/>
      </g>
     </g>
     <g id="text_12">
      <!-- 50 -->
      <g transform="translate(37.875 137.943937)scale(0.1 -0.1)">
       <use xlink:href="#DejaVuSans-35"/>
       <use x="63.623047" xlink:href="#DejaVuSans-30"/>
      </g>
     </g>
    </g>
    <g id="ytick_6">
     <g id="line2d_23">
      <path clip-path="url(#pa45cb9a967)" d="M 57.6 93.941828 
L 414.72 93.941828 
" style="fill:none;stroke:#b0b0b0;stroke-linecap:square;stroke-width:0.8;"/>
     </g>
     <g id="line2d_24">
      <g>
       <use style="stroke:#000000;stroke-width:0.8;" x="57.6" xlink:href="#mb9b790cabc" y="93.941828"/>
      </g>
     </g>
     <g id="text_13">
      <!-- 100 -->
      <g transform="translate(31.5125 97.741046)scale(0.1 -0.1)">
       <use xlink:href="#DejaVuSans-31"/>
       <use x="63.623047" xlink:href="#DejaVuSans-30"/>
       <use x="127.246094" xlink:href="#DejaVuSans-30"/>
      </g>
     </g>
    </g>
    <g id="ytick_7">
     <g id="line2d_25">
      <path clip-path="url(#pa45cb9a967)" d="M 57.6 53.738937 
L 414.72 53.738937 
" style="fill:none;stroke:#b0b0b0;stroke-linecap:square;stroke-width:0.8;"/>
     </g>
     <g id="line2d_26">
      <g>
       <use style="stroke:#000000;stroke-width:0.8;" x="57.6" xlink:href="#mb9b790cabc" y="53.738937"/>
      </g>
     </g>
     <g id="text_14">
      <!-- 150 -->
      <g transform="translate(31.5125 57.538156)scale(0.1 -0.1)">
       <use xlink:href="#DejaVuSans-31"/>
       <use x="63.623047" xlink:href="#DejaVuSans-35"/>
       <use x="127.246094" xlink:href="#DejaVuSans-30"/>
      </g>
     </g>
    </g>
    <g id="text_15">
     <!-- Position in Y direction [mm] -->
     <g transform="translate(17.053125 243.511594)rotate(-90)scale(0.1 -0.1)">
      <defs>
       <path d="M -13 4666 
L 666 4666 
L 1959 2747 
L 3244 4666 
L 3922 4666 
L 2272 2222 
L 2272 0 
L 1638 0 
L 1638 2222 
L -13 4666 
z
" id="DejaVuSans-59" transform="scale(0.015625)"/>
      </defs>
      <use xlink:href="#DejaVuSans-50"/>
      <use x="56.677734" xlink:href="#DejaVuSans-6f"/>
      <use x="117.859375" xlink:href="#DejaVuSans-73"/>
      <use x="169.958984" xlink:href="#DejaVuSans-69"/>
      <use x="197.742188" xlink:href="#DejaVuSans-74"/>
      <use x="236.951172" xlink:href="#DejaVuSans-69"/>
      <use x="264.734375" xlink:href="#DejaVuSans-6f"/>
      <use x="325.916016" xlink:href="#DejaVuSans-6e"/>
      <use x="389.294922" xlink:href="#DejaVuSans-20"/>
      <use x="421.082031" xlink:href="#DejaVuSans-69"/>
      <use x="448.865234" xlink:href="#DejaVuSans-6e"/>
      <use x="512.244141" xlink:href="#DejaVuSans-20"/>
      <use x="544.03125" xlink:href="#DejaVuSans-59"/>
      <use x="605.115234" xlink:href="#DejaVuSans-20"/>
      <use x="636.902344" xlink:href="#DejaVuSans-64"/>
      <use x="700.378906" xlink:href="#DejaVuSans-69"/>
      <use x="728.162109" xlink:href="#DejaVuSans-72"/>
      <use x="767.025391" xlink:href="#DejaVuSans-65"/>
      <use x="828.548828" xlink:href="#DejaVuSans-63"/>
      <use x="883.529297" xlink:href="#DejaVuSans-74"/>
      <use x="922.738281" xlink:href="#DejaVuSans-69"/>
      <use x="950.521484" xlink:href="#DejaVuSans-6f"/>
      <use x="1011.703125" xlink:href="#DejaVuSans-6e"/>
      <use x="1075.082031" xlink:href="#DejaVuSans-20"/>
      <use x="1106.869141" xlink:href="#DejaVuSans-5b"/>
      <use x="1145.882812" xlink:href="#DejaVuSans-6d"/>
      <use x="1243.294922" xlink:href="#DejaVuSans-6d"/>
      <use x="1340.707031" xlink:href="#DejaVuSans-5d"/>
     </g>
    </g>
   </g>
   <g id="line2d_27">
    <path clip-path="url(#pa45cb9a967)" d="M 76.275066 54.550413 
L 78.591919 53.568 
L 78.711922 54.712091 
L 81.306709 53.789537 
L 81.464079 54.748644 
L 84.055286 53.928427 
L 84.172329 54.825016 
L 85.965434 54.130346 
L 87.002094 55.057569 
L 89.349386 54.165446 
L 89.685512 55.26489 
L 92.424007 55.671593 
L 95.160491 55.794862 
L 106.034355 57.31867 
L 106.743518 57.888166 
L 108.167462 57.543062 
L 109.09933 58.065724 
L 110.588501 57.675439 
L 111.77398 58.432084 
L 125.346993 60.705856 
L 126.099792 61.455958 
L 128.101985 60.898971 
L 128.349612 61.632752 
L 130.622599 61.056732 
L 131.041418 61.868493 
L 133.70091 62.22492 
L 139.128062 63.371833 
L 141.969413 63.957553 
L 144.557618 64.323181 
L 145.145295 64.976224 
L 147.344275 64.497658 
L 147.611323 65.204608 
L 149.169225 64.636925 
L 150.268517 65.490052 
L 155.68889 66.477049 
L 161.173543 67.524536 
L 162.255674 68.345818 
L 163.852002 67.78504 
L 164.241207 68.574341 
L 166.373711 68.060561 
L 166.820317 68.820221 
L 168.253248 68.205418 
L 169.503518 69.158321 
L 180.351726 71.173587 
L 180.992524 71.959439 
L 183.023293 71.438243 
L 183.379281 72.170906 
L 185.056613 71.683011 
L 186.023712 72.464005 
L 191.406998 73.386525 
L 196.924155 74.536281 
L 198.021023 75.365804 
L 199.588626 74.874889 
L 199.986756 75.580261 
L 201.730948 75.110532 
L 202.56705 75.862544 
L 207.973035 76.931581 
L 210.691529 77.667975 
L 213.46162 78.233675 
L 214.693178 78.875797 
L 215.801111 78.587859 
L 216.528893 79.028405 
L 218.987967 79.454946 
L 229.841533 81.875143 
L 230.818333 82.427084 
L 232.173179 82.063509 
L 232.863312 82.696769 
L 243.672836 85.178185 
L 244.521478 85.944923 
L 246.146676 85.607325 
L 246.685089 86.185865 
L 247.92744 85.755383 
L 249.319154 86.666349 
L 252.000887 87.305743 
L 254.796221 88.288038 
L 257.34686 88.701129 
L 258.201571 89.522776 
L 259.623115 89.051324 
L 260.429048 89.885152 
L 262.996606 90.479275 
L 268.452389 92.021522 
L 269.336628 93.081696 
L 270.913004 92.505802 
L 271.494054 93.400928 
L 273.992592 94.002796 
L 279.146499 95.612335 
L 279.58629 96.521825 
L 281.749886 96.091708 
L 282.790259 97.13779 
L 285.004185 97.879103 
L 287.623972 98.903405 
L 288.761839 100.01473 
L 289.864417 99.528883 
L 290.765157 100.454454 
L 295.916628 102.437174 
L 297.095977 103.931748 
L 298.000929 103.044971 
L 298.851294 104.605778 
L 303.906289 106.268436 
L 304.733387 107.2448 
L 305.790272 106.759182 
L 307.18466 108.172357 
L 309.744239 109.325732 
L 310.860698 110.588584 
L 311.827148 110.038518 
L 312.753117 111.18897 
L 315.25405 112.475121 
L 316.514374 114.010828 
L 317.397347 113.415453 
L 318.293072 114.53809 
L 320.874271 115.837871 
L 321.943371 117.614421 
L 322.918022 116.918506 
L 323.791307 118.19569 
L 326.200321 119.579671 
L 327.317639 121.24481 
L 328.250587 120.529091 
L 329.235586 121.955193 
L 331.566783 123.447572 
L 332.449105 124.936541 
L 333.478969 124.141708 
L 334.57737 125.95129 
L 336.723831 127.228963 
L 337.732185 128.698979 
L 339.933632 130.09002 
L 341.066443 131.765731 
L 341.838992 131.066469 
L 342.909456 132.698934 
L 345.105577 134.135814 
L 346.086987 135.636773 
L 347.916901 136.646773 
L 348.620653 138.545679 
L 350.387052 138.02368 
L 351.607373 139.082647 
L 353.815499 140.840624 
L 355.058415 142.125872 
L 355.306022 141.880173 
L 356.79026 143.740469 
L 357.72313 145.746179 
L 358.647283 144.931446 
L 359.660057 146.131519 
L 361.705607 147.514562 
L 362.474896 149.670117 
L 364.056433 148.552966 
L 364.908512 150.226603 
L 367.276278 152.986794 
L 367.394709 151.056979 
L 369.326205 152.138925 
L 370.68808 153.38276 
L 371.370416 157.027388 
L 372.72919 155.087455 
L 373.493137 157.166265 
L 375.581542 158.353342 
L 376.564496 160.014704 
L 377.446912 159.301438 
L 379.715108 163.34963 
L 380.513185 162.491032 
L 381.513496 164.205093 
L 383.402166 165.739508 
L 384.620521 167.788786 
L 386.320425 169.074941 
L 387.150332 171.156826 
L 389.029395 172.37054 
L 390.241774 174.718091 
L 391.696419 176.055805 
L 393.629968 180.735796 
L 394.099682 179.592052 
L 394.81466 182.454976 
L 395.861864 185.447962 
L 397.012086 185.958666 
L 398.11713 192.925947 
L 398.153589 196.407699 
L 397.434944 203.325165 
L 396.491196 208.815741 
L 396.381149 205.024948 
L 396.003161 207.392123 
L 394.241342 213.023053 
L 392.930636 214.503871 
L 391.767432 216.779965 
L 390.226853 218.298532 
L 389.035497 220.351918 
L 387.417576 221.800792 
L 386.268059 223.56888 
L 384.364928 225.174101 
L 383.223627 226.734256 
L 382.54271 226.120007 
L 381.293488 227.870839 
L 379.269906 229.213013 
L 378.172523 230.551685 
L 375.9419 232.090092 
L 374.835687 233.558346 
L 374.111592 233.002784 
L 372.955496 234.54131 
L 370.587361 235.962641 
L 369.573645 237.207043 
L 368.786807 236.649986 
L 367.520328 238.19892 
L 365.159019 239.568625 
L 364.144336 240.714857 
L 363.330299 240.148279 
L 362.049146 241.790259 
L 359.726591 243.145206 
L 358.680722 244.286551 
L 354.140317 246.751481 
L 353.302335 247.880358 
L 352.362258 247.215065 
L 351.034225 249.01127 
L 348.833869 250.199534 
L 347.914099 251.431045 
L 345.556232 252.691613 
L 343.326408 253.687779 
L 342.366676 254.848226 
L 337.599184 257.173526 
L 336.661482 258.293143 
L 335.800151 257.745044 
L 334.496472 259.2204 
L 331.940393 260.468146 
L 331.04511 261.625182 
L 329.885724 261.027278 
L 328.871503 262.2778 
L 326.296281 263.477958 
L 325.015522 264.90543 
L 323.955509 264.341767 
L 323.21359 265.331278 
L 320.755556 266.164671 
L 318.082547 267.275535 
L 316.879888 268.455538 
L 315.663439 267.947424 
L 315.021567 268.857895 
L 312.520446 269.537618 
L 309.73521 270.528914 
L 307.165912 271.207678 
L 306.603948 272.209081 
L 304.95745 271.564389 
L 304.288294 272.636532 
L 302.675935 271.785017 
L 301.742765 273.29716 
L 298.775167 274.20385 
L 296.061261 274.872922 
L 295.187032 275.551602 
L 293.674215 275.087145 
L 293.087887 275.808873 
L 291.506142 275.174667 
L 290.508617 276.194344 
L 282.253975 277.871758 
L 279.691709 278.268869 
L 279.155097 279.038007 
L 277.049803 278.636144 
L 276.632767 279.230768 
L 275.3292 278.805003 
L 273.987637 279.524551 
L 268.497268 280.280476 
L 262.985168 280.918356 
L 257.477476 281.455596 
L 254.772378 281.69036 
L 254.145108 282.455396 
L 252.024743 281.79066 
L 251.875092 282.524102 
L 249.310608 281.911452 
L 249.153681 282.625881 
L 246.586557 282.013677 
L 246.428521 282.714409 
L 243.941035 282.09007 
L 243.685558 282.846448 
L 241.168706 282.202676 
L 240.950117 282.952732 
L 238.460044 282.28096 
L 238.181206 283.047595 
L 236.81267 282.314996 
L 235.4845 283.185985 
L 229.965241 283.485347 
L 227.207562 283.708117 
L 207.995781 284.521882 
L 197.020346 285.153419 
L 196.433803 285.965389 
L 194.22348 285.216784 
L 194.007121 286.015789 
L 191.48 285.257205 
L 191.380915 286.07635 
L 188.730245 285.328351 
L 188.716315 286.114905 
L 185.987928 285.402983 
L 185.903403 286.160137 
L 183.249684 285.491172 
L 183.187618 286.186212 
L 180.535051 285.543057 
L 180.428554 286.24732 
L 177.757228 285.604754 
L 177.664678 286.349962 
L 175.176368 285.690876 
L 174.89976 286.444485 
L 172.258552 285.742868 
L 172.159484 286.601119 
L 169.848933 285.824989 
L 169.440999 286.712412 
L 166.693768 286.747243 
L 153.023485 287.518308 
L 150.19745 287.535469 
L 136.548227 288.490597 
L 133.679699 288.805226 
L 131.019008 288.883261 
L 130.477307 289.551274 
L 128.302555 289.049654 
L 128.104351 289.662581 
L 125.605192 289.161649 
L 125.357228 289.727604 
L 123.353979 289.311582 
L 122.628697 289.892476 
L 119.883496 290.048746 
L 114.453974 290.788609 
L 103.479796 292.311309 
L 102.114865 292.985375 
L 100.838317 292.578826 
L 100.501887 293.12778 
L 98.134477 292.752258 
L 97.889265 293.217103 
L 95.00349 293.464129 
L 94.521606 292.608051 
L 92.532383 292.645058 
L 92.450851 293.548227 
L 90.73109 292.813775 
L 89.612699 293.791525 
L 87.175658 294.648281 
L 84.140026 295.275645 
L 81.376689 295.448405 
L 78.664501 295.343249 
L 76.336302 295.488 
L 76.336302 295.488 
" style="fill:none;stroke:#1f77b4;stroke-linecap:square;stroke-width:1.5;"/>
   </g>
   <g id="line2d_28">
    <path clip-path="url(#pa45cb9a967)" d="M 73.832727 174.347609 
L 75.373388 175.330407 
L 76.91405 175.470807 
L 78.454711 175.751606 
L 81.536033 175.470807 
L 83.076694 175.190007 
L 84.617355 175.470807 
L 86.158017 175.470807 
L 89.239339 175.190007 
L 90.78 175.330407 
L 92.320661 175.330407 
L 93.861323 174.909208 
L 95.401984 174.909208 
L 96.942645 175.049607 
L 98.483306 175.049607 
L 100.023967 175.190007 
L 101.564628 175.049607 
L 104.645951 175.049607 
L 106.186612 175.190007 
L 107.727273 175.049607 
L 109.267934 175.190007 
L 110.808595 175.190007 
L 112.349257 175.330407 
L 115.430579 175.330407 
L 116.97124 175.470807 
L 118.511901 175.470807 
L 121.593224 175.190007 
L 124.674546 175.751606 
L 126.215207 175.751606 
L 127.755868 175.892006 
L 130.837191 175.892006 
L 132.377852 176.032405 
L 133.918513 176.032405 
L 140.081158 176.594004 
L 141.621819 176.594004 
L 143.16248 176.874804 
L 144.703141 176.734404 
L 147.784464 177.015204 
L 149.325125 177.015204 
L 152.406447 177.576802 
L 153.947108 177.717202 
L 155.48777 177.717202 
L 157.028431 177.857602 
L 158.569092 177.857602 
L 163.191075 178.278801 
L 164.731737 178.278801 
L 169.35372 178.7 
L 170.894381 178.7 
L 172.435042 178.8404 
L 173.975704 178.8404 
L 175.516365 178.9808 
L 177.057026 178.9808 
L 184.760332 179.682798 
L 186.300993 179.682798 
L 187.841654 179.963598 
L 189.382315 179.963598 
L 197.085621 180.665596 
L 198.626282 180.665596 
L 201.707605 180.946396 
L 203.248266 180.946396 
L 204.788927 181.086795 
L 206.329588 181.086795 
L 207.870249 181.367595 
L 209.410911 181.367595 
L 210.951572 181.648394 
L 212.492233 181.648394 
L 217.114217 182.069594 
L 218.654878 182.350393 
L 227.898845 183.192791 
L 229.439506 183.192791 
L 235.602151 183.75439 
L 237.142812 184.03519 
L 243.305457 184.596789 
L 244.846118 184.596789 
L 247.92744 184.877588 
L 249.468101 185.158387 
L 266.415374 186.702784 
L 267.956035 186.983584 
L 269.496696 186.983584 
L 277.200002 187.685582 
L 278.740664 187.404783 
L 280.281325 187.404783 
L 281.821986 187.966382 
L 283.362647 188.106782 
L 284.903308 188.387581 
L 286.443969 187.966382 
L 287.984631 188.106782 
L 289.525292 188.80878 
L 295.687936 189.370379 
L 297.228598 189.931978 
L 298.769259 190.212777 
L 300.30992 189.931978 
L 301.850581 190.212777 
L 303.391242 189.931978 
L 304.931904 189.931978 
L 306.472565 190.493577 
L 315.716532 191.335975 
L 317.257193 191.616775 
L 323.419838 192.178374 
L 326.50116 192.739973 
L 328.041821 192.599573 
L 329.582482 193.020772 
L 334.204466 193.441971 
L 335.745127 193.441971 
L 337.285788 193.722771 
L 340.367111 194.00357 
L 341.907772 194.284369 
L 343.448433 193.86317 
L 346.529755 194.14397 
L 348.070416 194.14397 
L 349.611078 194.424769 
L 351.151739 194.424769 
L 352.6924 194.565169 
L 354.233061 194.565169 
L 355.773722 194.845968 
L 357.314383 195.267168 
L 358.855045 195.267168 
L 360.395706 194.986368 
L 361.936367 195.267168 
L 363.477028 194.986368 
L 368.099012 194.986368 
L 369.639673 195.267168 
L 371.180334 195.407567 
L 372.720995 196.249966 
L 374.261656 195.547967 
L 375.802318 196.390365 
L 377.342979 196.390365 
L 378.88364 195.828766 
L 380.424301 196.671165 
L 381.964962 196.951964 
L 383.505623 197.513563 
L 385.046285 197.653963 
L 386.586946 197.513563 
L 388.127607 197.653963 
L 389.668268 197.653963 
L 391.208929 198.075162 
L 392.74959 196.951964 
L 394.290252 196.671165 
L 395.830913 196.811564 
L 395.830913 196.811564 
" style="fill:none;stroke:#000000;stroke-linecap:square;stroke-width:1.5;"/>
   </g>
   <g id="line2d_29">
    <path clip-path="url(#pa45cb9a967)" d="M 73.836275 53.878815 
L 113.761292 60.672693 
L 162.274807 70.238577 
L 192.050984 76.745801 
L 203.212775 79.214379 
L 241.561362 88.409504 
L 266.173894 95.159762 
L 272.283642 97.086365 
L 280.792764 100.004299 
L 289.285373 102.999318 
L 295.31055 105.318164 
L 301.261152 107.931746 
L 315.464876 114.481456 
L 318.94918 116.337961 
L 328.114694 121.659128 
L 337.227174 127.124204 
L 349.582018 135.097724 
L 354.035757 138.092928 
L 358.49261 141.080847 
L 365.213021 145.476044 
L 371.747583 150.306485 
L 374.989884 152.775272 
L 379.153011 156.387615 
L 382.23812 159.165393 
L 385.198828 162.155073 
L 388.044242 165.321581 
L 389.823587 167.593085 
L 392.30041 171.227177 
L 394.564441 175.081235 
L 395.893378 177.807924 
L 397.004666 180.688091 
L 397.838506 183.716309 
L 398.344563 186.859838 
L 398.487273 190.063518 
L 398.252997 193.258377 
L 397.652279 196.374511 
L 396.715106 199.352814 
L 395.486337 202.153821 
L 394.02703 204.76947 
L 392.406509 207.226582 
L 390.669125 209.550213 
L 388.81453 211.721128 
L 385.856922 214.715416 
L 382.808946 217.558765 
L 379.632472 220.162996 
L 376.392698 222.637403 
L 368.63006 227.953616 
L 358.358396 234.04872 
L 352.549867 237.139567 
L 344.3884 241.374523 
L 334.930704 245.785456 
L 327.804929 248.976174 
L 315.758507 253.631934 
L 309.693335 255.774636 
L 303.570989 257.634019 
L 296.173879 259.576752 
L 289.974285 260.957657 
L 282.500029 262.32355 
L 252.53143 267.194291 
L 235.0299 269.834736 
L 216.27716 272.648577 
L 160.01012 281.002384 
L 121.26767 286.963733 
L 105.043482 289.689706 
L 90.065544 292.184874 
L 73.832727 294.816402 
L 73.832727 294.816402 
" style="fill:none;stroke:#ff7f0e;stroke-linecap:square;stroke-width:1.5;"/>
   </g>
   <g id="patch_3">
    <path d="M 57.6 307.584 
L 57.6 41.472 
" style="fill:none;stroke:#000000;stroke-linecap:square;stroke-linejoin:miter;stroke-width:0.8;"/>
   </g>
   <g id="patch_4">
    <path d="M 414.72 307.584 
L 414.72 41.472 
" style="fill:none;stroke:#000000;stroke-linecap:square;stroke-linejoin:miter;stroke-width:0.8;"/>
   </g>
   <g id="patch_5">
    <path d="M 57.6 307.584 
L 414.72 307.584 
" style="fill:none;stroke:#000000;stroke-linecap:square;stroke-linejoin:miter;stroke-width:0.8;"/>
   </g>
   <g id="patch_6">
    <path d="M 57.6 41.472 
L 414.72 41.472 
" style="fill:none;stroke:#000000;stroke-linecap:square;stroke-linejoin:miter;stroke-width:0.8;"/>
   </g>
   <g id="legend_1">
    <g id="patch_7">
     <path d="M 69.7225 38.91145 
L 402.5975 38.91145 
Q 404.5975 38.91145 404.5975 36.91145 
L 404.5975 8.5552 
Q 404.5975 6.5552 402.5975 6.5552 
L 69.7225 6.5552 
Q 67.7225 6.5552 67.7225 8.5552 
L 67.7225 36.91145 
Q 67.7225 38.91145 69.7225 38.91145 
z
" style="fill:#ffffff;opacity:0.8;stroke:#cccccc;stroke-linejoin:miter;"/>
    </g>
    <g id="line2d_30">
     <path d="M 71.7225 14.653638 
L 91.7225 14.653638 
" style="fill:none;stroke:#1f77b4;stroke-linecap:square;stroke-width:1.5;"/>
    </g>
    <g id="line2d_31"/>
    <g id="text_16">
     <!-- Initial Experimental Contour -->
     <g transform="translate(99.7225 18.153638)scale(0.1 -0.1)">
      <defs>
       <path d="M 628 4666 
L 1259 4666 
L 1259 0 
L 628 0 
L 628 4666 
z
" id="DejaVuSans-49" transform="scale(0.015625)"/>
       <path d="M 2194 1759 
Q 1497 1759 1228 1600 
Q 959 1441 959 1056 
Q 959 750 1161 570 
Q 1363 391 1709 391 
Q 2188 391 2477 730 
Q 2766 1069 2766 1631 
L 2766 1759 
L 2194 1759 
z
M 3341 1997 
L 3341 0 
L 2766 0 
L 2766 531 
Q 2569 213 2275 61 
Q 1981 -91 1556 -91 
Q 1019 -91 701 211 
Q 384 513 384 1019 
Q 384 1609 779 1909 
Q 1175 2209 1959 2209 
L 2766 2209 
L 2766 2266 
Q 2766 2663 2505 2880 
Q 2244 3097 1772 3097 
Q 1472 3097 1187 3025 
Q 903 2953 641 2809 
L 641 3341 
Q 956 3463 1253 3523 
Q 1550 3584 1831 3584 
Q 2591 3584 2966 3190 
Q 3341 2797 3341 1997 
z
" id="DejaVuSans-61" transform="scale(0.015625)"/>
       <path d="M 603 4863 
L 1178 4863 
L 1178 0 
L 603 0 
L 603 4863 
z
" id="DejaVuSans-6c" transform="scale(0.015625)"/>
       <path d="M 628 4666 
L 3578 4666 
L 3578 4134 
L 1259 4134 
L 1259 2753 
L 3481 2753 
L 3481 2222 
L 1259 2222 
L 1259 531 
L 3634 531 
L 3634 0 
L 628 0 
L 628 4666 
z
" id="DejaVuSans-45" transform="scale(0.015625)"/>
       <path d="M 3513 3500 
L 2247 1797 
L 3578 0 
L 2900 0 
L 1881 1375 
L 863 0 
L 184 0 
L 1544 1831 
L 300 3500 
L 978 3500 
L 1906 2253 
L 2834 3500 
L 3513 3500 
z
" id="DejaVuSans-78" transform="scale(0.015625)"/>
       <path d="M 1159 525 
L 1159 -1331 
L 581 -1331 
L 581 3500 
L 1159 3500 
L 1159 2969 
Q 1341 3281 1617 3432 
Q 1894 3584 2278 3584 
Q 2916 3584 3314 3078 
Q 3713 2572 3713 1747 
Q 3713 922 3314 415 
Q 2916 -91 2278 -91 
Q 1894 -91 1617 61 
Q 1341 213 1159 525 
z
M 3116 1747 
Q 3116 2381 2855 2742 
Q 2594 3103 2138 3103 
Q 1681 3103 1420 2742 
Q 1159 2381 1159 1747 
Q 1159 1113 1420 752 
Q 1681 391 2138 391 
Q 2594 391 2855 752 
Q 3116 1113 3116 1747 
z
" id="DejaVuSans-70" transform="scale(0.015625)"/>
       <path d="M 4122 4306 
L 4122 3641 
Q 3803 3938 3442 4084 
Q 3081 4231 2675 4231 
Q 1875 4231 1450 3742 
Q 1025 3253 1025 2328 
Q 1025 1406 1450 917 
Q 1875 428 2675 428 
Q 3081 428 3442 575 
Q 3803 722 4122 1019 
L 4122 359 
Q 3791 134 3420 21 
Q 3050 -91 2638 -91 
Q 1578 -91 968 557 
Q 359 1206 359 2328 
Q 359 3453 968 4101 
Q 1578 4750 2638 4750 
Q 3056 4750 3426 4639 
Q 3797 4528 4122 4306 
z
" id="DejaVuSans-43" transform="scale(0.015625)"/>
       <path d="M 544 1381 
L 544 3500 
L 1119 3500 
L 1119 1403 
Q 1119 906 1312 657 
Q 1506 409 1894 409 
Q 2359 409 2629 706 
Q 2900 1003 2900 1516 
L 2900 3500 
L 3475 3500 
L 3475 0 
L 2900 0 
L 2900 538 
Q 2691 219 2414 64 
Q 2138 -91 1772 -91 
Q 1169 -91 856 284 
Q 544 659 544 1381 
z
M 1991 3584 
L 1991 3584 
z
" id="DejaVuSans-75" transform="scale(0.015625)"/>
      </defs>
      <use xlink:href="#DejaVuSans-49"/>
      <use x="29.492188" xlink:href="#DejaVuSans-6e"/>
      <use x="92.871094" xlink:href="#DejaVuSans-69"/>
      <use x="120.654297" xlink:href="#DejaVuSans-74"/>
      <use x="159.863281" xlink:href="#DejaVuSans-69"/>
      <use x="187.646484" xlink:href="#DejaVuSans-61"/>
      <use x="248.925781" xlink:href="#DejaVuSans-6c"/>
      <use x="276.708984" xlink:href="#DejaVuSans-20"/>
      <use x="308.496094" xlink:href="#DejaVuSans-45"/>
      <use x="371.679688" xlink:href="#DejaVuSans-78"/>
      <use x="430.859375" xlink:href="#DejaVuSans-70"/>
      <use x="494.335938" xlink:href="#DejaVuSans-65"/>
      <use x="555.859375" xlink:href="#DejaVuSans-72"/>
      <use x="596.972656" xlink:href="#DejaVuSans-69"/>
      <use x="624.755859" xlink:href="#DejaVuSans-6d"/>
      <use x="722.167969" xlink:href="#DejaVuSans-65"/>
      <use x="783.691406" xlink:href="#DejaVuSans-6e"/>
      <use x="847.070312" xlink:href="#DejaVuSans-74"/>
      <use x="886.279297" xlink:href="#DejaVuSans-61"/>
      <use x="947.558594" xlink:href="#DejaVuSans-6c"/>
      <use x="975.341797" xlink:href="#DejaVuSans-20"/>
      <use x="1007.128906" xlink:href="#DejaVuSans-43"/>
      <use x="1076.953125" xlink:href="#DejaVuSans-6f"/>
      <use x="1138.134766" xlink:href="#DejaVuSans-6e"/>
      <use x="1201.513672" xlink:href="#DejaVuSans-74"/>
      <use x="1240.722656" xlink:href="#DejaVuSans-6f"/>
      <use x="1301.904297" xlink:href="#DejaVuSans-75"/>
      <use x="1365.283203" xlink:href="#DejaVuSans-72"/>
     </g>
    </g>
    <g id="line2d_32">
     <path d="M 71.7225 29.331763 
L 91.7225 29.331763 
" style="fill:none;stroke:#000000;stroke-linecap:square;stroke-width:1.5;"/>
    </g>
    <g id="line2d_33"/>
    <g id="text_17">
     <!-- Initial Experimental Camberline -->
     <g transform="translate(99.7225 32.831763)scale(0.1 -0.1)">
      <defs>
       <path d="M 3116 1747 
Q 3116 2381 2855 2742 
Q 2594 3103 2138 3103 
Q 1681 3103 1420 2742 
Q 1159 2381 1159 1747 
Q 1159 1113 1420 752 
Q 1681 391 2138 391 
Q 2594 391 2855 752 
Q 3116 1113 3116 1747 
z
M 1159 2969 
Q 1341 3281 1617 3432 
Q 1894 3584 2278 3584 
Q 2916 3584 3314 3078 
Q 3713 2572 3713 1747 
Q 3713 922 3314 415 
Q 2916 -91 2278 -91 
Q 1894 -91 1617 61 
Q 1341 213 1159 525 
L 1159 0 
L 581 0 
L 581 4863 
L 1159 4863 
L 1159 2969 
z
" id="DejaVuSans-62" transform="scale(0.015625)"/>
      </defs>
      <use xlink:href="#DejaVuSans-49"/>
      <use x="29.492188" xlink:href="#DejaVuSans-6e"/>
      <use x="92.871094" xlink:href="#DejaVuSans-69"/>
      <use x="120.654297" xlink:href="#DejaVuSans-74"/>
      <use x="159.863281" xlink:href="#DejaVuSans-69"/>
      <use x="187.646484" xlink:href="#DejaVuSans-61"/>
      <use x="248.925781" xlink:href="#DejaVuSans-6c"/>
      <use x="276.708984" xlink:href="#DejaVuSans-20"/>
      <use x="308.496094" xlink:href="#DejaVuSans-45"/>
      <use x="371.679688" xlink:href="#DejaVuSans-78"/>
      <use x="430.859375" xlink:href="#DejaVuSans-70"/>
      <use x="494.335938" xlink:href="#DejaVuSans-65"/>
      <use x="555.859375" xlink:href="#DejaVuSans-72"/>
      <use x="596.972656" xlink:href="#DejaVuSans-69"/>
      <use x="624.755859" xlink:href="#DejaVuSans-6d"/>
      <use x="722.167969" xlink:href="#DejaVuSans-65"/>
      <use x="783.691406" xlink:href="#DejaVuSans-6e"/>
      <use x="847.070312" xlink:href="#DejaVuSans-74"/>
      <use x="886.279297" xlink:href="#DejaVuSans-61"/>
      <use x="947.558594" xlink:href="#DejaVuSans-6c"/>
      <use x="975.341797" xlink:href="#DejaVuSans-20"/>
      <use x="1007.128906" xlink:href="#DejaVuSans-43"/>
      <use x="1076.953125" xlink:href="#DejaVuSans-61"/>
      <use x="1138.232422" xlink:href="#DejaVuSans-6d"/>
      <use x="1235.644531" xlink:href="#DejaVuSans-62"/>
      <use x="1299.121094" xlink:href="#DejaVuSans-65"/>
      <use x="1360.644531" xlink:href="#DejaVuSans-72"/>
      <use x="1401.757812" xlink:href="#DejaVuSans-6c"/>
      <use x="1429.541016" xlink:href="#DejaVuSans-69"/>
      <use x="1457.324219" xlink:href="#DejaVuSans-6e"/>
      <use x="1520.703125" xlink:href="#DejaVuSans-65"/>
     </g>
    </g>
    <g id="line2d_34">
     <path d="M 277.945938 14.653638 
L 297.945938 14.653638 
" style="fill:none;stroke:#ff7f0e;stroke-linecap:square;stroke-width:1.5;"/>
    </g>
    <g id="line2d_35"/>
    <g id="text_18">
     <!-- Initial FEM Contour -->
     <g transform="translate(305.945938 18.153638)scale(0.1 -0.1)">
      <defs>
       <path d="M 628 4666 
L 3309 4666 
L 3309 4134 
L 1259 4134 
L 1259 2759 
L 3109 2759 
L 3109 2228 
L 1259 2228 
L 1259 0 
L 628 0 
L 628 4666 
z
" id="DejaVuSans-46" transform="scale(0.015625)"/>
       <path d="M 628 4666 
L 1569 4666 
L 2759 1491 
L 3956 4666 
L 4897 4666 
L 4897 0 
L 4281 0 
L 4281 4097 
L 3078 897 
L 2444 897 
L 1241 4097 
L 1241 0 
L 628 0 
L 628 4666 
z
" id="DejaVuSans-4d" transform="scale(0.015625)"/>
      </defs>
      <use xlink:href="#DejaVuSans-49"/>
      <use x="29.492188" xlink:href="#DejaVuSans-6e"/>
      <use x="92.871094" xlink:href="#DejaVuSans-69"/>
      <use x="120.654297" xlink:href="#DejaVuSans-74"/>
      <use x="159.863281" xlink:href="#DejaVuSans-69"/>
      <use x="187.646484" xlink:href="#DejaVuSans-61"/>
      <use x="248.925781" xlink:href="#DejaVuSans-6c"/>
      <use x="276.708984" xlink:href="#DejaVuSans-20"/>
      <use x="308.496094" xlink:href="#DejaVuSans-46"/>
      <use x="366.015625" xlink:href="#DejaVuSans-45"/>
      <use x="429.199219" xlink:href="#DejaVuSans-4d"/>
      <use x="515.478516" xlink:href="#DejaVuSans-20"/>
      <use x="547.265625" xlink:href="#DejaVuSans-43"/>
      <use x="617.089844" xlink:href="#DejaVuSans-6f"/>
      <use x="678.271484" xlink:href="#DejaVuSans-6e"/>
      <use x="741.650391" xlink:href="#DejaVuSans-74"/>
      <use x="780.859375" xlink:href="#DejaVuSans-6f"/>
      <use x="842.041016" xlink:href="#DejaVuSans-75"/>
      <use x="905.419922" xlink:href="#DejaVuSans-72"/>
     </g>
    </g>
   </g>
  </g>
 </g>
 <defs>
  <clipPath id="pa45cb9a967">
   <rect height="266.112" width="357.12" x="57.6" y="41.472"/>
  </clipPath>
 </defs>
</svg>
